<svg id="Capa_1" data-name="Capa 1" xmlns="http://www.w3.org/2000/svg" xmlns:xlink="http://www.w3.org/1999/xlink" viewBox="0 0 500 500"><defs><style>.cls-1{fill:url(#Degradado_sin_nombre_11);}.cls-2{fill:url(#Degradado_sin_nombre_11-2);}.cls-3{fill:url(#Degradado_sin_nombre_11-3);}.cls-4{fill:url(#Degradado_sin_nombre_11-4);}.cls-5{fill:url(#Degradado_sin_nombre_11-5);}</style><linearGradient id="Degradado_sin_nombre_11" x1="73.38" y1="148.56" x2="425.17" y2="148.56" gradientUnits="userSpaceOnUse"><stop offset="0" stop-color="#74aa62"/><stop offset="0.47" stop-color="#3eab92"/><stop offset="1" stop-color="#19acc1"/></linearGradient><linearGradient id="Degradado_sin_nombre_11-2" x1="67.56" y1="325.63" x2="431.14" y2="325.63" xlink:href="#Degradado_sin_nombre_11"/><linearGradient id="Degradado_sin_nombre_11-3" x1="208.05" y1="124.47" x2="291.27" y2="124.47" xlink:href="#Degradado_sin_nombre_11"/><linearGradient id="Degradado_sin_nombre_11-4" x1="103.33" y1="177.69" x2="161.44" y2="177.69" xlink:href="#Degradado_sin_nombre_11"/><linearGradient id="Degradado_sin_nombre_11-5" x1="336.98" y1="177.63" x2="395.39" y2="177.63" xlink:href="#Degradado_sin_nombre_11"/></defs><path class="cls-1" d="M304,62.14c5.85,1.93,11.37,4.36,15.3,9.43A24.7,24.7,0,0,1,325,87q0,17.58,0,35.18v4.47h77.35c14.48,0,22.78,8.27,22.79,22.71q0,23.76,0,47.52c0,13.92-8.46,22.33-22.36,22.38-5.49,0-11.56-1.36-16.29.54s-8.13,7.1-12.06,10.9c-5.83,5.62-10.81,5.63-16.54.05-3.92-3.82-7.3-9-12-11s-10.55-.52-15.92-.53c-14.71,0-22.9-8.21-22.91-22.93V179.67c-10.93,0-21.58-.11-32.23.12-1.59,0-3.46,1.39-4.67,2.64-3.9,4-7.53,8.33-11.3,12.48-5.6,6.19-12.92,6.15-18.43-.07-3.39-3.83-6.87-7.58-10.1-11.54a9.57,9.57,0,0,0-8.46-3.71c-5.86.21-11.73.15-17.59,0-4.09-.09-8.17-.46-12.86-.74,0,2.91,0,6.19,0,9.47a126.1,126.1,0,0,1-.38,13.06c-1.29,10.53-9.49,17.67-20.15,17.85-5.23.09-10.48-.14-15.71.12a8.45,8.45,0,0,0-4.84,2c-3.56,3.12-6.8,6.6-10.23,9.87-5.23,5-10.28,5-15.41,0-3.14-3-6.3-6.06-9.24-9.28a7.9,7.9,0,0,0-6.52-2.76c-6.23.09-12.55.43-18.66-.48C80,217.2,73.45,208.94,73.41,198.56q-.07-25.26,0-50.52c0-12.67,8.66-21.31,21.45-21.34,24.82-.06,49.65,0,74.48,0h4.9v-4.36q0-15.9,0-31.81c0-15,5.72-22.89,20-27.82.19-.07.3-.36.44-.55h35.2C232,64.31,234,66.65,232.57,70s-4.41,3.49-7.56,3.45c-7.85-.1-15.71-.06-23.57,0-9.92,0-15.8,5.93-15.81,15.83q0,31.42,0,62.86c0,10.4,5.69,16.11,16.19,16.2,6.61.06,13.23.26,19.83-.05,7.5-.35,13.25,2.44,17.89,8.21,3.18,3.95,6.67,7.65,10.15,11.61,4-4.51,7.88-8.76,11.66-13.07a18.36,18.36,0,0,1,14.78-6.71c7.23.11,14.47.1,21.7,0,10.17-.14,15.9-6,15.9-16.19q0-31.25,0-62.49c0-10.31-5.89-16.2-16.24-16.22-14,0-27.95-.05-41.92,0-3.21,0-6.07-.34-7.32-3.78s.73-5.64,3.32-7.48ZM132.64,223.69c3.62-4,6.73-7.36,9.81-10.77a15.44,15.44,0,0,1,12.33-5.17c5.11.09,10.23.11,15.34,0,6.58-.16,9.64-3.25,9.68-9.71q.07-12.92,0-25.82a6.53,6.53,0,0,0-.9-3.48c-3.55-5.14-4.82-10.83-4.67-17,.11-4.33,0-8.67,0-13.09a22.84,22.84,0,0,0-2.57-.33q-38.74,0-77.48,0c-6,0-9.33,3.39-9.37,9.69q-.15,24.89,0,49.77c0,6.62,3.32,9.81,9.94,10,4.87.11,9.74.16,14.6,0A16.48,16.48,0,0,1,123,213.37C125.88,216.62,128.92,219.72,132.64,223.69Zm233.89,0c3.61-4,6.76-7.51,9.94-11a14.83,14.83,0,0,1,11.68-4.89c5,0,10,0,15,0,7.44-.09,10.42-3.06,10.43-10.49q.06-24.12,0-48.26c0-7.94-2.83-10.7-10.89-10.7q-36.86,0-73.71,0c-1.2,0-2.4.13-3.93.23,0,5-.09,9.7,0,14.41a26.3,26.3,0,0,1-5.14,16.43,7,7,0,0,0-1.23,3.74q-.15,12.34,0,24.69c.08,6.77,3.11,9.79,9.88,9.93q7.47.16,15,0a16,16,0,0,1,13,5.38C359.47,216.43,362.63,219.58,366.53,223.65Z"/><path class="cls-2" d="M95.28,318.46c8-8.25,17.16-13.3,27.08-17.35,8.47-3.45,14.57-9.55,17-18.64,1.9-7.23-1.42-11.93-8.8-13-7-1-13.58.61-19.88,3.7-1.42.7-3.31,1.8-4.47,1.36-2-.74-4.48-2.29-5-4s.57-5.16,2-6c11-6.33,22.66-9.44,35-4.51,3.62,1.45,6.8,4.5,9.56,7.41,1.56,1.64,2.71,2.27,4.9,2.18,17.8-.68,30.57,11.25,31.6,29.11.65,11.31-2.17,21.73-7.57,31.51-.91,1.65-2.69,2.8-4,4.26a10.06,10.06,0,0,0-2,2.89,69.26,69.26,0,0,1-15.31,24.13,7.7,7.7,0,0,0-1.89,4.47c-.26,3.85,0,7.74-.13,11.6-.07,2,.45,3.14,2.48,3.91,5.93,2.26,11.72,4.88,17.67,7.08,1.12.41,2.91-.14,4.06-.81,3.61-2.14,6.83-5.06,10.62-6.75,10.57-4.7,21.28-9.09,32.07-13.25,3.29-1.27,4.29-2.94,4.08-6.29-.3-4.6.09-9.24-.17-13.84a8.6,8.6,0,0,0-2-4.46c-2.07-2.64-4.58-4.94-6.67-7.56-2.48-3.11-2.17-6.51.49-8.6s5.9-1.63,8.43,1.59c4.55,5.82,9.88,10.59,17.1,12.74,11.84,3.52,23.73-1,32.4-12.39,8.89-11.72,12.55-25.33,13.32-39.76.11-2-1.46-4.38-2.9-6-3.41-3.88-7.2-7.43-10.88-11.08a3.84,3.84,0,0,0-1.74-1.05c-4.79-1-9.59-2-14.94-3.06C252,274.53,245,279.75,236,280.86c-5.35.66-9.83,1.86-13.77,5.7-2,1.91-5,2.78-7.48,4.16-2.06,1.13-3.08,2.64-2.46,5.21.82,3.38,1.37,6.83,1.86,10.27.56,3.86-1.07,6.42-4.31,7.15a5.81,5.81,0,0,1-6.75-5,23,23,0,0,0-8.52-15.59c-5.63-4.65-7.06-11.84-7.3-19a30.07,30.07,0,0,0-3.16-13.46c-7.83-15.14.08-33.44,16.31-38.74a7.71,7.71,0,0,0,5-4.32,21.15,21.15,0,0,1,29.49-8.56,5.35,5.35,0,0,0,5.4.44c10.57-4.28,22-.91,29,8.25.68.89,1.3,1.81,1.38,1.93,5.54,0,10.58-.81,15.26.17,9.62,2,15.92,10.58,15.75,20.47,0,2.64.62,4.17,2.91,5.69,7.49,5,10.5,14,7.91,23.06-2.5,8.7-5.83,17-12.76,23.28a5.71,5.71,0,0,0-1.23,3.33c-1.54,12-4.5,23.53-10.94,33.83-3.07,4.92-7.23,9.16-10.75,13.81a8.67,8.67,0,0,0-2,4.41c-.24,5.35-.17,10.72,0,16.09,0,1,.55,2.7,1.3,3,9.46,4,19,7.91,29,12,.09-1.83.2-3.13.21-4.43.06-19.09,0-38.18.22-57.27.16-11.26,4.09-21.43,10.36-30.71,2.16-3.2,5.23-4,8-2.21s3.6,5.23,1.41,8.5c-6.47,9.68-8.86,20.34-8.71,31.89.25,18.84.06,37.68.07,56.52a7.76,7.76,0,0,0,10.46,7.08c5.18-2.13,10.32-4.35,15.55-6.34,2-.75,2.46-1.83,2.59-3.86A16.89,16.89,0,0,0,341,364.54a61.07,61.07,0,0,1-14.69-36.05c-.39-5.66,1.09-7.73,6.51-9,4-.92,8-1.68,12-2.75,14.77-4,24.46-13.35,28.94-28,2.24-7.31,5.1-8.61,11.77-4.83,12.11,6.86,18.09,17.82,20.29,31.1,3.31,20-3.22,37.1-16,52.1-3.49,4.08-1.52,8.5-1.83,12.79,0,.32.56.84,1,1,8.93,3.7,17.88,7.36,27.16,11.16.08-1.46.18-2.42.19-3.37,0-22.46.08-44.92,0-67.38-.12-24-15.32-43.61-38.21-49.18a48.51,48.51,0,0,0-32.48,3.14c-1.55.71-3.59,1.84-4.85,1.34a9.3,9.3,0,0,1-4.94-4.31c-1.15-2.66.35-5.38,3.1-6.37,6.18-2.23,12.36-5,18.77-5.91a60.62,60.62,0,0,1,67.87,45.05,62.16,62.16,0,0,1,2,15.12c.19,26.2.06,52.4.14,78.61,0,1.91.75,3.81,1.15,5.72.77,3.64,1.93,7.24,2.2,10.91.38,5.21.17,10.47.08,15.71-.18,9.13-5.47,14.27-14.59,14.27H82.07c-8.29,0-13.85-4.6-14.27-12.57A153.73,153.73,0,0,1,68,412c.8-9.52,6.14-16.13,14.87-19.87q12.53-5.36,25.21-10.35c2.23-.88,2.77-2.13,2.93-4.43.6-8.53.11-16.41-7.41-22.41-2.5-2-3.81-5.49-5.62-8.32-3-4.67-4.83-9.81-8.66-14.3s-5-11.48-6.43-17.58a50.32,50.32,0,0,1,.72-25.52c1.16-4.16,3.89-6.13,7.19-5.28s4.85,4,3.83,8.09C92.55,300.67,93,309.27,95.28,318.46Zm107.38-33.52c4-2.35,7.77-4.43,11.39-6.78,1.7-1.11,3.71-2.45,4.44-4.17,1.64-3.84,4.26-4.85,8-4.36a23.37,23.37,0,0,0,6.28.35c8.31-1.21,14.07-5.79,17.32-13.6,2.34-5.61,6.73-6.44,10.6-2s8.17,6.12,13.94,4.76c4.21-1,5.94.46,7.78,4.45a24.11,24.11,0,0,0,4.61,7.07c2.78,2.77,6.13,5,9.67,7.77,1.65-4.41,3.59-8.73,4.85-13.24,1.57-5.59-1.36-10.22-6.86-11.81-6.19-1.78-7.18-3.68-5.07-9.68,1.68-4.78.19-9.51-3.82-12.16s-8.57-2.18-12.35,1.2c-5.32,4.76-9.28,3.63-11-3.13-2.65-10.27-12.44-14-21.24-8.14-4,2.66-6.14,2.46-9.49-.85-6.28-6.21-15.2-3.82-17.26,4.8-.91,3.83-2.76,5.55-6.75,6.08C194.6,233.27,188.1,247,195.5,257.47a14.43,14.43,0,0,1,2.9,10,25.45,25.45,0,0,0,0,4.86C199,277,199.26,281.81,202.66,284.94Zm135.26,45c1.73,12.69,8.42,25.6,16.91,33.13,8.7,7.73,15.26,7.85,23.4-.41,12.32-12.49,19.07-27.24,16.36-45.23-1.23-8.14-4.26-15.44-11.18-21.11C374.77,316.5,359.16,327,337.92,329.9ZM94,399.83c8.41,11.25,16.49,22.13,24.71,32.91a5,5,0,0,0,3.47,1.43c6.6.14,13.21.22,19.8,0a7.83,7.83,0,0,0,5-2.26c6.5-7.22,12.89-14.54,19-22.06,2.22-2.71,3.64-6.06,5.64-9.5-7.7-3.2-14.3-6-21-8.62a4.32,4.32,0,0,0-3.33.59c-10.08,6.37-20.08,6.33-30.16,0a4.29,4.29,0,0,0-3.32-.57C107.37,394.22,101,396.94,94,399.83Zm42.36-93c-4.76,2.24-10.13,4.31-15,7.18-5.86,3.45-11.37,7.5-16.86,11.52a4.29,4.29,0,0,0-1.18,3.72c3.18,11.66,9.35,21.42,19.29,28.46,6.91,4.9,12.67,4.81,19.62-.18,8.9-6.4,14.52-15.18,18.27-25.38,1.22-3.28.89-5.4-1.94-7.58C151,318.76,143.63,312.69,136.37,306.86ZM259,434.08a112.48,112.48,0,0,1,21-53.49c-2.76-1.16-5.23-2.39-7.83-3.19a4.65,4.65,0,0,0-3.56.58c-12.35,8.59-25.9,8.61-38.3,0a3.87,3.87,0,0,0-2.84-.81c-2.87,1-5.64,2.26-8.69,3.53a112.78,112.78,0,0,1,20.86,53.39Zm58.77,0c0-9.36.17-18.44-.05-27.52-.17-7.23-4.18-12.06-10.66-14.88-4.34-1.89-8.81-3.46-13.09-5.45-2.27-1.05-3.73-.73-4.91,1.4-4.06,7.4-8.8,14.51-12,22.25-3.15,7.58-4.78,15.8-7.22,24.2Zm-90,0c-.26-13.31-10-37.91-18.75-47.29a3.54,3.54,0,0,0-3.08-.75c-5.22,2-10.42,4.07-15.49,6.42-5.23,2.43-8.69,6.84-9,12.44-.54,9.65-.15,19.34-.15,29.18ZM387.61,392.7c-.53,14.65-1.7,28.6-9.41,41.53h38.65c2.22,0,2.6-1.38,2.58-3.22-.05-5.73,0-11.46-.07-17.18-.09-4.46-2.11-8.25-6-10.1C405.1,399.83,396.57,396.5,387.61,392.7Zm-11.53-14.82c-6.85,3.32-13.1,2.83-19.67.05.77,18.57-1.46,36.94,10,53.31C377.84,414.75,375.69,396.44,376.08,377.88Zm-31,14.95c-5.25,2.17-10.08,4.06-14.8,6.21a3.53,3.53,0,0,0-1.54,2.75c.1,9.32.38,18.64.6,28,0,1.43,0,2.86,0,4.25h25.07C346.88,421.23,345.7,407.41,345.11,392.83ZM169.6,318.65c3.26-8.95,5.2-17.82,1.3-26.95-3.14-7.36-9.07-11.22-16.26-10.91-2.3.1-3.39.94-4.07,3.3a63.46,63.46,0,0,1-4.37,11c-.94,1.87-1,3.17.32,4.64a41.32,41.32,0,0,0,4.34,4.61C156.92,309.13,163.11,313.72,169.6,318.65Zm66.18,32.9c0,5.28-.11,9.89.08,14.48a4.77,4.77,0,0,0,1.74,3c6.5,5.27,17.43,5.2,24-.07.65-.53,1.57-1.28,1.59-1.94.14-5,.08-10,.08-15.62C253.83,354.79,245,354.53,235.78,351.55ZM83.59,405a12,12,0,0,0-4.35,9.37c0,5.48.08,11,0,16.44-.06,2.6.94,3.53,3.51,3.49,6.6-.11,13.2,0,19.8,0a17.58,17.58,0,0,0,2.62-.43c-7.05-9.44-13.81-18.52-20.58-27.59C84.24,405.8,83.93,405.41,83.59,405Zm39-34.23v5.93c0,6.08,1.44,8.25,7.39,8.65,3.28.22,6.73-1.05,10-2.06.94-.29,1.92-2,2-3.1.29-2.93.1-5.92.1-9.34C135.56,373.16,129.34,373.58,122.6,370.74ZM160.35,434h9.09v-10.5Z"/><path class="cls-3" d="M291.27,115c0,7.85-3.27,14.46-8,20.46-8,10.2-18.38,17.46-29.79,23.25a9.09,9.09,0,0,1-7.09.34c-13.44-6.59-25.81-14.69-33.85-27.85C202.69,115,209.69,95.5,227,90.38a23.87,23.87,0,0,1,19.1,2.13c2.54,1.42,4.24,1.58,6.93.1C270.14,83.15,291.29,95.66,291.27,115Zm-56.94-14.94c-6.6.82-12.18,4.92-14.18,10.94-2.06,6.21.13,11.56,3.61,16.48,6.27,8.88,15.11,14.72,24.49,19.79a4,4,0,0,0,3.32-.42c5-3.28,10.36-6.22,14.64-10.28a65.8,65.8,0,0,0,12-15c3.69-6.52,1.57-13.31-4-17.68-5.35-4.21-12.41-4.08-18.29.34-5,3.75-7.61,3.55-12.78,0C240.53,102.44,237.3,101.45,234.33,100.08Z"/><path class="cls-4" d="M123.51,152.74c5.19,2.91,11.85.83,18.72.26,13.07-1.08,22.37,12.11,18.2,24.57-2.52,7.54-7.78,13.05-14.07,17.46-14.41,10.09-13.35,10.1-28,.25-5.64-3.78-10.37-8.61-13.21-14.93C99.28,167.29,108.13,152.81,123.51,152.74ZM151,171.41c-1.74-2.3-2.93-4.62-4.78-6.12-2.47-2-5.52-1.64-7.94.31-4,3.23-7.69,3.17-11.79,0a7,7,0,0,0-10.2,1.54c-2.29,3.07-2.07,6.28-.27,9.43,3.54,6.18,9.25,10,15.21,13.39a3.47,3.47,0,0,0,3-.53A117.77,117.77,0,0,0,146,179.83C148.08,177.76,149.13,174.67,151,171.41Z"/><path class="cls-5" d="M337,173.3c-.08-15.12,14.08-24.37,26.82-19a6.7,6.7,0,0,0,4.65,0c7.57-3.09,15.36-1.78,21.07,3.81s7.69,13.58,4,20.87A50.58,50.58,0,0,1,383.7,192c-3.7,3.59-8.42,6.13-12.74,9-3.08,2.07-6.22,2-9.49.21-7-3.89-13.6-8.29-18.71-14.61C339.32,182.33,337.15,177.54,337,173.3Zm11.36-1.25a3.8,3.8,0,0,0,.35,1.53c2.54,3.59,4.52,7.93,7.85,10.52,10.81,8.41,8.2,8.26,19.06-.2a31.38,31.38,0,0,0,7.39-9.18c1.72-3,1-6.37-1.85-8.74s-6-2.79-8.91-.49c-4.31,3.44-8.05,3-12.44-.08C355,162,348.46,165.89,348.34,172.05Z"/></svg>