<svg id="Capa_1" data-name="Capa 1" xmlns="http://www.w3.org/2000/svg" xmlns:xlink="http://www.w3.org/1999/xlink" viewBox="0 0 500 500"><defs><style>.cls-1{fill:url(#Degradado_sin_nombre_11);}.cls-2{fill:url(#Degradado_sin_nombre_11-2);}.cls-3{fill:url(#Degradado_sin_nombre_11-3);}.cls-4{fill:url(#Degradado_sin_nombre_11-4);}.cls-5{fill:url(#Degradado_sin_nombre_11-5);}.cls-6{fill:url(#Degradado_sin_nombre_11-6);}.cls-7{fill:url(#Degradado_sin_nombre_11-7);}.cls-8{fill:url(#Degradado_sin_nombre_11-8);}.cls-9{fill:url(#Degradado_sin_nombre_11-9);}.cls-10{fill:url(#Degradado_sin_nombre_11-10);}.cls-11{fill:url(#Degradado_sin_nombre_11-11);}.cls-12{fill:url(#Degradado_sin_nombre_11-12);}</style><linearGradient id="Degradado_sin_nombre_11" x1="140.12" y1="253.8" x2="382.93" y2="253.8" gradientUnits="userSpaceOnUse"><stop offset="0" stop-color="#74aa62"/><stop offset="0.47" stop-color="#3eab92"/><stop offset="1" stop-color="#19acc1"/></linearGradient><linearGradient id="Degradado_sin_nombre_11-2" x1="101.55" y1="289.29" x2="124.99" y2="289.29" xlink:href="#Degradado_sin_nombre_11"/><linearGradient id="Degradado_sin_nombre_11-3" x1="73.43" y1="224.79" x2="98.86" y2="224.79" xlink:href="#Degradado_sin_nombre_11"/><linearGradient id="Degradado_sin_nombre_11-4" x1="424.31" y1="224.8" x2="449.69" y2="224.8" xlink:href="#Degradado_sin_nombre_11"/><linearGradient id="Degradado_sin_nombre_11-5" x1="101.08" y1="90.57" x2="124.79" y2="90.57" xlink:href="#Degradado_sin_nombre_11"/><linearGradient id="Degradado_sin_nombre_11-6" x1="73.46" y1="154.96" x2="98.88" y2="154.96" xlink:href="#Degradado_sin_nombre_11"/><linearGradient id="Degradado_sin_nombre_11-7" x1="424.23" y1="154.94" x2="449.62" y2="154.94" xlink:href="#Degradado_sin_nombre_11"/><linearGradient id="Degradado_sin_nombre_11-8" x1="398.46" y1="289.19" x2="421.97" y2="289.19" xlink:href="#Degradado_sin_nombre_11"/><linearGradient id="Degradado_sin_nombre_11-9" x1="398.35" y1="90.77" x2="422.21" y2="90.77" xlink:href="#Degradado_sin_nombre_11"/><linearGradient id="Degradado_sin_nombre_11-10" x1="267.81" y1="135.55" x2="338.45" y2="135.55" xlink:href="#Degradado_sin_nombre_11"/><linearGradient id="Degradado_sin_nombre_11-11" x1="184.78" y1="135.62" x2="255.24" y2="135.62" xlink:href="#Degradado_sin_nombre_11"/><linearGradient id="Degradado_sin_nombre_11-12" x1="166" y1="238.38" x2="204.23" y2="238.38" xlink:href="#Degradado_sin_nombre_11"/></defs><path class="cls-1" d="M203.92,381.68c-4.07,0-7.78,0-11.48,0-4.64-.07-7.57-2.59-7.64-6.46s2.85-6.43,7.48-6.62c1.87-.08,3.75,0,5.62,0h5.76c1-16-.22-31.35-6.1-46.11a97.66,97.66,0,0,0-21-32.88c-17.77-18.07-29.59-39.25-34.42-64.22A120.1,120.1,0,0,1,140.82,190a21.79,21.79,0,0,0,0-5.59c-2.62-16.67,2.9-29.9,16.77-39.48a4.14,4.14,0,0,0,2.07-4.58c-3-21,11.86-41.79,33.12-45.39,5-.86,7.6-2.79,10.08-7.27,11.06-19.89,37.15-25.29,55.62-12,1,.71,2,1.44,3.09,2.25,6.21-5,13-8.34,20.93-9.24a38.32,38.32,0,0,1,39.37,21.94c1.14,2.46,2.36,3.52,5.16,3.71,17.64,1.18,34.26,17.26,36.28,34.88.23,2,1,4.11.51,5.93-1.54,6,1.17,9.29,5.74,13.08,11.11,9.21,15,21.53,12.76,35.88-.53,3.36.24,6.93.42,10.4q2.82,54.71-35.36,94c-19.07,19.68-28.42,43.21-28.24,70.57,0,3,0,5.95,0,9.47,3.84,0,7.4,0,11,0,5.17.08,8.27,2.67,8.15,6.72s-3.11,6.33-8.1,6.37c-3.24,0-6.49,0-9.73.05a9.06,9.06,0,0,0-1.28.28c0,3.42,0,7,0,10.55,0,11.67-5.87,18.67-17.22,20.84a3.81,3.81,0,0,0-2.51,2.05c-4.65,14.9-16.32,20.72-30.3,23.05a46.27,46.27,0,0,1-30.75-5.15c-7-3.89-12.19-9.34-14.53-17.27a4.77,4.77,0,0,0-3.17-2.71c-10-1.68-16.64-9.26-16.74-19.41C203.88,390,203.92,386,203.92,381.68Zm12.83-32.35h89.47c.48-3.59.81-6.93,1.39-10.24,4.12-23.82,14.94-44.13,32-61.23a100.8,100.8,0,0,0,19.79-28.4c8.85-18.77,12.42-38.43,9.8-59.43H234.64c-3.49,0-7,.05-10.48,0-4.5-.09-7.54-2.84-7.47-6.64S219.56,177,224,177c8.86-.13,17.72,0,26.58-.06,1.33,0,2.66-.12,4.35-.19,0-6-.22-11.71.12-17.4.13-2.17,1-4.95,2.54-6.19s4.45-1.44,6.48-.95c3,.73,4,3.57,4,6.51.06,5.95,0,11.9,0,18H369.79c.41-9.55-5.83-18.89-15.2-23-5.34-2.34-6.41-4.47-5-9.88,5.18-19.66-8.29-37-28.62-36.82-6.44,0-7.39-.79-9.38-7.12-3.07-9.72-9.64-16-19.64-18-9.36-1.84-17.52,1-24,8.12-4.75,5.24-8.16,5.25-12.9,0-6.47-7.14-14.61-10-24-8.13-9.85,1.92-16.4,8.06-19.54,17.59-2.33,7-2.78,7.5-10.24,7.48a28.54,28.54,0,0,0-28.18,35.74c1.73,7,1.07,8.36-5.34,11.32-9,4.12-14.92,13.33-14.52,22.89h4c8.86,0,17.72-.08,26.57,0,4.77.06,7.41,2.6,7.35,6.63s-2.86,6.39-7.57,6.42c-8.61.05-17.22,0-25.83,0h-3.9c0,9.37-.92,18.31.18,27,3.06,24.26,13.83,44.91,30.87,62.49C203.71,298.89,214.49,322.08,216.75,349.33Zm.11,13.13c0,10.34-.05,20.29,0,30.24,0,5.79,2.18,7.83,8,7.83q36.64,0,73.29,0c5.81,0,8-2,8-7.81.08-9.22,0-18.44,0-27.66a19.73,19.73,0,0,0-.36-2.6Zm20,51.29c4.21,8.77,16,13.58,29.17,12.15,9.95-1.08,19.39-6.95,19.64-12.15Z"/><path class="cls-2" d="M106.46,299.63c-1.34-1.16-4.06-2.4-4.64-4.29-.64-2.07-.12-5.67,1.34-7a68.92,68.92,0,0,1,12.56-8.6c2.85-1.59,5.92-.79,7.89,2.05,1.83,2.64,2,5.87-.45,7.82-4.33,3.47-9.19,6.27-13.87,9.3A12.54,12.54,0,0,1,106.46,299.63Z"/><path class="cls-3" d="M91.1,217.09c4.35,0,7,2.16,7.66,5.39a6.32,6.32,0,0,1-4.25,7.07c-4.69,1.2-9.46,2.14-14.24,2.87a6.23,6.23,0,0,1-6.65-4.83c-.74-3.36.66-6.56,3.93-7.48C82.32,218.76,87.23,217.93,91.1,217.09Z"/><path class="cls-4" d="M432.14,217.12c3.86.83,8.64,1.64,13.29,2.94,3.35.93,4.79,4,4.09,7.36a6.2,6.2,0,0,1-6.87,5c-4.53-.7-9-1.61-13.51-2.71a6.25,6.25,0,0,1-4.75-7.06C424.94,219.22,427.69,217,432.14,217.12Z"/><path class="cls-5" d="M124.79,93c.13,6-5.05,9.3-9.45,6.81a120.68,120.68,0,0,1-11.82-7.87,6.31,6.31,0,0,1-1.46-8.39,6.16,6.16,0,0,1,8.5-2.15,123,123,0,0,1,11.81,7.87C123.71,90.29,124.33,92.26,124.79,93Z"/><path class="cls-6" d="M90.77,162.5c-3.68-.75-8.34-1.52-12.9-2.69-3.26-.84-4.85-3.92-4.3-7.31a5.71,5.71,0,0,1,6.33-5,118.69,118.69,0,0,1,14.59,2.76,6.12,6.12,0,0,1,4.29,7C98.12,160.6,95.39,162.65,90.77,162.5Z"/><path class="cls-7" d="M441.79,147.37c4.65,0,7.13,1.93,7.69,5,.62,3.44-.81,6.5-4.15,7.36a109.66,109.66,0,0,1-14.59,2.75c-3.45.41-5.53-1.86-6.34-5.11a5.91,5.91,0,0,1,4.06-7.06C433.23,149,438.13,148.15,441.79,147.37Z"/><path class="cls-8" d="M405.63,279.19a14.73,14.73,0,0,1,2.95,1.2c3.46,2.19,6.9,4.43,10.23,6.82s4.06,6.17,2.09,9.11-5.7,3.78-9.15,1.62-7.11-4.57-10.55-7a6.06,6.06,0,0,1-2.35-7.27C399.82,280.81,402,279.26,405.63,279.19Z"/><path class="cls-9" d="M404.06,101.16c-1.69-1.57-3.85-2.88-5-4.79a5.27,5.27,0,0,1,1.56-7,113.27,113.27,0,0,1,12.08-8.06,5.79,5.79,0,0,1,8,1.81c1.94,2.6,2.16,5.85-.23,7.83-4.18,3.45-8.93,6.22-13.5,9.2-.56.37-1.45.23-2.19.32Z"/><path class="cls-10" d="M293.91,144.85c4.08.77,6.9.59,9.24-3.73,4.12-7.58,13.61-10.54,21.81-7.9s13.77,10.49,13.48,18.7a19.58,19.58,0,0,1-14.95,18.36A19.26,19.26,0,0,1,302.4,161c-.56-1-1-2-1.64-3.13-4.19,0-8.43,0-12.66,0-5,0-7.33-2.23-7.53-7.23-.14-3.36.19-6.76-.15-10.09a5.81,5.81,0,0,0-2.31-3.94c-8.31-5-12.12-13.82-9.47-22.65a19.33,19.33,0,0,1,20-13.69,19.1,19.1,0,0,1,17.47,16.29c1.26,7.84-1.75,14.19-8.2,18.79C293.32,138.64,293.26,138.55,293.91,144.85Zm25.2,13a6.34,6.34,0,1,0-6.3-6.08A6.34,6.34,0,0,0,319.11,157.87ZM293.25,119.6a6.07,6.07,0,0,0-6.07-6.24,6.13,6.13,0,0,0-6.27,6,6.17,6.17,0,1,0,12.34.2Z"/><path class="cls-11" d="M229.23,144.76c.34-3.8.8-6.92-3.81-9.44-7.61-4.15-10.43-13.51-7.76-21.79a19.29,19.29,0,0,1,36.92.93,19,19,0,0,1-8.86,21.5c-2.64,1.45-3.42,3.07-3.24,5.84a74.63,74.63,0,0,1,0,9.34c-.28,4.54-2.68,6.69-7.21,6.77-1.12,0-2.25.06-3.37,0-5.44-.32-9.64-.05-13.51,5.72-6.41,9.56-20.15,9.5-28.13,1.31a19.16,19.16,0,0,1,1.53-28.19c8.52-7.13,21.91-5.55,27.82,4C222.06,144.69,224.55,146,229.23,144.76Zm-25.35.44a6.28,6.28,0,0,0-6,6.65,6.2,6.2,0,1,0,6-6.65Zm32.45-31.82a6.21,6.21,0,1,0,5.81,6.48A6,6,0,0,0,236.33,113.38Z"/><path class="cls-12" d="M172.31,205c3.57-.07,6.3,2.23,6.71,6.14,2,19.13,9.9,35.48,23.11,49.38,2.82,3,2.74,6.82.14,9.35s-6.56,2.48-9.58-.63c-15.43-15.93-24.19-35-26.65-57A6.37,6.37,0,0,1,172.31,205Z"/></svg>