<svg id="Capa_1" data-name="Capa 1" xmlns="http://www.w3.org/2000/svg" xmlns:xlink="http://www.w3.org/1999/xlink" viewBox="0 0 500 500"><defs><style>.cls-1{fill:url(#Degradado_sin_nombre_11);}.cls-2{fill:url(#Degradado_sin_nombre_11-2);}.cls-3{fill:url(#Degradado_sin_nombre_11-3);}</style><linearGradient id="Degradado_sin_nombre_11" x1="68.04" y1="260.2" x2="451.29" y2="260.2" gradientUnits="userSpaceOnUse"><stop offset="0" stop-color="#74aa62"/><stop offset="0.47" stop-color="#3eab92"/><stop offset="1" stop-color="#19acc1"/></linearGradient><linearGradient id="Degradado_sin_nombre_11-2" x1="93.49" y1="158.12" x2="425.83" y2="158.12" xlink:href="#Degradado_sin_nombre_11"/><linearGradient id="Degradado_sin_nombre_11-3" x1="195.62" y1="241.04" x2="323.96" y2="241.04" xlink:href="#Degradado_sin_nombre_11"/></defs><path class="cls-1" d="M451.29,84.29V372.48c-4.15,11.79-12.69,15.9-24.86,15.77-33.42-.38-66.86-.13-100.29-.13h-4.83c4,8,7.75,15.31,11.26,22.7,1,2.16,2.33,2.75,4.6,2.71,6.61-.12,13.23-.2,19.83.1,9.9.44,17.88,9.18,17.8,19.12-.08,10.26-8.55,19-18.72,19q-96.37.07-192.73,0c-10.21,0-18.67-8.66-18.83-18.94a19.2,19.2,0,0,1,18.06-19.26c4.73-.22,9.55-.61,14.2,0,6.59.89,10.19-1.47,12.52-7.65,2.25-6,5.56-11.55,8.67-17.83H193.3q-52.2,0-104.41,0c-12.43,0-20.85-8.51-20.85-20.92q0-139,0-278a24.46,24.46,0,0,1,.56-5.54c1.91-8.12,7.68-12.44,15.13-15H435.57A22.62,22.62,0,0,1,451.29,84.29Zm-370.48,252h357.7V91.67c0-8.26-2.1-10.33-10.46-10.33H91.62c-8.87,0-10.81,1.93-10.81,10.72V336.34Zm0,13.59v14.52c0,8.72,1.82,10.55,10.47,10.55H428c1.25,0,2.5,0,3.74-.05,3.41-.2,6.07-2,6.28-5.3.42-6.51.13-13.07.13-19.72ZM200,413.17H319.3c-3.81-7.65-7.49-14.82-10.95-22.09-1-2.19-2.25-3.08-4.79-3-9.71.17-19.43.07-29.15.07-19.56,0-39.12,0-58.68.05-1.3,0-3.31.47-3.78,1.36C207.89,397.18,204.1,405,200,413.17Zm60.07,13.18H166.61a26.86,26.86,0,0,0-3.36,0,6.1,6.1,0,0,0-5.52,6.75c.24,4,3,5.9,8.75,5.9q93.12,0,186.23,0a16.23,16.23,0,0,0,4.07-.32c3.31-.87,5-3.06,4.81-6.57a6,6,0,0,0-5.77-5.76c-1.11-.11-2.24,0-3.36,0Z"/><path class="cls-2" d="M341.91,171.68c-4.34-29.15-29.4-44.61-56.74-44.74,0,2.06.09,4.13,0,6.2-.29,6.12-4.37,11.4-10.46,11.73a278.15,278.15,0,0,1-29.87,0c-6.26-.33-10.42-5.67-10.66-11.95-.07-2,0-3.93,0-5.88-23-.48-51.4,12.13-56.83,44.39.78.38,1.61.83,2.48,1.2,12.39,5.29,18.74,18.38,15,31a25.68,25.68,0,0,1-50.31-9c.8-10.29,6.24-17.76,15.8-21.77,2.8-1.18,4.12-2.39,4.73-5.54,3.12-16.17,11.36-29.32,24.33-39.5.38-.3.72-.65,1.48-1.33h-46c0,1.47,0,3,0,4.57-.18,9-5.22,14.21-14.16,14.33q-11.61.15-23.2,0c-8.93-.13-14-5.39-14-14.39,0-7.86,0-15.71,0-23.57S99,94.1,107,94.06c7.85,0,15.71,0,23.57,0,8.94,0,14.09,5.1,14.3,14.1,0,1.48,0,3,0,4.76h89.29c0-2.23-.08-4.42,0-6.61a12.43,12.43,0,0,1,12.19-12.21q13.29-.23,26.57,0a12.44,12.44,0,0,1,12.22,12.18c.09,2.11,0,4.23,0,6.65h89.31c0-1.86-.07-3.68,0-5.5.39-8.32,5.6-13.34,13.89-13.37q12,0,23.95,0c8,0,13.42,5.38,13.48,13.32q.07,12.16,0,24.32c0,7.76-4.76,13.22-12.47,13.54-8.72.37-17.47.36-26.19,0-7.58-.29-12.22-5.41-12.65-13.09-.11-1.84,0-3.7,0-5.77h-46c.87.8,1.4,1.37,2,1.85a66.07,66.07,0,0,1,24.27,40.83,4.75,4.75,0,0,0,2.55,2.92c11.42,4.52,18.74,15.53,17.37,26.45-1.59,12.76-10.27,21.54-23,23.32-11.4,1.59-23.4-6.51-26.88-18.14A25.49,25.49,0,0,1,338,173.41C339.18,172.81,340.45,172.31,341.91,171.68Zm-69.62-64.47H247.16V132h25.13ZM131.51,132.15v-25H106.72v25ZM387.78,132h24.89V107.13H387.78ZM157.69,196.29a12.56,12.56,0,1,0,25.11.24,12.56,12.56,0,1,0-25.11-.24Zm191.43-12.55a12.33,12.33,0,0,0-12.61,12.44,12.56,12.56,0,1,0,25.12.09A12.3,12.3,0,0,0,349.12,183.74Z"/><path class="cls-3" d="M259.45,324c-7,0-14,.38-20.94-.09-9.64-.66-17.42-8.4-16.9-18,.49-8.88-2.46-15.56-8.35-21.65-2.76-2.85-5-6.24-7.46-9.35-11.77-14.69-13.62-34.44-4.08-50.71,11.08-18.91,22.61-37.56,34-56.28,3.37-5.53,8.33-9.14,14.81-9.58a132.41,132.41,0,0,1,19,.16,17,17,0,0,1,13.4,8.53c11.9,19.44,24.35,38.59,35.26,58.58,9.13,16.74,7.26,33.65-4.49,49-4.46,5.85-9.2,11.49-13.58,17.4a12.54,12.54,0,0,0-2,5.68c-.36,2.83,0,5.74-.2,8.6-.5,9.25-7.53,16.95-16.76,17.57-7.2.49-14.45.1-21.68.1Zm8-153.47-1.16,1c0,14.45-.06,28.9.11,43.34,0,1,1.45,2.35,2.55,3,6.69,4,10.17,9.93,10,17.61-.22,9.69-7.39,17.08-17.34,18.52-8.28,1.2-17.15-4.52-20.07-12.95a18.79,18.79,0,0,1,8.89-23c2.32-1.25,2.74-2.66,2.73-4.95-.08-12.35,0-24.69,0-37v-4.73l-1-.76c-1.75,1.34-4.07,2.33-5.15,4.08-11.67,19-23.6,37.84-34.5,57.26-6.5,11.57-5.15,23.55,3.08,34.31q6.83,8.91,14,17.56a5.4,5.4,0,0,0,3.61,1.87q26.57.18,53.11,0a5.42,5.42,0,0,0,3.66-1.77q7.15-8.65,14-17.57c8.49-11.15,9.52-23.37,2.72-35.33C295.73,212,284.13,193.54,272.71,175,271.55,173.11,269.2,172,267.41,170.48ZM234.19,298.71c0,2.28-.07,4.15,0,6,.19,3.87,2.54,6.37,6.36,6.39q19.08.13,38.17,0a6,6,0,0,0,6.32-5.65c.2-2.18,0-4.39,0-6.75Zm25.34-57.9a6.17,6.17,0,0,0,.44-12.33,6,6,0,0,0-6.45,6.15A5.9,5.9,0,0,0,259.53,240.81Z"/></svg>