<svg id="Capa_1" data-name="Capa 1" xmlns="http://www.w3.org/2000/svg" xmlns:xlink="http://www.w3.org/1999/xlink" viewBox="0 0 500 500"><defs><style>.cls-1{fill:url(#Degradado_sin_nombre_11);}.cls-2{fill:url(#Degradado_sin_nombre_11-2);}.cls-3{fill:url(#Degradado_sin_nombre_11-3);}.cls-4{fill:url(#Degradado_sin_nombre_11-4);}.cls-5{fill:url(#Degradado_sin_nombre_11-5);}.cls-6{fill:url(#Degradado_sin_nombre_11-6);}.cls-7{fill:url(#Degradado_sin_nombre_11-7);}.cls-8{fill:url(#Degradado_sin_nombre_11-8);}.cls-9{fill:url(#Degradado_sin_nombre_11-9);}</style><linearGradient id="Degradado_sin_nombre_11" x1="39.21" y1="254.59" x2="445.04" y2="254.59" gradientUnits="userSpaceOnUse"><stop offset="0" stop-color="#74aa62"/><stop offset="0.47" stop-color="#3eab92"/><stop offset="1" stop-color="#19acc1"/></linearGradient><linearGradient id="Degradado_sin_nombre_11-2" x1="256.58" y1="341.57" x2="315.62" y2="341.57" xlink:href="#Degradado_sin_nombre_11"/><linearGradient id="Degradado_sin_nombre_11-3" x1="358.69" y1="341.56" x2="417.77" y2="341.56" xlink:href="#Degradado_sin_nombre_11"/><linearGradient id="Degradado_sin_nombre_11-4" x1="338.96" y1="401.39" x2="398.4" y2="401.39" xlink:href="#Degradado_sin_nombre_11"/><linearGradient id="Degradado_sin_nombre_11-5" x1="275.93" y1="401.41" x2="335.36" y2="401.41" xlink:href="#Degradado_sin_nombre_11"/><linearGradient id="Degradado_sin_nombre_11-6" x1="307.62" y1="304.67" x2="366.72" y2="304.67" xlink:href="#Degradado_sin_nombre_11"/><linearGradient id="Degradado_sin_nombre_11-7" x1="315.92" y1="356.96" x2="358.96" y2="356.96" xlink:href="#Degradado_sin_nombre_11"/><linearGradient id="Degradado_sin_nombre_11-8" x1="106.49" y1="300.95" x2="155.79" y2="300.95" xlink:href="#Degradado_sin_nombre_11"/><linearGradient id="Degradado_sin_nombre_11-9" x1="106.49" y1="325.68" x2="155.8" y2="325.68" xlink:href="#Degradado_sin_nombre_11"/></defs><path class="cls-1" d="M326.81,458.94c-6.8-1.59-13.76-2.67-20.35-4.88-33.91-11.36-56.09-34.36-66.52-68.53-1.06-3.49-2.42-4.43-5.92-4.41-28.61.15-57.22.1-85.83.06a19.49,19.49,0,0,1-5.51-.58,6.12,6.12,0,0,1,.58-11.84,27.74,27.74,0,0,1,5.16-.32q41.52,0,83,0h5.08c-.3-4.24-.56-8-.86-12.31h-4.81q-68.87,0-137.72,0c-4.79,0-9.13-.69-11.54-5.35a12.83,12.83,0,0,1-1.48-5.63q-.14-50.7,0-101.39c0-6.42,4.26-10.78,10.69-10.86,11.44-.13,22.89-.06,34.33-.06H282.78c1.46,0,2.93,0,4.39.06,3.5.19,5.73,1.94,6.14,5.52s-1.4,6.33-5.2,6.73c-4.46.47-9,.11-13.85.11v23.1c7.29-.44,14.53,1.34,21.72-2.27,10.26-5.17,21.43-7.53,33.08-8.65V245.6c-5.05,0-10.18.06-15.3,0a17,17,0,0,1-5.48-.74c-3-1.09-4.26-3.51-3.79-6.66.45-3,2.26-5,5.24-5.1,8-.19,16-.3,23.93.08,4.46.21,8.19,5,8.32,9.79.12,4.63,0,9.27,0,14.23L354,258.54V222.8H68.22V368.42H73c15.17,0,30.34,0,45.5,0,5.21,0,7.79,2,8,5.79.19,3.34-1.24,5.68-4.59,6.46a21,21,0,0,1-4.74.49c-16.23,0-32.47-.15-48.7.1-7.72.12-13.44-4-13.4-13.41.26-47.37.11-94.74.15-142.11,0-2.5-.28-4.45-2.49-6.24-1.49-1.19-2.2-3.49-3-5.42a9.15,9.15,0,0,1-.49-3.93c1.85-22.86-2.14-44.89-9.07-66.58-2.76-8.66.26-13.46,8.95-15.78q100.47-26.86,201-53.67,43.81-11.69,87.63-23.34c7.12-1.89,12.54,1.09,14.44,8q4.31,15.72,8.37,31.52c1.63,6.28-1.2,11.52-7.5,13.26-16.73,4.64-33.53,9-50.3,13.55-2.86.77-5.55.76-7.69-1.67-2.39-2.72-2-5.56-.17-8.36-8-8.06-15.79-16-23.72-23.87a3.83,3.83,0,0,0-3.1-.66C261.51,84.23,255,86,247.64,88c3.55,3.48,6.73,6.59,9.88,9.72q5,4.92,9.9,9.86c2.4,2.39,4.38,5,8.68,4.25,3-.51,5.15,2.08,5.62,5.14.54,3.53-1.36,6-4.62,7-7.37,2.16-14.83,4-22.25,6l-135.26,36.1a5.08,5.08,0,0,0-2.56,1.49h4.39c79.3,0,158.6.09,237.91-.13,8.52,0,13.94,5,13.62,13.68-.36,9.44-.09,18.89-.08,28.34,0,4.41-.79,8.43-4.61,11.33a3.83,3.83,0,0,0-1.27,2.67c-.08,12.64-.05,25.27-.05,36.92,9.35,4.94,18.77,8.65,26.78,14.35,33.68,24,48.42,56.75,43.36,98-.74,6-2.54,11.9-4.15,17.77-1.24,4.47-4.71,6.41-8.39,5.18-3.44-1.15-5-4.58-3.6-8.86,5.73-17.81,6.71-35.84.9-53.68-11.18-34.31-34.53-56-70.27-61.66-39.17-6.22-69.81,8.87-90.76,42.39-19.64,31.4-14.95,75.35,10.15,102.61,21.24,23.06,47.56,32.92,78.58,28.85,23.85-3.13,43.19-14.76,57.93-33.86,1.55-2,2.92-4.14,4.54-6.07,2.58-3.06,6-3.58,8.81-1.51s3.8,5.71,1.31,8.8a258.86,258.86,0,0,1-18.55,21.25c-4.56,4.55-10.28,7.93-16.16,12.34h4.51c15,0,30.07,0,45.1,0,5.67,0,8.89,2.94,7.79,7.49-.47,1.93-2.51,3.47-3.84,5.19Zm-56-177.47H93V343H237.14c.71-3.74,1.35-7.17,2.06-11H174.77a27.91,27.91,0,0,1-4-.13,5.67,5.67,0,0,1-5.24-5.14c-.43-3.13.74-5.6,3.76-6.67a16.71,16.71,0,0,1,5.47-.75c21.82-.05,43.63,0,65.45-.08,1.32,0,3.33-.26,3.83-1.1,2-3.36,3.5-7,5.35-10.88H175.09a37.66,37.66,0,0,1-4-.08c-3.16-.33-5.14-2.09-5.57-5.26s.93-5.77,4.2-6.74a18.23,18.23,0,0,1,5.1-.61c26.74,0,53.48,0,80.22-.08,1.56,0,3.57-.38,4.62-1.38C263.43,289.6,266.85,285.71,270.85,281.47Zm-91-13.32H261V245.87h-81.1Zm-86.91,0h73.62V245.87H92.94ZM226,124.48c-7.88-8-15.23-15.43-22.63-22.83-.6-.59-1.68-1.29-2.34-1.13-7,1.75-13.85,3.66-21.27,5.65,7.92,7.92,15.29,15.35,22.77,22.67a4,4,0,0,0,3.12,1C212.28,128.25,218.87,126.4,226,124.48ZM117.52,209.9c7.66,0,14.56.11,21.45-.12,1.05,0,2.39-1.4,3-2.48,4.82-8.11,9.5-16.3,14.2-24.47a21.35,21.35,0,0,0,1-2.57c-7.05,0-13.7-.07-20.35.07a4.33,4.33,0,0,0-3.13,1.65C128.4,191,123.21,200.07,117.52,209.9Zm70.48,0c7.2,0,13.67.15,20.13-.12a6,6,0,0,0,4.26-2.46c4.39-7.11,8.47-14.41,12.65-21.65,1-1.66,1.88-3.34,3-5.42-4.82,0-9,.5-13-.11-7.47-1.12-11.84,1.64-15,8.52C196.79,195.83,192.31,202.44,188,209.91Zm70.46,0c7.14,0,13.48-.12,19.82.06,2.48.06,3.76-.84,4.94-3,4.38-7.86,9-15.61,13.47-23.41.55-.95,1-2,1.62-3.34-7.24,0-13.87-.08-20.5.08a4.26,4.26,0,0,0-3.12,1.7C269.34,191,264.15,200.07,258.46,209.91ZM111.59,124.37c8.09,8.06,15.5,15.49,23,22.83a3.54,3.54,0,0,0,2.75,1c6.76-1.71,13.47-3.6,20.54-5.54-7.83-7.92-15.26-15.49-22.79-23a3.52,3.52,0,0,0-2.82-.81C125.61,120.53,119,122.37,111.59,124.37Zm248.29,55.89c-3.62,0-7.05.16-10.46,0a4.69,4.69,0,0,0-5,2.8c-3,5.61-6.33,11.07-9.51,16.6-1.88,3.28-3.74,6.58-5.67,10h30.68ZM52.43,140.35c2.37,9,4.65,17.78,7.1,26.54a2.71,2.71,0,0,0,2.27,1.38c9.27-2.34,18.49-4.85,28.32-7.47L74.38,145.12C65.39,136.15,65.39,136.15,52.43,140.35ZM284.19,78.22c8,8,15.37,15.39,22.87,22.72a4,4,0,0,0,3.13,1c5.11-1.21,10.14-2.68,15.55-4.15-7.87-8-15.41-15.6-23-23.15a3.54,3.54,0,0,0-2.87-.55C294.82,75.31,289.86,76.7,284.19,78.22Zm-94.54,56c-8-8.06-15.45-15.6-23-23.07a3.08,3.08,0,0,0-2.39-.86c-5.19,1.3-10.33,2.78-16,4.34,8,8,15.51,15.64,23.11,23.18a3,3,0,0,0,2.41.65C178.91,137.15,184,135.73,189.65,134.18Zm-109.47-1.4c8,8,15.43,15.53,23,23a3,3,0,0,0,2.35.82c5.24-1.28,10.44-2.71,16-4.2-8-8-15.46-15.68-23.1-23.21a4.11,4.11,0,0,0-3.24-.46C90.34,129.92,85.53,131.31,80.18,132.78Zm177.31-17c-7.72-7.78-15.18-15.32-22.7-22.79a3,3,0,0,0-2.35-.84c-5.24,1.28-10.43,2.72-16.39,4.32,4.75,4.69,8.95,8.89,13.21,13,3.79,3.68,7.16,9.28,11.61,10.37,4.65,1.13,10.36-2.12,15.6-3.47A5.94,5.94,0,0,0,257.49,115.75ZM120,180.26c-6,0-11.26,0-16.53.06a3,3,0,0,0-2.19,1.21c-5.43,9.22-10.76,18.5-16.47,28.38,4.51,0,8.35-.32,12.11.08,4.4.46,6.87-1.07,8.94-5.06C110.1,196.73,115,188.87,120,180.26Zm35.29,29.64c6,0,11.29,0,16.56-.06a3.06,3.06,0,0,0,2.2-1.27c5.41-9.22,10.73-18.5,16.39-28.31-2.63,0-4.63.3-6.52,0-8.62-1.59-13.91,1.7-17.39,9.84C163.63,196.79,159.3,202.91,155.27,209.9Zm140.91,0c5.9,0,11.06.14,16.21-.11a4.9,4.9,0,0,0,3.17-2.28c3.06-5,5.92-10.06,8.83-15.12,2.22-3.84,4.4-7.71,6.93-12.13-5.92,0-11.07-.08-16.21.08a3.89,3.89,0,0,0-2.71,1.7C307.07,191,301.86,200.11,296.18,209.9Zm-35.29-29.64c-3.7,0-6.76.39-9.69-.08-6.27-1-9.84,1.42-12.59,7.12-3.65,7.58-8.29,14.67-12.87,22.59,6,0,11.26.06,16.52,0a3.08,3.08,0,0,0,2.21-1.27C249.89,199.36,255.21,190.09,260.89,180.26ZM62,209.37c5.56,1.62,9.26.47,11.2-4.83.77-2.08,2.22-3.92,3.35-5.87l10.55-18.32c-7.39,0-14.13-.16-20.85.11-1.59.07-4.28-.11-4.27,3C62.06,192.08,62,200.7,62,209.37ZM340.15,63.25l-24.21,6.5c6.88,6.9,13.29,13.36,19.72,19.8,5.07,5.07,5.08,5.06,12.09,1.94C345.28,82.29,342.79,73,340.15,63.25Z"/><path class="cls-2" d="M286.33,312c16.41,0,29.33,13.19,29.29,29.82A29.52,29.52,0,1,1,286.33,312ZM303,341.7a16.84,16.84,0,0,0-33.68-.49,16.81,16.81,0,0,0,16.64,17.19A16.61,16.61,0,0,0,303,341.7Z"/><path class="cls-3" d="M358.69,341.54A29.3,29.3,0,0,1,387.46,312c16.72-.16,30.12,12.62,30.31,28.89a29.69,29.69,0,0,1-29.11,30.17C371.89,371.27,358.88,358.44,358.69,341.54Zm12.67-.05a16.61,16.61,0,0,0,16.86,16.89,16.83,16.83,0,0,0,.1-33.66A16.57,16.57,0,0,0,371.36,341.49Z"/><path class="cls-4" d="M368.8,371.83c16.06,0,29.5,13.11,29.6,28.9a30,30,0,0,1-30,30.22c-15.78-.05-29.43-13.63-29.39-29.23A29.7,29.7,0,0,1,368.8,371.83Zm0,12.73a16.93,16.93,0,0,0-17.11,16.77c0,9.1,7.79,16.8,17.14,16.91,9,.1,16.55-7.44,16.82-16.72S378.25,384.66,368.77,384.56Z"/><path class="cls-5" d="M306,371.86a29.67,29.67,0,0,1,29.38,29.94c.06,15.76-13.76,29.27-29.83,29.16a30,30,0,0,1-29.6-30.27C276.16,384.64,289.64,371.71,306,371.86Zm-.13,12.7a17,17,0,0,0-17.2,16.69c0,9.08,7.65,16.93,16.58,17,9.56.06,17.56-7.75,17.41-17A16.86,16.86,0,0,0,305.85,384.56Z"/><path class="cls-6" d="M337.19,275.07a29.5,29.5,0,0,1,29.53,29.65,29.85,29.85,0,0,1-29.39,29.53c-16.06.23-29.67-13.33-29.71-29.59A29.45,29.45,0,0,1,337.19,275.07Zm-16.88,29.34a16.86,16.86,0,1,0,33.71.15,16.86,16.86,0,0,0-33.71-.15Z"/><path class="cls-7" d="M337,378.43c-12.16-.46-21.47-10.15-21.11-22,.35-11.43,10.39-21.25,21.44-21,12.72.33,22.08,10.2,21.57,22.75A21.18,21.18,0,0,1,337,378.43Zm.39-12.72a8.32,8.32,0,0,0,8.74-8.37,8.81,8.81,0,0,0-8.57-9.12,8.94,8.94,0,0,0-8.86,8.52A8.7,8.7,0,0,0,337.43,365.71Z"/><path class="cls-8" d="M131,307.3c-5.85,0-11.69.06-17.53,0-4.18-.07-6.86-2.51-7-6.08a6.26,6.26,0,0,1,6.26-6.45q18.3-.35,36.63,0a6.42,6.42,0,0,1,6.39,6.76c-.3,3.42-2.9,5.73-6.87,5.79C142.93,307.36,137,307.3,131,307.3Z"/><path class="cls-9" d="M131.17,332.05c-5.84,0-11.68.06-17.52,0-4.29,0-6.93-2.31-7.15-5.88s2.6-6.67,6.84-6.73q17.72-.26,35.44,0c4.19,0,7.18,3.18,7,6.63-.18,3.65-3,5.95-7.5,6C142.59,332.1,136.88,332.06,131.17,332.05Z"/></svg>