<svg id="Capa_1" data-name="Capa 1" xmlns="http://www.w3.org/2000/svg" xmlns:xlink="http://www.w3.org/1999/xlink" viewBox="0 0 500 500"><defs><style>.cls-1{fill:url(#Degradado_sin_nombre_11);}.cls-2{fill:url(#Degradado_sin_nombre_30);}.cls-3{fill:url(#Degradado_sin_nombre_30-2);}.cls-4{fill:url(#Degradado_sin_nombre_31);}.cls-5{fill:url(#Degradado_sin_nombre_31-2);}.cls-6{fill:url(#Degradado_sin_nombre_31-3);}.cls-7{fill:url(#Degradado_sin_nombre_30-3);}.cls-8{fill:url(#Degradado_sin_nombre_11-2);}.cls-9{fill:url(#Degradado_sin_nombre_11-3);}.cls-10{fill:url(#Degradado_sin_nombre_11-4);}.cls-11{fill:url(#Degradado_sin_nombre_11-5);}.cls-12{fill:url(#Degradado_sin_nombre_11-6);}.cls-13{fill:url(#Degradado_sin_nombre_11-7);}.cls-14{fill:url(#Degradado_sin_nombre_11-8);}.cls-15{fill:url(#Degradado_sin_nombre_27);}</style><linearGradient id="Degradado_sin_nombre_11" x1="71.03" y1="250.2" x2="424.66" y2="250.2" gradientUnits="userSpaceOnUse"><stop offset="0" stop-color="#74aa62"/><stop offset="0.47" stop-color="#3eab92"/><stop offset="1" stop-color="#19acc1"/></linearGradient><linearGradient id="Degradado_sin_nombre_30" x1="322.62" y1="320.07" x2="395.01" y2="320.07" gradientUnits="userSpaceOnUse"><stop offset="0" stop-color="#3eab92"/><stop offset="1" stop-color="#19acc1"/></linearGradient><linearGradient id="Degradado_sin_nombre_30-2" x1="335.03" y1="342.42" x2="382.8" y2="342.42" xlink:href="#Degradado_sin_nombre_30"/><linearGradient id="Degradado_sin_nombre_31" x1="397.13" y1="177.58" x2="426.16" y2="177.58" gradientUnits="userSpaceOnUse"><stop offset="0.47" stop-color="#3eab92"/><stop offset="1" stop-color="#19acc1"/></linearGradient><linearGradient id="Degradado_sin_nombre_31-2" x1="389.52" y1="153.29" x2="410.79" y2="153.29" xlink:href="#Degradado_sin_nombre_31"/><linearGradient id="Degradado_sin_nombre_31-3" x1="405.25" y1="203.91" x2="430.69" y2="203.91" xlink:href="#Degradado_sin_nombre_31"/><linearGradient id="Degradado_sin_nombre_30-3" x1="346.71" y1="364.48" x2="370.84" y2="364.48" xlink:href="#Degradado_sin_nombre_30"/><linearGradient id="Degradado_sin_nombre_11-2" x1="143.21" y1="100.45" x2="155.16" y2="100.45" xlink:href="#Degradado_sin_nombre_11"/><linearGradient id="Degradado_sin_nombre_11-3" x1="167.16" y1="100.45" x2="179.12" y2="100.45" xlink:href="#Degradado_sin_nombre_11"/><linearGradient id="Degradado_sin_nombre_11-4" x1="203.09" y1="148.41" x2="221.08" y2="148.41" xlink:href="#Degradado_sin_nombre_11"/><linearGradient id="Degradado_sin_nombre_11-5" x1="256.93" y1="148.38" x2="274.97" y2="148.38" xlink:href="#Degradado_sin_nombre_11"/><linearGradient id="Degradado_sin_nombre_11-6" x1="232.96" y1="142.37" x2="245.03" y2="142.37" xlink:href="#Degradado_sin_nombre_11"/><linearGradient id="Degradado_sin_nombre_11-7" x1="179.69" y1="163" x2="197.11" y2="163" xlink:href="#Degradado_sin_nombre_11"/><linearGradient id="Degradado_sin_nombre_11-8" x1="280.87" y1="163.63" x2="299.54" y2="163.63" xlink:href="#Degradado_sin_nombre_11"/><linearGradient id="Degradado_sin_nombre_27" x1="101.26" y1="184.29" x2="142.92" y2="184.29" gradientUnits="userSpaceOnUse"><stop offset="0" stop-color="#74aa62"/><stop offset="1" stop-color="#3eab92"/></linearGradient></defs><path class="cls-1" d="M352.19,406.41c-3.46,14.41-16.36,23.64-31.88,23.54q-87.58-.56-175.15,0c-17.72.14-33.16-13.91-31.95-32.25.34-5.08.05-10.2.05-15.84h-4.13c-10.23,0-20.46,0-30.69,0-5,0-7.08-2.05-7.09-7q0-29,0-58c0-4.75,2.1-6.83,6.84-6.85,10.35,0,20.71,0,31.06,0h4v-4.36q0-27.51,0-55c0-4.1,2.39-6.55,6.07-6.49,3.49,0,5.74,2.46,5.87,6.32,0,.87,0,1.74,0,2.62V309.8H137V229.92c-6.37.77-12.72,2.18-19.08,2.19-23.57,0-44.38-19.21-46.64-41.83-2.69-26.95,15.27-48.55,38.57-53,3-.57,3.46-1.75,3.44-4.34-.11-10.85-.08-21.71,0-32.56a29.69,29.69,0,0,1,29.92-29.9q47.34-.06,94.68,0c4.54,0,7,2.09,7.12,5.82.08,4-2.44,6.1-7.2,6.14h-2.62q-44.73,0-89.45,0c-13.29,0-20.48,7.25-20.49,20.63,0,10.23,0,20.46,0,30.69,0,2.07.42,3.12,2.75,3.43a84.65,84.65,0,0,1,9,2.18c.1-1.1.25-2.13.27-3.16a17.73,17.73,0,0,1,18.16-17.83c9.23,0,18.46,0,27.69,0,5.67,0,7.69-1.91,8.06-7.43.6-9,8.23-16.47,17.21-16.49q51.64-.09,103.29,0c9.45,0,17.17,8,17.19,17.63.06,21.46,0,42.91,0,64.37v5c4-2.31,7.57-4.23,10.95-6.43.69-.44,1-1.92,1-2.92.05-23.83.14-47.66,0-71.49-.07-10.6-8-18.09-18.8-18.13-18.71-.07-37.42,0-56.13,0-1,0-2,0-3,0a5.8,5.8,0,0,1-5.84-6,5.66,5.66,0,0,1,5.84-5.94c21,0,41.92-.34,62.87.12,14.35.31,26.95,14,27,28.48.13,20.08,0,40.17.05,60.25a9.89,9.89,0,0,0,.82,4.54c2.93-3.57,6-7.06,8.73-10.75,1.87-2.49,3.61-4.85,7.19-4.34s4.67,3.26,5.7,6.17q11.32,31.8,22.73,63.57c1,2.88,1.62,5.54-.69,8s-5,2-8,1.2c-12.95-3.53-27.94-4.18-37.34-1.62,2.13,4.12,4.27,8.12,6.3,12.18,5.94,11.91-1,24.78-14.13,26.4-4.31.54-8.13-.86-15.11-5.57V281c1.23-.53,2.27-1,3.32-1.44,21-8.64,41.3-7.35,60.88,4.22,4.34,2.56,5.48,5.87,3.42,9.2s-5.46,3.67-9.81,1.1c-32.59-19.3-72.82-1.74-80.86,35.29-6.48,29.85,15.07,60.2,45.33,63.85,29.51,3.55,54.84-14.69,60.4-43.83,2.53-13.24-.06-25.75-6.94-37.35a13.8,13.8,0,0,1-1.79-3.66,5.66,5.66,0,0,1,3.15-6.87c2.73-1.42,5.94-.49,7.83,2.37a62.94,62.94,0,0,1,9.8,24.82c5.76,35.72-16.4,68.17-51.86,75.7C365.62,405.77,359.06,405.76,352.19,406.41Zm-35.92-14.79,0-1.63a12.1,12.1,0,0,1-1.55-1.06c-29.41-27.76-29.25-70.46.27-98.33a6.8,6.8,0,0,0,1.82-4.46c.14-15.22.09-30.44.08-45.66,0-1-.11-1.94-.19-3.32-8.39,3.15-16.18,1.87-23.66-2.91-1.33,19.34-9.42,34.58-24.27,46.29a10.63,10.63,0,0,0,1.22,1c8.55,4.5,12.6,12.29,10.63,20.49-2.14,8.86-9.13,14-19,14H205.8a17.07,17.07,0,0,0-3.36.11c-3.17.65-5.24,2.62-5.23,5.9s2.11,5.22,5.28,5.85a17,17,0,0,0,3.36.11h50.52c12.52,0,12.68.16,12.58,12.72-.16,18.73-15.91,34.86-34.32,35.16-20.45.33-36.8-14.52-37.45-34.18a4,4,0,0,0-2.55-3.93c-6.49-3.54-10-9.11-9.36-16.5.37-3.92,2.21-7.7,3.58-12.18a17.46,17.46,0,0,1-3.16-15.66c1.59-6.22,5.95-10,11.79-12.77l-3.86-3.28c-21.78-18.51-27-52-11.94-76.06,2.44-3.89,5.85-5,9.07-3,3,1.91,3.53,5.33,1.36,9.21-.43.76-.86,1.51-1.27,2.28a47.53,47.53,0,0,0,12.07,59.39c3.56,2.84,7.47,5.19,6.11,10.58h6c-.45-17.95-5.54-34.07-15.76-48.53-3-4.26-2.93-6.62.27-10.74a17.55,17.55,0,0,1,22.15-4.87c3.15,1.71,5.35,1.87,8.31-.54,5.23-4.27,12.59-4.55,17.64-.19,3.87,3.36,7,3.29,10.86.78,3-1.91,6.13-2.46,8.84.43s1.58,5.82-.1,8.89c-3.76,6.86-7.79,13.65-10.77,20.85-4.46,10.8-5.81,22.26-5.43,34h6c-.36-3.65.53-6.38,3.49-8.66,14.81-11.42,21.23-26.47,19.06-45.16-2.57-22.14-22.73-40.53-45-41.09a49.56,49.56,0,0,0-26.47,6.48c-4.49,2.56-8.75,1-9.75-3.48-.8-3.54,1.23-5.55,4-7.23,21-12.84,49.22-11.1,68.13,4.87,6,5,10.76,11.48,16.14,17.34,3.47-6.93,10.44-10.28,18.12-12.66,3.21-1,6.3-2.34,9.51-3.32,2-.6,2.68-1.56,2.68-3.71-.09-23.2,0-46.4-.08-69.6,0-4.94-2.4-7.2-7.49-7.21q-49.39,0-98.79,0c-5.07,0-7.16,2.11-7.49,7.23a17.79,17.79,0,0,1-17.78,16.7c-8,0-16,0-23.95,0-11.54,0-12.08.63-12.22,12.29a8.22,8.22,0,0,0,2.9,6.74c20.5,19.39,20.32,50.7-.37,70.09a7.11,7.11,0,0,0-2.51,5.78c.07,26.94,0,53.89.05,80.83,0,1.21.1,2.42.17,3.93,3.82,0,7.41,0,11,0,4.68.05,6.77,2.15,6.78,6.91q0,29,0,58c0,4.88-2.12,6.89-7.15,6.92-3.57,0-7.13,0-10.81,0,0,1.93,0,3.3,0,4.67.11,5,2.37,7.3,7.4,7.3q76.53,0,153.06-.08C311.86,393.78,314.06,392.38,316.27,391.62Zm-191-9.58v14.58c0,14.2,7,21.21,21,21.21H319.81c1.24,0,2.5.05,3.74,0,8.71-.64,16-7.17,16.27-14.41l-13.7-5.82c-3.73,5.05-8.45,8.26-14.81,8.27q-78.36,0-156.72,0a17.65,17.65,0,0,1-17.37-17.45c0-2.08,0-4.15,0-6.33ZM83.33,184a36.28,36.28,0,0,0,36.09,36.23c19.37,0,35.67-16.34,35.73-35.81a36.22,36.22,0,0,0-35.89-36C99.85,148.3,83.44,164.56,83.33,184ZM155,329.33c-10.53,9-20.47,17.53-30.43,26-4.3,3.67-6.34,3.67-10.74-.08Q101,344.36,88.26,333.38c-1.46-1.25-2.94-2.46-4.76-4v40.3H155ZM366.7,167.47a99.19,99.19,0,0,1-40.61,28.14c2.75,7.67,5.38,15,8,22.37,16.06-5.76,32.18-6.51,49.12-4.25C377.63,198,372.25,183,366.7,167.47Zm-155.15,58.3-.53,1a98.17,98.17,0,0,1,16.12,53.1h11.91a96.05,96.05,0,0,1,10.72-49.12c-2.85-1.86-5.62-3.49-8.18-5.4-2-1.47-3.5-1.36-5.31.15-6,5-12.28,5.22-19.05,1.58C215.58,226.18,213.46,226.18,211.55,225.77Zm45.26,114.45H209.23c.5,13.42,10.92,23.69,23.79,23.69S256.27,353.67,256.81,340.22ZM233,292.07c-9.73,0-19.45-.06-29.17,0-4,0-6.77,2.68-6.71,6.06s2.73,5.84,6.53,5.85c19.57.07,39.14.12,58.71-.1a8,8,0,0,0,5.53-3c2.87-4-.5-8.75-6.1-8.8C252.21,292,242.62,292.07,233,292.07Zm-139.27,30L119.26,344,144.7,322.1ZM314.61,199.71l-10.06,3.55c-.59.21-1.18.4-1.74.66a11.68,11.68,0,0,0-7.1,12.31,11.31,11.31,0,0,0,9.37,10.19c6.45,1.28,11.45-2.9,17.57-4.27Zm14,33.24c3.08,5.82,5.91,11.31,8.88,16.74,1.64,3,4.48,3.63,7.37,2.42s4.4-3.83,3.12-6.7c-2.49-5.6-5.54-10.95-8.4-16.48-3,1.07-5.58,2-8.13,2.89C330.67,232.11,329.89,232.44,328.63,233Z"/><path class="cls-2" d="M359.06,310a63.1,63.1,0,0,1,31.42,8.15c4,2.22,5.5,5.55,3.89,8.81-1.71,3.44-5.31,4.15-9.67,1.85q-25.89-13.59-51.81,0c-4.27,2.24-7.55,1.66-9.4-1.62s-.62-6.65,3.76-9.07A63,63,0,0,1,359.06,310Z"/><path class="cls-3" d="M382.8,343.44c0,6-4.23,8.63-8.64,6.86a78.57,78.57,0,0,0-9.36-3.56c-7.35-1.89-14.29-.29-20.85,3.28-2.43,1.33-5.09,1.55-6.87-.5a9,9,0,0,1-2-5.9c.09-1.48,1.72-3.39,3.17-4.19,13.57-7.45,27.32-7.51,40.92-.12C381,340.3,382.06,342.58,382.8,343.44Z"/><path class="cls-4" d="M418.74,168.49c4.38.2,6.38,1.78,7.15,4.55s-.11,5.54-2.8,6.65c-6.09,2.5-12.29,4.75-18.57,6.7-2.89.9-5.42-.53-6.73-3.4s-.76-5.77,1.77-6.92C406.19,173,413.12,170.67,418.74,168.49Z"/><path class="cls-5" d="M394.43,164.55c-1.42-1.15-3.63-2.11-4.35-3.74s-.81-4.59.2-5.87a91.89,91.89,0,0,1,11-11.63c2.21-2,5.2-1.6,7.47.6s2.72,5.15.83,7.46A151.52,151.52,0,0,1,398.53,163C397.74,163.74,396.3,163.86,394.43,164.55Z"/><path class="cls-6" d="M422.84,210.7c-4.17-.56-8.37-1-12.51-1.72a5.89,5.89,0,0,1-5.05-6.33,6,6,0,0,1,6.35-5.53c4.69.32,9.38.88,14,1.65a6,6,0,0,1,4.92,7.16C430,209.24,427.22,210.88,422.84,210.7Z"/><path class="cls-7" d="M358.76,357.3a76.9,76.9,0,0,1,8.75,3A5.93,5.93,0,0,1,363,371.24a10.85,10.85,0,0,0-8.53,0,5.92,5.92,0,0,1-4.29-11A82.94,82.94,0,0,1,358.76,357.3Z"/><path class="cls-8" d="M155.16,100.35a6,6,0,1,1-5.89-5.88A5.84,5.84,0,0,1,155.16,100.35Z"/><path class="cls-9" d="M179.12,100.27a6,6,0,1,1-6-5.8A5.85,5.85,0,0,1,179.12,100.27Z"/><path class="cls-10" d="M210.57,136.42c.79.67,2.85,1.74,3.89,3.44a111.47,111.47,0,0,1,5.88,11.59c1.61,3.48.51,6.68-2.57,8.25s-6.38.51-8.17-2.81c-2.11-3.93-4.16-7.91-5.93-12C201.78,140.56,204.68,136.29,210.57,136.42Z"/><path class="cls-11" d="M275,142.87a9.6,9.6,0,0,1-.58,2c-2,4.12-3.94,8.28-6.15,12.3a6,6,0,0,1-10.69-5.38c1.89-4.17,4-8.26,6.12-12.3a5.61,5.61,0,0,1,6.95-2.93C273.38,137.39,274.9,139.44,275,142.87Z"/><path class="cls-12" d="M245,142.55c0,2.11.12,4.24,0,6.34a5.74,5.74,0,0,1-5.94,5.44,5.65,5.65,0,0,1-5.92-5.45c-.17-4.34-.17-8.7,0-13A5.64,5.64,0,0,1,239,130.4a5.72,5.72,0,0,1,5.94,5.44C245.1,138.07,245,140.31,245,142.55Z"/><path class="cls-13" d="M184.83,153.68c2,1,3.44,1.46,4.5,2.39a64.5,64.5,0,0,1,6.09,6.06,6,6,0,0,1-8.55,8.46c-2.22-2-4.68-4-6.18-6.43a8.4,8.4,0,0,1-.62-6.45C180.72,156,183.15,155,184.83,153.68Z"/><path class="cls-14" d="M299.54,160.08c-1,1.95-1.46,3.42-2.38,4.48a69.2,69.2,0,0,1-6,6.07A6,6,0,1,1,282.7,162c2-2.18,3.95-4.66,6.44-6.13a8.31,8.31,0,0,1,6.44-.55C297.25,156,298.24,158.4,299.54,160.08Z"/><path class="cls-15" d="M101.29,184.15c0-4.74-.06-9.47,0-14.21.08-5.47,4.22-8.18,9.17-5.78,9.73,4.72,19.45,9.49,29,14.61a7.49,7.49,0,0,1,3.47,5.46,7.4,7.4,0,0,1-3.38,5.5c-9.64,5.17-19.46,10-29.32,14.76-4.75,2.28-8.83-.47-8.92-5.75C101.23,193.88,101.29,189,101.29,184.15Zm12.24-4.9v10.06l10-5Z"/></svg>