<svg id="Capa_1" data-name="Capa 1" xmlns="http://www.w3.org/2000/svg" xmlns:xlink="http://www.w3.org/1999/xlink" viewBox="0 0 500 500"><defs><style>.cls-1{fill:url(#Degradado_sin_nombre_11);}.cls-2{fill:url(#Degradado_sin_nombre_11-2);}.cls-3{fill:url(#Degradado_sin_nombre_11-3);}.cls-4{fill:url(#Degradado_sin_nombre_11-4);}.cls-5{fill:url(#Degradado_sin_nombre_11-5);}.cls-6{fill:url(#Degradado_sin_nombre_11-6);}</style><linearGradient id="Degradado_sin_nombre_11" x1="62.34" y1="303.06" x2="430.08" y2="303.06" gradientUnits="userSpaceOnUse"><stop offset="0" stop-color="#74aa62"/><stop offset="0.47" stop-color="#3eab92"/><stop offset="1" stop-color="#19acc1"/></linearGradient><linearGradient id="Degradado_sin_nombre_11-2" x1="199.91" y1="98.9" x2="292.61" y2="98.9" xlink:href="#Degradado_sin_nombre_11"/><linearGradient id="Degradado_sin_nombre_11-3" x1="216.91" y1="119.37" x2="275.58" y2="119.37" xlink:href="#Degradado_sin_nombre_11"/><linearGradient id="Degradado_sin_nombre_11-4" x1="233.14" y1="139.61" x2="259.09" y2="139.61" xlink:href="#Degradado_sin_nombre_11"/><linearGradient id="Degradado_sin_nombre_11-5" x1="192.27" y1="258.81" x2="300.05" y2="258.81" xlink:href="#Degradado_sin_nombre_11"/><linearGradient id="Degradado_sin_nombre_11-6" x1="222.19" y1="258.81" x2="277.02" y2="258.81" xlink:href="#Degradado_sin_nombre_11"/></defs><path class="cls-1" d="M145.54,405.1c-5.82-4.94-7.23-10.75-7.28-17.49-.07-9.06-.13-18.27-1.72-27.14-2.13-11.92-9.3-21.35-18.28-29.26a10.5,10.5,0,0,1-3.92-9.38,138.24,138.24,0,0,0,0-15c-.23-6,2-10.85,6.26-15,6.16-6,12.2-12.14,18.27-18.24,5.19-5.22,5.6-12.05,1-16.57-4.41-4.37-11.24-3.92-16.29,1.11-10,10-19.9,20-29.94,29.87a10.29,10.29,0,0,0-3.3,7.95c.09,16.21,0,32.43,0,48.64a29.33,29.33,0,0,1-8.4,20.95c-3.59,3.79-7.32,7.45-11.14,11.33l-8.59-9.21c3-2.85,6.27-6,9.63-9.14,4.6-4.24,6.57-9.48,6.55-15.68-.08-15.84.1-31.69-.09-47.53-.08-6.3,1.7-11.69,6.56-15.57,4.55-3.62,5.66-7.92,5.61-13.58-.28-30.06-.14-60.12-.13-90.18,0-11.52,7.42-19,18.86-19H382.89c11.5,0,18.95,7.42,19,18.9q0,47.34-.06,94.68c0,2.58.58,4.52,2.59,6.16a53,53,0,0,1,4,3.94,18.2,18.2,0,0,1,5.49,13.43c-.08,16.22,0,32.44-.06,48.65,0,6.2,1.89,11.45,6.48,15.71,3.36,3.13,6.6,6.39,9.8,9.49l-8.7,9c-4.63-4.89-9.41-9.46-13.63-14.5s-5.93-11.11-5.91-17.71c.06-16.09,0-32.18.07-48.27a11,11,0,0,0-3.48-8.63C388.36,278,378.42,268,368.5,258c-3.61-3.64-7.78-5-12.58-3.15-7.33,2.77-9.09,11.95-3.39,17.88q9.23,9.57,18.79,18.79c4.58,4.42,6.91,9.53,6.63,16-.25,5.73.08,11.48-.14,17.21a7.9,7.9,0,0,1-1.88,4.48c-2.62,3-5.68,5.61-8.33,8.59-8.88,10-13.24,21.81-13.63,35.11-.13,4.49,0,9,0,13.47,0,10.09-.4,11.21-6.62,18.72,3.74,3.78,7.1,8.14,11.39,11.17,3.26,2.3,7.64,3.31,11.67,4.15,3.11.65,6.46.18,9.71.12A25.75,25.75,0,0,1,397.19,426c5.27,4.31,10,9.26,14.92,13.87l-8.8,9.06c-3.36-3.51-6.66-6.89-9.89-10.33a19.25,19.25,0,0,0-14.72-6.14,120.86,120.86,0,0,1-12.34-.14,28.78,28.78,0,0,1-17.53-8.38c-4.54-4.46-8.93-9.07-13.56-13.43a7.22,7.22,0,0,0-4.46-1.91q-84.57-.15-169.15,0a7.78,7.78,0,0,0-4.75,2.08c-4.48,4.16-8.68,8.61-13,12.89-6.06,5.95-13.34,9.61-21.85,8.77-12.13-1.21-21.77,2.5-29.09,12.23-1.12,1.49-2.34,2.91-3.66,4.53l-8.6-9.3c7.58-7.36,14.09-17,26.23-18.81a87.11,87.11,0,0,1,13.43-.46c6.33.07,11.67-1.91,16.06-6.58C139.2,411,142.29,408.23,145.54,405.1Zm-18.95-212v49.18a9.28,9.28,0,0,0,1.32,0c10.88-1.65,20.32,2.95,25,12.17s2.91,19.34-4.72,27.1c-3.75,3.83-7.22,8.06-11.44,11.29-8.52,6.52-11.82,14.65-10.47,25.28.73,5.73.92,6.58,6.84,6.58H361.33c3-.05,4.57-1.59,4.59-4.58,0-4.12.39-8.28-.13-12.33a14.2,14.2,0,0,0-3.14-7.52c-6.16-6.69-12.89-12.85-19.16-19.45-6.12-6.45-8.23-14.15-5.48-22.76s8.71-14.15,17.74-15.7c3.21-.56,6.59-.09,10-.09V193.1ZM389,261.74l.89-.49v-3.19q0-40.23,0-80.45c0-6.7-1.95-8.62-8.72-8.62Q246.07,169,111,169c-6.54,0-8.54,2-8.54,8.42q0,40.41,0,80.83c0,1,.14,2.08.28,4.12,3.46-3.62,6.18-6.7,9.16-9.51a7.62,7.62,0,0,0,2.59-6.16c-.11-20.46-.06-40.92-.06-61.37V181.2H377.9v4.28q0,30.87,0,61.74c0,1.28.13,2.92.88,3.79C382.07,254.71,385.58,258.18,389,261.74Zm-238.44,123c-.74,10.18.79,11.85,10.5,11.85H304.36c10,0,19.95,0,29.93,0,5.45,0,7.63-2.28,7.68-7.78,0-1.32,0-2.64,0-4.06Zm35.89-12.36h53.44V336.85H186.44Zm65.87,0h53.43V336.66H252.31Zm-101.88,0h23.69V336.94H139.45A67.2,67.2,0,0,1,150.43,372.32Zm167.85-35.56V372.3h23.64c.2-12.94,4.14-24.53,10.93-35.54Z"/><path class="cls-2" d="M283.79,112.27c-22.37-21-54.92-19.44-75.54.41l-8.34-8.31c23.57-25.05,67.16-26.31,92.7.09Z"/><path class="cls-3" d="M267.14,129.52c-11.85-10.27-27.72-12-42.25.14l-8-8.2c13.86-16,43.2-17,58.67.05Z"/><path class="cls-4" d="M233.14,138.78c7.91-7.59,18.13-7.58,25.95-.1-2,1.82-4.35,3.37-5.81,5.54-2.27,3.37-4.69,1.09-7.12.89-2.26-.19-4.56,2.83-6.86-.63C237.84,142.28,235.35,140.77,233.14,138.78Z"/><path class="cls-5" d="M245.9,312.7c-29.41,0-53.61-24.08-53.63-53.4,0-30.3,23.78-54.37,53.77-54.37a53.89,53.89,0,1,1-.14,107.77Zm.44-95.8A42.3,42.3,0,0,0,204.26,259c0,22.64,19.06,41.65,41.73,41.68a42.18,42.18,0,0,0,42.06-42.1C288,235.86,269,216.88,246.34,216.9Z"/><path class="cls-6" d="M222.21,258.7c0-6.35-.06-12.7,0-19,.11-9.32,9.68-15.15,17.74-10.44q16.08,9.42,31.62,19.77c7.32,4.86,7.2,15-.17,19.81-10.28,6.77-20.7,13.34-31.32,19.56-8.23,4.82-17.79-1-17.88-10.6C222.17,271.4,222.21,265.05,222.21,258.7Zm12.21-18.78v37.8l30.19-18.92Z"/></svg>