<svg id="Capa_1" data-name="Capa 1" xmlns="http://www.w3.org/2000/svg" xmlns:xlink="http://www.w3.org/1999/xlink" viewBox="0 0 500 500"><defs><style>.cls-1{fill:url(#Degradado_sin_nombre_11);}.cls-2{fill:url(#Degradado_sin_nombre_11-2);}.cls-3{fill:url(#Degradado_sin_nombre_11-3);}.cls-4{fill:url(#Degradado_sin_nombre_11-4);}.cls-5{fill:url(#Degradado_sin_nombre_11-5);}.cls-6{fill:url(#Degradado_sin_nombre_11-6);}.cls-7{fill:url(#Degradado_sin_nombre_11-7);}.cls-8{fill:url(#Degradado_sin_nombre_11-8);}</style><linearGradient id="Degradado_sin_nombre_11" x1="68.05" y1="266.53" x2="439.54" y2="266.53" gradientUnits="userSpaceOnUse"><stop offset="0" stop-color="#74aa62"/><stop offset="0.47" stop-color="#3eab92"/><stop offset="1" stop-color="#19acc1"/></linearGradient><linearGradient id="Degradado_sin_nombre_11-2" x1="124.85" y1="351.96" x2="168.84" y2="428.14" xlink:href="#Degradado_sin_nombre_11"/><linearGradient id="Degradado_sin_nombre_11-3" x1="208.65" y1="351.96" x2="252.74" y2="428.33" xlink:href="#Degradado_sin_nombre_11"/><linearGradient id="Degradado_sin_nombre_11-4" x1="292.56" y1="351.96" x2="336.56" y2="428.17" xlink:href="#Degradado_sin_nombre_11"/><linearGradient id="Degradado_sin_nombre_11-5" x1="163.85" y1="143.83" x2="193.75" y2="143.83" xlink:href="#Degradado_sin_nombre_11"/><linearGradient id="Degradado_sin_nombre_11-6" x1="164.07" y1="203.79" x2="205.5" y2="203.79" xlink:href="#Degradado_sin_nombre_11"/><linearGradient id="Degradado_sin_nombre_11-7" x1="157.9" y1="176.72" x2="169.87" y2="176.72" xlink:href="#Degradado_sin_nombre_11"/><linearGradient id="Degradado_sin_nombre_11-8" x1="193.85" y1="176.72" x2="205.8" y2="176.72" xlink:href="#Degradado_sin_nombre_11"/></defs><path class="cls-1" d="M263,278.56a80,80,0,0,1,8.58,41.94c5.47,0,10.69-.41,15.83.09,8.5.83,15.65-1.4,22.42-6.7s14-9.47,21.06-14.22c5.29-3.58,10.86-4.45,16.57-1.42s8.42,8.22,8.11,14.84c-.1,2.33,0,4.68,0,7,5.13.41,10.05.25,14.71,1.28,14.13,3.12,23.53,17.54,21,31.74q-6.87,38-13.93,76c-2.68,14.27-13.71,23.18-28.31,23.18-79,0-158-.16-236.92.17-13,.05-27.46-7.46-30.51-25.89-4-24.17-8.54-48.26-13-72.36C65.87,339.57,74,325.65,88.3,321.77c3.42-.93,3.83-2.42,3.77-5.36-.49-22.49,7.49-41.61,23.24-57.56,1-1.06,2.17-2.05,3.57-3.36-.95-.7-1.78-1.34-2.63-1.93-16.25-11.22-22.77-30.79-15.31-49.08,6.71-16.48,9.31-33.37,9.15-51.06-.32-35.56,24-64.76,59-71.56,39.43-7.67,78.78,20.8,83.82,60.94.93,7.38.58,14.93.79,22.4.05,1.71,0,3.43,0,5.53,9.4,0,18.47.21,27.53-.06,8.29-.25,14.47,2.76,18.61,10,.46.82,2.16,1.39,3.25,1.33,16.85-.93,33.06-14,38.13-31.2a59.69,59.69,0,0,0,2.23-14.69c.33-10,.09-20,.1-29.95,0-9.5,6.52-14.85,16-13.15a24,24,0,0,1,19.95,23.66c0,13.35,0,26.7,0,40.05,0,5.77,2.17,8,7.87,8,10.61,0,21.22.2,31.81,0,7.95-.19,14.23,2.43,18.07,9.54s2.66,13.93-2.22,20.41c5.88,7.93,6.1,16,.06,23.88,5.92,9.72,5.92,15,0,24.16,4,5.14,5.57,10.93,3.55,17.39a17.73,17.73,0,0,1-16.83,12.49c-30.69,0-61.39.2-92.07-.17-5.69-.07-11.37-2.33-17-3.69-1.93-.46-3.73-1.53-5.66-1.85-3.26-.55-6.16-1-8.3,3.16-3,5.79-8.48,8.55-15.14,8.55ZM163.94,146.82c-5.36,4.74-10.58,9.72-18,11.27,0,14.72-.31,29.19.1,43.63.32,11.55,8.46,20.82,19.93,22.23,8.6,1.06,17.4.65,26.11.67,15.35,0,25.62-10.2,25.68-25.47.05-13.46,0-26.93,0-40.4,0-1.48.17-3.23-.52-4.38a22,22,0,0,0-5.29-6.3c-.56-.42-3.27,1.66-4.75,2.89-5.57,4.62-11.64,7.78-19.4,7.69V146.73c10.57-1.33,16.07-7.92,18.27-17.65h11.58c0,1.27.3,2.39-.06,3.23-1.37,3.23.13,4.67,2.77,6.42a20.23,20.23,0,0,1,9.38,17.71q0,22.26,0,44.53a33.52,33.52,0,0,1-12,26.35c-3.9,3.35-8.64,5.72-13.37,8.77,1.41.62,3,1.44,4.61,2,7.22,2.61,14.44,5.25,21.73,7.69a7.9,7.9,0,0,0,5.09.2,28.49,28.49,0,0,0,16.49-18.22c2.49-7.69,1.41-15.1-2-22.12a86.09,86.09,0,0,1-8.7-44.13,78.27,78.27,0,0,0-1.44-21.17c-4.75-21.93-18.11-37-39.28-44.2-21.36-7.23-41.16-3.06-58.3,11.64-14,12-20.3,27.61-20.66,45.9-.17,8.71.17,17.58-1.43,26.06-1.9,10.06-5.35,19.87-8.64,29.62-4.95,14.66,1.56,30.26,15.57,36.52a6.68,6.68,0,0,0,5.88-.06c7-2.84,14.2-5.16,21.31-7.73,1.67-.6,3.26-1.39,5.53-2.37-1.49-.73-2.13-1.09-2.81-1.37C142.28,228.27,134,215.87,134,199.55s0-32.43,0-48.65V147c15.66-1.17,20.5-4.82,24.22-18H170c-.22,1.8-.11,3.48-.65,4.92C167.67,138.27,165.76,142.53,163.94,146.82ZM343.58,332.47c0-6.58.14-12.57-.09-18.55-.07-1.63-.83-3.83-2-4.63-.9-.61-3.26.23-4.55,1.07-10.13,6.6-20.1,13.44-30.27,20a13.44,13.44,0,0,1-6.85,2.05q-100.14.15-200.27.08c-1.37,0-2.75-.05-4.11,0-9.56.7-16.75,9.22-15.14,18.11q6.87,38,13.9,76c1.58,8.54,7.75,13.65,16.58,13.65q119,0,238.08,0c.49,0,1,0,1.49,0,7.76-.59,13.61-5.67,15-13.31q6.82-37.26,13.52-74.55c2.06-11.55-5-19.86-16.63-19.94C356.14,332.44,350.06,332.47,343.58,332.47Zm-41.77-78.85c5.29,1.25,10.09,1.94,14.58,3.54a62.15,62.15,0,0,0,21.59,3.5c26.44-.17,52.88-.07,79.32-.07.88,0,1.75,0,2.62,0,4.6-.08,7.54-2.5,7.45-6.1s-2.93-5.82-7.29-5.88c-3.62-.05-7.24,0-10.85,0h-5.49v-12c5.38,0,10.48,0,15.58,0a13.19,13.19,0,0,0,4-.55,5.32,5.32,0,0,0,3.92-6.05c-.45-3.4-2.79-5.26-6.21-5.33-5.8-.11-11.61,0-17.39,0v-12c5.52,0,10.85,0,16.18,0,4.63,0,7.56-2.42,7.53-6s-2.95-5.92-7.59-5.95c-5.32,0-10.65,0-16.06,0v-12c5.46,0,10.68,0,15.9,0,4.86,0,7.89-2.47,7.75-6.17s-3-5.8-7.73-5.81c-11,0-22,0-32.93,0-11.76,0-19.16-7.37-19.17-19.07,0-13.35.06-26.7,0-40-.05-7.44-5.14-12.63-12-12.27,0,10.83,0,21.68,0,32.52A57,57,0,0,1,314,192.37c-3.94,1.08-8,1.66-12.15,2.5Zm-42.47,66.69c2.58-24.27-11-50.32-29.91-60.37-2.42,11-7.93,19.76-19.06,23.39-11.56,3.76-20.89-.65-28.56-9.62-7.72,9.13-17,13.3-28.43,9.63-11.24-3.61-16.73-12.54-19.22-23.64-21.72,12.93-32.6,40.33-29.58,60.59h23.48V296.71H140v23.53h84V296.76h11.9v23.55Zm-14.4-65.07c3.16,3.43,6,6.61,8.94,9.6a5.59,5.59,0,0,0,3.41,1.67q12.9.19,25.8,0c4.09-.06,6.53-2.48,6.54-6.6q.11-35.34,0-70.69c0-3.66-2.15-6.33-5.52-6.4-9.66-.22-19.33-.08-29.45-.08.68,2.09,1.13,3.75,1.76,5.34,2.17,5.56,4.52,11,6.6,16.64,4.39,11.86,3.62,23.41-2.49,34.55C256.86,246,251.49,251.09,244.94,255.24Zm-71.78-18.62c-2.28,3.17-4.29,5.81-6.09,8.59a4.34,4.34,0,0,0-.59,3,16.05,16.05,0,0,0,14.94,12.38c6.8.26,13.19-4.55,15.55-11.18,1.9-5.35-4.47-6.64-4.86-10.81-.07-.68-.86-1.38-1.47-1.88-.3-.25-1-.08-1.46-.08Zm-4.47,32.67A29,29,0,0,1,154.55,251c-10.06,1.85-9.88,1.86-6.91,11.48a15.54,15.54,0,0,0,3.61,5.59C156.2,273.39,162.56,273.89,168.69,269.29Zm26.24.08c3.51,2.65,6.79,3.67,10.77,2.72,7.07-1.69,11.78-9.06,12-17.07a2.83,2.83,0,0,0-1.47-2.13c-2.23-.9-4.59-1.5-7-2.25A29.25,29.25,0,0,1,194.93,269.37Z"/><path class="cls-2" d="M110.48,368.36h21.61c1.75-7.87,3.46-15.6,5.24-23.61h17.12c1.58,6.91,3.35,13.75,4.64,20.69.5,2.68,1.66,3.07,4,3,6.09-.13,12.18-.05,18.77-.05,0,4.76.11,9.33-.08,13.88,0,.9-1.05,1.89-1.83,2.6-3.41,3.11-6.82,6.22-10.39,9.13-1.74,1.43-2.1,2.63-1.08,4.72q4,8.21,7.55,16.64a4.3,4.3,0,0,1-.48,3.76c-3.59,4-7.45,7.69-11.45,11.74-5.88-6.19-11.6-12.19-17.46-18.35l-18.76,18.85c-4.23-4.44-8.17-8.4-11.85-12.58-.62-.7-.56-2.51-.13-3.52,2.33-5.49,4.79-10.94,7.39-16.3,1-2.12,1.07-3.6-1-5-1.53-1.06-2.67-2.73-4.26-3.62C109.12,385.37,108.89,377.42,110.48,368.36Zm39.58,12.05c-1.3-5.64-2.51-10.87-3.71-16.11h-.79c-1.22,5.32-2.45,10.64-3.75,16.26H125.34c4.46,3.92,8.22,7.33,12.11,10.59,1.49,1.25,1.74,2.33.88,4.1-2.1,4.3-4,8.71-6,13.07l1.13.95,12.79-13.83L159,408.67a81.51,81.51,0,0,0-5.28-13.05c-1-2-.79-3.24,1-4.69,3.87-3.17,7.54-6.57,12-10.52Z"/><path class="cls-3" d="M194.54,368.42h21.39c1.78-8,3.49-15.74,5.26-23.7h17.1c1.56,6.83,3.33,13.79,4.68,20.82.47,2.44,1.43,3,3.68,2.93,6.2-.13,12.41-.05,19-.05,0,4.73.09,9.18-.08,13.62a4.68,4.68,0,0,1-1.66,2.68c-3.29,3-6.55,6.16-10.1,8.88-2.38,1.83-2.45,3.38-1.17,5.91,2.58,5.1,4.71,10.43,7.19,15.58.88,1.83.82,3-.73,4.52-3.75,3.62-7.28,7.47-11.09,11.42L230.2,413l-18,18.22c-4.54-4.52-8.71-8.55-12.67-12.79-.52-.55-.2-2.29.22-3.27,2.43-5.58,4.93-11.14,7.57-16.63.92-1.92.77-3.2-1-4.4-1.12-.76-2-2-3.13-2.65C194.46,386.29,191.79,378.66,194.54,368.42ZM242.48,409l.88-.68c-1.94-4.25-3.74-8.56-5.86-12.72-1.05-2.07-.66-3.26,1.05-4.68,3.84-3.18,7.52-6.56,11.26-9.86l-.41-.77H233.88c-1.27-5.53-2.48-10.75-3.68-16h-.79l-3.76,16.27H209.23c4.35,3.82,8,7.19,11.84,10.33,1.76,1.45,2,2.71,1,4.72-2.09,4.16-3.91,8.47-5.84,12.71l.91.7,12.75-13.87Z"/><path class="cls-4" d="M331.67,431l-18-18.08-17.94,18.69c-4.41-4.63-8.33-8.6-12-12.78-.62-.71-.58-2.51-.16-3.52,2.28-5.38,4.59-10.76,7.25-16,1.37-2.66,1-4.28-1.41-5.87-1.33-.89-2.3-2.36-3.69-3.14-8.87-4.94-9.1-12.91-7.58-21.84h21.63c1.78-8,3.49-15.72,5.27-23.74h17.13c1.58,6.88,3.34,13.72,4.63,20.66.49,2.66,1.62,3.1,3.95,3.05,6.09-.13,12.19-.05,18.8-.05,0,4.74.1,9.31-.08,13.86,0,.9-1,1.9-1.82,2.61-3.41,3.1-6.83,6.21-10.39,9.13-1.72,1.41-2.13,2.6-1.1,4.71q4,8.2,7.55,16.64a4.3,4.3,0,0,1-.46,3.76C339.65,423.1,335.79,426.83,331.67,431Zm-5.39-22,.93-.72c-1.93-4.25-3.74-8.55-5.84-12.71-1-2.05-.73-3.26,1-4.69,3.85-3.18,7.53-6.57,12.13-10.63H317.74c-1.28-5.54-2.48-10.76-3.69-16h-.78l-3.76,16.26H293.06c4.45,3.92,8.21,7.34,12.11,10.59,1.51,1.26,1.71,2.36.86,4.1-2.1,4.31-4,8.71-6,13.07l.87.66,12.71-13.81Z"/><path class="cls-5" d="M187.89,146.81c-1.25,1.1-2.52,2.18-3.75,3.31-5.62,5.17-12,8.48-20.29,8.64v-12c10.54-1.32,16.05-7.86,18.3-17.82h11.54c.42,5.24-1.51,9.69-3.85,14C189.16,144.22,188.54,145.52,187.89,146.81Z"/><path class="cls-6" d="M194.29,194.84h11.12c1,8-6,17-14.75,17.59s-17.61.14-26.59.14V200.69h20.39C190.85,200.68,191.52,200.28,194.29,194.84Z"/><path class="cls-7" d="M164,182.7a6,6,0,1,1,5.87-5.91A5.83,5.83,0,0,1,164,182.7Z"/><path class="cls-8" d="M205.8,176.75a6,6,0,1,1-5.76-6A5.86,5.86,0,0,1,205.8,176.75Z"/></svg>