<svg id="Capa_1" data-name="Capa 1" xmlns="http://www.w3.org/2000/svg" xmlns:xlink="http://www.w3.org/1999/xlink" viewBox="0 0 500 500"><defs><style>.cls-1{fill:url(#Degradado_sin_nombre_11);}.cls-2{fill:url(#Degradado_sin_nombre_11-2);}.cls-3{fill:url(#Degradado_sin_nombre_11-3);}.cls-4{fill:url(#Degradado_sin_nombre_33);}.cls-5{fill:url(#Degradado_sin_nombre_11-4);}.cls-6{fill:url(#Degradado_sin_nombre_33-2);}.cls-7{fill:url(#Degradado_sin_nombre_33-3);}.cls-8{fill:url(#Degradado_sin_nombre_33-4);}.cls-9{fill:url(#Degradado_sin_nombre_33-5);}.cls-10{fill:url(#Degradado_sin_nombre_11-5);}.cls-11{fill:url(#Degradado_sin_nombre_11-6);}.cls-12{fill:url(#Degradado_sin_nombre_11-7);}.cls-13{fill:url(#Degradado_sin_nombre_11-8);}.cls-14{fill:url(#Degradado_sin_nombre_11-9);}.cls-15{fill:url(#Degradado_sin_nombre_11-10);}.cls-16{fill:url(#Degradado_sin_nombre_11-11);}.cls-17{fill:url(#Degradado_sin_nombre_11-12);}</style><linearGradient id="Degradado_sin_nombre_11" x1="70.27" y1="306.97" x2="429.73" y2="306.97" gradientUnits="userSpaceOnUse"><stop offset="0" stop-color="#74aa62"/><stop offset="0.47" stop-color="#3eab92"/><stop offset="1" stop-color="#19acc1"/></linearGradient><linearGradient id="Degradado_sin_nombre_11-2" x1="76.19" y1="169.21" x2="238.03" y2="169.21" xlink:href="#Degradado_sin_nombre_11"/><linearGradient id="Degradado_sin_nombre_11-3" x1="124.2" y1="232.09" x2="369.83" y2="232.09" xlink:href="#Degradado_sin_nombre_11"/><linearGradient id="Degradado_sin_nombre_33" x1="339.85" y1="283" x2="375.79" y2="283" gradientUnits="userSpaceOnUse"><stop offset="0" stop-color="#74aa62"/><stop offset="0.47" stop-color="#3eab92"/></linearGradient><linearGradient id="Degradado_sin_nombre_11-4" x1="249.9" y1="210.92" x2="411.75" y2="210.92" xlink:href="#Degradado_sin_nombre_11"/><linearGradient id="Degradado_sin_nombre_33-2" x1="232.02" y1="303.96" x2="267.96" y2="303.96" xlink:href="#Degradado_sin_nombre_33"/><linearGradient id="Degradado_sin_nombre_33-3" x1="285.93" y1="309.95" x2="321.88" y2="309.95" xlink:href="#Degradado_sin_nombre_33"/><linearGradient id="Degradado_sin_nombre_33-4" x1="178.09" y1="315.92" x2="214.07" y2="315.92" xlink:href="#Degradado_sin_nombre_33"/><linearGradient id="Degradado_sin_nombre_33-5" x1="124.18" y1="321.93" x2="160.15" y2="321.93" xlink:href="#Degradado_sin_nombre_33"/><linearGradient id="Degradado_sin_nombre_11-5" x1="261.86" y1="127.33" x2="310" y2="127.33" xlink:href="#Degradado_sin_nombre_11"/><linearGradient id="Degradado_sin_nombre_11-6" x1="261.88" y1="187.16" x2="309.91" y2="187.16" xlink:href="#Degradado_sin_nombre_11"/><linearGradient id="Degradado_sin_nombre_11-7" x1="255.84" y1="100.61" x2="292.01" y2="100.61" xlink:href="#Degradado_sin_nombre_11"/><linearGradient id="Degradado_sin_nombre_11-8" x1="255.89" y1="214.5" x2="292.07" y2="214.5" xlink:href="#Degradado_sin_nombre_11"/><linearGradient id="Degradado_sin_nombre_11-9" x1="100.24" y1="384.82" x2="112.21" y2="384.82" xlink:href="#Degradado_sin_nombre_11"/><linearGradient id="Degradado_sin_nombre_11-10" x1="124.2" y1="384.82" x2="136.16" y2="384.82" xlink:href="#Degradado_sin_nombre_11"/><linearGradient id="Degradado_sin_nombre_11-11" x1="363.82" y1="384.82" x2="375.78" y2="384.82" xlink:href="#Degradado_sin_nombre_11"/><linearGradient id="Degradado_sin_nombre_11-12" x1="387.78" y1="384.82" x2="399.74" y2="384.82" xlink:href="#Degradado_sin_nombre_11"/></defs><path class="cls-1" d="M88.25,354.88v-4.75q0-71.11,0-142.24a20.25,20.25,0,0,1,.08-3.74,5.6,5.6,0,0,1,5.64-5,5.8,5.8,0,0,1,6.16,4.83,24.41,24.41,0,0,1,.08,3.73q0,71.13,0,142.25v4.9H210.41c8.43,0,9.51,1.05,9.63,9.32,0,.73.06,1.46.11,2.42H280c0-1.44,0-2.77,0-4.11,0-5.75,1.86-7.63,7.56-7.63H399.75v-4.34q0-30.5,0-61c0-3.49,1.54-5.74,4.95-6.45a5.86,5.86,0,0,1,6.77,4,14.28,14.28,0,0,1,.26,3.71q0,29.76,0,59.52v4.56c3.92,0,7.62,0,11.31,0,4.49.05,6.63,2.16,6.65,6.65.05,8.11.08,16.23,0,24.34-.17,15.5-13.5,28.81-29.08,28.85-29.83.09-59.66,0-89.49,0-4.75,0-7.27-2.19-7.19-6.13.08-3.74,2.58-5.82,7.12-5.82q43.07,0,86.11,0c13.36,0,20.57-7.22,20.58-20.56,0-5,0-9.94,0-15.15H291.92c0,1.69,0,3.27,0,4.86-.06,4.74-2.12,6.86-6.82,6.87-13.23,0-26.46,0-39.69,0H216.2c-6.45,0-8.11-1.68-8.14-8.19v-3.55H82.69c0,7-.69,14.06.18,20.89,1.11,8.78,8.28,14.37,17.16,14.79,1.24.06,2.49,0,3.74,0H283.11a31.09,31.09,0,0,1,3.74.06,6,6,0,0,1-.09,11.86,24.8,24.8,0,0,1-3,.05H101.07c-17.94,0-30.77-12.93-30.79-30.95,0-7.36,0-14.72,0-22.08,0-4.75,2.1-6.8,6.85-6.85C80.72,354.85,84.31,354.88,88.25,354.88Z"/><path class="cls-2" d="M152.38,195.37c3,11,5.84,21.44,8.57,31.89,3.14,12-3.61,23.12-15.41,25.54-11,2.25-21.48-5.38-23.59-17.06-2.53-14.06-5.12-28.12-7.55-41.39-6.14-1.61-12.17-2.38-17.48-4.75-15.63-7-23.56-23.85-19.8-40.6a35.9,35.9,0,0,1,35-27.69c15.08,0,30.15.26,45-3a138.94,138.94,0,0,0,43.61-17.95,6,6,0,0,0,2.09-2.84c3.43-8.72,11.8-13.69,20.45-12,8.81,1.7,14.65,9.07,14.67,18.54,0,3.62.06,7.23,0,10.85-.07,3.85-2.37,6.28-5.85,6.35-3.66.06-6-2.4-6.09-6.47-.06-3.49,0-7,0-10.48-.09-4.1-2.46-6.85-5.83-7s-6.11,2.74-6.12,7q0,52.76,0,105.52c0,4.31,2.53,7.17,6,7.14s5.93-2.9,5.94-7.23q0-34.8,0-69.6c0-4.31,2-6.77,5.6-7,3.93-.21,6.35,2.37,6.36,7q0,29.74,0,59.49c0,3.87,0,7.73,0,11.6a18,18,0,0,1-14.52,17.54c-8.19,1.7-16.6-3-20.17-10.79a12.73,12.73,0,0,0-4.67-5.25,129.4,129.4,0,0,0-43.9-17.14C154.16,195.58,153.57,195.53,152.38,195.37Zm-16-62.08v47.86a145,145,0,0,1,65.43,19.36V113.89A144.59,144.59,0,0,1,136.41,133.29Zm-12.37,0c-4.52,0-8.64-.19-12.73,0-12.34.69-21.6,9.67-23,22-1.16,10.55,6,21.67,16.86,24.4,6,1.52,12.44,1.31,18.83,1.89Zm2.57,60.11c2.46,13.54,4.84,26.88,7.3,40.21.94,5.1,5,7.8,9.82,6.71,4.31-1,6.68-5.39,5.39-10.26q-3.54-13.33-7.16-26.65C138.93,192.35,138.9,192.35,126.61,193.41Z"/><path class="cls-3" d="M348.24,187.36c-5.67-.41-7.91-1.91-8.36-5.29s1.82-6.7,5.3-6.8c6.36-.19,12.73-.16,19.09,0,3.29.08,5.43,2.45,5.49,5.89q.15,9,0,18a5.76,5.76,0,0,1-5.79,6c-3.52.08-5.92-2.28-6.15-6.06-.05-.94-.09-1.89-.17-3.35-1.29,1.09-2.23,1.84-3.12,2.65q-28.54,25.92-57,51.88a10.1,10.1,0,0,1-7.37,2.85q-32.56-.14-65.14,0a13.3,13.3,0,0,0-6,1.52c-19.94,10.76-39.79,21.69-59.75,32.41a17.54,17.54,0,0,1-7.41,1.86c-6.6.25-13.22.09-19.83.08-5.22,0-7.76-1.93-7.82-5.89s2.58-6.58,7.61-6c14.55,1.75,27.12-2.55,39.44-10.12,14.2-8.73,29.16-16.22,43.89-24.07a15.56,15.56,0,0,1,7.05-1.76c21.34-.14,42.68,0,64-.15a8.11,8.11,0,0,0,5-1.64q28-25.16,55.73-50.54C347.28,188.51,347.56,188.13,348.24,187.36Z"/><path class="cls-4" d="M375.78,283q0,26,0,52c0,6.16-1.78,7.9-8,7.91-7,0-14,0-21,0-4.76,0-6.92-2.1-6.92-6.76q0-53.12,0-106.23c0-4.68,2.14-6.75,6.91-6.77q11,0,22.07,0c4.91,0,6.93,2.1,6.94,7.13Q375.8,256.62,375.78,283Zm-12.22,47.75V235.38H352v95.36Z"/><path class="cls-5" d="M320.35,151.24q30.51,0,61,0c17.26,0,30.33,13,30.36,30.23,0,27.57,0,55.14,0,82.71,0,2.9-.8,5.52-3.65,6.21-1.91.47-4.74.21-6.11-.95s-2.14-3.88-2.15-5.91c-.13-26.57-.08-53.14-.09-79.72,0-13.38-7.19-20.6-20.52-20.6q-60.83,0-121.65,0c-3.09,0-5.73-.5-7.11-3.62-1.89-4.26,1.12-8.35,6.25-8.37,13.23,0,26.45,0,39.68,0Z"/><path class="cls-6" d="M232,304q0-15.89,0-31.78c0-5.17,2-7.13,7.28-7.15q10.66,0,21.32,0c5.26,0,7.31,2,7.32,7.12q0,31.79,0,63.57c0,5.15-2.05,7.14-7.29,7.15q-10.67,0-21.32,0c-5.39,0-7.31-2-7.31-7.49Q232,319.67,232,304Zm12.14,26.68H255.7V277.2H244.16Z"/><path class="cls-7" d="M285.94,310c0-8.6,0-17.2,0-25.8,0-5.17,2-7.14,7.28-7.15q10.83,0,21.69,0c4.91,0,6.95,2.1,6.95,7.1q0,25.8,0,51.6c0,5.16-2,7.15-7.28,7.16q-10.65,0-21.31,0c-5.4,0-7.32-2-7.33-7.48Q285.93,322.68,285.94,310Zm23.7,20.78V289.28H298.1v41.47Z"/><path class="cls-8" d="M202.07,301.13h-12v4.15c0,10.47,0,21,0,31.42,0,3.79-2.49,6.2-6,6.18a5.68,5.68,0,0,1-5.91-5.87q-.12-21.13,0-42.26a5.44,5.44,0,0,1,5.66-5.71c8.22-.11,16.46-.14,24.68,0a5.2,5.2,0,0,1,5.48,5.47c.13,14.21.11,28.42,0,42.63a6,6,0,0,1-11.9-.24c-.08-10.47,0-20.95,0-31.42Z"/><path class="cls-9" d="M124.2,321.93c0-4.73,0-9.47,0-14.2,0-4.54,2.11-6.71,6.54-6.74q11.4-.09,22.81,0c4.43,0,6.54,2.2,6.56,6.73q.06,14.2,0,28.4c0,4.66-2.18,6.74-6.93,6.76q-11,0-22.05,0c-4.9,0-6.91-2.11-6.94-7.12C124.18,331.15,124.2,326.54,124.2,321.93Zm23.8-8.72H136.47v17.5H148Z"/><path class="cls-10" d="M268.66,139.26c-3.64,0-5.69-1.58-6.55-4.52a5.8,5.8,0,0,1,3.86-7.19c5.61-2,11.31-3.78,17-5.66,5.9-2,11.78-4,17.68-5.89,4.44-1.44,7.82-.19,9,3.25s-.63,6.67-5,8.14q-16.95,5.71-33.93,11.32C269.91,139,269.06,139.15,268.66,139.26Z"/><path class="cls-11" d="M309.91,191.68c-.09,5.62-3.74,8.53-7.81,7.23-12.07-3.85-24.07-7.9-36.05-12a5.93,5.93,0,0,1-3.89-7.5,6,6,0,0,1,7.79-3.95c12.05,3.9,24.09,7.85,36,12.15C307.88,188.28,309.12,190.83,309.91,191.68Z"/><path class="cls-12" d="M261.09,115.9c-1.49-1.4-3.75-2.69-4.71-4.62-1.33-2.7-.12-5.32,2.36-7.18L274.6,92.24c2.49-1.87,4.94-3.8,7.49-5.57,3.09-2.14,6.62-1.67,8.65,1a6,6,0,0,1-1.33,8.6c-7.9,6.07-15.9,12-23.92,17.92C264.55,114.89,263.24,115.09,261.09,115.9Z"/><path class="cls-13" d="M286.5,229.88a35.83,35.83,0,0,1-4.79-2.41q-11.43-8.43-22.74-17c-3.25-2.46-4-5.92-2-8.78s5.76-3.46,9.19-.93c7.72,5.68,15.38,11.45,23,17.21,2.45,1.85,3.64,4.51,2.22,7.2C290.45,227.08,288.2,228.34,286.5,229.88Z"/><path class="cls-14" d="M106.33,378.84a6,6,0,1,1-6.09,5.67A5.86,5.86,0,0,1,106.33,378.84Z"/><path class="cls-15" d="M136.16,384.78a6,6,0,1,1-5.83-5.94A5.86,5.86,0,0,1,136.16,384.78Z"/><path class="cls-16" d="M375.77,384.88a6,6,0,1,1-5.72-6A5.86,5.86,0,0,1,375.77,384.88Z"/><path class="cls-17" d="M399.74,384.64a6,6,0,1,1-6-5.8A5.87,5.87,0,0,1,399.74,384.64Z"/></svg>