<svg id="Capa_1" data-name="Capa 1" xmlns="http://www.w3.org/2000/svg" xmlns:xlink="http://www.w3.org/1999/xlink" viewBox="0 0 500 500"><defs><style>.cls-1{fill:url(#Degradado_sin_nombre_11);}.cls-2{fill:url(#Degradado_sin_nombre_11-2);}.cls-3{fill:url(#Degradado_sin_nombre_11-3);}.cls-4{fill:url(#Degradado_sin_nombre_11-4);}.cls-5{fill:url(#Degradado_sin_nombre_11-5);}.cls-6{fill:url(#Degradado_sin_nombre_11-6);}.cls-7{fill:url(#Degradado_sin_nombre_11-7);}.cls-8{fill:url(#Degradado_sin_nombre_11-8);}.cls-9{fill:url(#Degradado_sin_nombre_11-9);}.cls-10{fill:url(#Degradado_sin_nombre_11-10);}</style><linearGradient id="Degradado_sin_nombre_11" x1="74.07" y1="275.97" x2="433.54" y2="275.97" gradientUnits="userSpaceOnUse"><stop offset="0" stop-color="#74aa62"/><stop offset="0.47" stop-color="#3eab92"/><stop offset="1" stop-color="#19acc1"/></linearGradient><linearGradient id="Degradado_sin_nombre_11-2" x1="73.96" y1="197.99" x2="361.64" y2="197.99" xlink:href="#Degradado_sin_nombre_11"/><linearGradient id="Degradado_sin_nombre_11-3" x1="122.02" y1="275.97" x2="235.85" y2="275.97" xlink:href="#Degradado_sin_nombre_11"/><linearGradient id="Degradado_sin_nombre_11-4" x1="247.82" y1="197.96" x2="295.77" y2="197.96" xlink:href="#Degradado_sin_nombre_11"/><linearGradient id="Degradado_sin_nombre_11-5" x1="133.9" y1="197.84" x2="182" y2="197.84" xlink:href="#Degradado_sin_nombre_11"/><linearGradient id="Degradado_sin_nombre_11-6" x1="193.9" y1="197.97" x2="241.83" y2="197.97" xlink:href="#Degradado_sin_nombre_11"/><linearGradient id="Degradado_sin_nombre_11-7" x1="122.04" y1="107.94" x2="134" y2="107.94" xlink:href="#Degradado_sin_nombre_11"/><linearGradient id="Degradado_sin_nombre_11-8" x1="146" y1="107.94" x2="157.96" y2="107.94" xlink:href="#Degradado_sin_nombre_11"/><linearGradient id="Degradado_sin_nombre_11-9" x1="169.96" y1="107.94" x2="181.92" y2="107.94" xlink:href="#Degradado_sin_nombre_11"/><linearGradient id="Degradado_sin_nombre_11-10" x1="229.86" y1="107.93" x2="331.78" y2="107.93" xlink:href="#Degradado_sin_nombre_11"/></defs><path class="cls-1" d="M117.46,426h4.81q70.93,0,141.89,0c2.77,0,5.24.31,6.81,2.92a6,6,0,0,1-4.41,9.06,24.81,24.81,0,0,1-3,0H112.32c-6.76,0-8.64-2-8.22-8.84.87-14,13.85-26.67,27.84-27.13.75,0,1.5,0,2.25,0,5.68-.23,12.44,1.42,16.84-1.08,11.81-6.71,24.54-12.57,33.1-24,5.15-6.85,8.91-16.24,8.94-23h-4.41q-41.94,0-83.87,0c-17.74,0-30.67-13-30.68-30.72,0-27.38,0-54.76,0-82.14,0-3.4,1.05-5.94,4.39-7,4-1.23,7.57,1.72,7.6,6.27.06,9.38,0,18.76,0,28.13,0,18,0,36,0,54,0,11.82,7.64,19.41,19.5,19.41q100.14,0,200.3,0h3.73c-5.51-6.55-10.78-12.32-15.46-18.54-3.08-4.11-5.78-5.49-11.25-3.92-13.38,3.85-28.06-4.13-33.64-17.26a29.91,29.91,0,0,1,11-37c6.89-4.49,14.24-8.31,20.89-13.11a92.83,92.83,0,0,0,31.38-39.78,6.58,6.58,0,0,0,.57-3.85A18.08,18.08,0,0,1,338,187.38a8.53,8.53,0,0,0,1.49.26q3.92-10.37,7.85-20.79c.84-2.22,1.59-4.47,2.47-6.66,1-2.51,2.81-4.66,5.55-4.07,2.14.46,4.77,1.87,5.82,3.67,3.28,5.55,5.91,11.49,8.93,17.57,7.64-4.59,15-9,22.34-13.45,2.81-1.72,5.59-3,8.63-.81s2.63,5.25,1.93,8.48c-1.43,6.57-2.61,13.19-4,20.09h22.29c.06-1.08.16-2.27.16-3.47q0-21.19,0-42.38c0-12.36-7.49-19.84-19.79-19.88-7.11,0-14.23,0-21.34,0-4.37,0-6.88-2.37-6.78-6.18.1-3.62,2.56-5.77,6.79-5.79,8.11,0,16.22-.08,24.33,0,15.3.18,28.71,13.5,28.73,28.87q.12,91.14,0,182.28c0,15.51-13.53,28.79-29.15,28.83-28.45.08-56.9,0-85.36,0h-4.74c1.7,12.29,6.62,22.63,16,29.95,8.32,6.49,17.6,11.76,26.54,17.43,1,.66,2.61.56,4,.62,6.71.31,13.57-.25,20.1,1,13.07,2.49,23,15.45,22.75,28.44-.07,4.26-2.19,6.56-6.4,6.56q-53.54.06-107.07,0c-3.86,0-6.27-2.37-6.32-5.88-.06-3.81,2.43-6.08,6.86-6.08q47.37,0,94.72,0h4.49c-1.25-6.29-7.44-11.11-15.12-11.9A35.77,35.77,0,0,0,371,414q-117.18,0-234.36,0c-8.29,0-14.84,2.75-18.76,10.42A10.22,10.22,0,0,0,117.46,426Zm184.37-71.84H205.77c-2.72,21-13.46,36.64-32.43,47.65H334.45C315.2,390.86,304.63,375.1,301.83,354.16Zm54.58-68.93c-.38-.84-.65-1.62-1.06-2.33-3.35-5.84-6.76-11.65-10.07-17.51-1.49-2.64-1.46-5.35.73-7.6,1.89-1.94,4.38-2.75,6.79-1.21a12.38,12.38,0,0,1,3.68,4.06c5.45,9.23,10.69,18.6,16.22,27.79,1,1.66,2.86,3.59,4.55,3.84a7.76,7.76,0,0,0,5.81-2.14c2.18-2.22,1.24-5-.24-7.59q-23.2-40.19-46.36-80.39c-.5-.86-.94-2.12-1.69-2.39-2.09-.74-4.71-2-6.4-1.28s-2.8,3.41-3.43,5.47c-.34,1.12.67,2.82,1.39,4.08,5.6,9.87,11.32,19.68,16.91,29.56,2.3,4.07.86,8.1-3.21,9.37-3.47,1.09-5.75-.64-7.4-3.48-3.81-6.55-7.58-13.12-11.63-20.14a112.37,112.37,0,0,1-37.61,42.35l18,31.14C326.64,287.69,326.64,287.69,356.41,285.23ZM347.73,342c19.18,0,37.89.25,56.59-.11,9.91-.18,17-8.12,17.2-18.19.13-7.25,0-14.5,0-21.75V288.11L396.76,285c-.15,8.48-3.22,14.88-10.73,18.3s-14.53,1.77-20.62-3.92c-.8-.74-2.28-.73-3.38-1a9.06,9.06,0,0,0-.34.92c0,3.88,0,7.75-.06,11.62,0,5-2.08,7-7,7.08-4,0-8.07,0-13,0C349.09,325.05,350.74,332.77,347.73,342Zm24.34-103.36c1.45,5.83,4.58,8.33,10.33,7.46a50.65,50.65,0,0,1,9-.06c3.81.1,6.21,2.47,6.2,6s-2.41,5.86-6.24,6c-2.67.07-5.34,0-8.59,0,2.72,4.75,5,8.86,7.45,12.9a3.25,3.25,0,0,0,2.06,1.3c3.84.54,7.71.93,11.56,1.37l.75-1A29.93,29.93,0,0,1,401,269.9c-4.94-4.87-4.69-8,.81-12.16,4.62-3.49,9.23-7,14.18-10.75-5.18-2.6-9.89-4.87-14.51-7.3-4.15-2.2-5-5.63-2.5-9.68.59-1,1.23-1.88,1.85-2.82L416.21,204c-8.14,0-15.58,0-23,0-6.28,0-8.5-2.86-7.21-9.1.95-4.58,1.82-9.17,2.76-13.93a5.12,5.12,0,0,0-1.14.25c-4.82,2.85-9.66,5.7-14.46,8.59-6.18,3.72-8.95,3-12.14-3.39-1.4-2.79-2.82-5.56-4.59-9-2.69,7.13-5.1,13.38-7.37,19.69a3.85,3.85,0,0,0,.21,2.83c2.25,4.14,4.66,8.19,7.31,12.78,2.37-2.45,4.34-4.66,6.5-6.68,2.8-2.63,6.23-2.64,8.69-.23s2.49,5.89-.07,8.72c-1.84,2-3.86,3.91-5.8,5.85-3.6,3.61-3.6,3.88.16,7.64,3.42-1.71,6.84-3.5,10.32-5.14,3.72-1.75,7-.73,8.6,2.53s.39,6.44-3.25,8.38C378.54,235.42,375.29,237,372.07,238.59ZM273,272c-8.43,3.94-14.43,9.25-14,19.12.33,7.43,4.07,12.71,10.87,15.65s14.89,1.27,20.64-4.38Zm27.08,39.83c7.86,9.26,15.33,18.43,23.29,27.15a9.57,9.57,0,0,0,7.56,2.44c6.38-1.13,8.15-8.42,3.46-13.35s-9.86-9.87-14.81-14.78C310.92,304.72,310.92,304.72,300.09,311.87Zm49.29-5.9V297l-24.23,3.46c-.09.45-.18.89-.26,1.34,1.93,1.38,3.78,3.77,5.82,3.94C336.85,306.31,343.05,306,349.38,306ZM421.31,236V218.31l-8.85,13.3Zm-7.63,28,7.61,8V258.28Z"/><path class="cls-2" d="M193.77,126V90.15H110.35V306h4.2q60.27,0,120.54,0c5.8,0,9.32,4.67,6.38,8.83a8.49,8.49,0,0,1-5.84,3c-7,.37-14,.14-20.95.14H106.49c-6.79,0-8.42-1.6-8.42-8.3V127.76c-6.86,1.39-11.88,8.42-12,17-.11,10.87,0,21.75,0,32.62q0,18.57,0,37.13c0,4.87-2,7.41-5.88,7.47-4,.06-6.09-2.53-6.09-7.63,0-22.63.41-45.26-.14-67.88-.37-15.19,8.73-28.29,24.1-32.11,0-9.53,0-19.15,0-28.76,0-5.75,1.87-7.63,7.58-7.63H353.86c6,0,7.77,1.83,7.77,7.82q0,22.3,0,44.63c0,5.66-1.92,7.55-7.66,7.55q-112.12,0-224.25.11c-5.33,0-8.61-3.34-7.52-7.62.86-3.37,3.41-4.53,6.84-4.52,20.09.07,40.18,0,60.27,0ZM349.5,90.2H206.07v35.55H349.5Z"/><path class="cls-3" d="M178.54,294H129.91c-6,0-7.87-1.81-7.88-7.71,0-7.12,0-14.24,0-21.36,0-4.77,2.09-6.91,6.78-6.92q50.13,0,100.26,0c4.66,0,6.73,2.17,6.75,6.94,0,7.13,0,14.25,0,21.37,0,5.75-1.89,7.67-7.54,7.67Q203.43,294,178.54,294Zm45.15-23.75H134.3v11.57h89.39Z"/><path class="cls-4" d="M247.83,198c0-6.12,0-12.23,0-18.35a23.95,23.95,0,0,1,47.89.12q.07,18.35,0,36.69a23.95,23.95,0,0,1-47.89-.11C247.8,210.22,247.83,204.11,247.83,198Zm12,0c0,5.62,0,11.24,0,16.86.08,7.55,5.26,13.11,12.05,13.05s11.83-5.48,11.89-12.83q.12-17.24,0-34.48c-.06-7.27-5.38-12.73-12-12.66s-11.78,5.45-11.88,12.82C259.74,186.54,259.8,192.28,259.8,198Z"/><path class="cls-5" d="M157.85,240c-12.9,0-23.79-10.52-23.83-23,0-4.25,2-6.79,5.58-7s5.92,2,6.4,6.21c.77,6.78,5.28,11.39,11.47,11.75,5.71.33,11-4,12.24-10,1.45-7-4.24-13.56-12.06-13.94-11.93-.58-20.75-7.65-23.15-19.12-1.95-9.34.87-17.44,8.25-23.46,7.74-6.31,16.56-7.37,25.59-3.07,8.44,4,13,11,13.55,20.43.25,4.3-1.85,6.88-5.36,7.19-3.76.33-6.06-1.89-6.61-6.38-.84-6.78-5.4-11.31-11.64-11.56-5.79-.23-10.91,4.09-12.08,10.2-1.34,7,4.35,13.38,12.27,13.77,11.4.55,20.06,7.47,22.77,18.2A23.88,23.88,0,0,1,157.85,240Z"/><path class="cls-6" d="M206.07,204v24c9.73,0,19.3-.12,28.87.1,1.89,0,4.38.9,5.47,2.28a6.63,6.63,0,0,1,.81,5.78c-.79,1.68-3.2,3.6-4.95,3.65-12.22.31-24.45.24-36.67.13-3.71,0-5.67-2.59-5.67-6.86q0-27.18,0-54.35c0-5.37,0-10.74,0-16.12,0-4.47,2.18-6.6,6.69-6.61q17.22-.06,34.43,0c4.21,0,6.68,2.18,6.77,5.79.1,3.81-2.42,6.16-6.78,6.18-9.58,0-19.15,0-28.94,0v24c5.69,0,11.51-.27,17.27.15a8.47,8.47,0,0,1,5.7,3.2c2.52,3.75-.48,8.5-5.21,8.61C218,204.05,212.18,204,206.07,204Z"/><path class="cls-7" d="M134,107.78a6,6,0,1,1-6-5.83A5.86,5.86,0,0,1,134,107.78Z"/><path class="cls-8" d="M158,108a6,6,0,1,1-5.75-6A5.87,5.87,0,0,1,158,108Z"/><path class="cls-9" d="M176.07,113.93a6,6,0,1,1,5.85-5.94A5.84,5.84,0,0,1,176.07,113.93Z"/><path class="cls-10" d="M281.15,102c14.72,0,29.43,0,44.14,0,3,0,5.11,1.27,6.08,4a5.39,5.39,0,0,1-2,6.66,8.45,8.45,0,0,1-4.51,1.28q-44.13.12-88.27.05c-4.19,0-6.67-2.2-6.75-5.82-.1-3.81,2.4-6.15,6.78-6.15Q258.9,101.92,281.15,102Z"/></svg>