<svg id="Capa_1" data-name="Capa 1" xmlns="http://www.w3.org/2000/svg" xmlns:xlink="http://www.w3.org/1999/xlink" viewBox="0 0 500 500"><defs><style>.cls-1{fill:url(#Degradado_sin_nombre_11);}.cls-2{fill:url(#Degradado_sin_nombre_11-2);}.cls-3{fill:url(#Degradado_sin_nombre_11-3);}.cls-4{fill:url(#Degradado_sin_nombre_11-4);}.cls-5{fill:url(#Degradado_sin_nombre_11-5);}.cls-6{fill:url(#Degradado_sin_nombre_11-6);}.cls-7{fill:url(#Degradado_sin_nombre_11-7);}.cls-8{fill:url(#Degradado_sin_nombre_11-8);}.cls-9{fill:url(#Degradado_sin_nombre_11-9);}</style><linearGradient id="Degradado_sin_nombre_11" x1="84.35" y1="224.54" x2="407.75" y2="224.54" gradientUnits="userSpaceOnUse"><stop offset="0" stop-color="#74aa62"/><stop offset="0.47" stop-color="#3eab92"/><stop offset="1" stop-color="#19acc1"/></linearGradient><linearGradient id="Degradado_sin_nombre_11-2" x1="66.37" y1="329.37" x2="425.72" y2="329.37" xlink:href="#Degradado_sin_nombre_11"/><linearGradient id="Degradado_sin_nombre_11-3" x1="126.59" y1="269.47" x2="234.19" y2="269.47" xlink:href="#Degradado_sin_nombre_11"/><linearGradient id="Degradado_sin_nombre_11-4" x1="264.03" y1="335.33" x2="383.37" y2="335.33" xlink:href="#Degradado_sin_nombre_11"/><linearGradient id="Degradado_sin_nombre_11-5" x1="96.36" y1="395.22" x2="108.31" y2="395.22" xlink:href="#Degradado_sin_nombre_11"/><linearGradient id="Degradado_sin_nombre_11-6" x1="120.31" y1="395.22" x2="132.27" y2="395.22" xlink:href="#Degradado_sin_nombre_11"/><linearGradient id="Degradado_sin_nombre_11-7" x1="359.84" y1="395.22" x2="371.8" y2="395.22" xlink:href="#Degradado_sin_nombre_11"/><linearGradient id="Degradado_sin_nombre_11-8" x1="383.8" y1="395.22" x2="395.75" y2="395.22" xlink:href="#Degradado_sin_nombre_11"/><linearGradient id="Degradado_sin_nombre_11-9" x1="162.22" y1="269.47" x2="198.14" y2="269.47" xlink:href="#Degradado_sin_nombre_11"/></defs><path class="cls-1" d="M276.33,299.42c3.95,0,7.69-.06,11.42,0s6.21,2.46,6.2,6-2.42,5.89-6.25,5.94c-5.86.08-11.72.05-17.59,0-3.33,0-5.9-1.77-5.92-5,0-7.57-.6-15.43,1.13-22.67,4.16-17.31,15.66-27.8,33.19-31.51a12.12,12.12,0,0,0,1.43-.52c0-4.85.11-9.81-.1-14.76,0-.9-1.25-1.91-2.15-2.57-1.49-1.1-3.17-2-4.72-2.89-12.52,8.94-25,17.91-37.51,26.69-2.48,1.74-3.55,3.49-3.51,6.65.2,15.46.12,30.94.08,46.4a41.71,41.71,0,0,1-41.92,42.09q-30,.07-59.89,0a41.7,41.7,0,0,1-41.88-41.74q-.07-42.1,0-84.21a41.69,41.69,0,0,1,41.55-41.69c11.6-.05,23.21,0,34.81,0,4.86,0,7.39,2,7.45,5.88s-2.53,6.08-7.62,6.08c-10.85,0-21.71,0-32.56,0-18.82.06-31.64,12.91-31.67,31.78q0,40,0,80.1c0,19,12.88,31.81,32,31.84q27.89,0,55.77,0c19.27,0,32-12.83,32-32.21,0-16.59.08-33.19-.06-49.78a8.73,8.73,0,0,1,4.24-8.06c8.05-5.55,15.93-11.35,23.66-17.74-6.8,0-13.59,0-20.39,0-5.36,0-7.11-1.66-7.5-7-1.2-16.23-12.7-27.73-28.89-28.88-4.84-.34-7.18-2.48-7-6.38.19-3.68,2.73-5.64,7.31-5.62,18.57.06,35.56,14.21,39.8,33,.24,1.06,1.31,2.75,2,2.76,9.82.18,19.63.12,30,.12-4.5-7.45-7.33-14.9-7.27-23.23.06-8.08,0-16.16,0-24.67H116.76c-13.13,0-20.41,7.24-20.41,20.32q0,75.22,0,150.45a31.06,31.06,0,0,1-.06,3.74,6,6,0,0,1-11.85,0,27,27,0,0,1-.05-3.37q0-76,0-151.95c0-18.5,12.72-31.2,31.24-31.2H263.81c-6.26-5.51-10.42-11.42-11.24-18.84a109.39,109.39,0,0,1-.33-18.28c.2-3.4,3-4.85,6.47-4.82,9.23.06,18.47-.06,27.7.07a5.48,5.48,0,0,0,5.2-2.6,50.82,50.82,0,0,1,92,34.48c-.32,3.31-1.18,6.56-1.84,10.1,1.64.45,3.3.84,4.92,1.34a29.6,29.6,0,0,1,21,28.26q0,11.6,0,23.2c0,4.44-2.24,7-6,7s-5.94-2.53-6-7c0-7.49.09-15,0-22.46-.17-10.6-7.74-18.15-18.38-18.28,0,3.52.54,7.15-.11,10.56-1.63,8.59-6.93,14.37-15,17.75-1,.42-2.31,1.72-2.32,2.62-.14,15.7-.1,31.41-.1,47.1,12.69,3.56,20.75,11.31,23.5,24.17a19.05,19.05,0,0,1,.42,3.69q.06,12.54,0,25.08c0,4.13-2.13,6.55-6,6.56q-32.92.09-65.87,0a5.72,5.72,0,0,1-6-6.21c.12-3.47,2.54-5.7,6.47-5.71q27.51,0,55,0h3.92c0-7.3.69-14.32-.18-21.15-1.11-8.77-8.3-14.62-17.16-14.72-16.22-.19-32.44-.36-48.65,0C286.74,264.05,274,279.81,276.33,299.42Zm11.72-131.61c0,10.77-.46,21.25.11,31.67.84,15.11,12.34,26.56,27.21,28,13.68,1.36,27.18-7.9,31-21.33a14.38,14.38,0,0,0,0-3.77,17.43,17.43,0,0,0-3.68,1.08c-9.06,4.92-18.1,5-27-.2-1.56-.92-3.34-2.81-3.51-4.41-.2-1.91.66-4.89,2.08-5.78a8.32,8.32,0,0,1,6.8-.44c4.35,2,8.46,2.92,13.32,1.17-5.64-8.53-5.94-17.07-1.59-26Zm59.81-12.11c0-3.6,0-6.7,0-9.8,0-9.46-4.75-14.16-14.29-14.16q-32.71,0-65.42,0h-3.9c-1.27,16.11,5.94,24,21.49,24h62.12Zm-42.28-35.93h3.9c9,0,18,0,26.94,0a23.71,23.71,0,0,1,23.4,23.33c0,4.36,0,8.72,0,12.95l8.81,4.39c7-13.51,2-35.32-14.35-46.12C337.26,103.09,315.6,107.93,305.58,119.77Zm6.57,119.54v12h35.44V227.34C337.4,236.9,325.7,240.63,312.15,239.31Zm42-71.6c-6.28-.22-12,5.25-12.22,11.66s5.23,12,11.67,12.22c6.24.24,12.05-5.31,12.22-11.67A12.26,12.26,0,0,0,354.12,167.71Z"/><path class="cls-2" d="M413.73,377.33H288c0,1.86,0,3.67,0,5.48-.11,4.07-2.2,6.39-6.16,6.39q-35.74.07-71.48,0c-4,0-6.06-2.31-6.17-6.39-.05-1.71,0-3.43,0-5.36H77.94c.5,7.84.19,15.86,1.73,23.51s9.17,12.2,18,12.21q42.48,0,85,0c8.86,0,17.72,0,26.57,0,4.43,0,6.92,2.29,6.85,6.1-.07,3.61-2.55,5.85-6.72,5.85-38.18,0-76.35.09-114.53,0-14.89-.06-28.18-13.5-28.41-28.35-.12-8.23-.06-16.47,0-24.7,0-4.68,2.15-6.76,6.92-6.76q67.93,0,135.86,0c4.75,0,6.83,2.1,6.9,6.79,0,1.59,0,3.18,0,5H276c0-1.49,0-3.05,0-4.6.05-5.19,2-7.16,7.28-7.17q46,0,92.07,0h20.42V242.22a19.31,19.31,0,0,1,.08-3.73,5.61,5.61,0,0,1,5.69-4.93,5.78,5.78,0,0,1,6.11,4.88,25.86,25.86,0,0,1,.08,3.74V365.29c3.74,0,7.19,0,10.65,0,5.26,0,7.3,2,7.31,7.13,0,7.86.06,15.72,0,23.58-.14,15.76-13.41,29.12-29.17,29.14q-80.65.09-161.31,0c-4.52,0-7-2.11-7.1-5.85-.08-3.95,2.42-6.11,7.2-6.11H392.87c13.84,0,20.85-7.07,20.86-21Z"/><path class="cls-3" d="M234.19,256.27c-1.1,1.54-2.05,3.43-3.51,4.77s-3.38,2.07-5.09,3.08c-5.21,3-5.16,7.68.11,10.77,9.87,5.8,10,6.38,4.19,16.44-2.81,4.84-5.57,9.72-8.44,14.53-2.54,4.28-5.35,5-9.65,2.69a30,30,0,0,1-4.19-2.44c-2.38-1.84-4.35-1.66-7-.16s-2.43,3.37-2.43,5.57c0,11.57-.28,11.84-12,11.84-5.61,0-11.23,0-16.84,0-5,0-7.06-2-7.11-6.94,0-1.62,0-3.25,0-4.87,0-5.94-4.24-8.38-9.41-5.42-10,5.75-10.55,5.6-16.34-4.41-2.8-4.85-5.65-9.68-8.4-14.55-2.53-4.47-1.72-7.35,2.67-10a42.72,42.72,0,0,1,3.89-2.21c2.39-1.12,3.81-2.38,3.81-5.54s-1.74-4.22-3.93-5.46c-9.54-5.39-9.79-6.39-4.33-15.84,2.86-5,5.7-9.93,8.62-14.86,2.65-4.48,5.45-5.23,9.92-2.77,1.42.78,2.81,1.61,4.21,2.41,5,2.85,9.28.41,9.29-5.26,0-11.89.17-12,12.13-12,5.49,0,11,0,16.46,0s7.31,2,7.33,7.49c0,1.37,0,2.75,0,4.12.08,2.12-.54,4.21,2.23,5.67s4.67,1.58,7.37-.05c9.62-5.83,10.39-5.52,16,4.25,2.8,4.85,5.64,9.68,8.4,14.56C232.91,252.9,233.36,254.33,234.19,256.27Zm-48,55c0-2.32.13-4.31,0-6.27-.34-4.08,1.44-6.48,5.24-8a27.81,27.81,0,0,0,7.06-4.08c3.16-2.5,6.14-2.93,9.54-.65,1.7,1.14,3.59,2,5.55,3.07l5.76-10.08c-2.27-1.33-4.17-2.49-6.12-3.57-3.15-1.74-4-4.36-3.66-7.85a42.32,42.32,0,0,0,0-8.86c-.36-3.51.6-6.09,3.75-7.82,2-1.11,4-2.37,6.07-3.63l-5.9-10c-2.08,1.18-3.86,2.07-5.51,3.16-3.24,2.13-6.13,1.87-9.24-.49a37.19,37.19,0,0,0-7.73-4.42c-3.42-1.49-5.07-3.74-4.79-7.51.16-2.17,0-4.36,0-6.53h-12c0,2.26-.13,4.36,0,6.43.31,3.94-1.46,6.23-5.06,7.71a32.51,32.51,0,0,0-7.37,4.28c-3.23,2.47-6.23,2.67-9.57.39-1.61-1.1-3.41-1.92-5.35-3l-5.82,10.08c2.15,1.26,4,2.43,6,3.49,3.3,1.8,4.24,4.5,3.79,8.15a34.46,34.46,0,0,0,0,8.49c.45,3.68-.62,6.33-3.89,8.11-1.94,1.06-3.82,2.22-5.9,3.44l5.86,10.12c2-1.12,3.77-2,5.39-3.08,3.36-2.3,6.35-2,9.55.49a32.57,32.57,0,0,0,7.39,4.26c3.63,1.49,5.29,3.85,5,7.76-.16,2.07,0,4.16,0,6.38Z"/><path class="cls-4" d="M323.87,329.36c17.7,0,35.4,0,53.1,0,2.91,0,5.51.82,6.2,3.66a8.47,8.47,0,0,1-1,6.14c-.9,1.3-3.39,2.1-5.17,2.11q-53.1.18-106.2.07c-4.39,0-6.89-2.32-6.8-6.13.08-3.61,2.55-5.8,6.74-5.81Q297.32,329.32,323.87,329.36Z"/><path class="cls-5" d="M102.32,401.2a6,6,0,1,1,6-5.78A5.83,5.83,0,0,1,102.32,401.2Z"/><path class="cls-6" d="M126.27,401.2a6,6,0,1,1,6-5.78A5.83,5.83,0,0,1,126.27,401.2Z"/><path class="cls-7" d="M365.66,401.2a6,6,0,1,1,6.13-5.64A5.84,5.84,0,0,1,365.66,401.2Z"/><path class="cls-8" d="M395.75,395.11a6,6,0,1,1-5.91-5.86A5.84,5.84,0,0,1,395.75,395.11Z"/><path class="cls-9" d="M180.34,287.42a18,18,0,1,1,17.8-18.12A17.82,17.82,0,0,1,180.34,287.42Zm-.2-23.9a6,6,0,1,0,6,6A6.26,6.26,0,0,0,180.14,263.52Z"/></svg>