<svg id="Capa_1" data-name="Capa 1" xmlns="http://www.w3.org/2000/svg" xmlns:xlink="http://www.w3.org/1999/xlink" viewBox="0 0 500 500"><defs><style>.cls-1{fill:url(#Degradado_sin_nombre_11);}.cls-2{fill:url(#Degradado_sin_nombre_11-2);}.cls-3{fill:url(#Degradado_sin_nombre_11-3);}.cls-4{fill:url(#Degradado_sin_nombre_11-4);}.cls-5{fill:url(#Degradado_sin_nombre_11-5);}.cls-6{fill:url(#Degradado_sin_nombre_11-6);}.cls-7{fill:url(#Degradado_sin_nombre_11-7);}.cls-8{fill:url(#Degradado_sin_nombre_11-8);}.cls-9{fill:url(#Degradado_sin_nombre_11-9);}.cls-10{fill:url(#Degradado_sin_nombre_11-10);}.cls-11{fill:url(#Degradado_sin_nombre_11-11);}.cls-12{fill:url(#Degradado_sin_nombre_11-12);}.cls-13{fill:url(#Degradado_sin_nombre_11-13);}</style><linearGradient id="Degradado_sin_nombre_11" x1="103.07" y1="234.42" x2="404.41" y2="234.42" gradientUnits="userSpaceOnUse"><stop offset="0" stop-color="#74aa62"/><stop offset="0.47" stop-color="#3eab92"/><stop offset="1" stop-color="#19acc1"/></linearGradient><linearGradient id="Degradado_sin_nombre_11-2" x1="75.7" y1="375.65" x2="431.79" y2="375.65" xlink:href="#Degradado_sin_nombre_11"/><linearGradient id="Degradado_sin_nombre_11-3" x1="129.65" y1="181.23" x2="379.05" y2="181.23" xlink:href="#Degradado_sin_nombre_11"/><linearGradient id="Degradado_sin_nombre_11-4" x1="129.72" y1="220.78" x2="202.04" y2="220.78" xlink:href="#Degradado_sin_nombre_11"/><linearGradient id="Degradado_sin_nombre_11-5" x1="201.32" y1="266.98" x2="234.85" y2="266.98" xlink:href="#Degradado_sin_nombre_11"/><linearGradient id="Degradado_sin_nombre_11-6" x1="272.63" y1="266.97" x2="306.15" y2="266.97" xlink:href="#Degradado_sin_nombre_11"/><linearGradient id="Degradado_sin_nombre_11-7" x1="243.33" y1="265.72" x2="264.16" y2="265.72" xlink:href="#Degradado_sin_nombre_11"/><linearGradient id="Degradado_sin_nombre_11-8" x1="129.76" y1="243.68" x2="174.17" y2="243.68" xlink:href="#Degradado_sin_nombre_11"/><linearGradient id="Degradado_sin_nombre_11-9" x1="336.99" y1="375.63" x2="348.57" y2="375.63" xlink:href="#Degradado_sin_nombre_11"/><linearGradient id="Degradado_sin_nombre_11-10" x1="375.02" y1="375.63" x2="386.32" y2="375.63" xlink:href="#Degradado_sin_nombre_11"/><linearGradient id="Degradado_sin_nombre_11-11" x1="356.14" y1="375.63" x2="367.49" y2="375.63" xlink:href="#Degradado_sin_nombre_11"/><linearGradient id="Degradado_sin_nombre_11-12" x1="142.75" y1="375.59" x2="157.17" y2="375.59" xlink:href="#Degradado_sin_nombre_11"/><linearGradient id="Degradado_sin_nombre_11-13" x1="117.94" y1="375.6" x2="132.43" y2="375.6" xlink:href="#Degradado_sin_nombre_11"/></defs><path class="cls-1" d="M253.65,336H116.28c-9,0-13.2-4.15-13.21-13.28q0-88.15,0-176.31c0-9.2,4.3-13.51,13.54-13.51q137.19,0,274.39,0c9,0,13.38,4.33,13.38,13.29q0,88.34,0,176.69c0,9-4.19,13.12-13.36,13.12ZM114.7,144.66v179.8H392.77V144.66Z"/><path class="cls-2" d="M253.73,350.25H408.32c11.37,0,20.12,6.24,22.6,16,2.82,11.08-1.32,21.26-11.16,27.43-6.71,4.2-14.22,5.95-21.94,6.7-5.46.53-11,.68-16.45.68q-128.56.06-257.15,0c-9.59,0-19.23-.31-28.42-3.6-9.59-3.43-17.4-8.88-19.56-19.69-3-15.27,6.94-27.45,22.52-27.46Q176.25,350.2,253.73,350.25Zm0,39.05c46.16,0,92.32.06,138.48-.06,7.76,0,15.43-1.29,22.12-5.74,6.35-4.22,6.64-8.63,5.31-15-.92-4.38-5.51-6.93-11.62-6.94q-55.2,0-110.4.07a6.38,6.38,0,0,0-4.26,2.15c-4.15,5-7.82,10.38-12.12,15.23a10.25,10.25,0,0,1-6.57,3.29q-21.51.43-43,0a9.93,9.93,0,0,1-6.49-3.35c-4.09-4.86-7.53-10.26-11.43-15.29a5.7,5.7,0,0,0-3.87-2q-55.2-.17-110.41-.06c-8.89,0-13.06,4.87-12.05,13.64.53,4.59,3.63,7.28,7.34,9.3,6.38,3.48,13.4,4.75,20.54,4.76Q184.5,389.4,253.73,389.3Zm-27.25-27.66a66.83,66.83,0,0,1,4.06,5.7c1.64,3,3.91,3.9,7.3,3.82,9.59-.24,19.19-.09,28.79-.09,6.75,0,10.53-2.72,12.95-9.43Z"/><path class="cls-3" d="M254.32,201.18H143.9c-10.19,0-14.21-4.06-14.22-14.35,0-4.38-.08-8.76,0-13.13.18-7.68,4.85-12.4,12.5-12.4q112.29-.06,224.58,0c7.51,0,12,4.64,12.21,12.19.11,4.87.06,9.75,0,14.62-.07,8.85-4.26,13.06-13.15,13.06Q310.09,201.21,254.32,201.18Zm113.15-28h-226v16.3h226Z"/><path class="cls-4" d="M166.13,226.41c-10,0-19.94.05-29.91,0-5.14,0-8.2-4.67-5.48-8.51a7,7,0,0,1,4.9-2.61c20.18-.18,40.37-.15,60.56-.1,3.47,0,5.79,2.33,5.84,5.46.05,3.28-2.34,5.72-6,5.75C186.07,226.46,176.1,226.41,166.13,226.41Z"/><path class="cls-5" d="M217.1,267c5.37,3.76,10.29,7.1,15.09,10.62,2.63,1.93,3.47,4.6,1.77,7.57-1.51,2.62-4,3.31-6.78,2.5a8.23,8.23,0,0,1-2.25-1.3c-6.66-4.63-13.33-9.24-19.94-13.93-5-3.51-4.88-7.44.15-11q9.78-6.92,19.63-13.72c3.64-2.52,6.84-2.27,8.89.59,2.16,3,1.31,6.14-2.5,8.84C226.69,260.31,222.19,263.42,217.1,267Z"/><path class="cls-6" d="M290.4,267c-5.13-3.6-9.72-6.78-14.27-10-3.62-2.57-4.43-5.55-2.41-8.54s5.23-3.31,8.82-.84c6.66,4.59,13.31,9.2,19.89,13.89,5,3.54,5,7.47,0,11-6.59,4.69-13.23,9.3-19.9,13.89-3.51,2.41-6.88,2-8.84-.91s-1.14-6,2.49-8.53C280.73,273.74,285.31,270.56,290.4,267Z"/><path class="cls-7" d="M249.24,295.41c-4.05-.11-6.55-3.46-5.77-7.42q3.79-19.26,7.7-38.49c.59-2.93,1.1-5.88,1.82-8.78.91-3.62,3.59-5.28,6.95-4.5,3.07.71,4.77,3.7,4.05,7.34q-3,15.41-6.16,30.8c-1.08,5.37-2.21,10.74-3.28,16.11A5.69,5.69,0,0,1,249.24,295.41Z"/><path class="cls-8" d="M152.06,237.85c5,0,10,0,14.93,0,4.4,0,7.25,2.46,7.18,5.91s-2.8,5.65-7,5.69q-15.3.12-30.6,0c-4.2,0-6.85-2.53-6.77-5.9s2.76-5.63,7-5.69C141.86,237.8,147,237.85,152.06,237.85Z"/><path class="cls-9" d="M337,375.49c0-6.06,1.75-8.71,5.77-8.73s5.8,2.68,5.81,8.7-2,9.17-6,9S337,381.42,337,375.49Z"/><path class="cls-10" d="M386.3,375.76c0,6-1.79,8.82-5.67,8.74s-5.59-2.9-5.58-8.92c0-1.12-.07-2.25,0-3.37a5.6,5.6,0,0,1,5.91-5.45c3,.13,5.1,2.3,5.3,5.62C386.36,373.5,386.3,374.63,386.3,375.76Z"/><path class="cls-11" d="M356.14,375.38c0-6.14,1.71-8.7,5.73-8.62s5.61,2.66,5.62,8.44c0,6.32-1.75,9.21-5.63,9.3S356.13,381.72,356.14,375.38Z"/><path class="cls-12" d="M142.76,375.7a7.2,7.2,0,0,1,14.4-.46,7.21,7.21,0,1,1-14.4.46Z"/><path class="cls-13" d="M132.43,375.66a7.25,7.25,0,1,1-14.49,0,7.28,7.28,0,0,1,7.26-7.4A7.18,7.18,0,0,1,132.43,375.66Z"/></svg>