<svg id="Capa_1" data-name="Capa 1" xmlns="http://www.w3.org/2000/svg" xmlns:xlink="http://www.w3.org/1999/xlink" viewBox="0 0 500 500"><defs><style>.cls-1{fill:url(#Degradado_sin_nombre_11);}.cls-2{fill:url(#Degradado_sin_nombre_11-2);}.cls-3{fill:url(#Degradado_sin_nombre_11-3);}.cls-4{fill:url(#Degradado_sin_nombre_11-4);}.cls-5{fill:url(#Degradado_sin_nombre_11-5);}.cls-6{fill:url(#Degradado_sin_nombre_11-6);}.cls-7{fill:url(#Degradado_sin_nombre_11-7);}.cls-8{fill:url(#Degradado_sin_nombre_11-8);}</style><linearGradient id="Degradado_sin_nombre_11" x1="47.39" y1="248" x2="456.37" y2="248" gradientUnits="userSpaceOnUse"><stop offset="0" stop-color="#74aa62"/><stop offset="0.47" stop-color="#3eab92"/><stop offset="1" stop-color="#19acc1"/></linearGradient><linearGradient id="Degradado_sin_nombre_11-2" x1="214.42" y1="320.07" x2="392.56" y2="320.07" xlink:href="#Degradado_sin_nombre_11"/><linearGradient id="Degradado_sin_nombre_11-3" x1="177.73" y1="304.06" x2="193.66" y2="304.06" xlink:href="#Degradado_sin_nombre_11"/><linearGradient id="Degradado_sin_nombre_11-4" x1="81.91" y1="295.98" x2="129.8" y2="295.98" xlink:href="#Degradado_sin_nombre_11"/><linearGradient id="Degradado_sin_nombre_11-5" x1="81.93" y1="197.75" x2="129.78" y2="197.75" xlink:href="#Degradado_sin_nombre_11"/><linearGradient id="Degradado_sin_nombre_11-6" x1="81.93" y1="229.7" x2="129.78" y2="229.7" xlink:href="#Degradado_sin_nombre_11"/><linearGradient id="Degradado_sin_nombre_11-7" x1="81.92" y1="359.88" x2="129.78" y2="359.88" xlink:href="#Degradado_sin_nombre_11"/><linearGradient id="Degradado_sin_nombre_11-8" x1="81.93" y1="391.82" x2="129.78" y2="391.82" xlink:href="#Degradado_sin_nombre_11"/></defs><path class="cls-1" d="M437.21,452.51H66.73c-14.72-4.85-19.4-15.36-19.34-30.35q.55-127,0-253.9c-.07-15.18,11.15-26.65,26.65-26.58,74.51.38,149,.15,223.51.24a8.9,8.9,0,0,0,6.94-2.91q41.12-41.31,82.4-82.44c18.86-18.74,46.12-17.23,61.72,3.78,3.73,5,5.22,11.69,7.74,17.61V89.14C454.15,101,447.18,110,438.63,118c-7.14,6.75-13.94,13.86-20.87,20.83-.79.79-1.47,1.67-2.64,3,6.39,0,12.07,0,17.76,0a23.85,23.85,0,0,1,14.66,5.34c4.64,3.54,6.73,8.66,8.83,13.8V433.35c-.81,1.91-1.57,3.84-2.44,5.72C450.58,446.31,444.34,450,437.21,452.51Zm-28.9-262.75c-12.85,0-25.34-.12-37.82.12a9.68,9.68,0,0,0-6.14,2.54c-20.82,20.58-41.45,41.35-62.22,62a20.22,20.22,0,0,1-6.84,4.56c-21.1,7.93-42.28,15.62-63.41,23.47-3.86,1.43-7.53,2-10.74-1.12s-2.56-6.56-1.34-10.34C226.93,249,233.87,227,241.06,205.1a22.19,22.19,0,0,1,4.35-6.95c2.32-2.78,5-5.22,7.84-8.07H162V402H408.31Zm-24.83-16.93.38,1q14.91,0,29.81,0c8.22,0,10.76,2.51,10.76,10.63v223.2c0,7.91-2.61,10.54-10.46,10.54H156.09c-7.67,0-10.31-2.64-10.31-10.29V184.28c0-7.86,2.64-10.48,10.51-10.48,35.4,0,70.79-.12,106.19.13,5.24,0,9.06-1.22,12.4-5.25,3.05-3.67,6.7-6.84,10.71-10.87H74.88c-8.63,0-11.35,2.77-11.35,11.55V424.91c0,9,2.68,11.64,11.66,11.64H428.88c8.77,0,11.52-2.71,11.53-11.36v-101q0-77.66,0-155.32c0-8.13-2.9-11-11.07-11-9.18,0-18.36-.06-27.54.05a6.91,6.91,0,0,0-4.29,1.35C392.71,163.62,388.13,168.27,383.48,172.83Zm-117,27.43c16.3,6.05,27.26,17.27,33.34,33.22L415.59,117.62,382.38,84.44Zm161.62-94.83c8.37-7,14.32-15.46,11.42-27.38-2.25-9.28-8.31-15.35-17.59-17.6-11.92-2.89-20.36,3-27.31,11.34ZM239.57,262.3l46-16.94c-.78-14-14.55-28.82-28.1-30.83-2.09-.31-2.74.52-3.29,2.35-2,6.59-4.19,13.12-6.3,19.68C245.21,244.82,242.55,253.08,239.57,262.3Z"/><path class="cls-2" d="M261.94,337.94c-10.59-.1-19.91-4.58-28.51-11.39-3.87-3.07-8.47-5.32-13-7.49-4.69-2.27-7.09-6.19-5.62-10.41,1.58-4.53,6-6.83,11-4.71a82.33,82.33,0,0,1,15.93,8.66c6.54,4.75,12.74,9.49,21.43,9.12,6.28-.27,11.53-2.74,16.28-6.58,6-4.85,12.19-9.31,19.86-11.39,12.79-3.48,24.41-1,35.14,6.37,5.64,3.9,10.52,9,17.54,10.67,8.6,2,16.56.77,23.85-4.31,1.42-1,2.76-2.09,4.23-3,3.91-2.38,8.05-1.72,10.67,1.62a7.71,7.71,0,0,1-.89,10.81c-9.58,8.35-20.6,12.62-33.54,11.81-11.16-.71-20.27-5.62-28.61-12.54-7.94-6.59-16.93-9.26-26.64-5-4.88,2.15-9.13,5.83-13.5,9A43.44,43.44,0,0,1,261.94,337.94Z"/><path class="cls-3" d="M185.68,312a7.84,7.84,0,0,1-8-7.71,8,8,0,1,1,15.93,0A7.81,7.81,0,0,1,185.68,312Z"/><path class="cls-4" d="M105.57,319.93a24,24,0,1,1,24.23-23.85A23.92,23.92,0,0,1,105.57,319.93Zm.31-16.07a7.88,7.88,0,1,0-7.9-7.94A8.27,8.27,0,0,0,105.88,303.86Z"/><path class="cls-5" d="M105.77,205.73c-5,0-10.1.05-15.14,0-5.21-.07-8.64-3.23-8.7-7.85-.06-4.79,3.43-8.06,8.86-8.08q15.13-.09,30.29,0c5.19,0,8.63,3.22,8.7,7.84.07,4.78-3.44,8-8.86,8.09C115.87,205.78,110.82,205.73,105.77,205.73Z"/><path class="cls-6" d="M106.18,221.72c5,0,10.09-.07,15.14,0s8.52,3.44,8.46,8.08c-.06,4.47-3.43,7.78-8.31,7.82q-15.54.13-31.09,0c-5.09,0-8.52-3.45-8.45-8.08.07-4.48,3.42-7.73,8.3-7.83C95.55,221.64,100.86,221.72,106.18,221.72Z"/><path class="cls-7" d="M105.84,351.9c5.18,0,10.36-.08,15.54,0s8.49,3.49,8.4,8.14c-.09,4.47-3.46,7.72-8.37,7.76q-15.54.14-31.09,0c-5.07,0-8.5-3.49-8.39-8.13.1-4.48,3.46-7.68,8.36-7.77C95.47,351.82,100.66,351.9,105.84,351.9Z"/><path class="cls-8" d="M106.17,383.84c5,0,10.1-.07,15.14,0s8.53,3.44,8.47,8.08c-.06,4.47-3.42,7.78-8.3,7.83q-15.54.14-31.09,0c-5.09,0-8.53-3.44-8.46-8.07s3.5-7.78,8.69-7.85S101,383.84,106.17,383.84Z"/></svg>