<svg xmlns="http://www.w3.org/2000/svg" xmlns:xlink="http://www.w3.org/1999/xlink" viewBox="0 0 359.44 336.07"><defs><style>.cls-1{fill:url(#Degradado_sin_nombre_11);}.cls-2{fill:url(#Degradado_sin_nombre_11-2);}.cls-3{fill:url(#Degradado_sin_nombre_11-3);}.cls-4{fill:url(#Degradado_sin_nombre_11-4);}.cls-5{fill:url(#Degradado_sin_nombre_11-5);}.cls-6{fill:url(#Degradado_sin_nombre_11-6);}.cls-7{fill:url(#Degradado_sin_nombre_11-7);}.cls-8{fill:url(#Degradado_sin_nombre_11-8);}</style><linearGradient id="Degradado_sin_nombre_11" y1="185.98" x2="359.44" y2="185.98" gradientUnits="userSpaceOnUse"><stop offset="0" stop-color="#74aa62"/><stop offset="0.47" stop-color="#3eab92"/><stop offset="1" stop-color="#19acc1"/></linearGradient><linearGradient id="Degradado_sin_nombre_11-2" y1="90" x2="359.44" y2="90" xlink:href="#Degradado_sin_nombre_11"/><linearGradient id="Degradado_sin_nombre_11-3" x1="293.57" y1="114.02" x2="323.46" y2="114.02" xlink:href="#Degradado_sin_nombre_11"/><linearGradient id="Degradado_sin_nombre_11-4" x1="294" y1="84.22" x2="317.58" y2="84.22" xlink:href="#Degradado_sin_nombre_11"/><linearGradient id="Degradado_sin_nombre_11-5" x1="293.47" y1="143.7" x2="317.83" y2="143.7" xlink:href="#Degradado_sin_nombre_11"/><linearGradient id="Degradado_sin_nombre_11-6" x1="95.91" y1="123.63" x2="131.74" y2="123.63" xlink:href="#Degradado_sin_nombre_11"/><linearGradient id="Degradado_sin_nombre_11-7" x1="95.89" y1="102.03" x2="107.81" y2="102.03" xlink:href="#Degradado_sin_nombre_11"/><linearGradient id="Degradado_sin_nombre_11-8" x1="119.85" y1="102.03" x2="131.77" y2="102.03" xlink:href="#Degradado_sin_nombre_11"/></defs><g id="Capa_2" data-name="Capa 2"><g id="Capa_1-2" data-name="Capa 1"><path class="cls-1" d="M43.24,324.07H211.63c1,0,2,0,3,0,4.36.09,7.05,2.44,7,6.08s-2.75,5.9-7.18,5.91H37.36c-5.41,0-7.63-2.49-7.33-8,.8-14.84,13.32-27.24,28.24-28a22.32,22.32,0,0,1,5.23,0c15,2.75,24.46-8,35.5-14.57,8.46-5.07,14.11-13,17.6-22.23,1.3-3.46,2-7.14,3.15-11.26H31.91C12.68,252,0,239.37,0,220.11c0-7,0-14,0-21,0-4.4,2.38-7.08,6-7s5.9,2.72,5.92,7.16c0,7.38,0,14.75,0,22.13.07,11,7.67,18.59,18.62,18.68,6.61.05,13.22,0,19.31,0-4-22.82-1.83-45.75-1.69-68.55.09-15,13.54-26.93,28.56-27.43,2.21-.07,4.44,0,7.15,0a9,9,0,0,0-.84-1.53A41.87,41.87,0,0,1,72,111.67a10.65,10.65,0,0,0-2.58-7.41C58.88,90.74,56.74,75.8,64,60.28s19.81-23.7,36.73-24.13c19.83-.5,39.68-.14,59.52-.13,4.75,0,7.48,2.21,7.51,5.95s-2.73,6-7.42,6c-19.22,0-38.44,0-57.65,0-16.21,0-28.17,10.6-30.34,25.89,2.68-.6,5.61-1.76,8.55-1.81,16.06-.29,31.46-3.42,45.92-10.49,4.17-2,7.42-1.66,11,1.2a47.59,47.59,0,0,1,16.47,24.87c.27,1,.48,1.94.75,2.9a7.55,7.55,0,0,0,.82,1.14c0-8,0-15.39,0-22.78a20.24,20.24,0,0,1,.1-3.74c.62-3.23,2.64-5.16,6-5.11s5.72,2,5.76,5.25c.11,9.86.16,19.75-.5,29.58-.47,7-4.34,12.62-9.4,17.4a5.82,5.82,0,0,0-1.9,3.32,42.85,42.85,0,0,1-11.43,27,8.54,8.54,0,0,0-.77,1.46c12.23.4,19.67,8.49,27.24,16.28,4.78,4.91,9.3,10.08,13.87,15.07,4.72-4.6,8.51-8.17,12.13-11.92a4.86,4.86,0,0,0,.83-3.08c.07-6.88,0-13.75.07-20.63,0-1.88-.51-2.77-2.37-3.53-11.32-4.66-17.4-15.46-15.19-26.6C182.57,97.65,192,90.07,204.78,90c7,0,14,0,21,0,18.11.12,33-6.75,44.41-20.85,2-2.45,4.26-3.93,7.44-2.73s4.12,3.75,4,6.91c-.05.88,0,1.75,0,2.63v64.88c0,4.63-.06,9.25,0,13.88.06,3.18-.89,5.72-4,6.88s-5.48-.37-7.43-2.82a53.75,53.75,0,0,0-31.8-19.66c-1.42-.3-2.89-.38-4.67-.61,0,5.33-.09,10.32.06,15.3a8.21,8.21,0,0,0,1.43,3.34c3.87,6.9,3.23,15.12-2.22,20.88-10,10.61-20.16,21.18-30.58,31.41-9.09,8.91-23.11,8.75-32.55.06-4.55-4.18-8.91-8.57-14-13.52v21.37c0,1.5.07,3,0,4.5-.22,3.6-2.58,6.05-5.81,6.14-3.39.09-6.05-2.44-6.1-6.2-.11-8.37,0-16.75-.05-25.13,0-4.75,0-9.5,0-14.25,0-2.91,1-5.61,3.88-6.06a9.46,9.46,0,0,1,6.66,1.65c2.7,2.12,4.7,5.15,7.3,8.15l7.87-10.45c-5.84-5.53-11.43-11.21-17.45-16.39-3.87-3.34-8.85-3.67-14.07-3.17-.62,7.56-3.35,14-9.45,18.76A23.61,23.61,0,0,1,112.84,180c-12.38-.42-21.13-9.33-23.27-24.22-5.36.29-10.9,0-16.2,1a16.68,16.68,0,0,0-13.29,15.32c-.39,6.46-.08,13-.08,19.67H71.9c0-3.69-.05-7.28,0-10.87.07-4.18,2.32-6.78,5.84-6.86s6.09,2.6,6.11,7c0,11.49,0,23,0,35,6.1,0,12-.1,18,0a18.06,18.06,0,0,1,17.55,14.61c.54,2.87.09,5.92.09,9.12h90.19c0-5.27,0-10.59,0-15.91,0-5.87,2-7.83,7.88-7.85,5.22,0,10.43,0,16.08,0,0-3.5,0-6.71,0-9.91,0-5.33.8-6.47,6-8.44,0-5.36,0-10.84,0-16.32,0-5.17,2.13-7.3,7.26-7.33,7.24,0,14.48-.05,21.72,0,4.67,0,6.85,2.24,6.94,6.9.06,3.49,0,7,0,11.08h7c5,0,10,0,15,0,5.91,0,7.92,2,7.93,7.8,0,11.88,0,23.75,0,35.63v4.13c9.4,0,18.66.79,27.71-.23,8.9-1,14.21-8.81,14.21-18.38q0-63.94,0-127.9c0-6.18,1.83-9,5.9-9s6.07,2.83,6.07,8.9q0,63.39,0,126.77c0,19.76-12.54,32.32-32.25,32.33H240c1.87,13.28,7.62,24,18,31.7,7.7,5.7,16.07,10.49,24.23,15.56a8.44,8.44,0,0,0,3.93.73c6.34.26,12.79-.21,19,.77,13.26,2.11,23.17,13.56,24.18,26.9.45,5.9-1.77,8.35-7.69,8.35q-40.05,0-80.11,0c-5.11,0-7.87-2.08-7.93-5.9s2.77-6.09,8.11-6.09h74.09c-1.38-6.32-7.71-11.31-14.85-11.92-1.11-.1-2.24-.08-3.37-.08H61.8C52.53,312.07,46.31,316,43.24,324.07Zm55.88-24.22H260.38c-19.11-11-29.82-26.67-32.52-47.66H131.59C128.89,273.16,118.17,288.82,99.12,299.85ZM83.91,84.05c0,10.6-.18,20.82,0,31a29.94,29.94,0,0,0,27.29,28.85c15.16,1.32,29.63-9,31.67-24.12,1.22-9,.71-18.44-.13-27.57-.62-6.81-4.52-12.66-9.64-17.31a4.8,4.8,0,0,0-4.13-.89A127.32,127.32,0,0,1,83.91,84.05Zm149.84,42.21a68.87,68.87,0,0,1,35.61,14.64V87a68.32,68.32,0,0,1-35.61,14.8Zm-173.83,78c0,7.75,0,15.33,0,22.9,0,7.9,5,12.86,12.8,12.91,9.22.05,18.43,0,27.65,0,4.67,0,7.47-2.31,7.43-6s-3-6-7.58-6c-6.84,0-13.69,0-20.54,0-5.81,0-7.77-2-7.79-7.92,0-5.3,0-10.61,0-15.89Zm111-10.43c2.36,2.39,4.38,4.61,6.58,6.63,5.4,4.95,12.12,4.81,17.38-.36,3-3,5.93-6.07,8.89-9.12,6.61-6.81,13.26-13.57,19.8-20.45,2.43-2.56,2.57-5.83.59-8.13-2.1-2.45-4.77-2.61-7.47-1.32a11.9,11.9,0,0,0-3.11,2.63c-7.5,7.69-14.95,15.43-22.47,23.09-3.57,3.65-6.58,3.61-10.33.1-.87-.82-1.79-1.59-2.82-2.51Zm98.46,46.1V210.26H245.86V239.9ZM221.49,102.08c-6.51,0-12.73-.24-18.93.06a11.75,11.75,0,0,0-10.84,11.41c-.22,6.07,4.22,11.83,10.28,12.27,6.41.46,12.88.1,19.49.1ZM102.1,155.29a11,11,0,0,0,6.05,11.23,12,12,0,0,0,17.62-11.23ZM263.28,198V186.29H251.89V198Zm30,17.91V204.33H281.75v11.54ZM233.4,240V228.32H222V240Zm48.41-11.74v11.54h11.55V228.23Zm-72-77.82,11.63-2.66v-9.44H209.77Z"/><path class="cls-2" d="M179.75,0H326.84c20.22,0,32.59,12.42,32.59,32.72q0,15.75,0,31.49c0,5-2.24,7.83-6.07,7.77s-5.9-2.83-5.9-7.93c0-11,0-22,0-33-.05-11.48-7.56-19-19-19Q179.67,12,30.89,12C19.53,12,12,19.67,12,31.18q0,68.8,0,137.6c0,1.13,0,2.25,0,3.38,0,5.05-2.17,7.85-6,7.85s-6-2.79-6-7.85Q0,101.48,0,30.8C.05,13,13,.05,30.78,0Q105.27,0,179.75,0Z"/><path class="cls-3" d="M308.47,120c-2.87,0-5.74.09-8.6,0-3.82-.14-6.32-2.61-6.3-6s2.53-5.86,6.38-5.93q8.6-.15,17.21,0c3.82.08,6.32,2.6,6.3,6s-2.55,5.8-6.38,5.93C314.22,120.1,311.34,120,308.47,120Z"/><path class="cls-4" d="M298.81,96.49c-1.42-1.15-3.68-2.12-4.32-3.74-.7-1.78-.72-4.84.38-6.13A147.23,147.23,0,0,1,308,73.38c2.44-2.21,5.4-1.75,7.71.59s2.68,5.13.6,7.43c-4.23,4.7-8.82,9.08-13.38,13.47C302.07,95.64,300.65,95.79,298.81,96.49Z"/><path class="cls-5" d="M317.83,150.67c-1.05,1.34-2,3.63-3.61,4.3s-4.84.77-6.12-.32a147.79,147.79,0,0,1-13.25-13.12c-2.1-2.31-1.69-5.18.45-7.47s4.88-3,7.05-1.09c5,4.44,9.6,9.35,14.26,14.17C317.23,147.78,317.27,149,317.83,150.67Z"/><path class="cls-6" d="M114,132.06a22.59,22.59,0,0,1-15.92-6.37c-2.68-2.6-2.9-5.76-.74-8.35s5.32-2.83,8.37-.78c6.79,4.56,9.42,4.56,16.19,0,3-2,6.3-1.72,8.38.79s1.9,5.8-.77,8.38A22.72,22.72,0,0,1,114,132.06Z"/><path class="cls-7" d="M101.72,108a6,6,0,1,1,6.09-5.85A6,6,0,0,1,101.72,108Z"/><path class="cls-8" d="M131.77,101.85a6,6,0,1,1-6.14-5.8A6.05,6.05,0,0,1,131.77,101.85Z"/></g></g></svg>