<svg width="141" height="55" viewBox="0 0 141 55" fill="none" xmlns="http://www.w3.org/2000/svg">
<g clip-path="url(#clip0_1273_862)">
<path d="M84.3511 45.4683C83.4983 45.4683 82.8587 44.8343 82.8587 43.9014C82.8587 42.9685 83.4983 42.3326 84.3511 42.3326C85.204 42.3326 85.8436 42.9666 85.8436 43.9014C85.8436 44.8362 85.204 45.4683 84.3511 45.4683ZM84.3511 45.79C84.7256 45.7964 85.0935 45.6909 85.408 45.4868C85.7225 45.2828 85.9693 44.9895 86.117 44.6444C86.2647 44.2992 86.3067 43.9177 86.2376 43.5486C86.1684 43.1794 85.9913 42.8392 85.7288 42.5713C85.4662 42.3034 85.1301 42.12 84.7633 42.0443C84.3964 41.9686 84.0154 42.0042 83.6688 42.1464C83.3221 42.2887 83.0255 42.5311 82.8168 42.843C82.608 43.1549 82.4965 43.522 82.4964 43.8976C82.4852 44.1464 82.5252 44.3948 82.614 44.6274C82.7028 44.86 82.8385 45.0717 83.0125 45.2493C83.1866 45.4269 83.3953 45.5665 83.6256 45.6596C83.856 45.7526 84.1029 45.797 84.3511 45.79V45.79ZM79.9342 42.0412L78.4417 45.3699L76.9625 42.0412H76.5851L78.2549 45.7616H78.6172L80.2945 42.0412H79.9342ZM73.636 45.7616H73.9927V42.0412H73.636V45.7616ZM73.8153 41.1347C73.855 41.138 73.895 41.1329 73.9327 41.1199C73.9704 41.1068 74.005 41.0861 74.0343 41.059C74.0636 41.0319 74.087 40.999 74.103 40.9623C74.119 40.9257 74.1273 40.8862 74.1273 40.8462C74.1273 40.8062 74.119 40.7666 74.103 40.73C74.087 40.6933 74.0636 40.6604 74.0343 40.6333C74.005 40.6062 73.9704 40.5855 73.9327 40.5724C73.895 40.5594 73.855 40.5543 73.8153 40.5576C73.7379 40.5581 73.6638 40.5891 73.609 40.644C73.5543 40.6989 73.5233 40.7732 73.5228 40.8509C73.5233 40.8888 73.5313 40.9263 73.5463 40.9611C73.5613 40.996 73.583 41.0275 73.6102 41.0539C73.6374 41.0802 73.6695 41.101 73.7047 41.1149C73.7399 41.1287 73.7775 41.1355 73.8153 41.1347V41.1347ZM70.6738 45.2772C70.5131 45.4147 70.3076 45.4881 70.0964 45.4834C69.6417 45.4834 69.4077 45.2204 69.4077 44.7416V42.3478H70.587V42.0412H69.4077V41.2275H69.053V42.0412H68.37V42.3478H69.053V44.7776C69.053 45.404 69.4077 45.79 70.0625 45.79C70.3376 45.7972 70.6058 45.7037 70.8172 45.527L70.6738 45.2772ZM64.07 45.4986C63.4153 45.4986 63.0379 45.1977 63.0379 44.7132C63.0379 44.2856 63.3078 43.9657 64.0757 43.9657H65.3417V44.6602C65.2473 44.918 65.0726 45.1383 64.8436 45.2886C64.6145 45.4389 64.3433 45.5112 64.07 45.4948V45.4986ZM64.2738 42.0109C63.732 42.0024 63.2051 42.1891 62.7889 42.537L62.9662 42.7944C63.3212 42.4862 63.7761 42.3187 64.2455 42.3232C64.97 42.3232 65.3474 42.7016 65.3474 43.3848V43.6857H64.0757C63.0436 43.6857 62.6889 44.1626 62.6889 44.7265C62.6889 45.3604 63.1927 45.7881 64.0247 45.7881C64.6719 45.7881 65.1266 45.5251 65.3606 45.0974V45.7597H65.7021V43.4018C65.7021 42.4821 65.1908 42.0128 64.2738 42.0128V42.0109ZM58.3247 42.3251C58.6967 42.3205 59.0553 42.4642 59.3217 42.7247C59.5881 42.9851 59.7405 43.341 59.7455 43.7141H56.8964C56.953 42.9022 57.5285 42.3307 58.3172 42.3307L58.3247 42.3251ZM60.087 43.8919C60.087 42.7868 59.3323 42.0185 58.3172 42.0185C57.3021 42.0185 56.5379 42.7963 56.5379 43.9033C56.5379 45.0103 57.3285 45.7957 58.4512 45.7957C58.7147 45.8054 58.9771 45.756 59.2193 45.6513C59.4614 45.5465 59.6773 45.389 59.8511 45.1901L59.6455 44.9536C59.436 45.1839 59.1637 45.3476 58.8624 45.4243C58.5611 45.5009 58.2439 45.4873 57.9503 45.3849C57.6566 45.2826 57.3994 45.0961 57.2104 44.8485C57.0214 44.601 56.9089 44.3033 56.887 43.9922H60.0776C60.0776 43.9563 60.0776 43.9203 60.0776 43.8919H60.087ZM52.6511 42.8587V42.0469H52.3096V45.7673H52.6644V43.8219C52.6644 42.9022 53.1549 42.3534 53.9851 42.3534C54.0134 42.3534 54.0417 42.3534 54.07 42.3534V42.0109C53.3738 42.0109 52.8832 42.3099 52.6568 42.8511L52.6511 42.8587ZM48.0191 45.7957C48.292 45.808 48.5637 45.7518 48.8094 45.6322C49.0552 45.5125 49.2674 45.3333 49.4266 45.1106L49.1644 44.9214C49.0329 45.1004 48.8599 45.2445 48.6603 45.3411C48.4607 45.4378 48.2406 45.484 48.0191 45.4759C47.1455 45.4759 46.5096 44.8495 46.5096 43.909C46.5096 42.9685 47.1493 42.3402 48.0191 42.3402C48.2408 42.3319 48.4611 42.3783 48.6608 42.4753C48.8605 42.5723 49.0334 42.717 49.1644 42.8966L49.4266 42.7073C49.2681 42.484 49.0561 42.3044 48.8101 42.185C48.5641 42.0655 48.292 42.0103 48.0191 42.0242C47.5187 42.0242 47.0387 42.2235 46.6849 42.5784C46.3311 42.9333 46.1323 43.4147 46.1323 43.9165C46.1323 44.4184 46.3311 44.8998 46.6849 45.2547C47.0387 45.6095 47.5187 45.8089 48.0191 45.8089V45.7957ZM38.1115 45.4872C37.2587 45.4872 36.6191 44.8533 36.6191 43.9203C36.6191 42.9874 37.2587 42.3515 38.1115 42.3515C38.9644 42.3515 39.604 42.9855 39.604 43.9203C39.604 44.8552 38.9644 45.4872 38.1115 45.4872ZM38.1115 45.8089C38.486 45.8153 38.8539 45.7098 39.1684 45.5058C39.4828 45.3017 39.7297 45.0085 39.8774 44.6633C40.0251 44.3181 40.0671 43.9367 39.998 43.5675C39.9288 43.1983 39.7517 42.8581 39.4892 42.5902C39.2266 42.3223 38.8905 42.1389 38.5237 42.0632C38.1568 41.9876 37.7758 42.0231 37.4292 42.1653C37.0825 42.3076 36.7859 42.5501 36.5772 42.8619C36.3684 43.1738 36.2569 43.5409 36.2568 43.9165C36.2456 44.1653 36.2856 44.4138 36.3744 44.6463C36.4632 44.8789 36.5989 45.0906 36.7729 45.2682C36.947 45.4458 37.1557 45.5855 37.386 45.6785C37.6163 45.7715 37.8633 45.8159 38.1115 45.8089ZM32.9813 45.7805H33.3304V42.0412H32.9757L32.9813 45.7805ZM33.1587 41.1537C33.1984 41.1569 33.2384 41.1518 33.2761 41.1388C33.3138 41.1258 33.3484 41.105 33.3777 41.0779C33.407 41.0508 33.4304 41.0179 33.4464 40.9813C33.4624 40.9446 33.4707 40.9051 33.4707 40.8651C33.4707 40.8251 33.4624 40.7855 33.4464 40.7489C33.4304 40.7123 33.407 40.6794 33.3777 40.6522C33.3484 40.6251 33.3138 40.6044 33.2761 40.5914C33.2384 40.5783 33.1984 40.5733 33.1587 40.5765C33.0813 40.577 33.0072 40.6081 32.9524 40.663C32.8977 40.7179 32.8667 40.7922 32.8662 40.8698C32.8667 40.9077 32.8747 40.9452 32.8897 40.98C32.9047 41.0149 32.9264 41.0464 32.9536 41.0728C32.9808 41.0992 33.0129 41.1199 33.0481 41.1338C33.0833 41.1477 33.1209 41.1544 33.1587 41.1537V41.1537ZM27.8078 45.4872C26.953 45.4872 26.3134 44.8533 26.3134 43.9203C26.3134 42.9874 26.953 42.3515 27.8078 42.3515C28.6625 42.3515 29.3002 42.9855 29.3002 43.9203C29.3002 44.8552 28.6587 45.4872 27.8078 45.4872ZM29.3002 40.4913V42.9212C29.1557 42.647 28.9379 42.4186 28.6714 42.2616C28.4048 42.1045 28.0999 42.0249 27.7908 42.0317C26.7474 42.0317 25.9568 42.8 25.9568 43.9241C25.9568 45.0482 26.7474 45.8165 27.7908 45.8165C28.1041 45.8266 28.4137 45.7466 28.6831 45.586C28.9526 45.4254 29.1706 45.1909 29.3115 44.91V45.7881H29.6606V40.4724L29.3002 40.4913ZM22.6681 42.0601V44.0414C22.6681 44.9252 22.1493 45.4872 21.3115 45.4872C20.5361 45.4872 20.0889 45.0463 20.0889 44.2042V42.0412H19.7323V44.2136C19.7323 45.2545 20.3379 45.79 21.2832 45.79C21.572 45.8065 21.8591 45.7367 22.1083 45.5895C22.3575 45.4423 22.5576 45.2243 22.6832 44.963V45.7616H23.0228V42.0412L22.6681 42.0601ZM16.8191 45.2961C16.6615 45.4313 16.4604 45.5046 16.253 45.5024C15.7983 45.5024 15.5644 45.2393 15.5644 44.7605V42.3478H16.7266V42.0412H15.5474V41.2275H15.1908V42.0412H14.5096V42.3478H15.1908V44.7776C15.1908 45.404 15.5474 45.79 16.2002 45.79C16.4753 45.7972 16.7436 45.7037 16.9549 45.527L16.8191 45.2961ZM10.8342 45.7957C11.7776 45.7957 12.2983 45.3831 12.2983 44.7757C12.2983 43.3583 9.84549 44.1474 9.84549 43.0309C9.84549 42.6297 10.1662 42.3307 10.8908 42.3307C11.2888 42.3213 11.6798 42.4364 12.0096 42.66L12.1738 42.3761C11.7925 42.1292 11.3464 42.002 10.8927 42.0109C9.94927 42.0109 9.48511 42.467 9.48511 43.0309C9.48511 44.4899 11.9379 43.6951 11.9379 44.7738C11.9379 45.1958 11.6247 45.474 10.8436 45.474C10.3608 45.4787 9.89043 45.3207 9.50776 45.0255L9.34361 45.3112C9.63606 45.5818 10.2172 45.7881 10.8285 45.7881L10.8342 45.7957ZM5.19832 42.3251C5.38267 42.3226 5.56571 42.3565 5.73698 42.4249C5.90825 42.4934 6.0644 42.595 6.1965 42.724C6.32861 42.853 6.43409 43.0068 6.50692 43.1767C6.57975 43.3466 6.6185 43.5292 6.62096 43.7141H3.77757C3.83417 42.9022 4.40964 42.3307 5.19832 42.3307V42.3251ZM6.96813 43.8919C6.96813 42.7868 6.21342 42.0185 5.19832 42.0185C4.18323 42.0185 3.42285 42.8019 3.42285 43.9109C3.42285 45.0198 4.21153 45.8032 5.33417 45.8032C5.59774 45.8131 5.86017 45.7638 6.10236 45.659C6.34455 45.5543 6.56039 45.3967 6.73417 45.1977L6.53795 44.9479C6.39164 45.1183 6.20903 45.2535 6.00361 45.3436C5.79819 45.4336 5.57521 45.4763 5.35115 45.4683C5.14992 45.4788 4.94866 45.4483 4.75947 45.3788C4.57028 45.3092 4.39707 45.202 4.25025 45.0636C4.10343 44.9252 3.98603 44.7584 3.90513 44.5733C3.82422 44.3882 3.78147 44.1886 3.77946 43.9866H6.96247C6.96247 43.9506 6.96247 43.9147 6.96247 43.8863" fill="#924B97"/>
<path d="M137.06 30.4674H134.76V18.1367C134.775 17.173 134.59 16.2169 134.218 15.3284C133.846 14.4398 133.294 13.6383 132.598 12.9742C131.936 12.2756 131.137 11.7223 130.251 11.349C129.365 10.9757 128.412 10.7907 127.451 10.8056C125.514 10.8096 123.657 11.5832 122.287 12.9572C120.917 14.3312 120.146 16.1936 120.142 18.1367V30.4674H117.842V18.1367C117.824 16.8733 118.065 15.6197 118.549 14.4532C119.033 13.2867 119.75 12.2321 120.657 11.3544C122.555 9.45062 124.819 8.49812 127.449 8.49686C128.714 8.47729 129.969 8.71771 131.137 9.2033C132.305 9.6889 133.362 10.4094 134.242 11.3203C135.15 12.2023 135.869 13.262 136.353 14.4338C136.838 15.6056 137.077 16.8646 137.057 18.1329L137.06 30.4674ZM114.547 30.4674H112.249V8.91319H114.547V30.4674ZM104.768 18.1367C104.783 17.173 104.598 16.2169 104.226 15.3284C103.854 14.4398 103.302 13.6383 102.606 12.9742C101.944 12.2758 101.144 11.7226 100.259 11.3493C99.3727 10.9761 98.4193 10.7909 97.4585 10.8056C96.4928 10.7929 95.5346 10.9788 94.6432 11.3517C93.7518 11.7247 92.946 12.2769 92.2755 12.9742C91.5809 13.6391 91.031 14.441 90.6605 15.3295C90.29 16.218 90.1069 17.1737 90.1227 18.1367V21.1947C90.1075 22.1685 90.2916 23.1351 90.6635 24.0347C91.0354 24.9343 91.5873 25.748 92.285 26.4253C93.7655 27.8585 95.49 28.575 97.4585 28.575C98.4193 28.5897 99.3727 28.4045 100.259 28.0313C101.144 27.658 101.944 27.1048 102.606 26.4064C103.303 25.7326 103.855 24.9223 104.227 24.0258C104.598 23.1293 104.783 22.1657 104.768 21.1947V18.1367ZM107.066 18.1367V26.3288C107.066 27.5689 107.672 28.1884 108.885 28.1871H109.332V30.458H108.851C107.898 30.4748 106.971 30.1466 106.24 29.5335C105.509 28.9203 105.022 28.0634 104.87 27.1198C103.999 28.227 102.875 29.1067 101.592 29.684C100.293 30.2706 98.8834 30.57 97.4585 30.562C94.8271 30.562 92.5629 29.713 90.6661 28.0149C89.7584 27.1308 89.041 26.0695 88.5581 24.8964C88.0752 23.7234 87.8371 22.4636 87.8585 21.1947V18.1367C87.8395 16.8741 88.0784 15.6209 88.5606 14.4545C89.0428 13.288 89.7581 12.233 90.6623 11.3544C92.5629 9.45062 94.8271 8.49812 97.4548 8.49686C98.7192 8.4774 99.9742 8.71787 101.142 9.20346C102.311 9.68905 103.367 10.4095 104.247 11.3203C105.155 12.2031 105.873 13.2629 106.357 14.4346C106.841 15.6062 107.08 16.8649 107.06 18.1329L107.066 18.1367ZM71.1359 30.4674V18.1367C71.1184 16.8733 71.3592 15.6197 71.8433 14.4532C72.3275 13.2867 73.0448 12.2321 73.951 11.3544C75.8491 9.45062 78.1133 8.49812 80.7435 8.49686C83.4667 8.49686 85.7887 9.50613 87.7095 11.5247L86.0963 13.1427C85.4269 12.4189 84.6185 11.8385 83.7196 11.4363C82.8208 11.0341 81.8501 10.8185 80.8659 10.8024C79.8818 10.7863 78.9046 10.9701 77.9932 11.3427C77.0817 11.7153 76.2548 12.269 75.5623 12.9705C74.866 13.6345 74.3143 14.4361 73.9422 15.3246C73.57 16.2131 73.3855 17.1693 73.4001 18.1329V30.4674H71.1359ZM67.1906 18.1367C67.2052 17.173 67.0206 16.2169 66.6485 15.3284C66.2763 14.4398 65.7247 13.6383 65.0284 12.9742C64.3663 12.2758 63.5671 11.7226 62.6812 11.3493C61.7953 10.9761 60.842 10.7909 59.8812 10.8056C58.9154 10.7929 57.9573 10.9788 57.0658 11.3517C56.1744 11.7247 55.3686 12.2769 54.6982 12.9742C54.0018 13.6383 53.4502 14.4398 53.078 15.3284C52.7059 16.2169 52.5213 17.173 52.5359 18.1367V21.1947C52.5208 22.1685 52.7048 23.1351 53.0767 24.0347C53.4486 24.9343 54.0005 25.748 54.6982 26.4253C56.185 27.8585 57.9126 28.575 59.8812 28.575C60.8426 28.5885 61.7964 28.4018 62.6824 28.0269C63.5683 27.6521 64.3671 27.097 65.0284 26.3969C65.7244 25.7242 66.2754 24.9155 66.6473 24.0207C67.0192 23.1259 67.2041 22.1641 67.1906 21.1947V18.1367ZM69.4887 18.1367V21.1947C69.4887 23.8327 68.5397 26.1036 66.6416 28.0073C64.7921 29.6862 62.3753 30.5968 59.8812 30.5545C57.2485 30.5545 54.9843 29.7054 53.0887 28.0073C52.1809 27.1246 51.463 26.0647 50.9792 24.893C50.4953 23.7214 50.2559 22.4628 50.2755 21.1947V1.54614H52.5397V12.1435C53.4278 11.0462 54.5319 10.1444 55.7831 9.49415C57.0482 8.82922 58.4567 8.48611 59.885 8.49497C61.1494 8.47551 62.4044 8.71598 63.5726 9.20157C64.7408 9.68716 65.7974 10.4076 66.6774 11.3184C67.5852 12.2012 68.3032 13.261 68.787 14.4327C69.2708 15.6043 69.5103 16.863 69.4906 18.131" fill="#924B97"/>
<path d="M93.5545 50.1273C92.8567 49.4496 92.3048 48.6357 91.9329 47.7357C91.5611 46.8358 91.377 45.869 91.3922 44.8949V41.833C91.3774 40.8694 91.5619 39.9131 91.934 39.0246C92.3062 38.136 92.8579 37.3345 93.5545 36.6706C94.2245 35.9732 95.0299 35.421 95.9211 35.048C96.8122 34.675 97.7701 34.4892 98.7356 34.5019C100.668 34.5207 102.517 35.2991 103.883 36.6699C105.25 38.0407 106.026 39.8945 106.045 41.833V44.8949C106.058 45.8635 105.873 46.8245 105.502 47.7186C105.13 48.6126 104.58 49.4209 103.885 50.0933C103.222 50.7919 102.423 51.3453 101.537 51.7186C100.65 52.0918 99.6967 52.2768 98.7356 52.2619C96.7696 52.2619 95.0425 51.5504 93.5545 50.1273V50.1273ZM91.9413 35.0526C91.0354 35.9301 90.3184 36.9844 89.8345 38.1506C89.3507 39.3168 89.1102 40.57 89.128 41.833V44.8949C89.1086 46.1629 89.3482 47.4214 89.832 48.5931C90.3158 49.7647 91.0336 50.8246 91.9413 51.7075C93.8419 53.4056 96.106 54.2546 98.7337 54.2546C100.159 54.2626 101.57 53.9631 102.87 53.3765C104.152 52.7993 105.276 51.9195 106.147 50.8124C106.296 51.7569 106.78 52.6155 107.511 53.2298C108.242 53.844 109.169 54.1724 110.122 54.1543H110.604V51.8835H110.156C108.943 51.8835 108.336 51.264 108.337 50.0251V41.833C108.338 40.5673 108.089 39.3139 107.607 38.1445C107.124 36.975 106.416 35.9124 105.523 35.0174C104.631 34.1224 103.572 33.4125 102.406 32.9282C101.24 32.444 99.99 32.1949 98.728 32.1951C96.0979 32.1951 93.8337 33.1476 91.9356 35.0526H91.9413ZM115.477 35.0526C114.571 35.9301 113.854 36.9844 113.37 38.1506C112.887 39.3168 112.646 40.57 112.664 41.833V54.1543H114.928V41.833C114.915 40.8684 115.101 39.9116 115.476 39.023C115.85 38.1344 116.405 37.3334 117.104 36.6706C117.796 35.9694 118.623 35.416 119.535 35.0435C120.446 34.671 121.424 34.4872 122.408 34.5031C123.392 34.519 124.363 34.7343 125.262 35.1361C126.161 35.5378 126.969 36.1177 127.639 36.8409L129.251 35.2248C127.33 33.2063 125.008 32.197 122.285 32.197C119.654 32.197 117.39 33.1495 115.492 35.0545L115.477 35.0526ZM134.813 27.5512V32.6095H131.443V34.8804H134.807V50.0195C134.798 50.5587 134.895 51.0944 135.094 51.5954C135.293 52.0963 135.59 52.5524 135.967 52.9369C136.344 53.3214 136.794 53.6266 137.29 53.8347C137.786 54.0427 138.319 54.1495 138.856 54.1486H140.092V51.8778H138.89C137.679 51.8778 137.073 51.2583 137.071 50.0195V34.8804H140.5V32.6095H137.068V27.5493L134.813 27.5512Z" fill="#924B97"/>
<path d="M27.687 4.6951C27.5021 4.85388 27.3516 5.04898 27.2449 5.26835C27.1381 5.48772 27.0773 5.72671 27.0662 5.97057C27.0468 6.21508 27.0773 6.461 27.1558 6.6933C27.2343 6.92561 27.3592 7.13943 27.5228 7.32173C27.8358 7.68331 28.2772 7.90806 28.753 7.94811C29.2601 7.96335 29.7583 8.08507 30.2156 8.30542C30.6729 8.52576 31.079 8.83983 31.4077 9.22736C31.7554 9.59671 32.0197 10.0369 32.1825 10.5179C32.3453 10.9989 32.4028 11.5095 32.3511 12.0148C32.352 12.4912 32.533 12.9495 32.8576 13.2972C33.1822 13.6449 33.6263 13.8562 34.1002 13.8883C34.3451 13.9045 34.5908 13.872 34.8231 13.7927C35.0555 13.7133 35.2699 13.5888 35.4542 13.4262C35.6384 13.2635 35.7889 13.066 35.8968 12.8449C36.0047 12.6238 36.0681 12.3835 36.0832 12.1378C36.0926 12.0792 36.0964 12.0186 36.1002 11.9486C36.0845 11.0248 36.4345 10.1325 37.0736 9.46706C37.7127 8.80164 38.5886 8.41739 39.5096 8.39849C39.9736 8.3961 40.4331 8.48906 40.8598 8.67165C41.2865 8.85424 41.6714 9.12258 41.9908 9.46012C42.3199 9.78342 42.5792 10.1712 42.7525 10.5993C42.9258 11.0274 43.0095 11.4867 42.9983 11.9486C43.0079 12.2107 43.0784 12.467 43.2042 12.697C43.3299 12.927 43.5076 13.1243 43.7228 13.2733C44.2568 13.6025 44.5247 13.9905 44.5247 14.4409C44.5247 15.3473 43.8455 15.2395 43.3342 15.7447C43.1606 15.9104 43.0229 16.1101 42.9297 16.3315C42.8366 16.5529 42.7899 16.7912 42.7926 17.0315C42.7799 17.3515 42.8541 17.669 43.0073 17.95C43.1605 18.2309 43.387 18.4649 43.6625 18.6268C44.153 18.975 44.3977 19.3686 44.3964 19.8077C44.3952 20.2467 44.1474 20.639 43.653 20.9847C43.3787 21.1402 43.1517 21.3677 42.9965 21.6427C42.8413 21.9178 42.7636 22.23 42.7719 22.5459C42.7779 23.0178 42.6853 23.4857 42.5001 23.9195C42.3148 24.3533 42.0411 24.7434 41.6964 25.0647C41.3755 25.4068 40.9902 25.6816 40.5627 25.8733C40.1352 26.0649 39.674 26.1696 39.2058 26.1812C38.9579 26.1578 38.7078 26.1894 38.4733 26.2738C38.2389 26.3582 38.0258 26.4932 37.8492 26.6694C37.6668 26.8411 37.5221 27.0491 37.4246 27.2802C37.3272 27.5113 37.279 27.7603 37.2832 28.0111C37.2758 28.2917 37.3308 28.5703 37.444 28.8269C37.5572 29.0835 37.7259 29.3116 37.9379 29.4948C38.1477 29.6804 38.4021 29.808 38.6761 29.8651C38.95 29.9221 39.234 29.9067 39.5002 29.8203C40.1153 29.6298 40.5914 29.6695 40.9285 29.9395C41.2492 30.1987 41.3908 30.6321 41.3455 31.2395C41.3071 31.5266 41.3466 31.8187 41.4598 32.0851C41.573 32.3516 41.7558 32.5824 41.9889 32.7534C42.3425 33.0346 42.7923 33.1646 43.2408 33.1153C43.6894 33.0661 44.1005 32.8416 44.3851 32.4904C44.5323 32.315 44.6417 32.111 44.7067 31.8912C44.7716 31.6714 44.7906 31.4405 44.7625 31.213C44.7425 30.9893 44.6769 30.7721 44.5698 30.5749C44.4627 30.3776 44.3163 30.2045 44.1398 30.0663C43.9185 29.8699 43.6477 29.7382 43.357 29.6855C43.0662 29.6328 42.7666 29.661 42.4908 29.7673C41.9341 29.9395 41.4926 29.8959 41.17 29.6367C40.9228 29.4475 40.7058 28.7132 40.6738 28.3272C40.5436 27.6289 40.5398 26.87 41.9945 25.4224C42.3403 25.0632 42.7589 24.7827 43.2222 24.5998C43.6854 24.417 44.1823 24.3361 44.6794 24.3626C45.058 24.3544 45.4233 24.2214 45.7191 23.9841C45.9456 23.8125 46.1269 23.588 46.2473 23.3301C46.3676 23.0722 46.4234 22.7887 46.4096 22.5043C46.4242 22.2164 46.3619 21.9297 46.2292 21.6739C46.0966 21.4181 45.8983 21.2024 45.6549 21.0491C45.0889 20.6996 44.8071 20.2871 44.8096 19.8114C44.8121 19.3358 45.087 18.9252 45.6342 18.5795C45.8748 18.4232 46.0735 18.2099 46.2127 17.9584C46.3519 17.707 46.4273 17.4251 46.4323 17.1375V17.1375V17.0486C46.4411 16.7073 46.3464 16.3714 46.1606 16.0853C46.0859 15.9682 45.9986 15.8597 45.9002 15.7617C45.4757 15.3322 44.9058 15.2508 44.9058 14.4484C44.9058 14.0321 45.1455 13.6612 45.6285 13.3338C45.8473 13.1955 46.0322 13.0095 46.1695 12.7896C46.3067 12.5697 46.3928 12.3216 46.4213 12.0637C46.4497 11.8059 46.4199 11.5449 46.3339 11.3002C46.2479 11.0555 46.1081 10.8334 45.9247 10.6504C45.7695 10.4883 45.5827 10.3598 45.376 10.2729C45.1693 10.186 44.947 10.1425 44.7228 10.1452C43.8168 10.1482 42.9457 9.79492 42.2964 9.16112C41.6512 8.53546 41.2771 7.6804 41.2549 6.78051V6.70292C41.2549 5.80467 40.8323 5.24326 39.987 5.0187C39.7255 4.95876 39.4542 4.95544 39.1913 5.00896C38.9285 5.06248 38.68 5.1716 38.4624 5.32905C38.0147 5.65706 37.7996 6.14088 37.8172 6.78051C37.8057 7.22823 37.7063 7.66928 37.5247 8.07842C37.343 8.48757 37.0827 8.85677 36.7587 9.16491C36.4501 9.48316 36.0798 9.73466 35.6706 9.9039C35.2614 10.0731 34.822 10.1565 34.3794 10.1489H34.2436C33.7748 10.1216 33.3162 10.0004 32.895 9.79236C32.4737 9.58434 32.0982 9.29378 31.7907 8.93782C31.4576 8.58436 31.1974 8.16833 31.0252 7.71366C30.8529 7.25899 30.7719 6.77465 30.787 6.28849C30.8133 6.03644 30.7878 5.78166 30.7122 5.53984C30.6366 5.29803 30.5124 5.0743 30.3474 4.88245C30.1877 4.68295 29.9871 4.52023 29.7592 4.4053C29.5313 4.29037 29.2815 4.22592 29.0266 4.21633C28.9889 4.21633 28.9492 4.21633 28.9115 4.21633C28.4601 4.21417 28.0249 4.38472 27.6945 4.69321" fill="#924B97"/>
<path d="M17.7456 14.314C17.5213 14.3198 17.3006 14.3717 17.0972 14.4664C16.8937 14.5611 16.7118 14.6967 16.5625 14.8646C16.4095 15.0275 16.2905 15.2193 16.2124 15.4289C16.1343 15.6385 16.0988 15.8617 16.1078 16.0852C16.1068 16.3034 16.15 16.5196 16.2346 16.7206C16.3192 16.9216 16.4436 17.1033 16.6003 17.2547C16.9527 17.5554 17.2389 17.9264 17.4407 18.3441C17.6424 18.7617 17.7552 19.217 17.772 19.6808C17.8012 20.1477 17.7342 20.6158 17.5751 21.0556C17.4161 21.4955 17.1684 21.8978 16.8474 22.2374C16.5535 22.5772 16.4056 23.0199 16.436 23.4688C16.4664 23.9177 16.6726 24.3362 17.0097 24.6331C17.1731 24.7873 17.3661 24.9062 17.5771 24.9827C17.788 25.0592 18.0123 25.0916 18.2361 25.0778C18.4643 25.0707 18.6885 25.0166 18.8949 24.919C19.1013 24.8213 19.2855 24.6821 19.4361 24.5101C19.5939 24.3417 19.7141 24.1415 19.789 23.9229C19.8638 23.7044 19.8914 23.4723 19.8701 23.2422C19.8588 23.0109 19.7994 22.7845 19.6958 22.5776C19.5921 22.3706 19.4465 22.1877 19.2682 22.0406C18.9389 21.7345 18.6739 21.3657 18.4886 20.9556C18.3032 20.5455 18.2014 20.1024 18.189 19.6524C18.16 18.7443 18.4872 17.8611 19.1003 17.1923C19.2533 17.0278 19.3711 16.8337 19.4463 16.6218C19.5216 16.4099 19.5528 16.1848 19.538 15.9603C19.5303 15.7316 19.4762 15.5069 19.3788 15.3C19.2815 15.093 19.1431 14.9082 18.972 14.7568C18.665 14.4696 18.2597 14.3117 17.8399 14.3159H17.7456" fill="#924B97"/>
<path d="M19.8961 1.36243C19.6579 1.4111 19.4322 1.50826 19.2329 1.6479C19.0337 1.78753 18.8651 1.96668 18.7376 2.17427C18.2138 3.01024 17.3851 3.60783 16.4282 3.83956C15.9585 3.95621 15.4704 3.97797 14.9923 3.90357C14.5142 3.82917 14.0556 3.6601 13.6433 3.40621L13.5734 3.36079C12.7508 2.84101 11.9923 2.90409 11.298 3.55003C11.0783 3.74392 10.9073 3.987 10.7988 4.25956C10.6903 4.53212 10.6473 4.8265 10.6734 5.11881C10.6987 5.42445 10.8019 5.71845 10.9731 5.97261C11.1442 6.22676 11.3776 6.43256 11.6508 6.57027C12.0547 6.83971 12.4012 7.18687 12.6704 7.59161C12.9395 7.99636 13.1259 8.45066 13.2187 8.92818C13.3306 9.40161 13.3446 9.89301 13.2599 10.3721C13.1752 10.8512 12.9936 11.3078 12.7263 11.7138C12.5941 11.9188 12.5052 12.1489 12.4649 12.3897C12.4247 12.6305 12.434 12.877 12.4923 13.1141C12.5441 13.3574 12.6451 13.5875 12.7892 13.79C12.9333 13.9925 13.1174 14.1631 13.33 14.2912C13.745 14.5515 14.2454 14.6379 14.7232 14.5317C15.2011 14.4255 15.6183 14.1352 15.8848 13.7235C16.0168 13.5211 16.1076 13.2945 16.152 13.0568C16.1964 12.819 16.1934 12.5748 16.1433 12.3382C16.1019 12.1044 16.0136 11.8814 15.8839 11.6826C15.7542 11.4839 15.5857 11.3136 15.3885 11.182C14.5357 10.6579 13.9194 9.82195 13.6697 8.85059C13.5502 8.36485 13.5286 7.8601 13.606 7.36587C13.6835 6.87164 13.8584 6.39787 14.1206 5.97228C14.383 5.54304 14.7304 5.17231 15.1412 4.88296C15.5521 4.59361 16.0177 4.39179 16.5093 4.28995C17 4.16623 17.5114 4.14951 18.0091 4.24092C18.5067 4.33232 18.9791 4.52973 19.3942 4.81981C19.5967 4.94225 19.8218 5.02216 20.056 5.05469C20.2901 5.08722 20.5285 5.07169 20.7565 5.00905C20.9901 4.95259 21.2103 4.8505 21.4046 4.7086C21.5988 4.5667 21.7633 4.38778 21.8885 4.18208C22.0203 3.97682 22.109 3.74681 22.1492 3.50605C22.1894 3.26529 22.1803 3.01884 22.1225 2.78172C22.0733 2.54282 21.976 2.31653 21.8365 2.11672C21.697 1.91692 21.5182 1.74781 21.3112 1.6198C21.0168 1.42607 20.6727 1.32221 20.3206 1.3208C20.1764 1.32074 20.0327 1.33724 19.8923 1.37" fill="#924B97"/>
<path d="M16.8904 6.96961C16.6711 7.1224 16.4855 7.31888 16.3453 7.54679C16.205 7.7747 16.1131 8.02916 16.0753 8.29428C16.0294 8.55769 16.0373 8.82771 16.0986 9.08795C16.1599 9.34819 16.2733 9.59323 16.4319 9.80818C16.7325 10.2393 17.1898 10.5349 17.7055 10.6314C18.2575 10.7021 18.7886 10.8882 19.2644 11.1776C19.7402 11.4671 20.1502 11.8535 20.4677 12.3118C20.8072 12.7528 21.048 13.262 21.1736 13.8048C21.2993 14.3475 21.307 14.911 21.196 15.4569C21.1638 15.7149 21.1837 15.9768 21.2547 16.2268C21.3257 16.4769 21.4463 16.71 21.6093 16.9122C21.9345 17.3483 22.4192 17.637 22.9567 17.7147C23.2228 17.7532 23.4939 17.7387 23.7545 17.6722C24.015 17.6056 24.26 17.4881 24.4753 17.3266C24.6906 17.1651 24.8721 16.9626 25.0094 16.7307C25.1467 16.4988 25.2371 16.2421 25.2755 15.9752C25.3138 15.7083 25.2994 15.4364 25.233 15.175C25.1666 14.9137 25.0496 14.668 24.8885 14.4521C24.7306 14.2298 24.5289 14.0424 24.2959 13.9015C24.0629 13.7605 23.8035 13.669 23.5338 13.6327C23.012 13.5596 22.5107 13.3801 22.0607 13.1055C21.6106 12.8308 21.2213 12.4667 20.9168 12.0355C20.59 11.6141 20.3498 11.1318 20.2103 10.6166C20.0707 10.1014 20.0344 9.56355 20.1036 9.0342C20.1586 8.76183 20.1577 8.48109 20.1009 8.20909C20.0441 7.93709 19.9327 7.67955 19.7734 7.45217C19.6195 7.21631 19.4169 7.01636 19.1793 6.86585C18.9416 6.71534 18.6745 6.61778 18.396 6.57978C18.2874 6.56326 18.1776 6.55503 18.0677 6.55518C17.6421 6.55583 17.2284 6.6968 16.8904 6.95636" fill="#924B97"/>
<path d="M8.04699 7.2384C7.84894 7.37948 7.68204 7.56002 7.55673 7.76874C7.43141 7.97746 7.35038 8.20986 7.31869 8.45142C7.17613 9.42896 6.65812 10.3119 5.87529 10.9115C5.4945 11.2096 5.05819 11.4284 4.59196 11.5552C4.12573 11.6819 3.63896 11.714 3.1602 11.6495L3.07529 11.6363C2.10925 11.4963 1.44321 11.8615 1.06586 12.7358C0.942975 13.0022 0.884727 13.2941 0.895877 13.5875C0.907027 13.8809 0.987257 14.1675 1.13001 14.4238C1.27621 14.6931 1.48913 14.92 1.74823 15.0828C2.00733 15.2455 2.30387 15.3386 2.60925 15.3529C3.08669 15.435 3.54322 15.611 3.95254 15.8709C4.36185 16.1307 4.71586 16.4692 4.99416 16.8668C5.28813 17.2538 5.49977 17.6971 5.61596 18.1695C5.73215 18.6418 5.75041 19.133 5.66963 19.6127C5.632 19.8537 5.64389 20.0999 5.70456 20.3362C5.76523 20.5724 5.87341 20.7938 6.02246 20.9866C6.16736 21.1879 6.35203 21.3571 6.56497 21.4838C6.77791 21.6104 7.01456 21.6917 7.2602 21.7227C7.74547 21.7918 8.23839 21.6669 8.63265 21.3748C9.02691 21.0828 9.29092 20.647 9.36774 20.1615C9.40644 19.9229 9.39769 19.679 9.34199 19.4439C9.28629 19.2088 9.18475 18.987 9.04321 18.7914C8.91195 18.5945 8.74261 18.4261 8.54523 18.296C8.34785 18.166 8.12645 18.0771 7.89416 18.0344C6.90277 17.9069 5.99958 17.398 5.37529 16.6152C5.0697 16.2198 4.84559 15.7673 4.71602 15.2842C4.58645 14.8011 4.554 14.297 4.62057 13.8012C4.68724 13.3017 4.85564 12.8214 5.11532 12.39C5.375 11.9587 5.72039 11.5855 6.13001 11.2938C6.52753 10.9799 6.9876 10.7553 7.47912 10.6352C7.97064 10.5151 8.48215 10.5022 8.97906 10.5974C9.21328 10.627 9.45105 10.6087 9.67804 10.5436C9.90502 10.4786 10.1165 10.3681 10.2998 10.2189C10.6867 9.92246 10.9405 9.48415 11.0055 9.00021C11.0722 8.51363 10.9459 8.02022 10.6538 7.62602C10.3617 7.23182 9.92699 6.9683 9.44322 6.89209C9.34327 6.87722 9.24237 6.86963 9.14133 6.86938C8.74361 6.87013 8.35738 7.00325 8.04322 7.24786" fill="#924B97"/>
<path d="M26.7268 18.0515C26.4829 18.0519 26.2416 18.1024 26.018 18.2001C25.7944 18.2977 25.5932 18.4404 25.4268 18.6193C25.251 18.7946 25.1132 19.0044 25.022 19.2356C24.9307 19.4668 24.888 19.7144 24.8966 19.9629C24.8966 20.2072 24.9469 20.449 25.0443 20.673C25.1416 20.897 25.2841 21.0985 25.4626 21.2648C26.1744 21.9482 26.5898 22.8847 26.6192 23.8725C26.6396 24.3575 26.5632 24.8418 26.3944 25.2967C26.2256 25.7517 25.9678 26.1682 25.6362 26.5219L25.5758 26.5824C24.9003 27.2851 24.8085 28.0421 25.3003 28.8533C25.445 29.1085 25.6477 29.3259 25.892 29.4877C26.1362 29.6495 26.4152 29.7511 26.706 29.7843C27.0096 29.8214 27.3175 29.7795 27.6003 29.6629C27.8831 29.5463 28.1313 29.3587 28.3211 29.1182C28.666 28.7764 29.075 28.5066 29.5246 28.3244C29.9741 28.1422 30.4552 28.0511 30.94 28.0566C31.4246 28.0423 31.907 28.1279 32.3574 28.3078C32.8079 28.4878 33.2167 28.7585 33.5588 29.1031C33.7322 29.2748 33.9389 29.4091 34.166 29.4977C34.3932 29.5862 34.6361 29.6271 34.8796 29.6178C35.1276 29.6166 35.3728 29.5644 35.6 29.4645C35.8271 29.3646 36.0315 29.219 36.2003 29.0368C36.5373 28.68 36.7209 28.2048 36.7118 27.7134C36.7026 27.2221 36.5013 26.7541 36.1513 26.4102C35.9806 26.2399 35.7781 26.1051 35.5553 26.0135C35.3325 25.922 35.0939 25.8754 34.8532 25.8766C34.6174 25.8693 34.3826 25.9098 34.1628 25.9957C33.943 26.0815 33.7427 26.2109 33.5739 26.3761C32.8923 27.1092 31.9532 27.5476 30.9551 27.5986C30.4569 27.6165 29.9601 27.5349 29.4937 27.3585C29.0273 27.1821 28.6004 26.9144 28.2381 26.5711C27.872 26.2268 27.5803 25.8109 27.3811 25.349C27.1818 24.8871 27.0792 24.389 27.0796 23.8858C27.0576 23.3786 27.1446 22.8726 27.3347 22.4021C27.5249 21.9316 27.8136 21.5076 28.1815 21.1588C28.3397 20.9834 28.4615 20.778 28.5396 20.5548C28.6177 20.3316 28.6505 20.0949 28.6362 19.8588C28.628 19.6148 28.5717 19.3748 28.4707 19.1526C28.3696 18.9305 28.2258 18.7306 28.0475 18.5644C27.8794 18.3979 27.6798 18.2667 27.4604 18.1787C27.2411 18.0906 27.0064 18.0474 26.7702 18.0515H26.7268Z" fill="#924B97"/>
<path d="M25.4757 0.111651C25.1946 0.193562 24.9368 0.34077 24.723 0.541333C24.5093 0.741896 24.3457 0.990166 24.2455 1.266C24.1388 1.55352 24.1075 1.86366 24.1544 2.16681C24.2013 2.46995 24.3249 2.75597 24.5134 2.99753C24.765 3.4135 24.9316 3.8755 25.0035 4.35665C25.0754 4.83779 25.0512 5.32848 24.9323 5.80015C24.8333 6.27617 24.6379 6.72673 24.3581 7.12387C24.0783 7.52101 23.7202 7.85627 23.3059 8.10886C23.0999 8.23782 22.9222 8.40753 22.7837 8.60761C22.6451 8.8077 22.5487 9.03398 22.5002 9.27267C22.4445 9.51566 22.4392 9.76755 22.4847 10.0127C22.5301 10.2578 22.6253 10.491 22.7644 10.6976C23.0319 11.1093 23.4497 11.3993 23.9281 11.5054C24.4064 11.6116 24.9072 11.5254 25.3229 11.2653C25.7354 11.0106 26.0305 10.6023 26.1436 10.1299C26.2059 9.90121 26.2212 9.66222 26.1888 9.42739C26.1564 9.19256 26.0768 8.96676 25.955 8.76362C25.4067 7.92673 25.2038 6.90906 25.3889 5.92505C25.4875 5.43479 25.6824 4.96912 25.9623 4.5552C26.2422 4.14127 26.6014 3.78738 27.0191 3.51415C27.4386 3.23753 27.9102 3.05014 28.4048 2.96356C28.8994 2.87698 29.4064 2.89305 29.8946 3.01078C30.3904 3.10703 30.8599 3.30888 31.2714 3.6027C31.6828 3.89651 32.0266 4.27545 32.2795 4.71392C32.4123 4.9099 32.5832 5.07695 32.7819 5.20507C32.9807 5.33319 33.2032 5.41974 33.4361 5.45952C33.672 5.50872 33.9154 5.51063 34.1521 5.46517C34.3888 5.4197 34.6142 5.32774 34.8153 5.19459C35.0218 5.0652 35.1997 4.89491 35.3382 4.69414C35.4768 4.49337 35.573 4.26635 35.621 4.02699C35.6775 3.79006 35.6854 3.5441 35.6442 3.30402C35.603 3.06394 35.5136 2.83477 35.3814 2.63041C35.2517 2.41839 35.0802 2.23517 34.8774 2.09199C34.6747 1.94881 34.4449 1.84869 34.2021 1.79776C33.9656 1.73999 33.7197 1.73169 33.4798 1.77336C33.2399 1.81503 33.0112 1.90579 32.8078 2.03999C31.9785 2.57306 30.9743 2.75983 30.0097 2.56039C29.5346 2.46735 29.0829 2.27996 28.6811 2.00925C28.2793 1.73853 27.9355 1.38996 27.67 0.984038L27.6248 0.912128C27.2323 0.304043 26.738 0 26.1417 0C25.9154 0.00303576 25.6908 0.0406855 25.4757 0.111651" fill="#924B97"/>
<path d="M11.255 21.104C11.0641 21.2552 10.906 21.4441 10.7905 21.6588C10.675 21.8736 10.6045 22.1098 10.5833 22.3529C10.5549 22.5997 10.577 22.8497 10.6484 23.0876C10.7198 23.3255 10.8389 23.5462 10.9984 23.7363C11.1493 23.9277 11.3375 24.0863 11.5517 24.2021C11.7658 24.318 12.0013 24.3887 12.2437 24.4099C13.2248 24.5042 14.1302 24.9796 14.7664 25.7346C15.0819 26.1021 15.321 26.5291 15.4697 26.9906C15.6184 27.452 15.6737 27.9386 15.6324 28.4218L15.623 28.5051C15.5286 29.4752 15.9261 30.1268 16.8154 30.4599C17.087 30.5689 17.3803 30.6123 17.6716 30.5866C17.963 30.561 18.2443 30.467 18.4928 30.3123C18.7539 30.1528 18.9695 29.9284 19.1189 29.6609C19.2683 29.3934 19.3464 29.0918 19.3456 28.7851C19.4052 28.303 19.5593 27.8375 19.7989 27.4153C20.0385 26.9931 20.359 26.6226 20.7418 26.325C21.1129 26.0124 21.5439 25.7792 22.0083 25.6399C22.4726 25.5006 22.9605 25.4581 23.4418 25.5151C23.6838 25.5413 23.9286 25.5177 24.1612 25.4458C24.3938 25.3739 24.6093 25.2551 24.7947 25.0969C24.988 24.941 25.1475 24.7471 25.2633 24.5271C25.3791 24.3071 25.4489 24.0657 25.4682 23.8176C25.5111 23.3283 25.3607 22.8416 25.0495 22.4622C24.7383 22.0829 24.2911 21.8411 23.8041 21.789C23.5649 21.7619 23.3227 21.7826 23.0915 21.8498C22.8603 21.9171 22.6446 22.0295 22.4569 22.1807C22.2669 22.3217 22.1074 22.4999 21.9881 22.7045C21.8688 22.9091 21.792 23.1358 21.7626 23.371C21.6809 24.3693 21.217 25.297 20.4682 25.9598C20.0892 26.2841 19.6496 26.5296 19.175 26.682C18.7005 26.8343 18.2005 26.8905 17.7041 26.8473C17.2038 26.8056 16.7173 26.6614 16.2747 26.4238C15.8321 26.1863 15.4427 25.8602 15.1305 25.4659C14.8 25.0813 14.5554 24.6301 14.4132 24.1428C14.271 23.6555 14.2344 23.1432 14.306 22.6406C14.3214 22.4043 14.2894 22.1674 14.2119 21.9438C14.1345 21.7202 14.0131 21.5144 13.855 21.3386C13.5401 20.9664 13.091 20.7344 12.606 20.6933C12.5399 20.6933 12.4758 20.6933 12.4173 20.6933C11.9935 20.6871 11.5814 20.8327 11.255 21.104" fill="#924B97"/>
<path d="M7.98145 11.9335C7.75465 11.9536 7.5341 12.0187 7.33261 12.125C7.13111 12.2314 6.95269 12.3768 6.80769 12.5528C6.6627 12.7289 6.55402 12.9321 6.48797 13.1506C6.42193 13.3692 6.39983 13.5987 6.42295 13.8259C6.4408 14.0506 6.50483 14.2691 6.61101 14.4678C6.71719 14.6665 6.86323 14.8409 7.03994 14.9802C7.21512 15.1267 7.41824 15.2358 7.6369 15.3009C7.85555 15.366 8.08514 15.3856 8.31163 15.3587C8.75216 15.3088 9.1982 15.3503 9.62209 15.4805C10.046 15.6107 10.4387 15.8269 10.7758 16.1156C11.1289 16.3903 11.4242 16.7324 11.6447 17.1221C11.8653 17.5119 12.0067 17.9416 12.0607 18.3865C12.0726 18.6197 12.1317 18.8481 12.2346 19.0576C12.3374 19.2672 12.4818 19.4535 12.6588 19.6052C12.8254 19.7747 13.0253 19.9078 13.2457 19.9959C13.4662 20.0841 13.7025 20.1254 13.9397 20.1174C14.1769 20.1093 14.4099 20.052 14.6239 19.9491C14.8379 19.8462 15.0284 19.6999 15.1832 19.5194C15.338 19.339 15.4538 19.1283 15.5233 18.9007C15.5928 18.6731 15.6145 18.4335 15.587 18.197C15.5596 17.9606 15.4835 17.7324 15.3637 17.5269C15.2439 17.3214 15.0829 17.1431 14.8909 17.0032C14.556 16.7162 14.123 16.571 13.6833 16.5982C13.2192 16.6559 12.7481 16.6154 12.3006 16.4791C11.8531 16.3429 11.439 16.114 11.0852 15.8072C10.717 15.5187 10.4152 15.1541 10.2003 14.738C9.98539 14.322 9.86248 13.8643 9.83994 13.3963C9.81145 13.1801 9.7402 12.9719 9.63036 12.7837C9.52052 12.5956 9.37431 12.4313 9.20031 12.3006C8.90542 12.058 8.5364 11.9244 8.15503 11.9221C8.09843 11.9221 8.03994 11.9221 7.98145 11.9316" fill="#924B97"/>
<path d="M28.6697 11.8084C28.2227 11.8885 27.825 12.1414 27.5621 12.5127C27.2992 12.8839 27.1922 13.3439 27.264 13.7935C27.2983 14.0149 27.3758 14.2272 27.492 14.4185C27.6082 14.6098 27.761 14.7761 27.9414 14.9081C28.1148 15.0442 28.3138 15.1437 28.5265 15.201C28.7391 15.2582 28.9611 15.2719 29.1791 15.2412C29.6377 15.1404 30.1126 15.14 30.5713 15.2399C31.0301 15.3398 31.462 15.5378 31.8376 15.8203C32.222 16.083 32.5484 16.4222 32.7967 16.8167C33.045 17.2113 33.2099 17.6528 33.281 18.1138C33.3532 18.5712 33.3342 19.0383 33.225 19.4882C33.1159 19.9381 32.9188 20.3618 32.6452 20.7348C32.0844 21.4743 31.259 21.9663 30.3433 22.1068C30.1289 22.1508 29.9254 22.2375 29.7449 22.3616C29.5644 22.4858 29.4105 22.6449 29.2923 22.8296C29.1649 23.0139 29.0755 23.2217 29.0291 23.4411C28.9828 23.6604 28.9806 23.8868 29.0225 24.107C29.1028 24.5549 29.3551 24.9534 29.7252 25.2167C30.0954 25.48 30.5537 25.5871 31.0018 25.5149C31.2289 25.4809 31.4466 25.4003 31.6414 25.2782C31.8362 25.1561 32.0038 24.9952 32.1338 24.8053C32.2685 24.6237 32.3644 24.4162 32.4157 24.1958C32.467 23.9754 32.4725 23.7468 32.432 23.5242C32.3469 23.0815 32.3532 22.6261 32.4506 22.1861C32.5479 21.746 32.7342 21.3306 32.998 20.9657C33.2472 20.59 33.5683 20.2677 33.9428 20.0176C34.3172 19.7674 34.7375 19.5944 35.1791 19.5085C35.4616 19.4885 35.7341 19.3959 35.9707 19.2399C36.2072 19.0838 36.3999 18.8694 36.5301 18.6172C36.6564 18.3763 36.7246 18.1091 36.7292 17.8369C36.7338 17.5648 36.6746 17.2953 36.5565 17.0503C36.1904 16.2479 35.5615 15.9231 34.6697 16.0757L34.5923 16.089C34.15 16.1587 33.6982 16.1391 33.2634 16.0316C32.8286 15.924 32.4196 15.7306 32.0603 15.4626C31.3214 14.9235 30.8233 14.1147 30.6735 13.2107C30.6014 12.8137 30.3943 12.454 30.0873 12.1931C29.7804 11.9322 29.3927 11.7862 28.9904 11.78C28.8829 11.7803 28.7756 11.7898 28.6697 11.8084" fill="#924B97"/>
<path d="M38.4696 11.1859C38.2749 11.3711 38.1197 11.5941 38.0136 11.8413C37.9076 12.0886 37.8528 12.3549 37.8526 12.6241C37.8408 13.1505 38.0336 13.6609 38.3904 14.0472C38.7923 14.4328 39.1091 14.8986 39.3203 15.4146C39.5315 15.9306 39.6326 16.4852 39.6168 17.0428C39.6288 17.5999 39.5211 18.1531 39.301 18.6648C39.0809 19.1765 38.7536 19.6346 38.3413 20.0082C38.1631 20.1966 38.0244 20.419 37.9333 20.6621C37.8423 20.9052 37.8007 21.1642 37.8111 21.4237C37.8181 21.8274 37.9434 22.2201 38.1715 22.5527C38.3995 22.8854 38.7203 23.1434 39.0936 23.2943C39.4669 23.4453 39.8763 23.4827 40.2707 23.4017C40.6651 23.3208 41.027 23.1251 41.3111 22.8392C41.5028 22.6524 41.6544 22.4284 41.7567 22.1807C41.8589 21.9331 41.9095 21.6671 41.9055 21.3991C41.9101 21.1267 41.8591 20.8562 41.7556 20.6043C41.6521 20.3524 41.4982 20.1244 41.3036 19.9344C40.9271 19.5656 40.6297 19.1236 40.4296 18.6355C40.2294 18.1474 40.1307 17.6235 40.1394 17.0958C40.1278 16.5615 40.2218 16.0302 40.4161 15.5326C40.6105 15.035 40.9012 14.5809 41.2715 14.1967C41.4771 14.0101 41.6426 13.7835 41.7581 13.5308C41.8736 13.278 41.9366 13.0043 41.9432 12.7263C41.9563 12.4507 41.9133 12.1754 41.8168 11.9171C41.7204 11.6587 41.5725 11.4228 41.3822 11.2236C41.1919 11.0244 40.9632 10.8662 40.71 10.7585C40.4567 10.6509 40.1843 10.596 39.9092 10.5974H39.8998C39.6344 10.5917 39.3707 10.6405 39.1247 10.7407C38.8788 10.8409 38.6559 10.9905 38.4696 11.1802" fill="#924B97"/>
<path d="M1.17736 18.5454C0.984011 18.7267 0.826537 18.9431 0.713208 19.1831C0.597928 19.4207 0.525734 19.677 0.5 19.94C0.564151 21.927 2.82642 21.2174 4.01321 23.1192C4.48262 23.8971 4.63023 24.8282 4.42453 25.7137C4.37193 25.9321 4.36455 26.1589 4.40285 26.3803C4.44114 26.6016 4.5243 26.8127 4.64717 27.0005C4.78378 27.2209 4.96823 27.4075 5.18676 27.5464C5.4053 27.6853 5.65228 27.773 5.90929 27.8028C6.1663 27.8326 6.42671 27.8039 6.67111 27.7187C6.9155 27.6335 7.13757 27.4941 7.32076 27.3109C7.74717 26.9135 8.16981 26.7621 8.59057 26.8605C9.01132 26.9589 9.3 27.273 9.50943 27.818C9.5957 28.0621 9.73544 28.2836 9.91836 28.4663C10.1013 28.649 10.3227 28.7882 10.5664 28.8738C10.8101 28.9593 11.0698 28.9889 11.3263 28.9605C11.5829 28.932 11.8299 28.8462 12.0491 28.7093C12.2401 28.593 12.4055 28.4389 12.5353 28.2564C12.665 28.0738 12.7564 27.8668 12.8038 27.6477C12.8589 27.4255 12.8681 27.1944 12.8308 26.9685C12.7935 26.7427 12.7104 26.5268 12.5868 26.3344C12.471 26.143 12.3176 25.9772 12.136 25.8471C11.9544 25.717 11.7483 25.6252 11.5302 25.5774C11.2515 25.5005 10.9574 25.5001 10.6785 25.5763C10.3997 25.6526 10.1464 25.8026 9.94528 26.0108C9.48113 26.4177 9.05472 26.5785 8.66981 26.4858C8.21509 26.3817 7.89057 26.0335 7.69057 25.4374C7.59319 25.1949 7.44145 24.9781 7.24709 24.8038C7.05274 24.6296 6.82099 24.5025 6.56981 24.4326C6.10665 24.3501 5.66659 24.1687 5.27951 23.9006C4.89242 23.6326 4.56737 23.2841 4.32642 22.8789C4.08287 22.4881 3.91969 22.0524 3.84646 21.5974C3.77323 21.1425 3.79143 20.6774 3.9 20.2296C4.13208 19.1131 3.18491 18.1404 2.19811 18.1404C1.81874 18.1395 1.45344 18.2844 1.17736 18.5454" fill="#924B97"/>
</g>
<defs>
<clipPath id="clip0_1273_862">
<rect width="140" height="54.2584" fill="white" transform="translate(0.5)"/>
</clipPath>
</defs>
</svg>
