<svg id="Capa_1" data-name="Capa 1" xmlns="http://www.w3.org/2000/svg" xmlns:xlink="http://www.w3.org/1999/xlink" viewBox="0 0 500 500"><defs><style>.cls-1{fill:url(#Degradado_sin_nombre_11);}.cls-2{fill:url(#Degradado_sin_nombre_11-2);}.cls-3{fill:url(#Degradado_sin_nombre_11-3);}.cls-4{fill:url(#Degradado_sin_nombre_11-4);}.cls-5{fill:url(#Degradado_sin_nombre_11-5);}.cls-6{fill:url(#Degradado_sin_nombre_11-6);}</style><linearGradient id="Degradado_sin_nombre_11" x1="90.45" y1="275.3" x2="421.44" y2="275.3" gradientUnits="userSpaceOnUse"><stop offset="0" stop-color="#74aa62"/><stop offset="0.47" stop-color="#3eab92"/><stop offset="1" stop-color="#19acc1"/></linearGradient><linearGradient id="Degradado_sin_nombre_11-2" x1="327.61" y1="170.64" x2="393.74" y2="170.64" xlink:href="#Degradado_sin_nombre_11"/><linearGradient id="Degradado_sin_nombre_11-3" x1="305.14" y1="159.64" x2="316.79" y2="159.64" xlink:href="#Degradado_sin_nombre_11"/><linearGradient id="Degradado_sin_nombre_11-4" x1="244.75" y1="369.09" x2="267.08" y2="369.09" xlink:href="#Degradado_sin_nombre_11"/><linearGradient id="Degradado_sin_nombre_11-5" x1="222.42" y1="369.09" x2="234.1" y2="369.09" xlink:href="#Degradado_sin_nombre_11"/><linearGradient id="Degradado_sin_nombre_11-6" x1="277.91" y1="368.98" x2="289.56" y2="368.98" xlink:href="#Degradado_sin_nombre_11"/></defs><path class="cls-1" d="M355.53,440.82h-199c0-1.72-.09-3.45,0-5.17.48-15.46,10.86-26.63,26.27-27.88,6.53-.53,13.11-.33,19.67-.6,1.16,0,3.21-.65,3.28-1.19a21.81,21.81,0,0,0-.12-7.9c-.19-.75-3.18-1.1-4.88-1.11-28.86-.05-57.72,0-86.57,0-14.41,0-23.65-9.27-23.65-23.68q0-119.86,0-239.72c0-14.58,9.22-23.74,23.86-23.75q36.66,0,73.32,0,105,0,210,.06c7.28,0,13.82,2.09,18.27,7.93,2.52,3.32,3.76,7.62,5.57,11.48V377.48c-3.39,14.42-13.59,19.74-27.78,19.52-26.91-.43-53.84-.11-80.75-.1-7.35,0-7.25,0-7.16,7.21,0,2.88,1.24,3.74,3.92,3.7,6.35-.1,12.7-.13,19.05,0,9.57.23,16.79,4.82,22.1,12.56C355,426.55,355.55,433.64,355.53,440.82ZM278.05,330.06c1.3-1.45,2-2.1,2.52-2.83Q322,273.47,363.33,219.72c4.66-6.05,9.34-12.11,14.35-17.86,3.38-3.87,9.34-4.64,14-2.47,6,2.78,7.8,7.82,7.79,14q-.06,60.75,0,121.5c0,1.19,0,2.37,0,3.55,0,1.85,1,3,2.78,2.74,2.67-.39,5.9,1.64,7.93-1.64a3.38,3.38,0,0,0,.19-1.58c0-1,0-1.94,0-2.91V149.58c0-1.07-.05-2.15,0-3.23.08-2.47-1.14-3.56-3.55-3.44-4,.18-7.95.53-11.92.53q-143.78.06-287.54.07c-5.7,0-5.71,0-5.71,5.67V335.64a14.41,14.41,0,0,1,0,1.61c-.3,2.88.84,4.13,3.85,4,4.2-.17,8.4,0,12.6,0,5.3,0,5.26,0,5.32-5.42.11-8.39-.54-16.9.6-25.15,2.61-19,6-37.86,9.31-56.74a6.74,6.74,0,0,0-2.31-6.82c-8.21-7.67-13.64-17.09-17.09-27.75-2.73-8.43-2-16.58,2.85-23.86a136.53,136.53,0,0,1,13.6-17.13c6.77-7.35,14.11-14.18,21.14-21.29,3.67-3.7,7.12-3.49,10.75.33,5.56,5.84,11.27,11.53,17.06,17.13,7.32,7.06,14.28,14.38,18.72,23.68,2.72,5.68,3.91,11.63,2.27,17.89a65.31,65.31,0,0,1-18,31.19,6.85,6.85,0,0,0-2.2,6.92c1,5.18,1.82,10.4,2.64,15.61,3.52,22.52,9,44.82,7.4,67.89a5.8,5.8,0,0,0,.11,1.61c.09.4.3,1.09.51,1.11a36.53,36.53,0,0,0,7.85.47c.74-.08,1.71-2.47,1.72-3.82.13-15.29,0-30.59.17-45.88a37,37,0,0,1,1.85-10.72c3.28-10.14,6.9-20.17,10.42-30.23,4.29-12.31,8.56-24.62,12.95-36.89a14.4,14.4,0,0,1,13.81-9.78,14.61,14.61,0,0,1,13.68,10q2,5.47,3.86,11c6.69,19.23,13.4,38.44,20,57.7a20.44,20.44,0,0,1,.94,6.33c.08,12.38,0,24.77,0,37.16ZM256.2,352.9V353H107.64a11.17,11.17,0,0,0-3.53.13c-.91.32-2.25,1.35-2.25,2.06,0,7.42,0,14.85.66,22.22.4,4.36,4.68,7.47,9.12,7.78,1.61.11,3.23.07,4.84.07q134.85,0,269.68.06c3.12,0,6.24.19,9.34.46,9.25.79,14.66-3.9,14.89-13.16.12-4.52,0-9,0-13.57,0-6.11,0-6.11-6-6.11ZM284.48,341c2.18.11,3.34.21,4.5.21,8.72,0,17.44-.1,26.16.08a7.93,7.93,0,0,0,7.11-3.44c5.39-7,11-13.83,16.48-20.73,1.9-2.38,4.25-3.7,7.34-2.71s3.69,3.59,3.68,6.46c0,5.6,0,11.2,0,16.8,0,2.13.53,3.56,3,3.56,10.66,0,21.32,0,32-.07a3.66,3.66,0,0,0,2.8-1.54c2.26-5.06-.15-8.7-5.59-8.75h-.33c-4.35-.05-4.71-.42-4.76-4.87v-1.93c0-4.56.24-4.77,4.71-4.81,6.35-.05,6.35-.05,6.28-6.47,0-.32,0-.65,0-1,.15-2.45-.94-3.56-3.43-3.5-3.77.07-7.54,0-11.31,0-7.55,0-7.47,0-7.28-7.45.07-2.61,1.06-3.69,3.68-3.63q7.26.13,14.54,0c1.09,0,3.07-.47,3.13-.92a30.35,30.35,0,0,0,.17-8.56c-.11-.68-2.87-1.3-4.43-1.34-6.08-.19-6.09-.1-6.06-6.11,0-.32,0-.65,0-1-.32-3.13,1.17-4.11,4.18-4.09,7.06,0,7.06-.07,6.81-7.17,0-.22,0-.43,0-.65.06-2.2-1.08-3.08-3.2-3.06-3.87,0-7.75,0-11.63,0-7.49,0-7.4,0-7.17-7.54.09-2.7,1.25-3.58,3.78-3.53,4.63.09,9.26,0,13.89,0,4,0,4.33-.35,4.34-4.18,0-11.74,0-23.48-.05-35.22,0-1.32-.85-2.64-1.3-4a14.71,14.71,0,0,0-3.19,2.35c-8.72,11.22-17.36,22.5-26,33.77q-32.68,42.51-65.35,85C289.6,334.16,287.33,337.24,284.48,341ZM256.33,131.78v.08h148c1.07,0,2.15,0,3.23,0,2.15.05,2.6-1.13,2.11-2.93a9.4,9.4,0,0,0-7.16-7.17,31.79,31.79,0,0,0-7.35-.81c-27.56.14-55.12.48-82.68.52q-98.05.14-196.11.05c-1.62,0-3.34-.31-4.82.15-2.3.7-4.88,1.48-6.52,3.08-1.4,1.37-1.65,3.93-2.42,6a26,26,0,0,0,5.12,1Q182,131.82,256.33,131.78Zm-.65,297.94v.06q41.34,0,82.69,0A17.31,17.31,0,0,0,342,429c-.47-1.25-.68-2.72-1.48-3.7-3.81-4.66-8.91-6.41-14.85-6.4q-69.6.08-139.21.07a25.52,25.52,0,0,0-2.9.06c-5.5.69-10.1,2.92-13.09,7.82-1.12,1.83-.62,2.84,1.57,2.89,1.08,0,2.16,0,3.23,0ZM156.44,308.24c5.7,0,11.41.05,17.11-.05,1.07,0,2.61-.33,3.11-1.06,2-3-1.42-9.12-5-9.18-4.95-.08-9.91.07-14.83-.33-3.93-.31-5.84-2.78-5.57-6.16s2.34-5.08,6.21-5.17c4.09-.1,8.18,0,12.27,0,3.8,0,4-.19,3.4-3.81-1.38-8.5-2.93-17-4.21-25.48-.41-2.75-1.7-3.58-4.3-3.52-5.37.12-10.76.11-16.14,0-2.35,0-3.56.78-3.95,3.17q-4,24.21-8.05,48.4c-.42,2.47.38,3.3,2.83,3.26C145,308.16,150.73,308.23,156.44,308.24Zm32.82-97.67c-.16-1.87,0-3.2-.44-4.25-1.39-3.12-2.46-6.66-4.69-9.09-8.34-9.11-17.08-17.84-25.69-26.7-1.45-1.49-2.67-.67-3.86.48-6.41,6.22-13,12.27-19.21,18.66-4.43,4.55-8.44,9.53-10.42,15.75a48.08,48.08,0,0,0-.93,5c2.07-.9,3.32-1.4,4.53-2,6.55-3.14,13.32-3.44,19.55.13,5.9,3.37,11.08,3.45,17,.15,6.76-3.79,13.84-3.33,20.7.29C186.68,209.53,187.66,209.87,189.26,210.57Zm66.46,75.76c2.71-.77,5-1.36,7.24-2.07,1.83-.58,2.09-1.87,1.48-3.59-2.24-6.28-4.3-12.63-6.73-18.84a4.74,4.74,0,0,0-3.46-2.5q-14.83-.29-29.68,0a4.73,4.73,0,0,0-3.45,2.54c-2.45,6.32-4.52,12.78-6.81,19.16-.61,1.7-.21,2.56,1.47,3.18,3.91,1.45,7.77,2.51,11.88.69,2.16-1,4.46-1.59,6.6-2.58a11.2,11.2,0,0,1,10.19,0C248.11,284.05,252.1,285.07,255.72,286.33Zm-98.87-44.08c3.88,0,7.75.11,11.62-.06a6.61,6.61,0,0,0,3.81-1.29,52,52,0,0,0,12.65-16.56c.79-1.64.35-2.33-1.12-3.31-5.35-3.54-10.49-4.05-16.3-.72-6.89,4-14.33,4.18-21.26.12-5.74-3.35-10.88-3-16.34.33-2,1.2-2.42,2.29-1.19,4.08,2.72,4,5.43,8,8.26,11.88,3.14,4.33,7.28,6.38,12.78,5.59A52.37,52.37,0,0,1,156.85,242.25Zm88.25,76c0,6.56,0,13.12,0,19.68,0,2.3.89,3.36,3.24,3.33,5.16-.06,10.33-.05,15.49,0,2.16,0,3.12-.94,3.11-3.11q0-19.84,0-39.69c0-2.39-.95-3.06-3.21-2.3a23.19,23.19,0,0,1-15.21.05c-2.73-.93-3.46.14-3.43,2.69C245.14,305.34,245.09,311.8,245.1,318.25Zm-11.69,0c0-6.24,0-12.47,0-18.71,0-3.86-.17-4-3.79-3.09a23.87,23.87,0,0,1-14-.24c-2.54-.89-3.56-.2-3.54,2.54q.09,19.51,0,39c0,2.49,1,3.48,3.48,3.44,4.73-.08,9.47-.09,14.19,0,2.61.05,3.7-1,3.66-3.62C233.35,331.2,233.41,324.74,233.41,318.29Zm-76.6,22.94c6,0,12.06-.05,18.09,0,2.42,0,3.59-.84,3.54-3.38q-.12-7.28,0-14.55c0-2.54-1.15-3.39-3.55-3.38q-18.09.07-36.19,0c-2.69,0-3.61,1.17-3.56,3.72.09,4.63.12,9.27,0,13.9-.08,2.87,1.23,3.75,3.91,3.7C145,341.15,150.89,341.23,156.81,341.23Zm125.73,66v.54h5.16c6.54,0,6.54,0,6.44-6.58-.05-3.94-.34-4.27-4.23-4.27q-33.87,0-67.74,0c-4.14,0-4.31.26-4.31,5.17s.24,5.12,4.39,5.12Q252.39,407.25,282.54,407.23ZM239.2,247.51c3.55,0,7.09,0,10.64,0,2,0,2.79-.77,2.09-2.79-3.09-8.82-6.09-17.68-9.31-26.45-.43-1.17-2.08-2.76-3-2.66a4.93,4.93,0,0,0-3.36,2.74C233,227,230.08,235.77,227,244.49c-.76,2.14,0,3,2.2,3C232.54,247.49,235.87,247.5,239.2,247.51Zm95.29,93.3c4.13.33,4.6-.33,3.39-4.17Z"/><path class="cls-2" d="M360.77,153.84c9.58,0,19.17.07,28.75,0,3,0,4.27,1,4.22,4.1q-.21,12.75,0,25.52c.05,3.19-1.3,4.07-4.26,4.06-6.83,0-6.83.08-6.83-6.6,0-3.77-.13-7.55,0-11.31.14-3.08-1.06-4.18-4.14-4.16-14.32.11-28.64.05-43,.05-1.29,0-2.59-.08-3.88,0-2.84.21-4.05-.89-4.08-3.89-.05-7.76-.16-7.76,7.63-7.76h25.52Z"/><path class="cls-3" d="M316.79,159.76c0,5.71,0,5.71-5.73,5.71s-5.93-.08-5.92-5.95c0-5.63.09-5.71,6.16-5.7C316.79,153.83,316.79,153.83,316.79,159.76Z"/><path class="cls-4" d="M256.33,363.28h7.73c2,0,3,.87,3,2.91.05,10,.72,8.64-7.84,8.72-3.65,0-7.3,0-11,0-2.27,0-3.23-.93-3.35-3.26-.43-8.42-.49-8.42,7.88-8.41h3.55Z"/><path class="cls-5" d="M234.1,368.93c0,6,0,6-5.71,6-5.9,0-6-.07-6-5.84s.06-5.85,6-5.85C234.09,363.24,234.09,363.24,234.1,368.93Z"/><path class="cls-6" d="M289.56,369.5c-.62,1.7-.94,4.62-1.92,4.86-2.69.65-5.67.26-8.52.09-.41,0-.93-1.1-1.07-1.76a13,13,0,0,1-.13-2.87c0-6.67,0-6.67,6.75-6.57,4,.07,4.33.36,4.37,4.46,0,.54,0,1.08,0,1.61Z"/></svg>