<svg id="Capa_1" data-name="Capa 1" xmlns="http://www.w3.org/2000/svg" xmlns:xlink="http://www.w3.org/1999/xlink" viewBox="0 0 500 500"><defs><style>.cls-1{fill:url(#Degradado_sin_nombre_11);}.cls-2{fill:url(#Degradado_sin_nombre_19);}.cls-3{fill:url(#Degradado_sin_nombre_19-2);}.cls-4{fill:url(#Degradado_sin_nombre_19-3);}.cls-5{fill:url(#Degradado_sin_nombre_25);}.cls-6{fill:url(#Degradado_sin_nombre_25-2);}.cls-7{fill:url(#Degradado_sin_nombre_25-3);}</style><linearGradient id="Degradado_sin_nombre_11" x1="58.3" y1="250" x2="441.7" y2="250" gradientUnits="userSpaceOnUse"><stop offset="0" stop-color="#74aa62"/><stop offset="0.47" stop-color="#3eab92"/><stop offset="1" stop-color="#19acc1"/></linearGradient><linearGradient id="Degradado_sin_nombre_19" x1="130.1" y1="310.32" x2="194.85" y2="310.32" gradientUnits="userSpaceOnUse"><stop offset="0" stop-color="#74aa62"/><stop offset="1" stop-color="#3eab92"/></linearGradient><linearGradient id="Degradado_sin_nombre_19-2" x1="107.16" y1="255.06" x2="144.31" y2="255.06" xlink:href="#Degradado_sin_nombre_19"/><linearGradient id="Degradado_sin_nombre_19-3" x1="180.66" y1="254.98" x2="217.77" y2="254.98" xlink:href="#Degradado_sin_nombre_19"/><linearGradient id="Degradado_sin_nombre_25" x1="352.35" y1="261.24" x2="364.44" y2="261.24" gradientUnits="userSpaceOnUse"><stop offset="0" stop-color="#3eab92"/><stop offset="1" stop-color="#19acc1"/></linearGradient><linearGradient id="Degradado_sin_nombre_25-2" x1="376.88" y1="261.3" x2="388.93" y2="261.3" xlink:href="#Degradado_sin_nombre_25"/><linearGradient id="Degradado_sin_nombre_25-3" x1="328.04" y1="261.31" x2="339.75" y2="261.31" xlink:href="#Degradado_sin_nombre_25"/></defs><path class="cls-1" d="M441.7,108.52v.75c-4.86,9.45-9.74,18.89-14.54,28.37a3.06,3.06,0,0,0,0,2.41c4.8,9.47,9.68,18.91,14.54,28.35v1.5c-1.36-.1-2.72-.27-4.07-.27-16.22,0-32.44-.1-48.65.07-3,0-4.45-1-5.65-3.58-2.88-6.2-6-12.3-9.14-18.37-.55-1.06-1.76-2.47-2.72-2.51-5.66-.23-11.33-.11-17.36-.11,28.54,35.25,27.4,35.09,41.79,73.28,3.74,0,7.59-.1,11.44,0,10.67.35,18.36,7.91,18.47,18.57q.27,24.33,0,48.65c-.13,10.48-7.76,18-18.23,18.45a55.14,55.14,0,0,1-8.23,0c-2.91-.3-4,.9-4.89,3.57-2.91,8.32-5.56,16.84-9.54,24.65-5.63,11.05-12.36,21.53-18.67,32.33C380.93,375.3,380.28,398,365,409c-6.36,4.56-12,10.16-17.94,15.27-6.43,5.51-12.87,11-19.35,16.54-9.41-8.07-18.63-15.89-27.74-23.85a4.84,4.84,0,0,0-5.58-1.12,206.17,206.17,0,0,1-21.4,6.41c-8.2,1.88-16.58,3-25.19,4.46.29,3.78.6,7.79.91,11.88H76c.9-7.78,1.32-15.37,2.72-22.77,5.55-29.29,22.44-49.38,50.18-60.12,3.86-1.49,5.57-3.53,5.85-7.42Q89.18,329,82.91,279.77c-10.69.75-19.75-1.72-23.47-12.63-3.24-9.51.63-17,8.94-22.42-1.76-4.42-3.45-8.68-5.17-12.93A63.31,63.31,0,0,1,60,193.34c5.6-25.24,28.36-45.61,54-47.94a11.87,11.87,0,0,0,7.78-3.5,161.33,161.33,0,0,1,61.84-37.33,8.09,8.09,0,0,0,5-4.44c13-24.82,33.6-38.79,61.47-40.75C284.6,57,315.71,79.55,325,113c1.74,6.27,2.42,12.84,3.63,19.53,14,0,28.2,0,42.4-.11,1.07,0,2.54-1.36,3.12-2.46q4.86-9.25,9.32-18.71c1.1-2.35,2.51-3.2,5.14-3.18,14.84.13,29.68,0,44.53.08C436,108.18,438.85,108.4,441.7,108.52Zm-100.43,196a5,5,0,0,0-.94-.28c-9.73,0-19.45,0-29.18-.07-12.81-.06-20.13-7.35-20.18-20.23q-.08-22.64,0-45.28a26.63,26.63,0,0,1,.78-7c2.37-8.39,9.25-13.18,19-13.21,22.45-.06,44.9,0,67.36,0h4.35c-.4-1.51-.66-2.71-1-3.86-8.34-25.66-22.59-47.5-42.15-66.07-4-3.8-8-3.52-12.27-3-7.71,32.91-27.81,52.83-59.83,59.93-1.26,7-2,13.72-3.73,20.18s-4.33,12.89-6.58,19.39c7.59,4.9,11.45,11.73,9.12,20.66-3.18,12.19-12.71,14.87-23.92,14.24-4.21,33-21.65,55.69-52.84,68.91,1.76,2.26,2.85,5.19,4.77,5.89,27.12,9.93,44.21,28.82,51.46,56.67.5,1.93,1.19,2.44,3,2.12,8.81-1.52,17.66-2.85,26.44-4.53,3.89-.75,7.64-2.19,11.71-3.39-12-13.91-8.67-29.13-1.11-37.25a27.24,27.24,0,0,1,16.85-8.86c9.89-1.23,18.37,2,25.39,9.31,6.79-7,14.68-10.18,24.13-9.52,1,.07,2.4-1.17,3.08-2.18,5.32-7.81,10.86-15.51,15.64-23.65a119.52,119.52,0,0,0,11.94-29c-1-.09-1.77-.11-2.48-.23-3.39-.56-5.3.54-5.77,4.24a66.18,66.18,0,0,1-2.13,8.68c-2,7.53-7,11.6-14,11.53-6.86-.07-11.8-4.37-13.73-11.95C343.35,312.54,342.29,308.46,341.27,304.49Zm-98.79-61.8,1,.16a24.47,24.47,0,0,0,1.48-2.63c1.65-4,3.5-8,4.81-12.13,9.45-29.94,3.72-56.45-18.07-79.32-1.78-1.87-3-2-5.35-.74a74.34,74.34,0,0,1-35.41,9.14c-21.58,0-43.15,0-64.73.07-4,0-8,.22-11.93.62-27.18,2.74-48.4,31.07-42.67,57.81,1.88,8.78,5.81,17.13,8.81,25.67l.75,2.1,1.69-.88c0-1.39,0-2.79,0-4.18-.14-12.23,5.52-20.56,16.84-25.16,4.58-1.87,9.08-3.94,13.64-5.92l-5.71-11,11.23-4.54c.4.35.66.48.75.68,8.48,18.22,23.1,26.17,42.83,26,18.83-.14,37.67-.17,56.49.15,11.88.2,21.49,9.43,22.93,21.13C242,240.7,242.27,241.69,242.48,242.69ZM95.17,256.5h-.35c.38,9.08-.09,18.3,1.3,27.22,6.06,38.85,43,63.7,81.43,55.32,27.47-6,49.41-30.46,51.58-58.4.91-11.65.58-23.41.68-35.11.09-10.24-4.59-14.83-14.83-14.84-18.57,0-37.14,0-55.72,0a53.4,53.4,0,0,1-34.87-12.1,3.8,3.8,0,0,0-4.64-.52c-5.21,2.35-10.45,4.63-15.76,6.76-6.06,2.44-8.86,6.89-8.83,13.32C95.19,244.28,95.17,250.39,95.17,256.5Zm270.57,35.37c13.32,0,26.28,0,39.24,0,6.31,0,8.32-2,8.32-8.2q0-22.25,0-44.51c0-6.6-1.83-8.44-8.43-8.45H311.73c-6.46,0-8.46,2-8.46,8.54q0,21.69,0,43.39c0,7.44,1.81,9.23,9.3,9.24h38.38c1.81,7.12,3.52,14.09,5.39,21,.31,1.12,1.36,2,2.07,3,.68-1,1.7-2,2-3.12C362.24,306,363.92,299.1,365.74,291.87ZM327.8,424.47c11-9.52,22.12-18.62,32.65-28.32,7.05-6.49,4.7-18.39-3.89-22.71a16.31,16.31,0,0,0-19,3.08c-3.29,3.2-6.4,6.59-9.84,10.16-3.81-3.92-7.07-7.54-10.62-10.85a15.9,15.9,0,0,0-22.49.78c-5.55,6.16-4.52,15.61,2.4,21.55C307.17,406.84,317.31,415.5,327.8,424.47ZM206,142.91c-5.7-34.29,19.75-56.37,41.88-58.85,11.61-1.3,22.61.75,32.52,7.22,14.81,9.68,22.28,23.6,23.06,41.07h11.43c1.59-14.8-7.61-40.47-31.38-53.25a60.88,60.88,0,0,0-69.65,7.82c-18.82,16.38-23.76,42-18.94,57.78ZM145,426.23c1.61-9.41,3.23-18.58,4.68-27.79.19-1.22-.51-2.59-.86-4.16l-6.69,4.17-16.62-27.61c-21.19,9.85-35.59,34.38-35.25,55.4h17.23c-1.36-8.93,2.49-18.23-3.73-25.47l8.19-8.85c10.37,9.55,7.26,22.44,8,34.31Zm54.52-55.41c-5.59,9.3-11.08,18.42-16.64,27.65l-7.37-4.63c0,11.54,3.24,21.72,4.39,32.38h25.24c.59-12.09-2.34-24.86,7.71-34.06l8.89,8.11c-6.59,8.1-3,17.26-4,26h17C235.12,405.15,220.62,380.68,199.5,370.82Zm91.36-238.47c-.63-14.54-7-25.42-19.6-31.95-13.14-6.82-26.38-5.9-38.43,2.81-11.65,8.42-16.19,20.27-14.74,35.18,5.32-3.51,11.42-4.47,12.88-12.28,2-10.9,13.07-18.39,24.08-17.9,11.49.52,21.29,8.72,23.34,19.6.28,1.44.38,2.92.59,4.54Zm22.88,12.79c-3.39,0-6.52-.2-9.59.11a4.63,4.63,0,0,0-3.06,2.23c-1.95,3.73-3.21,7.86-5.42,11.42-7.25,11.68-17.92,18.74-31.6,21.93l2,11.34C287.11,190,310.12,169.5,313.74,145.14ZM181.32,118.46a151.35,151.35,0,0,0-44.12,26.22h44.12Zm78.54,50.08c12.34-.74,27.05-12.9,28.19-23.4-3.63,0-7.24-.07-10.84.05a3.55,3.55,0,0,0-2.5,1.11c-4.9,6.94-11.64,10.55-20.37,11.11C256.3,161.34,258.1,165,259.86,168.54Zm161.87-48c-9.39,0-18.22,0-27,0-.77,0-1.94.34-2.23.88-1.9,3.53-3.6,7.17-5.56,11.14,9.39,0,18.11,0,26.84-.05a3.19,3.19,0,0,0,2.46-1C418.1,128,419.77,124.45,421.73,120.49Zm-34.89,24.65c1.93,3.86,3.49,7.23,5.3,10.46a3.51,3.51,0,0,0,2.55,1.51c8.82.11,17.64.07,27,.07-2-4-3.63-7.52-5.53-11a3.28,3.28,0,0,0-2.48-1C405,145.11,396.27,145.14,386.84,145.14ZM266.36,132.53c-1-7.74-6.53-12.67-13-12a12.19,12.19,0,0,0-11.05,13.12c.52,6.41,5.45,11,12,10.62V132.53ZM145.68,356.06c5.44,2.72,10.39,5.29,15.44,7.63a4.57,4.57,0,0,0,3.37-.25c3.83-1.76,7.47-4,11.36-5.56,3.5-1.43,3.88-3.23,1.89-5.86-5.26.4-10.32,1.11-15.38,1.11S152.27,352.42,147,352Zm17.59,46-1.61.08c-1.32,8-2.63,16-4,24.09h9.69C166,418,164.62,410,163.27,402.07Zm79.11-146.79v12c3.94-.32,8.3,1.42,10.65-2.83a7.61,7.61,0,0,0,.1-6.2C250.89,254,246.54,255.36,242.38,255.28Zm-159.74.05c-4,0-8.26-1.45-10.61,2.68a7.71,7.71,0,0,0,0,6.49c2.36,4.15,6.68,2.55,10.61,2.68ZM155.39,374.8,138,366.17l-.41.63,8.55,14.2Zm14.23,0,9.29,6.16,8.57-14.36-.61-.42Zm-7,15.72,2.91-2.59c-1.07-.84-2.09-2.25-3.22-2.35-.87-.08-1.88,1.5-2.82,2.35Z"/><path class="cls-2" d="M130.1,292h64.75c-2.74,10-3.54,20.28-11.37,28-15.93,15.7-42.94,9-49.36-12.42C132.62,302.62,131.51,297.53,130.1,292Zm16.36,12.29c2,7.33,8.86,12.11,16.68,11.83,7.48-.27,14-5.25,15.24-11.83Z"/><path class="cls-3" d="M119.79,267.28H107.86a19.74,19.74,0,0,1,7.15-21,18.42,18.42,0,0,1,20.71-.57c6.71,4.29,9.86,12.48,8.12,21.49h-12c0-1.91.08-3.84,0-5.77-.2-3.73-2.75-6.28-6.11-6.23s-5.76,2.59-5.89,6.4C119.74,263.36,119.79,265.09,119.79,267.28Z"/><path class="cls-4" d="M217.55,267.29h-12.2c-.56-4.88,1.5-12-6.38-11.85-7.31.18-5.45,6.9-5.95,11.77h-12.1c-.94-8.46.46-15.91,7.74-21,6.4-4.46,13.31-4.74,20-.69C216.76,250.41,218.46,258.13,217.55,267.29Z"/><path class="cls-5" d="M364.44,255.35v11.77H352.35V255.35Z"/><path class="cls-6" d="M388.93,267.27H376.88V255.34h12.05Z"/><path class="cls-7" d="M339.75,267.26H328v-11.9h11.71Z"/></svg>