<svg xmlns="http://www.w3.org/2000/svg" viewBox="0 0 633.68 347.12"><defs><style>.cls-1{fill:#f5f5f5;}.cls-2{fill:#e0e0e0;}.cls-3{fill:#ebebeb;}.cls-4{fill:#fafafa;}.cls-5{fill:#fff;}.cls-6{fill:#263238;}.cls-7{fill:#e8505b;}.cls-8{fill:#455a64;}.cls-9{fill:#ffbe9d;}.cls-10{fill:#eb996e;}.cls-11{opacity:0.6;}.cls-12{opacity:0.2;}</style></defs><title>servicio-webRecurso 1</title><g id="Capa_2" data-name="Capa 2"><g id="Background_Complete" data-name="Background Complete"><rect class="cls-1" x="183.76" y="36.29" width="56.7" height="77.59" transform="translate(-11.07 46.47) rotate(-12.19)"/><rect class="cls-1" x="306.6" width="188.89" height="122.83"/><circle class="cls-2" cx="401.04" cy="56.22" r="25.7" transform="translate(253.19 433.23) rotate(-76.57)"/><polygon class="cls-1" points="409.68 56.22 402.97 60.1 396.25 63.97 396.25 56.22 396.25 48.47 402.97 52.35 409.68 56.22"/><rect class="cls-2" x="306.6" y="100.77" width="188.89" height="22.07"/><polygon class="cls-1" points="324.95 111.8 322.23 113.37 319.51 114.94 319.51 111.8 319.51 108.65 322.23 110.23 324.95 111.8"/><rect class="cls-1" x="340.61" y="111.3" width="139.33" height="1"/><path class="cls-1" d="M343.43,111.8a2.08,2.08,0,1,1-2.08-2.08A2.08,2.08,0,0,1,343.43,111.8Z"/><rect class="cls-1" x="440.3" y="88.47" width="193.38" height="174.28" rx="5.49"/><path class="cls-3" d="M446.71,88.47H627.27a6.41,6.41,0,0,1,6.41,6.41v13.05a0,0,0,0,1,0,0H440.3a0,0,0,0,1,0,0V94.88A6.41,6.41,0,0,1,446.71,88.47Z"/><circle class="cls-4" cx="452.1" cy="98.23" r="1.53"/><path class="cls-4" d="M462.78,98.23a1.53,1.53,0,1,1-1.53-1.53A1.53,1.53,0,0,1,462.78,98.23Z"/><circle class="cls-4" cx="470.4" cy="98.23" r="1.53"/><rect class="cls-4" x="537.41" y="123.61" width="73.02" height="2.64"/><rect class="cls-4" x="537.41" y="134.49" width="73.02" height="2.64"/><rect class="cls-4" x="537.41" y="145.37" width="73.02" height="2.64"/><rect class="cls-4" x="537.41" y="156.24" width="73.02" height="2.64"/><rect class="cls-4" x="537.41" y="167.12" width="36.51" height="2.64"/><rect class="cls-4" x="459.85" y="188.51" width="73.02" height="2.64" transform="translate(992.72 379.66) rotate(180)"/><rect class="cls-4" x="459.85" y="199.38" width="73.02" height="2.64" transform="translate(992.72 401.41) rotate(180)"/><rect class="cls-4" x="459.85" y="210.26" width="73.02" height="2.64" transform="translate(992.72 423.16) rotate(180)"/><rect class="cls-4" x="459.85" y="221.13" width="73.02" height="2.64" transform="translate(992.72 444.91) rotate(180)"/><rect class="cls-4" x="496.36" y="232.01" width="36.51" height="2.64" transform="translate(1029.23 466.66) rotate(180)"/><rect class="cls-4" x="545.48" y="185.59" width="62.49" height="51.99"/><polygon class="cls-3" points="545.38 221.88 563.84 208.94 576.73 217.85 596.99 200.71 607.97 211.58 607.97 237.58 545.49 237.58 545.38 221.88"/><circle class="cls-3" cx="577.81" cy="200.71" r="5.23"/><rect class="cls-4" x="459.85" y="122.01" width="62.49" height="51.99"/><polygon class="cls-3" points="459.74 158.3 478.21 145.37 491.09 154.28 511.36 137.13 522.33 148.01 522.33 174 459.85 174 459.74 158.3"/><circle class="cls-3" cx="492.17" cy="137.13" r="5.23"/><path class="cls-1" d="M0,169.69H232.64a0,0,0,0,1,0,0V291A4.65,4.65,0,0,1,228,295.7H4.65A4.65,4.65,0,0,1,0,291V169.69a0,0,0,0,1,0,0Z"/><rect class="cls-3" y="169.69" width="232.64" height="23.41"/><circle class="cls-4" cx="14.2" cy="181.43" r="1.84"/><circle class="cls-4" cx="25.21" cy="181.43" r="1.84"/><circle class="cls-4" cx="36.22" cy="181.43" r="1.84"/><rect class="cls-3" x="116.82" y="211.97" width="87.85" height="3.18"/><rect class="cls-3" x="116.82" y="225.05" width="87.85" height="3.18"/><rect class="cls-3" x="116.82" y="238.14" width="87.85" height="3.18"/><rect class="cls-3" x="116.82" y="251.22" width="87.85" height="3.18"/><rect class="cls-3" x="116.82" y="264.31" width="43.92" height="3.18"/><rect class="cls-4" x="19.35" y="209.74" width="75.17" height="62.55"/><polygon class="cls-3" points="19.22 253.4 41.44 237.84 56.94 248.56 81.32 227.93 94.53 241.02 94.53 272.29 19.35 272.29 19.22 253.4"/><path class="cls-3" d="M64.53,227.93a6.3,6.3,0,1,1-6.29-6.29A6.29,6.29,0,0,1,64.53,227.93Z"/></g><g id="Document"><rect class="cls-5" x="176.77" y="49.98" width="56.7" height="77.59" transform="translate(-14.12 45.3) rotate(-12.19)"/><path class="cls-6" d="M241,120.71s0-.13-.1-.37-.14-.61-.24-1.07c-.21-1-.52-2.34-.92-4.14l-3.43-15.56c-2.91-13.34-7-32.26-11.92-54.65l.28.18-55.41,12h0l.2-.31c6.1,28.33,11.75,54.56,16.33,75.85l-.25-.16,40.27-8.59L237,121.52l3-.61,1-.2-1,.23-2.9.65L226,124.05l-40.36,8.83-.21.05,0-.21L169,56.89l-.05-.25.25-.06h0l55.42-11.94.23,0,.05.23c4.8,22.47,8.86,41.46,11.73,54.85,1.41,6.66,2.52,11.92,3.29,15.54.37,1.78.66,3.15.85,4.1.09.45.17.8.22,1Z"/><path class="cls-6" d="M206.4,64.76c0,.14-6,1.56-13.41,3.16s-13.49,2.8-13.52,2.66,6-1.56,13.41-3.17S206.37,64.62,206.4,64.76Z"/><path class="cls-6" d="M222.39,68.2c0,.15-9.23,2.27-20.69,4.74s-20.78,4.37-20.81,4.23,9.24-2.26,20.7-4.74S222.36,68.06,222.39,68.2Z"/><path class="cls-6" d="M223.88,75.08c0,.14-9.24,2.26-20.7,4.73s-20.77,4.37-20.8,4.23,9.23-2.26,20.69-4.73S223.85,74.94,223.88,75.08Z"/><path class="cls-6" d="M225.36,82c0,.14-9.23,2.27-20.69,4.74s-20.78,4.37-20.81,4.23,9.24-2.26,20.7-4.74S225.33,81.81,225.36,82Z"/><path class="cls-6" d="M226.85,88.83c0,.14-9.24,2.26-20.7,4.73s-20.77,4.37-20.8,4.23,9.23-2.26,20.69-4.73S226.82,88.69,226.85,88.83Z"/><path class="cls-6" d="M228.33,95.7c0,.14-9.23,2.27-20.69,4.74s-20.78,4.37-20.81,4.23,9.24-2.26,20.7-4.74S228.3,95.56,228.33,95.7Z"/><path class="cls-6" d="M229.82,102.58c0,.14-9.24,2.26-20.7,4.73s-20.77,4.37-20.8,4.23,9.23-2.26,20.69-4.73S229.79,102.44,229.82,102.58Z"/><path class="cls-6" d="M212.11,113.6c0,.14-4.94,1.33-11.1,2.66s-11.18,2.3-11.21,2.16,4.94-1.34,11.1-2.67S212.08,113.46,212.11,113.6Z"/></g><g id="Pointer"><polygon class="cls-7" points="483.93 238.99 498.11 275.41 504.03 265.86 512.22 276.61 521.99 267.32 512.68 258.35 521.27 252.54 483.93 238.99"/><path class="cls-6" d="M478.59,244.37a36.4,36.4,0,0,1-5.17,3.59,39,39,0,0,1-5.44,3.15,37.64,37.64,0,0,1,5.16-3.59A39.43,39.43,0,0,1,478.59,244.37Z"/><path class="cls-6" d="M479.69,237a10.11,10.11,0,0,1-2.28-.6c-1.38-.44-3.27-1.12-5.33-1.95s-3.89-1.66-5.2-2.27a10.09,10.09,0,0,1-2.08-1.11,11.59,11.59,0,0,1,2.23.77l5.25,2.12,5.26,2.09A10.61,10.61,0,0,1,479.69,237Z"/><path class="cls-6" d="M484,220.5a8.08,8.08,0,0,1,.52,2c.25,1.26.53,3,.77,4.94s.4,3.69.47,5a7.75,7.75,0,0,1,0,2.07,70.14,70.14,0,0,1-1-7C484.27,223.65,483.83,220.53,484,220.5Z"/><path class="cls-6" d="M503.61,228.65c.06.15-2.57,1.28-5.53,3.17s-5.3,3.56-5.39,3.42A6.9,6.9,0,0,1,494.1,234c.91-.71,2.2-1.66,3.71-2.61A19.53,19.53,0,0,1,503.61,228.65Z"/></g><g id="Plus"><path class="cls-6" d="M154,245.19a29.4,29.4,0,0,0-.67-4.4,17.35,17.35,0,0,0-2-4.79,18.23,18.23,0,0,0-4.59-5.08,17.91,17.91,0,0,0-17-2.54,16.89,16.89,0,0,0-4.53,2.44,19.26,19.26,0,0,0-2,1.73,18.48,18.48,0,0,0-1.76,2.07,17.83,17.83,0,0,0,0,21.14,20.69,20.69,0,0,0,1.75,2.08,21.74,21.74,0,0,0,2,1.72,16.61,16.61,0,0,0,4.53,2.44,17.94,17.94,0,0,0,9.41.8,18.14,18.14,0,0,0,12.14-8.42,17.31,17.31,0,0,0,2-4.78,29.6,29.6,0,0,0,.67-4.41,1.36,1.36,0,0,1,0,.3l0,.86a7.68,7.68,0,0,1-.12,1.4,12,12,0,0,1-.34,1.9,17.23,17.23,0,0,1-2,4.88,18.27,18.27,0,0,1-22,7.93,17.39,17.39,0,0,1-4.66-2.5,19.38,19.38,0,0,1-2.09-1.77,20.74,20.74,0,0,1-1.81-2.13,18.29,18.29,0,0,1,0-21.74,20.74,20.74,0,0,1,1.81-2.13,19.38,19.38,0,0,1,2.09-1.77,17.08,17.08,0,0,1,4.66-2.49,18.38,18.38,0,0,1,9.64-.77,18.37,18.37,0,0,1,12.32,8.69,17.16,17.16,0,0,1,2,4.89,12.09,12.09,0,0,1,.34,1.89A7.68,7.68,0,0,1,154,244l0,.87A1.29,1.29,0,0,1,154,245.19Z"/><path class="cls-6" d="M135.83,254.3a78.3,78.3,0,0,1-.26-9.11,78.3,78.3,0,0,1,.26-9.11,81.06,81.06,0,0,1,.26,9.11A81.06,81.06,0,0,1,135.83,254.3Z"/><path class="cls-6" d="M144.94,245.19a78.3,78.3,0,0,1-9.11.26,78.3,78.3,0,0,1-9.11-.26,81.06,81.06,0,0,1,9.11-.26A81.06,81.06,0,0,1,144.94,245.19Z"/></g><g id="Search_Engine" data-name="Search Engine"><path class="cls-6" d="M432.31,303.83c-.12.08-12.68-19.35-28.05-43.39s-27.74-43.59-27.62-43.67,12.68,19.35,28.06,43.39S432.43,303.75,432.31,303.83Z"/><circle class="cls-5" cx="437.77" cy="317.1" r="29.15"/><path class="cls-6" d="M408.62,317.1s0-.16,0-.47,0-.8,0-1.39c0-.31,0-.65,0-1s.1-.78.16-1.23a22.19,22.19,0,0,1,.57-3,27.82,27.82,0,0,1,3.18-7.82,29.37,29.37,0,0,1,19.74-13.88,26.48,26.48,0,0,1,3.71-.44c.63,0,1.27-.09,1.91-.08l1.95.09a13,13,0,0,1,2,.21c.65.11,1.32.18,2,.32a31.17,31.17,0,0,1,3.92,1.14,30.84,30.84,0,0,1,3.84,1.68c.62.33,1.21.72,1.83,1.09a15.05,15.05,0,0,1,1.77,1.22,31.85,31.85,0,0,1,3.34,2.83,33.87,33.87,0,0,1,2.89,3.4,28.62,28.62,0,0,1,4.21,8.1,29.09,29.09,0,0,1,0,18.56,28.62,28.62,0,0,1-4.21,8.1,35.15,35.15,0,0,1-2.89,3.41,33.1,33.1,0,0,1-3.34,2.83,14.26,14.26,0,0,1-1.77,1.22c-.62.36-1.21.75-1.83,1.09a30.84,30.84,0,0,1-3.84,1.68,31.17,31.17,0,0,1-3.92,1.14c-.66.13-1.33.21-2,.31a12,12,0,0,1-2,.21l-1.95.1c-.64,0-1.28-.06-1.91-.08a28.06,28.06,0,0,1-3.71-.44,29.34,29.34,0,0,1-19.74-13.89,27.82,27.82,0,0,1-3.18-7.82,21.64,21.64,0,0,1-.57-3c-.06-.44-.13-.85-.16-1.22s0-.72,0-1c0-.59,0-1,0-1.38s0-.48,0-.48a4.37,4.37,0,0,1,.05.47c0,.34.05.8.1,1.39l.06,1c0,.38.12.78.19,1.22a20.48,20.48,0,0,0,.61,3,27.89,27.89,0,0,0,3.23,7.72,29,29,0,0,0,7.38,8.21,28.59,28.59,0,0,0,12.19,5.4,25.63,25.63,0,0,0,3.65.42c.63,0,1.26.09,1.89.08l1.91-.1a12.81,12.81,0,0,0,1.94-.22c.64-.1,1.29-.18,1.94-.31a32.48,32.48,0,0,0,7.63-2.79c.61-.34,1.19-.72,1.79-1.08a14.66,14.66,0,0,0,1.75-1.2,34.33,34.33,0,0,0,3.28-2.79,33.84,33.84,0,0,0,2.83-3.35,28,28,0,0,0,4.13-8,28.66,28.66,0,0,0,0-18.24,28.15,28.15,0,0,0-4.13-8,33.84,33.84,0,0,0-2.83-3.35,32.83,32.83,0,0,0-3.28-2.78,14.66,14.66,0,0,0-1.75-1.2c-.6-.36-1.19-.75-1.8-1.08a31.17,31.17,0,0,0-3.76-1.66,32,32,0,0,0-3.86-1.13c-.65-.14-1.3-.21-1.94-.32a12.79,12.79,0,0,0-1.93-.21l-1.92-.1c-.63,0-1.26.05-1.88.07a27.13,27.13,0,0,0-3.66.42,29.13,29.13,0,0,0-19.57,13.61,28,28,0,0,0-3.23,7.72,21,21,0,0,0-.61,3c-.07.44-.15.85-.19,1.22s-.05.71-.06,1c0,.59-.08,1.05-.1,1.38A4.37,4.37,0,0,1,408.62,317.1Z"/><polygon class="cls-6" points="429.82 306.39 425.83 329.2 437.77 327.56 449.71 329.2 444.91 306.39 429.82 306.39"/><path class="cls-6" d="M442.81,306.69c-.08,0-.32-.81-1-2a6.21,6.21,0,0,0-1.43-1.85,4.49,4.49,0,0,0-1.17-.68,4.71,4.71,0,0,0-1.43-.25,5,5,0,0,0-2.72.66,4.25,4.25,0,0,0-1.49,1.74c-.6,1.22-.8,2.08-.89,2a5.69,5.69,0,0,1,.56-2.2,4.43,4.43,0,0,1,1.56-2,5.15,5.15,0,0,1,3-.78,5,5,0,0,1,1.6.29,4.59,4.59,0,0,1,1.3.8,5.89,5.89,0,0,1,1.45,2.05A5.72,5.72,0,0,1,442.81,306.69Z"/><path class="cls-6" d="M321.45,305.78c-.14,0-.26-20.07-.26-44.83s.12-44.83.26-44.83.26,20.07.26,44.83S321.59,305.78,321.45,305.78Z"/><circle class="cls-5" cx="320.85" cy="317.75" r="29.15"/><path class="cls-6" d="M291.71,317.75s0-.16,0-.47,0-.79.05-1.39c0-.3,0-.65,0-1s.1-.78.16-1.23a20.76,20.76,0,0,1,.57-3,27.52,27.52,0,0,1,3.18-7.82,29.37,29.37,0,0,1,19.74-13.88,26.48,26.48,0,0,1,3.71-.44c.63,0,1.27-.09,1.91-.08l1.94.09a13.18,13.18,0,0,1,2,.21c.65.11,1.32.19,2,.32a31.31,31.31,0,0,1,3.93,1.14,30.71,30.71,0,0,1,3.83,1.68c.62.33,1.22.73,1.83,1.09a15.16,15.16,0,0,1,1.78,1.22,32.91,32.91,0,0,1,3.34,2.83,32.51,32.51,0,0,1,2.88,3.4,28.12,28.12,0,0,1,4.21,8.1,29.18,29.18,0,0,1,0,18.56,28.62,28.62,0,0,1-4.21,8.1,35.15,35.15,0,0,1-2.89,3.41,32.91,32.91,0,0,1-3.34,2.83,14.37,14.37,0,0,1-1.78,1.22c-.61.36-1.21.75-1.83,1.09a30.71,30.71,0,0,1-3.83,1.68,31.31,31.31,0,0,1-3.93,1.14c-.65.13-1.32.21-2,.31a12,12,0,0,1-2,.21l-1.94.1c-.64,0-1.28-.06-1.91-.08a28.22,28.22,0,0,1-3.72-.44,29.28,29.28,0,0,1-19.73-13.89,27.3,27.3,0,0,1-3.18-7.82,20.28,20.28,0,0,1-.57-3c-.06-.44-.13-.85-.16-1.22s0-.72,0-1c0-.59,0-1.05-.05-1.38s0-.48,0-.48,0,.16.05.48.05.79.09,1.38c0,.3,0,.64.07,1s.12.77.18,1.21a21,21,0,0,0,.62,3,27.66,27.66,0,0,0,3.23,7.71,29,29,0,0,0,7.38,8.22,28.66,28.66,0,0,0,12.18,5.39,25.94,25.94,0,0,0,3.66.42c.62,0,1.25.09,1.89.08l1.91-.1a12.54,12.54,0,0,0,1.93-.22c.64-.1,1.3-.18,2-.31a32.37,32.37,0,0,0,3.85-1.13,30.63,30.63,0,0,0,3.77-1.66c.61-.33,1.2-.72,1.8-1.08A13.79,13.79,0,0,0,338,341a32,32,0,0,0,3.28-2.79,31.32,31.32,0,0,0,2.83-3.35,27.76,27.76,0,0,0,4.13-8,30.56,30.56,0,0,0,1.49-9.12,30.93,30.93,0,0,0-1.49-9.12,28,28,0,0,0-4.13-7.95,31.68,31.68,0,0,0-2.83-3.35,30.82,30.82,0,0,0-3.28-2.79,13.79,13.79,0,0,0-1.74-1.2c-.6-.36-1.19-.75-1.8-1.08a30.63,30.63,0,0,0-3.77-1.66,31.83,31.83,0,0,0-3.85-1.13c-.65-.13-1.3-.21-2-.32a12.52,12.52,0,0,0-1.93-.21l-1.91-.1c-.64,0-1.26.05-1.89.07a29.27,29.27,0,0,0-3.66.42A29.14,29.14,0,0,0,296,302.94a27.71,27.71,0,0,0-3.23,7.72,21,21,0,0,0-.62,3c-.06.43-.14.84-.18,1.21s-.05.71-.07,1q-.06.89-.09,1.38C291.73,317.59,291.71,317.75,291.71,317.75Z"/><polygon class="cls-6" points="320.85 304.7 308.21 316.19 308.21 330.75 318.06 330.75 318.06 322.02 324.32 322.02 324.32 330.75 333.5 330.75 333.5 316.19 320.85 304.7"/><path class="cls-6" d="M208.61,304.85c-.12-.08,12.43-19.92,28-44.32s28.35-44.12,28.47-44-12.42,19.92-28,44.32S208.73,304.93,208.61,304.85Z"/><circle class="cls-5" cx="203.89" cy="317.38" r="29.15"/><path class="cls-6" d="M233,317.38s0-.16,0-.47-.05-.79-.09-1.38c0-.31-.05-.65-.07-1s-.12-.78-.19-1.21a20.85,20.85,0,0,0-.61-3,28,28,0,0,0-3.23-7.72,28.65,28.65,0,0,0-23.23-14c-.62,0-1.25-.08-1.88-.07l-1.92.1a12.79,12.79,0,0,0-1.93.21c-.64.11-1.29.19-1.94.32a31.31,31.31,0,0,0-3.85,1.13,30.63,30.63,0,0,0-3.77,1.66c-.61.33-1.2.72-1.8,1.08a14.66,14.66,0,0,0-1.75,1.2,31.74,31.74,0,0,0-3.27,2.79,30.62,30.62,0,0,0-2.84,3.35,27.88,27.88,0,0,0-4.13,8,28.63,28.63,0,0,0,0,18.23,28,28,0,0,0,4.13,8,33.84,33.84,0,0,0,2.83,3.35,34.33,34.33,0,0,0,3.28,2.79,14.66,14.66,0,0,0,1.75,1.2c.6.36,1.18.75,1.8,1.08a30.63,30.63,0,0,0,3.77,1.66,31.31,31.31,0,0,0,3.85,1.13c.65.13,1.3.21,1.95.32a12.52,12.52,0,0,0,1.93.21l1.91.1c.63,0,1.26-.05,1.89-.07a27.17,27.17,0,0,0,3.65-.43,29,29,0,0,0,19.57-13.61,27.66,27.66,0,0,0,3.23-7.71,20.85,20.85,0,0,0,.61-3c.07-.44.15-.84.19-1.21l.07-1q.06-.89.09-1.38c0-.32,0-.48,0-.48s0,.16,0,.48,0,.79,0,1.38c0,.31,0,.65,0,1s-.1.78-.16,1.22a22,22,0,0,1-.57,3,27.66,27.66,0,0,1-3.18,7.81,29.34,29.34,0,0,1-19.74,13.89,28.06,28.06,0,0,1-3.71.44c-.63,0-1.27.09-1.91.08l-1.95-.1a12,12,0,0,1-2-.21c-.65-.1-1.32-.18-2-.31a31.66,31.66,0,0,1-3.92-1.14,30.84,30.84,0,0,1-3.84-1.68c-.62-.34-1.21-.73-1.83-1.09a15.05,15.05,0,0,1-1.77-1.22,31.85,31.85,0,0,1-3.34-2.83,34,34,0,0,1-2.89-3.41,28.62,28.62,0,0,1-4.21-8.1,29.09,29.09,0,0,1,0-18.56,28.62,28.62,0,0,1,4.21-8.1,33.87,33.87,0,0,1,2.89-3.4,31.85,31.85,0,0,1,3.34-2.83,15.05,15.05,0,0,1,1.77-1.22c.62-.36,1.21-.75,1.84-1.09a30.08,30.08,0,0,1,3.83-1.68,31.17,31.17,0,0,1,3.92-1.14c.66-.13,1.33-.21,2-.32a13,13,0,0,1,2-.21l1.95-.09c.64,0,1.28.05,1.91.08a26.48,26.48,0,0,1,3.71.44,29.37,29.37,0,0,1,19.74,13.88,27.82,27.82,0,0,1,3.18,7.82,22.19,22.19,0,0,1,.57,3c.06.45.13.85.16,1.23s0,.72,0,1c0,.6,0,1.06,0,1.39S233,317.38,233,317.38Z"/><rect class="cls-6" x="192.28" y="302.21" width="22.89" height="30.35"/><path class="cls-8" d="M204.84,307.06a27.32,27.32,0,0,1-7.52,0,27.32,27.32,0,0,1,7.52,0Z"/><path class="cls-8" d="M211.46,311.33a55.12,55.12,0,0,1-7.51.26,55.21,55.21,0,0,1-7.52-.26,53.34,53.34,0,0,1,7.52-.26A53.25,53.25,0,0,1,211.46,311.33Z"/><path class="cls-8" d="M211.46,313.92a55.12,55.12,0,0,1-7.51.26,55.21,55.21,0,0,1-7.52-.26,55.21,55.21,0,0,1,7.52-.26A55.12,55.12,0,0,1,211.46,313.92Z"/><path class="cls-8" d="M211.46,316.52a55.12,55.12,0,0,1-7.51.26,55.21,55.21,0,0,1-7.52-.26,53.34,53.34,0,0,1,7.52-.26A53.25,53.25,0,0,1,211.46,316.52Z"/><path class="cls-8" d="M211.46,319.11a55.12,55.12,0,0,1-7.51.26,55.21,55.21,0,0,1-7.52-.26,55.21,55.21,0,0,1,7.52-.26A55.12,55.12,0,0,1,211.46,319.11Z"/><path class="cls-8" d="M211.46,321.71A55.12,55.12,0,0,1,204,322a55.21,55.21,0,0,1-7.52-.26,53.34,53.34,0,0,1,7.52-.26A53.25,53.25,0,0,1,211.46,321.71Z"/><path class="cls-8" d="M211.46,324.3a55.12,55.12,0,0,1-7.51.26,55.21,55.21,0,0,1-7.52-.26A55.21,55.21,0,0,1,204,324,55.12,55.12,0,0,1,211.46,324.3Z"/><path class="cls-8" d="M211.46,326.9a55.12,55.12,0,0,1-7.51.26,55.21,55.21,0,0,1-7.52-.26,52.36,52.36,0,0,1,7.52-.27A52.28,52.28,0,0,1,211.46,326.9Z"/><rect class="cls-5" x="173.68" y="167.05" width="305.65" height="50.19" rx="23.79"/><path class="cls-7" d="M411.61,166.59v50.65h42.71a25.33,25.33,0,0,0,25.32-25.33h0a25.32,25.32,0,0,0-25.32-25.32Z"/><path class="cls-5" d="M451.35,190.51a22.72,22.72,0,0,0-.43-2.59,10.58,10.58,0,0,0-8.33-7.7,10.55,10.55,0,0,0-5.49.47,9.56,9.56,0,0,0-2.64,1.43,9.66,9.66,0,0,0-2.2,2.22,10.38,10.38,0,0,0,0,12.33,9.66,9.66,0,0,0,2.2,2.22,9.56,9.56,0,0,0,2.64,1.43,10.44,10.44,0,0,0,9.92-1.46,10.69,10.69,0,0,0,3.9-5.77,23.22,23.22,0,0,0,.43-2.58,8.07,8.07,0,0,1-.23,2.63,10.8,10.8,0,0,1-8.45,8.08,10.82,10.82,0,0,1-5.73-.45,10.87,10.87,0,0,1-5.09-3.79,10.85,10.85,0,0,1,0-12.94,10,10,0,0,1,2.32-2.32,10.17,10.17,0,0,1,2.77-1.48,10.93,10.93,0,0,1,5.73-.45,10.81,10.81,0,0,1,4.57,2.07,10.67,10.67,0,0,1,3.88,6A8.13,8.13,0,0,1,451.35,190.51Z"/><path class="cls-5" d="M461.28,205.46a52,52,0,0,1-6.16-4.09,55.05,55.05,0,0,1-5.86-4.51,51.12,51.12,0,0,1,6.16,4.09A52.38,52.38,0,0,1,461.28,205.46Z"/><rect class="cls-3" x="202.74" y="187.44" width="186.85" height="10.74"/><path class="cls-6" d="M455.54,217.24l1.73-.12a15.55,15.55,0,0,0,2.11-.26,21.39,21.39,0,0,0,2.87-.65,24.31,24.31,0,0,0,7.32-3.68l1-.75c.32-.27.63-.57,1-.86a19.47,19.47,0,0,0,1.89-1.95c.65-.68,1.17-1.51,1.78-2.29l.78-1.3.4-.66.34-.71a23,23,0,0,0,2.1-6.32l.27-1.76.09-1.82c.05-1.23,0-2.5,0-3.78a23.64,23.64,0,0,0-22.91-23.08c-6.82-.07-14,0-21.64,0l-237.14.08a23.68,23.68,0,0,0-15.61,5.93,23.28,23.28,0,0,0-7.72,14.56,16.2,16.2,0,0,0-.17,2.08c-.05.7-.06,1.4-.05,2.1a38.45,38.45,0,0,0,.17,4.17,22.76,22.76,0,0,0,2.36,7.88A23.36,23.36,0,0,0,195.9,216.9c1.33.1,2.68.09,4,.08H250.7l106.61.05,71.88.08,19.54.05,5.08,0,1.73,0-1.73,0-5.08,0-19.54.05-71.88.08-106.61.06H199.93c-1.34,0-2.69,0-4.06-.08a24.52,24.52,0,0,1-8-1.91A24.27,24.27,0,0,1,176,204.26a23.26,23.26,0,0,1-2.42-8,40,40,0,0,1-.17-4.23c0-.7,0-1.4.05-2.12a16.68,16.68,0,0,1,.17-2.12,23.77,23.77,0,0,1,7.9-14.88,24.1,24.1,0,0,1,16-6.07l237.14.07c7.59,0,14.81,0,21.65.06a23.92,23.92,0,0,1,23.15,23.4c0,1.3,0,2.55,0,3.79,0,.62-.07,1.23-.1,1.84s-.19,1.19-.28,1.78a23.09,23.09,0,0,1-2.14,6.37c-.11.24-.23.47-.34.71l-.41.67-.79,1.31c-.62.79-1.15,1.62-1.8,2.3a20.87,20.87,0,0,1-1.92,1.95l-1,.87-1,.74a24.23,24.23,0,0,1-7.39,3.66,23.29,23.29,0,0,1-2.89.63,14.86,14.86,0,0,1-2.12.23Z"/></g><g id="Character"><path class="cls-9" d="M323.11,186c-.9-1.06-1-1.95,1.05-2.14,4.51-.4,7.84-2.37,8.36-3.51s-.91-2.26-2.13-1.57a17,17,0,0,1-4.39,1.24,11,11,0,0,1-3.66,0c-1-.17-2-.34-2.8-.52,0,0-4.78-1-6.84-2.64l-10.1,10.8,4.74,5.35a7.19,7.19,0,0,0,6.32,3c4.07-.4,9.53-3.32,9.53-3.32.74-1.13,7.28,2.9,9.39,4.42s3.66,1.13,3.58-.33c-.05-1-6.39-5.77-8.51-7.22a26.54,26.54,0,0,1-4.54-3.59"/><path class="cls-10" d="M317.18,195.41c0,.06-.29.19-.81.18a3.41,3.41,0,0,1-1.88-.7,3.45,3.45,0,0,1-1.19-1.62c-.15-.5-.11-.83-.05-.83a6.62,6.62,0,0,0,1.55,2A6.79,6.79,0,0,0,317.18,195.41Z"/><path class="cls-10" d="M321.18,193.83c0,.07-.29.18-.78.14a3.31,3.31,0,0,1-1.79-.71,3.41,3.41,0,0,1-1.13-1.55c-.15-.48-.12-.79-.05-.8s.41,1.12,1.5,1.94A7.69,7.69,0,0,0,321.18,193.83Z"/><path class="cls-6" d="M332.07,81.57c.42,8.87,11.23,21,19.27,23,4.22,1,9.09.55,12.43,3.38,5.75,4.87,2.39,15,6.26,21.5,2.38,4,7.11,6,9.79,9.8,4.45,6.34,1.47,15.92-4.61,20.63s-14.16,5.63-21.78,5.43c-16.74-.43-33.89-5.76-46-17.63-5.68-5.57-27.93-22.79-20.18-63.59"/><path class="cls-7" d="M392.51,145l-63.67-18.9a40.52,40.52,0,0,0-9.27-2.79l-21.5.14a21,21,0,0,0-8.24,1.72l-58,19.26c-4.29,1.35-7.25,5.75-7.25,10.76h0c0,6.18,4.45,11.18,9.94,11.18h26.77l-.12.4,93.08.35v0l35.53.08c5.49,0,9.94-5,9.94-11.29C399.76,150.79,396.8,146.35,392.51,145Z"/><path class="cls-6" d="M379.75,151.86a2.12,2.12,0,0,1-.58,0l-1.64-.18c-1.42-.18-3.48-.41-6-.66a190.45,190.45,0,0,0-20-.84,186.85,186.85,0,0,0-19.94,1.37c-2.54.31-4.6.59-6,.81l-1.64.23a2.45,2.45,0,0,1-.57,0,2.29,2.29,0,0,1,.56-.15l1.62-.32c1.4-.28,3.45-.62,6-1a159.38,159.38,0,0,1,40-.52c2.55.29,4.61.57,6,.82l1.63.28A3,3,0,0,1,379.75,151.86Z"/><g class="cls-11"><path class="cls-5" d="M364.81,136.39s-.05.08-.18.22l-.56.59c-.5.51-1.24,1.26-2.25,2.18A35.78,35.78,0,0,1,358,142.5a19.19,19.19,0,0,1-5.94,2.83,15.11,15.11,0,0,1-8-.16,39,39,0,0,1-8.37-3.7,51.39,51.39,0,0,0-9.07-4.25,14.06,14.06,0,0,0-10.38.53c-3.35,1.51-6.2,3.82-9.31,5.48-.77.43-1.59.76-2.38,1.12a24.89,24.89,0,0,1-2.44.81,24.3,24.3,0,0,1-4.91.85,25.35,25.35,0,0,1-16.29-4.48,45.55,45.55,0,0,1-4.92-4.37,23.54,23.54,0,0,0-3.81-3.12,10.67,10.67,0,0,0-3.9-1.46,5.55,5.55,0,0,1,1.09.13,9.09,9.09,0,0,1,2.92,1.16,23.29,23.29,0,0,1,3.9,3.08,47.44,47.44,0,0,0,4.94,4.28,25,25,0,0,0,16,4.3,23.16,23.16,0,0,0,4.8-.85c.81-.2,1.59-.52,2.39-.8s1.57-.68,2.33-1.1c3.06-1.64,5.91-3.95,9.34-5.5a14.49,14.49,0,0,1,10.73-.55,50.84,50.84,0,0,1,9.15,4.32,39.14,39.14,0,0,0,8.27,3.71,14.87,14.87,0,0,0,7.75.21,19.1,19.1,0,0,0,5.87-2.71,38.93,38.93,0,0,0,3.9-3c1-.89,1.78-1.62,2.31-2.11l.6-.55Z"/></g><g class="cls-12"><polygon points="265.87 151.74 306.12 159.32 301.47 166.89 300.25 166.91 265.87 151.74"/></g><g class="cls-11"><path class="cls-5" d="M387.7,143.78a2.93,2.93,0,0,1,0,.62,12.31,12.31,0,0,1-.18,1.76,15.24,15.24,0,0,1-10,11.85,15.46,15.46,0,0,1-5.66.89,25.65,25.65,0,0,1-6-1.11c-2-.56-3.95-1.19-5.87-1.58a17.26,17.26,0,0,0-5.56-.29,17.83,17.83,0,0,0-8.68,3.56,17.52,17.52,0,0,0-4.31,4.71l-.52.87-.33.66a2.49,2.49,0,0,1-.31.54,3.52,3.52,0,0,1,.21-.58c.09-.21.19-.43.29-.69l.49-.9a16.63,16.63,0,0,1,4.26-4.9,17.81,17.81,0,0,1,8.84-3.74,17.35,17.35,0,0,1,5.72.26c2,.39,3.91,1,5.91,1.58a25.77,25.77,0,0,0,5.91,1.1,15.2,15.2,0,0,0,5.49-.83,15,15,0,0,0,7.46-5.59,15.85,15.85,0,0,0,2.52-5.85C387.65,144.63,387.65,143.78,387.7,143.78Z"/></g><path class="cls-7" d="M231.93,165.06s72.75,32.11,72.38,31.38,11.55-21.79,11.55-21.79l-58.95-29.13Z"/><path class="cls-6" d="M265.32,149.68a9.31,9.31,0,0,1,1.5.63l4,1.88c3.37,1.62,8,3.88,13.12,6.4s9.73,4.84,13.06,6.54l3.93,2a9.08,9.08,0,0,1,1.41.81,10,10,0,0,1-1.49-.63l-4-1.88c-3.37-1.62-8-3.88-13.12-6.41s-9.73-4.84-13.06-6.54l-3.94-2A10.59,10.59,0,0,1,265.32,149.68Z"/><g class="cls-11"><path class="cls-5" d="M281.3,159.42a6.19,6.19,0,0,1-.68,2.15,10.1,10.1,0,0,1-4.33,4.34,13.36,13.36,0,0,1-4.05,1.44,15.83,15.83,0,0,1-4.92.06,37.29,37.29,0,0,1-10.61-3.56,54.67,54.67,0,0,0-10.32-4.07,18.29,18.29,0,0,0-4.76-.55,14.49,14.49,0,0,0-4.12.69,11.23,11.23,0,0,0-5.07,3.18,19.16,19.16,0,0,0-1.32,1.81,6.6,6.6,0,0,1,1.16-1.94,11.09,11.09,0,0,1,5.12-3.4,15,15,0,0,1,4.21-.78,19.09,19.09,0,0,1,4.89.52,53.5,53.5,0,0,1,10.43,4.07,37.43,37.43,0,0,0,10.46,3.55,15.94,15.94,0,0,0,4.78,0,13.34,13.34,0,0,0,3.94-1.34,10.21,10.21,0,0,0,4.33-4.11A17,17,0,0,0,281.3,159.42Z"/></g><g class="cls-11"><path class="cls-5" d="M312.19,181.42c0,.1-1.61-.17-4.21-.21a36.37,36.37,0,0,0-4.55.23,38,38,0,0,0-5.47,1.09,37.22,37.22,0,0,0-5.22,1.94,33.76,33.76,0,0,0-4,2.19c-2.2,1.4-3.42,2.46-3.48,2.39a5.07,5.07,0,0,1,.81-.8,23.9,23.9,0,0,1,2.46-1.9,31.82,31.82,0,0,1,4-2.31,34.82,34.82,0,0,1,5.28-2,36.25,36.25,0,0,1,5.56-1.06,32.26,32.26,0,0,1,4.61-.12,23.89,23.89,0,0,1,3.09.33A5.28,5.28,0,0,1,312.19,181.42Z"/></g><g class="cls-12"><path d="M321.16,123.15c-1.2,3.37.61,7,2.36,10.11a27.32,27.32,0,0,0,4.22,6.12,9.2,9.2,0,0,0,6.61,3c3.27-.1,6.2-2.51,9.46-2.33,2.22.13,4.17,1.44,6,2.69a47.77,47.77,0,0,0,10.08,5.58,18.1,18.1,0,0,0,11.34.72,11.33,11.33,0,0,0,7.85-7.77"/></g><path class="cls-9" d="M321.44,122.22c.16-3.91.38-7.46.38-7.46s8.75-1.1,9.13-10-.51-29.51-.51-29.51l-16.12-7.74L297,81.44l2.72,41a10.88,10.88,0,0,0,11.36,10.15h0A10.89,10.89,0,0,0,321.44,122.22Z"/><path class="cls-6" d="M328.93,91.37a1.12,1.12,0,1,1-2.23,0,1.12,1.12,0,1,1,2.23,0Z"/><path class="cls-6" d="M330,89c-.14.15-1-.55-2.18-.6s-2.09.57-2.22.4.09-.34.47-.63a2.94,2.94,0,0,1,1.78-.51,2.84,2.84,0,0,1,1.73.67C330,88.63,330.08,88.92,330,89Z"/><path class="cls-6" d="M315.64,91.37a1.12,1.12,0,1,1-2.23,0,1.12,1.12,0,1,1,2.23,0Z"/><path class="cls-6" d="M316.72,89.21c-.14.15-1-.55-2.17-.6s-2.09.57-2.22.4.08-.34.47-.63a2.9,2.9,0,0,1,1.78-.51,2.86,2.86,0,0,1,1.73.67C316.67,88.86,316.79,89.15,316.72,89.21Z"/><path class="cls-6" d="M321.22,99.53a6.82,6.82,0,0,1,2-.3c.31,0,.6-.08.65-.3a1.7,1.7,0,0,0-.19-1l-.86-2.53a46.31,46.31,0,0,1-1.94-6.62,45.48,45.48,0,0,1,2.43,6.45c.28.88.56,1.73.82,2.54a2,2,0,0,1,.14,1.3.75.75,0,0,1-.51.46,2,2,0,0,1-.52,0A7.84,7.84,0,0,1,321.22,99.53Z"/><path class="cls-5" d="M317.29,100.76c-1.23-.81,3.38,2,5.83,1.95a3.28,3.28,0,0,1-4,1.22C316.59,102.87,317.29,100.76,317.29,100.76Z"/><path class="cls-10" d="M321.82,114.76a21.34,21.34,0,0,1-11.6-3.79s2.73,6.51,11.44,6Z"/><path class="cls-6" d="M287.59,90.24h0c0,7.74-2.06,28.19,12,31l-.52-28.16s13.65-6.44,16-19.84l.08.08c.88,2,2.43,6.36,1.49,9.9l12.78,3.15,1.47,1.35s4.55-10-4.23-19-16.29-2.49-21-3.06c-3.13-.37-14-.3-18.42,18.4Z"/><path class="cls-9" d="M299.46,93.41c-1.19-.73-2.81-.13-3.76.91a5.13,5.13,0,0,0,5.11,8.43"/><path class="cls-10" d="M299.19,100.07c0,.06-.4.13-1,0a2.66,2.66,0,0,1-1.87-1.65,2,2,0,0,1,.05-1.46,2.13,2.13,0,0,1,.76-.89c.56-.36,1-.34,1-.28s-.35.19-.77.57a1.74,1.74,0,0,0-.55,1.89,2.64,2.64,0,0,0,1.5,1.48C298.82,99.93,299.2,100,299.19,100.07Z"/><path class="cls-7" d="M298,101.83a1,1,0,1,0,1.1,1.52,1.06,1.06,0,0,0-.71-1.53"/><path class="cls-9" d="M323.93,167.14V152.45S302.12,157,301.72,167Z"/><path class="cls-6" d="M321.66,120.68a18.26,18.26,0,0,0,17.89,16.81c3.22.06,6.62-.71,9.56.61,2.55,1.14,4.2,3.62,6.21,5.57a18.46,18.46,0,0,0,18.29,4.13c2.64-.88,6.83-2.78,7.33-5.52.37-2.09-2.18-4.17-3.69-5.67a18.61,18.61,0,0,0-5.37-3.35c-15.53-7.3-32.21-12.61-49.35-13.52"/></g></g></svg>