<?xml version="1.0" encoding="UTF-8"?>
<svg id="Capa_2" data-name="Capa 2" xmlns="http://www.w3.org/2000/svg" viewBox="0 0 582.68 94.01">
  <defs>
    <style>
      .cls-1 {
        fill: #fff;
      }
    </style>
  </defs>
  <g id="Capa_1-2" data-name="Capa 1">
    <g>
      <g>
        <path class="cls-1" d="m47,94.01L0,47,47,0l47,47-47,47ZM4.17,47l42.83,42.83,42.83-42.83L47,4.17,4.17,47Z"/>
        <polygon class="cls-1" points="47.17 80.68 13.53 47 46.99 13.54 52.83 19.38 25.21 47 53.01 74.83 47.17 80.68"/>
        <polygon class="cls-1" points="59.44 68.4 53.57 62.59 68.83 47.17 53.96 32.09 59.79 26.34 80.62 47.23 59.44 68.4"/>
        <rect class="cls-1" x="40.65" y="40.65" width="12.7" height="12.7" transform="translate(-19.47 47) rotate(-45)"/>
      </g>
      <g>
        <path class="cls-1" d="m134.77,45.77h22.25v25.19h-7.53v-6.5c-3.49,4.79-9.24,7.39-16.16,7.39-13.83,0-24.16-10.95-24.16-24.85s10.47-24.85,24.85-24.85c11.09,0,20.54,7.12,23,16.63h-8.35c-1.99-5.13-7.8-8.97-14.65-8.97-10.13,0-16.98,7.32-16.98,17.18s7.05,17.52,16.98,17.52c7.94,0,14.44-4.11,15.13-11.71h-14.38v-7.05Z"/>
        <path class="cls-1" d="m204.19,63.43v7.53h-28.07V23.04h27.72v7.53h-19.85v12.46h18.14v7.39h-18.14v13.01h20.19Z"/>
        <path class="cls-1" d="m256.15,23.04v47.92h-6.16l-20.19-32.52v32.52h-7.87V23.04h6.16l20.19,32.52V23.04h7.87Z"/>
        <path class="cls-1" d="m284.15,23.04v47.92h-7.87V23.04h7.87Z"/>
        <path class="cls-1" d="m301.88,47c0-13.9,11.02-24.85,24.85-24.85s24.85,10.95,24.85,24.85-10.95,24.85-24.85,24.85-24.85-10.95-24.85-24.85Zm41.83,0c0-9.86-7.39-17.18-16.98-17.18s-16.98,7.32-16.98,17.18,7.39,17.18,16.98,17.18,16.98-7.32,16.98-17.18Z"/>
        <path class="cls-1" d="m384.64,53.51h-7.46v17.46h-7.87V23.04h17.8c8.56,0,15.4,6.85,15.4,15.4,0,6.09-3.9,11.57-9.45,13.9l15.61,18.62h-9.38l-14.65-17.46Zm-7.46-7.05h9.93c4.18,0,7.53-3.56,7.53-8.01s-3.35-8.01-7.53-8.01h-9.93v16.02Z"/>
        <path class="cls-1" d="m450.22,61.31h-19.92l-3.22,9.65h-8.56l17.05-47.92h9.45l16.98,47.92h-8.49l-3.29-9.65Zm-2.53-7.39l-7.39-21.91-7.46,21.91h14.85Z"/>
        <path class="cls-1" d="m523.54,70.96h-7.87v-34.91l-11.98,27.04h-6.16l-11.98-27.04v34.91h-7.87V23.04h9.17l13.76,30.94,13.76-30.94h9.17v47.92Z"/>
        <path class="cls-1" d="m570.91,61.31h-19.92l-3.22,9.65h-8.56l17.05-47.92h9.45l16.98,47.92h-8.49l-3.29-9.65Zm-2.53-7.39l-7.39-21.91-7.46,21.91h14.85Z"/>
      </g>
    </g>
  </g>
</svg>