<svg id="Capa_1" data-name="Capa 1" xmlns="http://www.w3.org/2000/svg" xmlns:xlink="http://www.w3.org/1999/xlink" viewBox="0 0 548.29 548.29"><defs><style>.cls-1{fill:url(#Degradado_sin_nombre_4);}.cls-2{fill:aqua;}</style><linearGradient id="Degradado_sin_nombre_4" x1="24.14" y1="274.14" x2="524.14" y2="274.14" gradientUnits="userSpaceOnUse"><stop offset="0" stop-color="#004b87"/><stop offset="1" stop-color="#003462"/></linearGradient></defs><circle class="cls-1" cx="274.14" cy="274.14" r="250"/><path class="cls-2" d="M274.05,343.16H136.68c-9.05,0-13.2-4.15-13.21-13.28q0-88.15,0-176.31c0-9.2,4.31-13.51,13.55-13.51q137.19,0,274.38,0c9.05,0,13.39,4.33,13.39,13.29q0,88.34,0,176.68c0,9.06-4.2,13.13-13.36,13.13Zm-139-191.31V331.64H413.17V151.85Z"/><path class="cls-2" d="M274.13,357.43q77.3,0,154.58,0c11.38,0,20.13,6.24,22.61,16,2.82,11.08-1.32,21.26-11.16,27.42-6.71,4.21-14.22,6-21.94,6.71-5.46.53-11,.68-16.45.68q-128.56.06-257.15,0c-9.59,0-19.23-.3-28.42-3.59-9.59-3.44-17.4-8.88-19.56-19.69-3-15.27,6.94-27.45,22.52-27.47Q196.65,357.39,274.13,357.43Zm0,39.06c46.16,0,92.32.06,138.48-.06,7.76,0,15.43-1.29,22.12-5.74,6.35-4.23,6.64-8.64,5.31-15-.92-4.38-5.51-6.94-11.62-6.94q-55.2-.06-110.41.07a6.38,6.38,0,0,0-4.25,2.15c-4.15,5-7.83,10.38-12.12,15.23a10.25,10.25,0,0,1-6.57,3.29q-21.51.43-43,0a9.85,9.85,0,0,1-6.49-3.35c-4.09-4.86-7.53-10.26-11.43-15.28a5.66,5.66,0,0,0-3.87-2q-55.2-.17-110.41-.06c-8.9,0-13.06,4.86-12,13.64.53,4.58,3.63,7.28,7.34,9.3,6.38,3.48,13.4,4.74,20.54,4.76Q204.9,396.57,274.13,396.49Zm-27.25-27.66a65.28,65.28,0,0,1,4.06,5.7c1.64,3,3.91,3.9,7.3,3.81,9.59-.23,19.19-.08,28.79-.08,6.75,0,10.53-2.73,13-9.43Z"/><path class="cls-2" d="M274.72,208.37H164.3c-10.19,0-14.21-4.07-14.22-14.36,0-4.37-.08-8.75,0-13.12.18-7.68,4.85-12.4,12.5-12.4q112.29-.06,224.58,0c7.51,0,12,4.63,12.21,12.18.11,4.88.06,9.76,0,14.63-.07,8.85-4.26,13-13.15,13.06Q330.49,208.39,274.72,208.37Zm113.15-28h-226v16.3h226Z"/><path class="cls-2" d="M186.53,233.6c-10,0-19.94.05-29.91,0-5.14,0-8.2-4.67-5.48-8.51a7,7,0,0,1,4.9-2.62c20.18-.18,40.37-.14,60.56-.09,3.47,0,5.79,2.32,5.84,5.46s-2.34,5.72-6,5.75C206.47,233.65,196.5,233.6,186.53,233.6Z"/><path class="cls-2" d="M237.5,274.17c5.37,3.76,10.29,7.1,15.09,10.62,2.63,1.92,3.47,4.6,1.77,7.57-1.51,2.61-4,3.31-6.78,2.5a8.23,8.23,0,0,1-2.25-1.3c-6.66-4.63-13.33-9.24-19.94-13.93-4.95-3.52-4.88-7.44.15-11q9.78-6.92,19.63-13.72c3.64-2.53,6.83-2.27,8.89.59,2.16,3,1.31,6.14-2.5,8.84C247.09,267.49,242.59,270.61,237.5,274.17Z"/><path class="cls-2" d="M310.8,274.18c-5.13-3.6-9.72-6.78-14.27-10-3.62-2.57-4.43-5.55-2.42-8.54s5.24-3.31,8.83-.84c6.66,4.59,13.31,9.19,19.89,13.89,5,3.54,5,7.47,0,11-6.59,4.7-13.23,9.31-19.9,13.89-3.51,2.42-6.88,2-8.84-.9s-1.14-6,2.49-8.53C301.13,280.93,305.71,277.75,310.8,274.18Z"/><path class="cls-2" d="M269.64,302.6c-4.05-.11-6.55-3.46-5.77-7.43q3.79-19.25,7.7-38.48c.59-2.93,1.1-5.88,1.82-8.78.91-3.62,3.59-5.28,6.95-4.51,3.07.71,4.77,3.71,4.05,7.35q-3,15.4-6.16,30.79c-1.08,5.38-2.21,10.74-3.28,16.12A5.7,5.7,0,0,1,269.64,302.6Z"/><path class="cls-2" d="M172.46,245c5,0,10,0,14.93,0,4.4,0,7.25,2.46,7.17,5.9s-2.79,5.66-7,5.7q-15.3.12-30.6,0c-4.2-.05-6.86-2.54-6.77-5.91s2.76-5.62,7-5.68C162.26,245,167.36,245,172.46,245Z"/><path class="cls-2" d="M357.39,382.68c0-6.06,1.75-8.71,5.77-8.73s5.8,2.67,5.81,8.7-2,9.17-6,9S357.39,388.61,357.39,382.68Z"/><path class="cls-2" d="M406.7,382.94c0,6-1.79,8.82-5.67,8.75s-5.59-2.9-5.58-8.92c0-1.13-.07-2.26,0-3.37a5.6,5.6,0,0,1,5.91-5.45c3,.13,5.1,2.3,5.3,5.62C406.76,380.69,406.7,381.82,406.7,382.94Z"/><path class="cls-2" d="M376.54,382.57c0-6.14,1.71-8.7,5.73-8.62s5.61,2.66,5.61,8.44c0,6.32-1.74,9.21-5.62,9.3S376.53,388.91,376.54,382.57Z"/><path class="cls-2" d="M163.16,382.89a7.2,7.2,0,0,1,14.4-.46,7.21,7.21,0,1,1-14.4.46Z"/><path class="cls-2" d="M152.83,382.85a7.25,7.25,0,1,1-14.49,0,7.28,7.28,0,0,1,7.26-7.39A7.18,7.18,0,0,1,152.83,382.85Z"/></svg>