<svg id="Capa_1" data-name="Capa 1" xmlns="http://www.w3.org/2000/svg" viewBox="0 0 545 545"><defs><style>.cls-1{font-size:68.78px;fill:#1d1d1b;font-family:MyriadPro-Regular, Myriad Pro;}.cls-2{letter-spacing:0em;}.cls-3{letter-spacing:0em;}.cls-4{letter-spacing:0em;}.cls-5{letter-spacing:-0.01em;}.cls-6{letter-spacing:0em;}.cls-7{letter-spacing:-0.01em;}.cls-8{fill:aqua;}.cls-9{fill:none;stroke:aqua;stroke-miterlimit:10;stroke-width:22px;}</style></defs><text class="cls-1" transform="translate(85.79 598.38)"><tspan class="cls-2">G</tspan><tspan class="cls-3" x="44.77" y="0">en </tspan><tspan class="cls-4" x="131.98" y="0">C</tspan><tspan class="cls-5" x="171.66" y="0">r</tspan><tspan x="193.46" y="0">e</tspan><tspan class="cls-6" x="227.92" y="0">a</tspan><tspan class="cls-3" x="260.79" y="0">ti</tspan><tspan class="cls-7" x="299.65" y="0">v</tspan><tspan x="332.04" y="0">o</tspan></text><path class="cls-8" d="M363.22,422.36H181.89c0-1.57-.07-3.14,0-4.71.44-14.09,9.89-24.27,23.93-25.4,5.95-.48,11.95-.3,17.92-.54,1.05,0,2.92-.6,3-1.09a20,20,0,0,0-.11-7.2c-.17-.68-2.9-1-4.45-1-26.29-.05-52.58,0-78.86,0-13.13,0-21.54-8.44-21.55-21.57q0-109.19,0-218.39c0-13.27,8.4-21.62,21.74-21.63q33.39,0,66.8,0,95.62,0,191.27,0c6.63,0,12.59,1.9,16.64,7.23,2.3,3,3.42,6.94,5.08,10.46V364.65c-3.09,13.14-12.39,18-25.31,17.79-24.52-.39-49-.1-73.57-.1-6.7,0-6.6,0-6.52,6.58,0,2.62,1.13,3.4,3.57,3.36,5.79-.08,11.58-.11,17.36,0,8.72.2,15.3,4.38,20.13,11.43C362.78,409.35,363.24,415.82,363.22,422.36ZM292.64,321.45c1.18-1.32,1.78-1.91,2.29-2.57q37.69-49,75.39-97.94c4.25-5.52,8.51-11,13.08-16.27,3.08-3.53,8.51-4.23,12.77-2.25,5.44,2.53,7.11,7.12,7.1,12.77q-.06,55.34,0,110.68c0,1.08,0,2.16,0,3.24,0,1.69.88,2.74,2.53,2.5,2.43-.36,5.37,1.49,7.22-1.5a2.94,2.94,0,0,0,.18-1.44c0-.89,0-1.77,0-2.65V157c0-1,0-2,0-2.94.07-2.25-1-3.25-3.24-3.14-3.62.17-7.24.48-10.86.49q-131,.06-261.94.06c-5.2,0-5.21,0-5.21,5.17V326.53a14.61,14.61,0,0,1,0,1.48c-.28,2.62.76,3.76,3.51,3.65,3.81-.15,7.65,0,11.47,0,4.83,0,4.79,0,4.85-4.95.09-7.64-.49-15.39.54-22.91,2.38-17.29,5.5-34.48,8.48-51.69a6.14,6.14,0,0,0-2.1-6.21,58.33,58.33,0,0,1-15.57-25.28c-2.49-7.68-1.8-15.11,2.59-21.74a124.84,124.84,0,0,1,12.4-15.6c6.17-6.7,12.85-12.92,19.26-19.4,3.34-3.37,6.48-3.18,9.79.3,5.06,5.32,10.26,10.51,15.54,15.6,6.67,6.44,13,13.11,17.06,21.58,2.47,5.18,3.56,10.6,2.07,16.3A59.42,59.42,0,0,1,205.41,246a6.25,6.25,0,0,0-2,6.31c.93,4.72,1.66,9.47,2.41,14.22,3.21,20.51,8.22,40.83,6.74,61.85a5.11,5.11,0,0,0,.1,1.46c.08.37.27,1,.47,1a33.19,33.19,0,0,0,7.15.42c.67-.07,1.56-2.25,1.57-3.47.11-13.94,0-27.87.15-41.8a33.56,33.56,0,0,1,1.68-9.77c3-9.24,6.29-18.37,9.49-27.54,3.92-11.21,7.8-22.43,11.8-33.61a13.11,13.11,0,0,1,12.58-8.9A13.3,13.3,0,0,1,270,215.34q1.78,5,3.52,10c6.08,17.51,12.2,35,18.21,52.56a18.38,18.38,0,0,1,.85,5.77c.08,11.28,0,22.56,0,33.85Zm-19.91,20.81v.05H137.39a10.37,10.37,0,0,0-3.21.11c-.83.3-2.05,1.24-2.05,1.89,0,6.75,0,13.53.6,20.24.36,4,4.26,6.8,8.31,7.08,1.46.1,2.94.07,4.41.07q122.84,0,245.68.05c2.83,0,5.68.17,8.5.42,8.44.72,13.36-3.55,13.57-12,.1-4.11,0-8.24,0-12.36,0-5.57,0-5.57-5.45-5.57Zm25.77-10.8c2,.1,3,.19,4.09.19,8,0,15.89-.09,23.84.07a7.21,7.21,0,0,0,6.47-3.13c4.91-6.37,10-12.6,15-18.89,1.73-2.17,3.88-3.37,6.7-2.47s3.35,3.27,3.35,5.89c0,5.1,0,10.21,0,15.31,0,1.93.48,3.24,2.76,3.24,9.71,0,19.42,0,29.13-.07a3.34,3.34,0,0,0,2.55-1.4c2.06-4.61-.13-7.93-5.09-8H387c-4-.05-4.3-.38-4.34-4.43V316c0-4.15.22-4.34,4.29-4.38,5.79,0,5.79,0,5.73-5.89a8.81,8.81,0,0,1,0-.89c.14-2.22-.86-3.23-3.12-3.19-3.43.07-6.87,0-10.3,0-6.88,0-6.81,0-6.63-6.79.06-2.38,1-3.36,3.35-3.31,4.41.09,8.83.07,13.24,0,1,0,2.8-.44,2.85-.85a27.52,27.52,0,0,0,.16-7.79c-.1-.62-2.62-1.18-4-1.22-5.54-.17-5.54-.09-5.52-5.57a8.61,8.61,0,0,0,0-.88c-.29-2.85,1.07-3.74,3.81-3.73,6.43,0,6.43-.06,6.2-6.53a5.86,5.86,0,0,1,0-.59c0-2-1-2.8-2.92-2.79-3.53,0-7.06,0-10.59,0-6.83,0-6.75,0-6.53-6.87.08-2.46,1.13-3.26,3.44-3.22,4.22.09,8.44,0,12.65,0,3.61,0,4-.33,4-3.81,0-10.7,0-21.39-.05-32.09,0-1.2-.77-2.4-1.19-3.6a13.48,13.48,0,0,0-2.9,2.15c-7.95,10.22-15.82,20.5-23.71,30.76l-59.53,77.45C303.16,325.19,301.09,328,298.5,331.46ZM272.85,140.82v.07H407.66c1,0,2,0,2.94,0,2,.05,2.38-1,1.92-2.67a8.56,8.56,0,0,0-6.52-6.53,28.94,28.94,0,0,0-6.69-.73c-25.11.12-50.22.44-75.32.47q-89.34.12-178.66,0a15.62,15.62,0,0,0-4.39.14c-2.1.64-4.45,1.35-5.94,2.81-1.28,1.25-1.51,3.58-2.2,5.43a23.35,23.35,0,0,0,4.66.94Q205.16,140.86,272.85,140.82Zm-.59,271.43v.05q37.67,0,75.33,0a15.66,15.66,0,0,0,3.29-.72c-.44-1.13-.62-2.47-1.35-3.37-3.47-4.24-8.12-5.83-13.53-5.83q-63.4.07-126.82.06a21.11,21.11,0,0,0-2.64.07c-5,.62-9.2,2.65-11.92,7.11-1,1.67-.57,2.59,1.43,2.63,1,0,2,0,2.94,0ZM181.85,301.58c5.19,0,10.39.05,15.59-.05,1,0,2.37-.3,2.83-1,1.85-2.71-1.29-8.3-4.55-8.35-4.5-.08-9,.06-13.51-.3-3.58-.29-5.31-2.54-5.07-5.61s2.14-4.64,5.66-4.72c3.72-.09,7.45,0,11.17,0,3.46,0,3.64-.17,3.1-3.47-1.26-7.74-2.66-15.46-3.83-23.21-.37-2.5-1.55-3.26-3.92-3.21q-7.35.16-14.7,0c-2.14,0-3.25.71-3.6,2.88q-3.6,22.07-7.34,44.1c-.38,2.24.35,3,2.58,3C171.45,301.51,176.65,301.57,181.85,301.58Zm29.9-89c-.15-1.7,0-2.92-.4-3.87-1.27-2.85-2.24-6.07-4.28-8.29-7.59-8.29-15.55-16.24-23.39-24.31-1.32-1.36-2.44-.62-3.52.43-5.84,5.66-11.83,11.18-17.51,17-4,4.14-7.69,8.68-9.48,14.35a40.85,40.85,0,0,0-.85,4.59c1.88-.82,3-1.28,4.12-1.81,6-2.86,12.13-3.13,17.82.13,5.36,3.07,10.09,3.13,15.46.13,6.16-3.46,12.61-3,18.86.27C209.4,211.65,210.29,212,211.75,212.6Zm60.54,69c2.47-.71,4.55-1.25,6.6-1.89,1.67-.53,1.91-1.7,1.35-3.27-2-5.72-3.92-11.51-6.13-17.16A4.34,4.34,0,0,0,271,257q-13.53-.27-27,0a4.33,4.33,0,0,0-3.14,2.32c-2.23,5.75-4.11,11.64-6.2,17.45-.56,1.54-.19,2.33,1.34,2.9,3.56,1.32,7.08,2.28,10.82.62,2-.87,4.06-1.45,6-2.35a10.27,10.27,0,0,1,9.29,0A100.22,100.22,0,0,0,272.29,281.62Zm-90.06-40.16c3.53,0,7.06.1,10.58-.05a5.94,5.94,0,0,0,3.47-1.18,47.44,47.44,0,0,0,11.52-15.09c.72-1.49.33-2.12-1-3-4.88-3.22-9.56-3.69-14.85-.65-6.28,3.61-13.06,3.8-19.37.11-5.23-3.06-9.91-2.76-14.89.3-1.77,1.09-2.2,2.08-1.08,3.71,2.48,3.63,5,7.27,7.52,10.83,2.86,3.94,6.64,5.81,11.64,5.09A46.52,46.52,0,0,1,182.23,241.46Zm80.39,69.24c0,6,0,11.95,0,17.93,0,2.09.82,3.05,3,3,4.7-.06,9.4-.05,14.1,0,2,0,2.84-.85,2.84-2.83q0-18.09,0-36.16c0-2.18-.87-2.79-2.92-2.1a21.11,21.11,0,0,1-13.86.05c-2.49-.85-3.15.12-3.13,2.45C262.66,298.94,262.61,304.82,262.62,310.7Zm-10.65,0c0-5.68,0-11.36,0-17,0-3.52-.16-3.64-3.45-2.82a21.78,21.78,0,0,1-12.74-.21c-2.32-.82-3.24-.19-3.23,2.31q.09,17.77,0,35.56c0,2.26.93,3.17,3.17,3.13q6.47-.12,12.93,0c2.37.05,3.36-.91,3.33-3.3C251.92,322.49,252,316.61,252,310.73Zm-69.78,20.9c5.49,0,11,0,16.48,0,2.2,0,3.26-.77,3.22-3.08q-.1-6.63,0-13.25c0-2.32-1-3.09-3.23-3.09q-16.49.07-33,0c-2.45,0-3.29,1.08-3.25,3.4.09,4.22.11,8.44,0,12.66-.08,2.61,1.12,3.41,3.56,3.37C171.4,331.56,176.79,331.63,182.19,331.63Zm114.54,60.13v.49h4.7c6,0,6,0,5.87-6-.05-3.58-.31-3.89-3.86-3.89q-30.85,0-61.71,0c-3.77,0-3.93.23-3.93,4.7s.22,4.67,4,4.67Q269.27,391.78,296.73,391.76ZM257.25,246.25c3.23,0,6.46,0,9.69,0,1.82,0,2.54-.7,1.9-2.54-2.81-8-5.54-16.1-8.48-24.09-.39-1.07-1.9-2.52-2.73-2.43a4.47,4.47,0,0,0-3.06,2.49c-2.94,7.89-5.64,15.87-8.43,23.81-.69,1.95,0,2.76,2,2.75C251.18,246.23,254.21,246.25,257.25,246.25Zm86.8,85c3.76.3,4.2-.3,3.09-3.8Z"/><path class="cls-8" d="M368,160.92c8.73,0,17.46.07,26.19,0,2.74,0,3.88.88,3.84,3.74q-.19,11.63,0,23.25c.05,2.9-1.19,3.71-3.88,3.7-6.22,0-6.22.07-6.23-6,0-3.43-.12-6.87,0-10.3.12-2.81-1-3.81-3.77-3.79-13.05.1-26.1,0-39.15,0-1.17,0-2.36-.08-3.53,0-2.58.19-3.69-.81-3.71-3.55-.05-7.07-.15-7.07,6.95-7.07H368Z"/><path class="cls-8" d="M327.92,166.31c0,5.2,0,5.2-5.21,5.2s-5.4-.07-5.4-5.41c0-5.14.09-5.21,5.61-5.2C327.93,160.91,327.93,160.91,327.92,166.31Z"/><path class="cls-8" d="M272.85,351.72h7c1.78,0,2.7.8,2.72,2.66.05,9.14.65,7.87-7.14,7.95-3.33,0-6.66,0-10,0-2.07,0-2.94-.85-3.05-3-.39-7.67-.44-7.66,7.18-7.66h3.23Z"/><path class="cls-8" d="M252.6,356.86c0,5.47,0,5.47-5.2,5.47-5.38,0-5.44-.06-5.44-5.32s.06-5.33,5.44-5.32C252.59,351.69,252.59,351.69,252.6,356.86Z"/><path class="cls-8" d="M303.12,357.39c-.56,1.54-.85,4.21-1.74,4.42-2.46.6-5.17.24-7.77.08-.37,0-.84-1-1-1.59a12.79,12.79,0,0,1-.11-2.63c0-6.07,0-6.07,6.15-6,3.68.05,3.94.32,4,4.06,0,.49,0,1,0,1.46Z"/><circle class="cls-9" cx="272.5" cy="271.57" r="250"/></svg>