<svg id="Capa_1" data-name="Capa 1" xmlns="http://www.w3.org/2000/svg" xmlns:xlink="http://www.w3.org/1999/xlink" viewBox="0 0 543.14 543.14"><defs><style>.cls-1{fill:url(#Degradado_sin_nombre_4);}.cls-2{fill:aqua;}</style><linearGradient id="Degradado_sin_nombre_4" x1="21.57" y1="271.57" x2="521.57" y2="271.57" gradientUnits="userSpaceOnUse"><stop offset="0" stop-color="#004b87"/><stop offset="1" stop-color="#003462"/></linearGradient></defs><circle class="cls-1" cx="271.57" cy="271.57" r="250"/><path class="cls-2" d="M282.83,277.37A71.88,71.88,0,0,1,290.54,315c4.91,0,9.6-.36,14.21.09a26.81,26.81,0,0,0,20.13-6c6-4.68,12.62-8.51,18.92-12.77,4.75-3.22,9.76-4,14.88-1.28s7.56,7.39,7.29,13.33c-.1,2.1,0,4.2,0,6.29,4.61.36,9,.22,13.21,1.15,12.69,2.8,21.13,15.75,18.83,28.5q-6.18,34.14-12.52,68.25c-2.4,12.82-12.31,20.82-25.43,20.82-70.92,0-141.85-.14-212.77.15-11.64.05-24.67-6.7-27.4-23.25-3.59-21.71-7.68-43.35-11.67-65-2.42-13.14,4.9-25.64,17.73-29.13,3.06-.83,3.43-2.17,3.38-4.81-.44-20.2,6.72-37.37,20.88-51.69.94-1,2-1.85,3.2-3-.85-.62-1.6-1.2-2.37-1.73-14.59-10.07-20.44-27.65-13.75-44.08,6-14.8,8.37-30,8.22-45.86-.28-31.93,21.6-58.15,53-64.26,35.41-6.89,70.76,18.68,75.29,54.73.83,6.63.51,13.4.7,20.11.05,1.54,0,3.09,0,5,8.44,0,16.59.19,24.73-.05,7.44-.22,13,2.48,16.71,9a3.68,3.68,0,0,0,2.92,1.19c15.13-.84,29.69-12.62,34.24-28a53.37,53.37,0,0,0,2-13.2c.31-8.95.09-17.93.1-26.89,0-8.54,5.85-13.34,14.34-11.81A21.53,21.53,0,0,1,387.46,132c0,12,0,24,0,36,0,5.18,1.95,7.14,7.07,7.16,9.52,0,19.05.17,28.57-.05,7.14-.17,12.78,2.18,16.22,8.56s2.39,12.52-2,18.34c5.28,7.12,5.48,14.35,0,21.44,5.32,8.73,5.32,13.45,0,21.7,3.57,4.62,5,9.82,3.18,15.62A15.91,15.91,0,0,1,425.44,272c-27.57,0-55.13.18-82.69-.15-5.11-.06-10.21-2.1-15.3-3.32-1.73-.41-3.34-1.37-5.08-1.66-2.93-.49-5.53-.86-7.45,2.84-2.7,5.2-7.62,7.68-13.6,7.68Zm-89-118.31c-4.82,4.26-9.5,8.72-16.14,10.12,0,13.22-.28,26.21.09,39.19a20.23,20.23,0,0,0,17.9,20c7.72,1,15.63.59,23.45.6,13.79,0,23-9.16,23.06-22.87q.06-18.15,0-36.29c0-1.33.16-2.9-.47-3.93a19.87,19.87,0,0,0-4.74-5.66c-.51-.38-2.95,1.49-4.28,2.59-5,4.15-10.44,7-17.41,6.91V159c9.49-1.19,14.43-7.12,16.41-15.86h10.39c0,1.15.27,2.15-.05,2.91-1.23,2.9.12,4.19,2.49,5.76a18.19,18.19,0,0,1,8.43,15.9q0,20,0,40a30.06,30.06,0,0,1-10.75,23.67c-3.5,3-7.76,5.13-12,7.87,1.26.56,2.66,1.3,4.14,1.83,6.48,2.35,13,4.72,19.51,6.91a7.06,7.06,0,0,0,4.57.18,25.55,25.55,0,0,0,14.81-16.36c2.24-6.91,1.26-13.57-1.83-19.87a77.34,77.34,0,0,1-7.81-39.63,70.43,70.43,0,0,0-1.3-19c-4.27-19.7-16.26-33.26-35.28-39.7-19.18-6.5-37-2.75-52.36,10.45-12.53,10.74-18.23,24.8-18.55,41.22-.16,7.82.15,15.8-1.29,23.41-1.7,9-4.8,17.85-7.76,26.6-4.44,13.17,1.41,27.18,14,32.8a6,6,0,0,0,5.28-.05c6.28-2.55,12.75-4.63,19.14-6.94,1.49-.54,2.93-1.25,5-2.13-1.33-.66-1.91-1-2.52-1.23-13.51-5.5-21-16.63-21-31.29s0-29.13,0-43.7v-3.51c14.07-1.05,18.41-4.33,21.76-16.16H199.3a20,20,0,0,1-.59,4.42C197.22,151.38,195.5,155.2,193.87,159.06ZM355.2,325.8c0-5.91.13-11.29-.08-16.66-.05-1.47-.74-3.44-1.82-4.17-.8-.54-2.93.21-4.09,1-9.09,5.92-18,12.07-27.18,17.94a12,12,0,0,1-6.15,1.84q-89.94.13-179.87.08c-1.23,0-2.47-.05-3.69,0-8.58.62-15,8.28-13.6,16.27q6.16,34.14,12.48,68.26c1.42,7.67,7,12.26,14.9,12.26q106.91,0,213.82,0c.45,0,.9,0,1.34,0a14.3,14.3,0,0,0,13.49-11.95q6.13-33.46,12.14-67c1.85-10.37-4.46-17.83-14.94-17.91C366.49,325.77,361,325.8,355.2,325.8ZM317.7,255c4.74,1.13,9.06,1.75,13.09,3.19a55.78,55.78,0,0,0,19.38,3.14c23.75-.15,47.5-.06,71.25-.06h2.35c4.13-.08,6.77-2.24,6.69-5.49s-2.63-5.21-6.55-5.27c-3.25,0-6.49,0-9.74,0h-4.93V239.72c4.83,0,9.41,0,14,0a12.22,12.22,0,0,0,3.62-.49,4.78,4.78,0,0,0,3.51-5.43c-.41-3.06-2.51-4.73-5.57-4.79-5.21-.1-10.43,0-15.62,0V218.2c4.95,0,9.74,0,14.53,0,4.15,0,6.78-2.17,6.76-5.41s-2.65-5.32-6.81-5.34c-4.79,0-9.57,0-14.43,0V196.68c4.9,0,9.59,0,14.28,0,4.36,0,7.09-2.22,7-5.54s-2.72-5.21-6.95-5.22c-9.85,0-19.71,0-29.57,0-10.56,0-17.21-6.63-17.22-17.13,0-12,.06-24,0-36-.05-6.68-4.62-11.34-10.75-11,0,9.73,0,19.47,0,29.21a51.22,51.22,0,0,1-37.35,49c-3.53,1-7.19,1.49-10.9,2.24Zm-38.15,59.91c2.31-21.8-9.89-45.2-26.86-54.22-2.17,9.89-7.13,17.74-17.13,21-10.37,3.38-18.75-.59-25.65-8.64-6.92,8.2-15.27,12-25.53,8.65-10.09-3.24-15-11.26-17.26-21.23-19.51,11.62-29.28,36.22-26.56,54.41h21.09V293.68h10.68v21.13H247.8V293.73h10.69v21.15Zm-12.94-58.45c2.84,3.08,5.36,5.94,8,8.62a4.93,4.93,0,0,0,3.06,1.5q11.58.18,23.17,0c3.68-.05,5.86-2.23,5.88-5.93q.09-31.74,0-63.48c0-3.29-1.92-5.69-4.95-5.75-8.68-.2-17.37-.07-26.46-.07.61,1.87,1,3.36,1.58,4.79,2,5,4.07,9.92,5.93,14.94a35.92,35.92,0,0,1-2.23,31A39.21,39.21,0,0,1,266.61,256.43Zm-64.47-16.72c-2,2.85-3.84,5.22-5.46,7.71a3.9,3.9,0,0,0-.53,2.68,14.42,14.42,0,0,0,13.42,11.12c6.1.24,11.84-4.09,14-10,1.71-4.81-4-6-4.36-9.71-.06-.61-.77-1.24-1.32-1.69-.27-.22-.86-.07-1.31-.07Zm-4,29.34a26,26,0,0,1-12.7-16.41c-9,1.65-8.88,1.67-6.21,10.31a13.77,13.77,0,0,0,3.24,5C186.91,272.74,192.63,273.18,198.14,269.05Zm23.56.07c3.15,2.38,6.1,3.3,9.67,2.45,6.35-1.52,10.58-8.14,10.78-15.33a2.57,2.57,0,0,0-1.32-1.92c-2-.81-4.12-1.35-6.29-2A26.3,26.3,0,0,1,221.7,269.12Z"/><path class="cls-2" d="M145.85,358h19.41c1.57-7.07,3.11-14,4.71-21.2h15.38c1.42,6.2,3,12.34,4.16,18.57.45,2.41,1.49,2.77,3.57,2.72,5.47-.11,10.94,0,16.86,0,0,4.27.09,8.37-.08,12.46,0,.81-.94,1.7-1.64,2.34-3.06,2.78-6.13,5.58-9.33,8.2-1.57,1.27-1.89,2.36-1,4.23q3.62,7.37,6.78,14.95a3.86,3.86,0,0,1-.43,3.37c-3.23,3.57-6.69,6.91-10.28,10.55l-15.68-16.48c-5.88,5.9-11.13,11.18-16.86,16.92-3.8-4-7.33-7.54-10.64-11.29a3.71,3.71,0,0,1-.12-3.16c2.1-4.93,4.3-9.82,6.65-14.64.92-1.9.95-3.24-.91-4.52-1.38-.95-2.4-2.45-3.83-3.25C144.64,373.3,144.42,366.16,145.85,358Zm35.56,10.82c-1.17-5.07-2.26-9.77-3.34-14.46l-.71,0c-1.1,4.78-2.2,9.56-3.37,14.6H159.2c4,3.53,7.38,6.59,10.87,9.51a2.61,2.61,0,0,1,.8,3.69c-1.89,3.86-3.6,7.82-5.38,11.74l1,.85L178,382.34l11.4,11.89a71.53,71.53,0,0,0-4.74-11.71c-.91-1.82-.71-2.92.88-4.22,3.47-2.85,6.77-5.9,10.78-9.45Z"/><path class="cls-2" d="M221.35,358.08h19.21c1.6-7.19,3.14-14.13,4.73-21.29h15.35c1.41,6.14,3,12.39,4.21,18.71.42,2.18,1.28,2.67,3.3,2.63,5.57-.12,11.15,0,17.11,0,0,4.24.08,8.24-.07,12.22a4.15,4.15,0,0,1-1.49,2.41c-3,2.74-5.88,5.53-9.07,8-2.14,1.64-2.21,3-1.06,5.31,2.32,4.58,4.23,9.36,6.46,14,.79,1.64.74,2.71-.65,4.05-3.37,3.26-6.54,6.72-10,10.26l-16-16.17L237.2,414.5c-4.07-4.06-7.82-7.68-11.38-11.48-.46-.5-.18-2.06.21-2.94,2.17-5,4.42-10,6.79-14.94.83-1.72.69-2.87-.91-3.95-1-.69-1.78-1.76-2.82-2.38C221.28,374.13,218.88,367.27,221.35,358.08Zm43,36.43.8-.61c-1.74-3.81-3.37-7.69-5.26-11.42-.95-1.86-.6-2.93.94-4.21,3.45-2.85,6.75-5.89,10.11-8.86l-.37-.68H256.69c-1.15-5-2.23-9.66-3.32-14.35h-.7c-1.11,4.78-2.21,9.57-3.38,14.62H234.54c3.91,3.43,7.19,6.45,10.64,9.27,1.58,1.31,1.75,2.43.85,4.24-1.87,3.74-3.51,7.6-5.24,11.42l.81.62,11.46-12.45Z"/><path class="cls-2" d="M344.51,414.29l-16.17-16.24-16.11,16.78c-4-4.16-7.48-7.72-10.79-11.48a3.67,3.67,0,0,1-.13-3.16c2-4.83,4.11-9.66,6.5-14.33,1.23-2.39.87-3.85-1.26-5.27-1.2-.8-2.07-2.12-3.31-2.82-8-4.44-8.18-11.59-6.81-19.61h19.42c1.6-7.18,3.14-14.12,4.74-21.32H336c1.41,6.17,3,12.32,4.16,18.54.44,2.4,1.45,2.79,3.55,2.75,5.47-.12,10.95,0,16.88,0,0,4.25.09,8.35-.08,12.44,0,.81-.93,1.7-1.63,2.34-3.06,2.79-6.13,5.58-9.33,8.2-1.54,1.27-1.92,2.34-1,4.23q3.62,7.36,6.79,14.95a3.88,3.88,0,0,1-.42,3.38C351.68,407.19,348.21,410.54,344.51,414.29Zm-4.84-19.72.84-.65c-1.74-3.82-3.36-7.68-5.25-11.42-.93-1.84-.66-2.92.9-4.21,3.47-2.85,6.77-5.9,10.9-9.54H332c-1.15-5-2.23-9.67-3.32-14.37H328c-1.1,4.78-2.21,9.56-3.37,14.61H309.83c4,3.51,7.38,6.58,10.88,9.51a2.58,2.58,0,0,1,.77,3.68c-1.88,3.87-3.6,7.82-5.38,11.74l.77.59,11.42-12.4Z"/><path class="cls-2" d="M215.38,159.05c-1.13,1-2.27,2-3.37,3-5,4.65-10.79,7.61-18.22,7.76V159c9.46-1.19,14.41-7.06,16.43-16h10.36c.39,4.71-1.35,8.7-3.45,12.61C216.52,156.72,216,157.89,215.38,159.05Z"/><path class="cls-2" d="M221.12,202.18h10c.9,7.21-5.43,15.23-13.25,15.8s-15.81.12-23.87.12V207.44h18.3C218,207.44,218.64,207.08,221.12,202.18Z"/><path class="cls-2" d="M193.92,191.28a5.37,5.37,0,1,1,5.27-5.31A5.24,5.24,0,0,1,193.92,191.28Z"/><path class="cls-2" d="M231.47,185.94a5.37,5.37,0,1,1-5.18-5.4A5.26,5.26,0,0,1,231.47,185.94Z"/></svg>