<svg id="Capa_1" data-name="Capa 1" xmlns="http://www.w3.org/2000/svg" viewBox="0 0 545 545"><defs><style>.cls-1{fill:aqua;}.cls-2{font-size:68.78px;fill:#1d1d1b;font-family:MyriadPro-Regular, Myriad Pro;}.cls-3{letter-spacing:0em;}.cls-4{letter-spacing:0em;}.cls-5{letter-spacing:0em;}.cls-6{letter-spacing:0em;}.cls-7{letter-spacing:-0.01em;}.cls-8{letter-spacing:-0.01em;}.cls-9{letter-spacing:0em;}.cls-10{fill:none;stroke:aqua;stroke-miterlimit:10;stroke-width:22px;}</style></defs><path class="cls-1" d="M444.79,142.7v.68c-4.37,8.49-8.76,17-13.07,25.49a2.77,2.77,0,0,0,0,2.17q6.48,12.78,13.08,25.48v1.35c-1.23-.09-2.45-.24-3.67-.24-14.57,0-29.15-.1-43.72.06-2.68,0-4-.88-5.08-3.21-2.58-5.58-5.38-11.06-8.21-16.52-.5-1-1.58-2.21-2.44-2.25-5.09-.21-10.19-.1-15.6-.1,25.65,31.68,24.62,31.53,37.55,65.86,3.36,0,6.83-.09,10.29,0,9.58.31,16.49,7.11,16.6,16.69q.23,21.85,0,43.72c-.12,9.42-7,16.16-16.39,16.58a50.63,50.63,0,0,1-7.39,0c-2.62-.27-3.57.81-4.4,3.21-2.62,7.47-5,15.13-8.57,22.15-5.06,9.93-11.11,19.35-16.78,29.06,13.19,9.58,12.62,30-1.09,39.85-5.71,4.1-10.76,9.13-16.12,13.73l-17.39,14.87c-8.46-7.26-16.75-14.29-24.93-21.44a4.34,4.34,0,0,0-5-1,190.41,190.41,0,0,1-19.23,5.76c-7.37,1.68-14.9,2.66-22.64,4,.26,3.4.54,7,.82,10.68H116.13c.81-7,1.19-13.81,2.45-20.47,5-26.32,20.17-44.37,45.1-54,3.46-1.35,5-3.18,5.25-6.67q-41-17.32-46.6-61.56c-9.6.68-17.75-1.55-21.09-11.35-2.91-8.55.57-15.25,8-20.15-1.59-4-3.1-7.8-4.65-11.61a56.92,56.92,0,0,1-2.9-34.56c5-22.69,25.49-41,48.5-43.09a10.6,10.6,0,0,0,7-3.15,145,145,0,0,1,55.58-33.55,7.26,7.26,0,0,0,4.5-4c11.69-22.31,30.2-34.87,55.25-36.62,31.05-2.18,59,18.12,67.35,48.2,1.57,5.64,2.17,11.54,3.26,17.55,12.58,0,25.35,0,38.11-.1,1,0,2.28-1.22,2.8-2.21q4.38-8.31,8.38-16.81a4.34,4.34,0,0,1,4.62-2.86c13.34.12,26.68,0,40,.07C439.66,142.4,442.22,142.6,444.79,142.7ZM354.52,318.83a3.52,3.52,0,0,0-.84-.25c-8.74,0-17.48,0-26.23-.07-11.51-.05-18.09-6.6-18.13-18.17q-.07-20.35,0-40.7a23.78,23.78,0,0,1,.7-6.31c2.13-7.54,8.31-11.84,17-11.87,20.17-.05,40.35,0,60.53,0h3.92c-.37-1.36-.6-2.43-.94-3.47-7.5-23.06-20.3-42.69-37.88-59.38-3.6-3.42-7.2-3.16-11-2.71-6.92,29.59-25,47.48-53.77,53.86-1.13,6.31-1.83,12.33-3.35,18.15s-3.9,11.58-5.92,17.42c6.83,4.41,10.3,10.54,8.2,18.56-2.85,11-11.42,13.37-21.49,12.81-3.79,29.64-19.46,50.05-47.49,61.93,1.57,2,2.56,4.66,4.28,5.29q36.56,13.38,46.25,50.93c.45,1.73,1.07,2.19,2.72,1.91,7.92-1.38,15.88-2.56,23.77-4.08,3.49-.67,6.86-2,10.52-3-10.74-12.51-7.79-26.18-1-33.48a24.38,24.38,0,0,1,15.13-8c8.89-1.11,16.52,1.75,22.83,8.36,6.1-6.26,13.19-9.14,21.68-8.55.89.06,2.16-1.06,2.77-2,4.78-7,9.76-13.94,14.06-21.26a107.6,107.6,0,0,0,10.72-26.06c-.93-.08-1.59-.09-2.23-.2-3-.51-4.76.48-5.18,3.81a58,58,0,0,1-1.92,7.8c-1.83,6.77-6.29,10.42-12.61,10.36-6.16-.06-10.61-3.93-12.34-10.74C356.39,326.06,355.44,322.39,354.52,318.83Zm-88.78-55.55.9.15a21.21,21.21,0,0,0,1.33-2.36c1.49-3.62,3.15-7.19,4.32-10.91,8.49-26.9,3.34-50.73-16.24-71.28-1.6-1.68-2.74-1.77-4.8-.67a66.77,66.77,0,0,1-31.83,8.22c-19.39,0-38.78,0-58.17.07-3.58,0-7.17.19-10.73.55C126.1,189.51,107,215,112.18,239c1.69,7.9,5.22,15.4,7.92,23.08.22.63.44,1.25.67,1.88l1.52-.79c0-1.25,0-2.5,0-3.75-.12-11,5-18.49,15.13-22.62,4.12-1.68,8.17-3.53,12.26-5.32l-5.13-9.92,10.09-4.08c.36.32.59.43.68.61,7.62,16.37,20.76,23.52,38.49,23.39,16.92-.13,33.85-.16,50.77.13a21.39,21.39,0,0,1,20.61,19C265.3,261.5,265.56,262.39,265.74,263.28ZM133.35,275.69l-.32,0c.35,8.16-.07,16.44,1.18,24.46,5.44,34.92,38.61,57.25,73.18,49.72,24.69-5.38,44.4-27.38,46.36-52.49.81-10.47.51-21,.6-31.55.08-9.2-4.12-13.33-13.32-13.34-16.69,0-33.39,0-50.08,0a48,48,0,0,1-31.34-10.88,3.42,3.42,0,0,0-4.16-.46c-4.69,2.11-9.4,4.16-14.17,6.08-5.44,2.19-8,6.19-7.94,12C133.37,264.72,133.35,270.21,133.35,275.69Zm243.17,31.79h35.26c5.67,0,7.48-1.8,7.48-7.37q0-20,0-40c0-5.94-1.63-7.59-7.57-7.59q-41.85,0-83.71,0c-5.81,0-7.6,1.82-7.61,7.67q0,19.49,0,39c0,6.69,1.62,8.3,8.36,8.3h34.49c1.62,6.4,3.16,12.67,4.84,18.89.27,1,1.22,1.82,1.86,2.72a10.82,10.82,0,0,0,1.8-2.8C373.37,320.15,374.88,314,376.52,307.48Zm-34.1,119.18c9.92-8.56,19.88-16.74,29.34-25.45,6.34-5.84,4.23-16.53-3.49-20.41a14.67,14.67,0,0,0-17,2.76c-3,2.88-5.74,5.93-8.84,9.13-3.42-3.52-6.35-6.77-9.54-9.74a14.29,14.29,0,0,0-20.21.69c-5,5.54-4.06,14,2.16,19.37C323.88,410.81,333,418.59,342.42,426.66ZM233,173.61c-5.13-30.81,17.74-50.66,37.63-52.89,10.43-1.17,20.32.68,29.23,6.5,13.31,8.7,20,21.2,20.73,36.9h10.26c1.43-13.3-6.83-36.37-28.2-47.85a54.69,54.69,0,0,0-62.59,7C223.12,138,218.69,161,223,175.22ZM178.11,428.24c1.45-8.46,2.91-16.7,4.21-25,.18-1.11-.45-2.34-.77-3.74l-6,3.74L160.6,378.46c-19,8.85-32,30.89-31.68,49.78H144.4c-1.22-8,2.24-16.38-3.35-22.88l7.36-8c9.33,8.59,6.53,20.17,7.17,30.84Zm49-49.8-15,24.85-6.62-4.16c0,10.37,2.91,19.52,4,29.1h22.67c.54-10.86-2.1-22.35,6.93-30.62l8,7.3c-5.92,7.28-2.71,15.51-3.61,23.39h15.3C259.12,409.29,246.09,387.3,227.12,378.44Zm82.1-214.32c-.57-13.06-6.31-22.85-17.62-28.71-11.8-6.13-23.7-5.31-34.53,2.52-10.47,7.57-14.55,18.22-13.25,31.62,4.78-3.15,10.27-4,11.57-11,1.82-9.79,11.76-16.53,21.65-16.08,10.33.46,19.13,7.84,21,17.61.24,1.3.34,2.62.52,4.08Zm20.56,11.5c-3,0-5.85-.18-8.62.09a4.18,4.18,0,0,0-2.74,2c-1.76,3.36-2.89,7.07-4.87,10.26-6.52,10.5-16.11,16.85-28.4,19.71l1.82,10.2C305.86,215.94,326.54,197.51,329.78,175.62Zm-119-24a135.61,135.61,0,0,0-39.65,23.57h39.65Zm70.58,45c11.09-.67,24.31-11.6,25.34-21-3.26,0-6.51-.06-9.74,0a3.13,3.13,0,0,0-2.25,1c-4.41,6.24-10.46,9.48-18.31,10C278.16,190.18,279.78,193.44,281.36,196.65Zm145.48-43.18c-8.44,0-16.38,0-24.31,0a2.67,2.67,0,0,0-2,.79c-1.7,3.18-3.24,6.44-5,10,8.43,0,16.27,0,24.11,0a2.87,2.87,0,0,0,2.22-.94C423.58,160.23,425.08,157,426.84,153.47Zm-31.36,22.15c1.73,3.47,3.14,6.49,4.76,9.4a3.2,3.2,0,0,0,2.3,1.36c7.92.1,15.85.06,24.29.06-1.76-3.55-3.26-6.76-5-9.85a3,3,0,0,0-2.23-.93C411.79,175.59,404,175.62,395.48,175.62ZM287.21,164.28c-.88-6.95-5.88-11.39-11.71-10.75a11,11,0,0,0-9.94,11.79,10,10,0,0,0,10.81,9.54V164.28ZM178.75,365.17c4.88,2.45,9.33,4.76,13.87,6.87a4.17,4.17,0,0,0,3-.23c3.44-1.58,6.71-3.57,10.21-5,3.14-1.28,3.49-2.9,1.7-5.27-4.72.37-9.28,1-13.83,1s-9.06-.63-13.8-1C179.58,362.61,179.21,363.74,178.75,365.17Zm15.8,41.35-1.44.07c-1.19,7.17-2.37,14.34-3.58,21.66h8.71C197,420.81,195.77,413.67,194.55,406.52Zm71.1-131.92v10.77c3.54-.28,7.46,1.27,9.57-2.54a6.83,6.83,0,0,0,.09-5.58C273.3,273.42,269.39,274.68,265.65,274.6Zm-143.56,0c-3.55,0-7.43-1.3-9.54,2.4a6.93,6.93,0,0,0,0,5.84c2.11,3.73,6,2.29,9.53,2.41ZM187.47,382l-15.63-7.76-.37.57,7.68,12.76Zm12.79,0,8.35,5.54c2.69-4.5,5.2-8.7,7.7-12.9l-.54-.38ZM194,396.16l2.61-2.32c-1-.76-1.87-2-2.89-2.12-.78-.07-1.68,1.35-2.53,2.12Z"/><path class="cls-1" d="M164.75,307.62h58.18c-2.46,8.94-3.17,18.23-10.21,25.16-14.32,14.1-38.59,8.07-44.37-11.16C167,317.15,166,312.57,164.75,307.62Zm14.7,11a14.68,14.68,0,0,0,15,10.64c6.72-.25,12.55-4.72,13.7-10.64Z"/><path class="cls-1" d="M155.48,285.39H144.76a17.73,17.73,0,0,1,6.42-18.85A16.56,16.56,0,0,1,169.8,266c6,3.86,8.85,11.21,7.29,19.31h-10.8c0-1.71.07-3.45,0-5.18-.17-3.36-2.47-5.65-5.49-5.6s-5.17,2.33-5.29,5.75C155.43,281.86,155.48,283.42,155.48,285.39Z"/><path class="cls-1" d="M243.34,285.4h-11c-.51-4.39,1.34-10.82-5.75-10.65-6.56.16-4.89,6.2-5.34,10.57H210.42c-.85-7.59.41-14.3,7-18.86,5.76-4,12-4.26,18-.62C242.63,270.23,244.16,277.17,243.34,285.4Z"/><path class="cls-1" d="M375.35,274.66v10.59H364.48V274.66Z"/><path class="cls-1" d="M397.35,285.37H386.52V274.65h10.83Z"/><path class="cls-1" d="M353.16,285.37H342.64v-10.7h10.52Z"/><text class="cls-2" transform="translate(47.86 599.66)"><tspan class="cls-3">G</tspan><tspan class="cls-4" x="44.77" y="0">en Est</tspan><tspan class="cls-5" x="215.81" y="0">r</tspan><tspan class="cls-6" x="237.96" y="0">a</tspan><tspan class="cls-7" x="270.84" y="0">t</tspan><tspan x="293.19" y="0">é</tspan><tspan class="cls-8" x="327.64" y="0">g</tspan><tspan x="365.68" y="0">i</tspan><tspan class="cls-7" x="381.77" y="0">c</tspan><tspan class="cls-9" x="412.17" y="0">o</tspan></text><circle class="cls-10" cx="272.5" cy="272.86" r="250"/></svg>