<svg id="Capa_1" data-name="Capa 1" xmlns="http://www.w3.org/2000/svg" viewBox="0 0 553.43 553.43"><defs><style>.cls-1{fill:aqua;}.cls-2{fill:none;stroke:aqua;stroke-miterlimit:10;stroke-width:22px;}</style></defs><path class="cls-1" d="M425.58,441H128c-11.83-3.9-15.59-12.34-15.54-24.38q.45-102,0-204c0-12.2,9-21.41,21.42-21.35,59.84.3,119.69.12,179.54.19a7.14,7.14,0,0,0,5.57-2.34q33-33.18,66.19-66.22c15.15-15,37.05-13.84,49.58,3,3,4,4.19,9.39,6.22,14.14v9c-1.79,9.56-7.39,16.72-14.25,23.2C421,177.72,415.53,183.44,410,189c-.63.64-1.18,1.35-2.12,2.42,5.13,0,9.7,0,14.26,0a19.22,19.22,0,0,1,11.78,4.29c3.73,2.85,5.41,7,7.1,11.09V425.6c-.66,1.53-1.27,3.08-2,4.6C436.33,436,431.31,439,425.58,441ZM402.37,229.93c-10.32,0-20.35-.1-30.38.09a7.91,7.91,0,0,0-4.94,2c-16.71,16.54-33.29,33.22-50,49.78a16.15,16.15,0,0,1-5.49,3.67c-16.95,6.37-34,12.55-50.95,18.85-3.09,1.15-6,1.58-8.62-.9s-2.06-5.27-1.07-8.31c5.72-17.62,11.3-35.29,17.07-52.9a18,18,0,0,1,3.49-5.58c1.87-2.23,4.05-4.19,6.3-6.48H204.47v170.2h197.9Zm-19.94-13.6.3.78q12,0,23.94,0c6.61,0,8.65,2,8.65,8.54V404.94c0,6.35-2.1,8.46-8.41,8.46q-103.57,0-207.14,0c-6.16,0-8.28-2.11-8.28-8.26q0-89.8,0-179.61c0-6.31,2.11-8.42,8.44-8.42,28.43,0,56.87-.1,85.3.1,4.21,0,7.27-1,10-4.21,2.45-2.95,5.38-5.5,8.61-8.73H134.53c-6.93,0-9.11,2.23-9.11,9.28V418.82c0,7.2,2.15,9.35,9.36,9.35H418.89c7.05,0,9.26-2.18,9.26-9.13V213.12c0-6.53-2.33-8.84-8.9-8.85-7.37,0-14.75-.05-22.12,0a5.53,5.53,0,0,0-3.44,1.07C389.84,208.93,386.16,212.67,382.43,216.33Zm-94,22c13.09,4.86,21.9,13.87,26.78,26.68l93-93.06-26.67-26.65Zm129.82-76.17c6.72-5.64,11.5-12.42,9.18-22a18.17,18.17,0,0,0-14.13-14.14c-9.58-2.32-16.36,2.45-21.94,9.11Zm-151.46,126,37-13.61c-.63-11.21-11.69-23.15-22.58-24.77-1.67-.25-2.19.42-2.64,1.89-1.61,5.3-3.36,10.55-5.06,15.81C271.36,274.16,269.22,280.79,266.82,288.2Z"/><path class="cls-1" d="M284.8,349c-8.52-.08-16-3.68-22.9-9.15a56,56,0,0,0-10.41-6c-3.78-1.82-5.7-5-4.52-8.36a6.24,6.24,0,0,1,8.81-3.78,66.31,66.31,0,0,1,12.81,7c5.25,3.82,10.23,7.63,17.21,7.33a21.83,21.83,0,0,0,13.08-5.28c4.83-3.9,9.78-7.48,15.95-9.16,10.27-2.79,19.61-.83,28.22,5.12,4.54,3.14,8.45,7.23,14.09,8.58a22.84,22.84,0,0,0,19.17-3.47c1.13-.79,2.21-1.68,3.39-2.4,3.14-1.91,6.47-1.37,8.58,1.3a6.21,6.21,0,0,1-.72,8.69c-7.7,6.71-16.55,10.14-26.95,9.48-9-.56-16.27-4.5-23-10.07-6.38-5.29-13.59-7.44-21.4-4-3.92,1.73-7.33,4.69-10.84,7.26A34.92,34.92,0,0,1,284.8,349Z"/><path class="cls-1" d="M223.53,328.14a6.29,6.29,0,0,1-6.38-6.19,6.4,6.4,0,1,1,12.8,0A6.27,6.27,0,0,1,223.53,328.14Z"/><path class="cls-1" d="M159.18,334.49a19.24,19.24,0,1,1,19.47-19.16A19.21,19.21,0,0,1,159.18,334.49Zm.26-12.91a6.33,6.33,0,1,0-6.35-6.38A6.64,6.64,0,0,0,159.44,321.58Z"/><path class="cls-1" d="M159.35,242.76c-4.06,0-8.11,0-12.17,0s-6.94-2.59-7-6.31S143,230,147.31,230q12.16-.06,24.33,0c4.18,0,6.94,2.59,7,6.3s-2.76,6.45-7.12,6.5C167.46,242.79,163.4,242.76,159.35,242.76Z"/><path class="cls-1" d="M159.67,255.6c4.06,0,8.11,0,12.17,0s6.84,2.76,6.79,6.49-2.75,6.25-6.67,6.28q-12.48.11-25,0c-4.09,0-6.85-2.77-6.8-6.49s2.76-6.22,6.68-6.29C151.13,255.54,155.4,255.6,159.67,255.6Z"/><path class="cls-1" d="M159.4,360.17c4.16,0,8.33-.06,12.49,0s6.82,2.8,6.74,6.54c-.07,3.58-2.78,6.2-6.72,6.23q-12.48.1-25,0c-4.08,0-6.83-2.8-6.75-6.53s2.78-6.17,6.73-6.24C151.08,360.11,155.24,360.17,159.4,360.17Z"/><path class="cls-1" d="M159.67,385.83c4.05,0,8.11-.05,12.16,0s6.85,2.77,6.8,6.49-2.75,6.26-6.66,6.29q-12.5.11-25,0c-4.09,0-6.85-2.77-6.8-6.48s2.82-6.26,7-6.31S155.5,385.83,159.67,385.83Z"/><circle class="cls-2" cx="276.71" cy="276.71" r="250"/></svg>