<svg id="Capa_1" data-name="Capa 1" xmlns="http://www.w3.org/2000/svg" viewBox="0 0 545 545"><defs><style>.cls-1{font-size:68.78px;fill:#1d1d1b;font-family:MyriadPro-Regular, Myriad Pro;}.cls-2{letter-spacing:0em;}.cls-3{letter-spacing:0em;}.cls-4{letter-spacing:-0.01em;}.cls-5{fill:aqua;}.cls-6{fill:none;stroke:aqua;stroke-miterlimit:10;stroke-width:22px;}</style></defs><text class="cls-1" transform="translate(142.36 600.31)"><tspan class="cls-2">G</tspan><tspan class="cls-3" x="44.77" y="0">en </tspan><tspan class="cls-4" x="131.98" y="0">r</tspan><tspan x="153.78" y="0">eal</tspan></text><path class="cls-5" d="M120.09,372.32V233.82a19.62,19.62,0,0,1,.07-3.52,5.28,5.28,0,0,1,5.32-4.7,5.45,5.45,0,0,1,5.8,4.55,22.94,22.94,0,0,1,.09,3.52V372.32H235.19c7.94,0,9,1,9.08,8.79,0,.69.06,1.38.1,2.28h56.35c0-1.35,0-2.61,0-3.87,0-5.43,1.75-7.19,7.12-7.19H413.61v-4.08q0-28.74,0-57.49c0-3.29,1.45-5.41,4.67-6.08a5.53,5.53,0,0,1,6.38,3.78,13.47,13.47,0,0,1,.23,3.49q0,28.05,0,56.09v4.29c3.69,0,7.17,0,10.65,0,4.23.06,6.25,2.05,6.27,6.28.05,7.64.08,15.28,0,22.93-.16,14.6-12.72,27.14-27.4,27.19-28.11.08-56.22,0-84.32,0-4.48,0-6.86-2.07-6.78-5.78.08-3.52,2.43-5.49,6.71-5.49h81.14c12.59,0,19.38-6.8,19.39-19.37,0-4.69,0-9.37,0-14.27H312c0,1.59,0,3.08,0,4.57-.07,4.47-2,6.47-6.44,6.48-12.46,0-24.93,0-37.4,0H240.65c-6.07,0-7.64-1.58-7.67-7.72v-3.34H114.85c0,6.63-.65,13.25.16,19.68,1,8.27,7.81,13.54,16.17,13.94,1.17.06,2.35,0,3.53,0h169a29.51,29.51,0,0,1,3.52,0,5.65,5.65,0,0,1-.08,11.17,22.06,22.06,0,0,1-2.82.05H132.16c-16.9,0-29-12.18-29-29.16,0-6.94,0-13.87,0-20.81,0-4.47,2-6.4,6.45-6.45C113,372.3,116.37,372.32,120.09,372.32Z"/><path class="cls-5" d="M180.52,222c2.79,10.39,5.5,20.21,8.07,30.06,3,11.32-3.4,21.78-14.52,24.06-10.35,2.12-20.25-5.07-22.23-16.08-2.38-13.25-4.83-26.49-7.12-39-5.78-1.52-11.47-2.24-16.47-4.48-14.72-6.59-22.19-22.46-18.66-38.25a33.85,33.85,0,0,1,33-26.1c14.21,0,28.42.25,42.45-2.78a131.11,131.11,0,0,0,41.09-16.92,5.69,5.69,0,0,0,2-2.67c3.23-8.22,11.12-12.9,19.27-11.33,8.31,1.6,13.8,8.54,13.82,17.47,0,3.41.06,6.82,0,10.22-.07,3.63-2.23,5.92-5.51,6-3.45.07-5.68-2.25-5.74-6.09-.06-3.29,0-6.58,0-9.87-.09-3.86-2.32-6.46-5.5-6.56s-5.76,2.59-5.76,6.63q0,49.71,0,99.43c0,4.06,2.38,6.76,5.67,6.73s5.58-2.73,5.59-6.81q0-32.79,0-65.58c0-4.06,1.92-6.38,5.28-6.56,3.71-.2,6,2.23,6,6.55q0,28,0,56.06c0,3.64,0,7.29,0,10.93a17,17,0,0,1-13.68,16.53c-7.72,1.6-15.64-2.81-19-10.17a12.11,12.11,0,0,0-4.41-4.95,122.37,122.37,0,0,0-41.36-16.15C182.19,222.22,181.64,222.17,180.52,222Zm-15.05-58.49v45.1a136.52,136.52,0,0,1,61.65,18.23V145.25A136.32,136.32,0,0,1,165.47,163.53Zm-11.66,0c-4.26,0-8.14-.18-12,0-11.63.66-20.35,9.11-21.63,20.78-1.09,9.94,5.69,20.42,15.88,23,5.66,1.43,11.72,1.22,17.75,1.77Zm2.42,56.63c2.31,12.76,4.56,25.33,6.88,37.89.89,4.81,4.7,7.35,9.26,6.33,4.06-.91,6.28-5.08,5.07-9.67q-3.33-12.57-6.75-25.11C167.83,219.17,167.81,219.18,156.23,220.17Z"/><path class="cls-5" d="M365.07,214.47c-5.34-.38-7.45-1.8-7.88-5s1.72-6.31,5-6.41c6-.18,12-.15,18,0,3.09.07,5.12,2.31,5.17,5.54q.13,8.47,0,16.93a5.42,5.42,0,0,1-5.45,5.68c-3.33.08-5.59-2.15-5.8-5.71-.05-.89-.09-1.78-.16-3.16-1.22,1-2.11,1.74-2.94,2.5q-26.89,24.42-53.74,48.89a9.53,9.53,0,0,1-6.95,2.68q-30.69-.14-61.38,0a12.54,12.54,0,0,0-5.63,1.43C224.51,288,205.8,298.3,187,308.41a16.58,16.58,0,0,1-7,1.74c-6.23.24-12.46.09-18.7.08-4.91,0-7.31-1.81-7.36-5.55s2.43-6.2,7.17-5.63c13.71,1.64,25.56-2.41,37.16-9.54,13.38-8.22,27.48-15.28,41.36-22.69a14.86,14.86,0,0,1,6.64-1.65c20.11-.13,40.22,0,60.33-.14a7.6,7.6,0,0,0,4.7-1.55q26.35-23.7,52.52-47.62C364.16,215.56,364.43,215.2,365.07,214.47Z"/><path class="cls-5" d="M391,304.59q0,24.5,0,49c0,5.8-1.68,7.44-7.58,7.45-6.58,0-13.16,0-19.74,0-4.49,0-6.52-2-6.52-6.37q0-50.06,0-100.1c0-4.41,2-6.36,6.51-6.38q10.4,0,20.8,0c4.62,0,6.52,2,6.53,6.72Q391,279.73,391,304.59Zm-11.52,45V259.72H368.62v89.86Z"/><path class="cls-5" d="M338.79,180.44q28.75,0,57.49,0c16.27,0,28.58,12.27,28.6,28.49q0,39,0,77.93c0,2.74-.76,5.2-3.44,5.86-1.81.44-4.47.19-5.76-.9s-2-3.66-2-5.57c-.13-25-.08-50.08-.09-75.12,0-12.61-6.78-19.41-19.34-19.41q-57.31,0-114.63,0c-2.91,0-5.39-.48-6.7-3.41-1.78-4,1.06-7.87,5.9-7.89,12.46,0,24.92,0,37.38,0Z"/><path class="cls-5" d="M255.56,324.36q0-15,0-29.95c0-4.87,1.91-6.72,6.86-6.74q10,0,20.09,0c5,0,6.89,1.87,6.89,6.71q0,30,0,59.9c0,4.85-1.93,6.73-6.86,6.74q-10.05,0-20.09,0c-5.08,0-6.89-1.86-6.9-7.06Q255.55,339.16,255.56,324.36ZM267,349.5h10.87V299.13H267Z"/><path class="cls-5" d="M306.36,330q0-12.15,0-24.31c0-4.87,1.9-6.73,6.85-6.74q10.21,0,20.44,0c4.63,0,6.55,2,6.56,6.69q0,24.32,0,48.62c0,4.86-1.93,6.74-6.86,6.75q-10,0-20.09,0c-5.09,0-6.9-1.86-6.9-7C306.35,346,306.36,338,306.36,330Zm22.34,19.58V310.52H317.83v39.07Z"/><path class="cls-5" d="M227.34,321.68H216v3.91c0,9.87,0,19.74,0,29.6,0,3.58-2.34,5.85-5.64,5.83a5.35,5.35,0,0,1-5.58-5.53q-.1-19.92,0-39.83a5.12,5.12,0,0,1,5.33-5.37c7.75-.11,15.51-.13,23.26,0a4.89,4.89,0,0,1,5.16,5.15q.18,20.09,0,40.17a5.6,5.6,0,0,1-11.2-.23c-.08-9.87,0-19.73,0-29.6Z"/><path class="cls-5" d="M154,341.28c0-4.46,0-8.92,0-13.38,0-4.28,2-6.33,6.16-6.35q10.76-.09,21.49,0c4.18,0,6.17,2.07,6.18,6.34q.06,13.38,0,26.76c0,4.39-2,6.35-6.52,6.37q-10.4,0-20.78,0c-4.62,0-6.51-2-6.54-6.71C153.94,350,154,345.63,154,341.28Zm22.42-8.21H165.52v16.49h10.86Z"/><path class="cls-5" d="M290.09,169.15c-3.44,0-5.36-1.49-6.18-4.26a5.47,5.47,0,0,1,3.64-6.77c5.28-1.91,10.65-3.57,16-5.34,5.56-1.85,11.1-3.73,16.66-5.54,4.18-1.37,7.37-.19,8.5,3s-.59,6.29-4.7,7.67c-10.64,3.6-21.3,7.12-32,10.67C291.26,168.88,290.46,169.05,290.09,169.15Z"/><path class="cls-5" d="M329,218.55c-.09,5.29-3.52,8-7.35,6.81-11.38-3.63-22.69-7.44-34-11.32A5.59,5.59,0,0,1,284,207a5.67,5.67,0,0,1,7.34-3.73c11.35,3.68,22.7,7.4,33.93,11.45C327,215.34,328.21,217.75,329,218.55Z"/><path class="cls-5" d="M283,147.14c-1.41-1.32-3.54-2.54-4.44-4.36-1.25-2.54-.11-5,2.23-6.76l14.94-11.18c2.35-1.76,4.65-3.57,7.06-5.24,2.91-2,6.23-1.58,8.15.94a5.63,5.63,0,0,1-1.25,8.11c-7.45,5.72-15,11.32-22.54,16.88C286.21,146.19,285,146.38,283,147.14Z"/><path class="cls-5" d="M306.9,254.55a35.44,35.44,0,0,1-4.52-2.28q-10.77-7.94-21.42-16c-3.07-2.32-3.74-5.58-1.86-8.28s5.44-3.25,8.66-.87c7.28,5.36,14.5,10.79,21.71,16.22,2.31,1.74,3.44,4.25,2.1,6.78C310.61,251.91,308.49,253.09,306.9,254.55Z"/><path class="cls-5" d="M137.12,394.91a5.63,5.63,0,1,1-5.74,5.34A5.51,5.51,0,0,1,137.12,394.91Z"/><path class="cls-5" d="M165.23,400.5a5.64,5.64,0,1,1-5.5-5.59A5.51,5.51,0,0,1,165.23,400.5Z"/><path class="cls-5" d="M391,400.6a5.64,5.64,0,1,1-5.4-5.69A5.53,5.53,0,0,1,391,400.6Z"/><path class="cls-5" d="M413.6,400.37a5.64,5.64,0,1,1-5.63-5.46A5.52,5.52,0,0,1,413.6,400.37Z"/><circle class="cls-6" cx="272.5" cy="272.5" r="250"/></svg>