<svg id="Capa_1" data-name="Capa 1" xmlns="http://www.w3.org/2000/svg" xmlns:xlink="http://www.w3.org/1999/xlink" viewBox="0 0 563.71 563.71"><defs><style>.cls-1{fill:#fff;}.cls-2{fill:url(#Degradado_sin_nombre_4);}.cls-3{fill:url(#Degradado_sin_nombre_4-2);}.cls-4{fill:url(#Degradado_sin_nombre_4-3);}.cls-5{fill:url(#Degradado_sin_nombre_4-4);}.cls-6{fill:url(#Degradado_sin_nombre_4-5);}</style><linearGradient id="Degradado_sin_nombre_4" x1="134.72" y1="193.86" x2="428.87" y2="193.86" gradientUnits="userSpaceOnUse"><stop offset="0" stop-color="#004b87"/><stop offset="1" stop-color="#003462"/></linearGradient><linearGradient id="Degradado_sin_nombre_4-2" x1="129.86" y1="341.92" x2="433.86" y2="341.92" xlink:href="#Degradado_sin_nombre_4"/><linearGradient id="Degradado_sin_nombre_4-3" x1="247.33" y1="173.72" x2="316.91" y2="173.72" xlink:href="#Degradado_sin_nombre_4"/><linearGradient id="Degradado_sin_nombre_4-4" x1="159.76" y1="218.22" x2="208.35" y2="218.22" xlink:href="#Degradado_sin_nombre_4"/><linearGradient id="Degradado_sin_nombre_4-5" x1="355.13" y1="218.17" x2="403.96" y2="218.17" xlink:href="#Degradado_sin_nombre_4"/></defs><circle class="cls-1" cx="281.86" cy="281.86" r="250"/><path class="cls-2" d="M327.54,121.61c4.89,1.61,9.51,3.64,12.8,7.88a20.7,20.7,0,0,1,4.75,12.92q0,14.72,0,29.42v3.74H409.8c12.11,0,19.05,6.92,19.06,19q0,19.88,0,39.74c0,11.64-7.07,18.67-18.7,18.71-4.59,0-9.66-1.14-13.62.46s-6.79,5.93-10.09,9.1c-4.87,4.7-9,4.72-13.82.05-3.28-3.19-6.1-7.52-10-9.16s-8.83-.44-13.31-.45c-12.3,0-19.15-6.87-19.16-19.17v-14c-9.14,0-18.05-.09-26.95.1-1.33,0-2.89,1.16-3.91,2.21-3.25,3.37-6.29,7-9.44,10.44-4.69,5.17-10.81,5.14-15.41-.06-2.84-3.2-5.75-6.34-8.45-9.65a8,8,0,0,0-7.07-3.1c-4.9.17-9.81.12-14.71,0-3.42-.07-6.83-.38-10.75-.61,0,2.43,0,5.17,0,7.91a104.76,104.76,0,0,1-.32,10.93c-1.08,8.8-7.93,14.76-16.84,14.92-4.38.08-8.77-.12-13.14.09a7.1,7.1,0,0,0-4.05,1.68c-3,2.61-5.68,5.52-8.55,8.25-4.37,4.16-8.59,4.16-12.89,0-2.62-2.53-5.26-5.07-7.72-7.76a6.6,6.6,0,0,0-5.46-2.3c-5.2.07-10.49.35-15.59-.41-8.6-1.28-14.08-8.18-14.11-16.86q-.06-21.12,0-42.24c0-10.6,7.24-17.82,17.93-17.85q31.14-.06,62.28,0h4.1v-3.65q0-13.29,0-26.59c0-12.52,4.78-19.14,16.71-23.27.16,0,.25-.3.37-.45h29.43c1.81,1.81,3.42,3.77,2.27,6.52s-3.69,2.92-6.32,2.89c-6.57-.08-13.14-.05-19.71,0-8.3,0-13.21,5-13.22,13.23q0,26.29,0,52.57c0,8.69,4.75,13.47,13.54,13.54,5.52,0,11.06.22,16.58,0a17,17,0,0,1,14.95,6.86c2.66,3.31,5.58,6.4,8.49,9.71,3.37-3.77,6.59-7.32,9.75-10.93a15.38,15.38,0,0,1,12.36-5.61q9.08.13,18.15,0c8.49-.11,13.29-5,13.29-13.53q0-26.13,0-52.26c0-8.61-4.93-13.54-13.58-13.55-11.68,0-23.37-.05-35.05,0-2.69,0-5.07-.28-6.12-3.16s.61-4.72,2.77-6.25ZM184.27,256.68c3-3.32,5.63-6.15,8.2-9a12.9,12.9,0,0,1,10.31-4.32c4.28.06,8.56.08,12.83,0,5.51-.13,8.06-2.71,8.1-8.12q.06-10.78,0-21.59a5.39,5.39,0,0,0-.75-2.9A23.13,23.13,0,0,1,219,196.52c.09-3.62,0-7.25,0-11a20.43,20.43,0,0,0-2.15-.27q-32.4,0-64.78,0c-5,0-7.8,2.83-7.84,8.1q-.12,20.81,0,41.62c0,5.53,2.78,8.2,8.32,8.32,4.06.09,8.14.13,12.2,0a13.75,13.75,0,0,1,11.41,4.71C178.62,250.77,181.16,253.36,184.27,256.68Zm195.57,0c3-3.34,5.65-6.28,8.3-9.19a12.43,12.43,0,0,1,9.77-4.09c4.17,0,8.34,0,12.52,0,6.21-.07,8.7-2.56,8.72-8.77q0-20.18,0-40.35c0-6.64-2.37-9-9.1-9H348.42c-1,0-2,.11-3.29.19,0,4.17-.08,8.11,0,12.05a22,22,0,0,1-4.3,13.74,5.84,5.84,0,0,0-1,3.13q-.13,10.32,0,20.64c.06,5.66,2.6,8.19,8.25,8.31,4.17.09,8.35.1,12.51,0a13.43,13.43,0,0,1,10.87,4.5C373.93,250.61,376.58,253.25,379.84,256.65Z"/><path class="cls-3" d="M153,335.92c6.68-6.9,14.35-11.12,22.64-14.5,7.08-2.89,12.18-8,14.18-15.59,1.58-6-1.19-10-7.36-10.87-5.89-.85-11.36.52-16.62,3.1-1.19.58-2.77,1.51-3.74,1.14-1.65-.62-3.75-1.92-4.17-3.37s.47-4.31,1.68-5c9.16-5.29,18.95-7.89,29.25-3.76,3,1.21,5.68,3.76,8,6.19a4.66,4.66,0,0,0,4.1,1.83c14.88-.57,25.56,9.41,26.42,24.34a48,48,0,0,1-6.33,26.34c-.76,1.38-2.25,2.34-3.32,3.57a8.24,8.24,0,0,0-1.64,2.41,57.94,57.94,0,0,1-12.8,20.18,6.35,6.35,0,0,0-1.58,3.74c-.22,3.21,0,6.46-.11,9.69-.06,1.68.38,2.63,2.08,3.27,4.95,1.89,9.8,4.08,14.77,5.92a4.61,4.61,0,0,0,3.39-.68c3-1.78,5.71-4.23,8.88-5.64,8.84-3.93,17.8-7.6,26.82-11.08,2.75-1.06,3.59-2.46,3.41-5.26-.25-3.84.07-7.72-.14-11.57a7.23,7.23,0,0,0-1.63-3.73c-1.74-2.2-3.83-4.13-5.58-6.32-2.07-2.6-1.82-5.45.41-7.19s4.93-1.37,7,1.33c3.8,4.87,8.26,8.86,14.3,10.65,9.89,2.95,19.83-.8,27.09-10.36,7.43-9.8,10.49-21.17,11.14-33.24.09-1.65-1.22-3.66-2.43-5-2.85-3.24-6-6.21-9.1-9.26a3.25,3.25,0,0,0-1.46-.88c-4-.86-8-1.65-12.48-2.56-4.06,5.47-9.93,9.84-17.49,10.76-4.47.55-8.21,1.56-11.51,4.76-1.66,1.61-4.15,2.33-6.25,3.49-1.73.94-2.58,2.2-2.06,4.35.68,2.82,1.14,5.71,1.56,8.59.46,3.23-.9,5.37-3.61,6a4.85,4.85,0,0,1-5.64-4.18,19.24,19.24,0,0,0-7.13-13c-4.71-3.89-5.9-9.89-6.1-15.88a25.26,25.26,0,0,0-2.64-11.25c-6.55-12.66.06-28,13.63-32.39a6.44,6.44,0,0,0,4.15-3.61,17.69,17.69,0,0,1,24.66-7.16,4.47,4.47,0,0,0,4.51.36c8.84-3.58,18.43-.75,24.29,6.91.56.74,1.08,1.51,1.15,1.61,4.63,0,8.85-.68,12.76.14,8,1.67,13.31,8.85,13.17,17.12A4.8,4.8,0,0,0,328,275c6.26,4.17,8.78,11.75,6.61,19.29-2.09,7.27-4.87,14.18-10.66,19.46a4.8,4.8,0,0,0-1,2.78c-1.28,10-3.76,19.68-9.14,28.29-2.57,4.11-6,7.66-9,11.55a7.3,7.3,0,0,0-1.65,3.68c-.2,4.48-.14,9,0,13.46,0,.87.46,2.25,1.09,2.52,7.9,3.39,15.88,6.62,24.25,10.05.08-1.52.17-2.61.18-3.7.05-16,0-31.93.18-47.89.14-9.41,3.42-17.92,8.66-25.68,1.81-2.67,4.38-3.31,6.71-1.84s3,4.37,1.18,7.11c-5.41,8.09-7.41,17-7.28,26.66.2,15.75,0,31.51.06,47.26A6.48,6.48,0,0,0,346.9,394c4.33-1.78,8.63-3.64,13-5.3,1.64-.63,2-1.53,2.16-3.23a14.17,14.17,0,0,0-3.62-11,51,51,0,0,1-12.29-30.14c-.32-4.74.92-6.47,5.45-7.51,3.34-.77,6.72-1.4,10-2.3,12.35-3.34,20.45-11.17,24.2-23.4,1.87-6.11,4.26-7.19,9.84-4,10.12,5.73,15.13,14.9,17,26,2.77,16.71-2.69,31-13.42,43.57-2.92,3.41-1.27,7.1-1.54,10.69,0,.26.48.7.82.84,7.47,3.09,15,6.15,22.71,9.33.07-1.22.16-2,.16-2.82,0-18.78.07-37.56,0-56.34-.1-20.06-12.81-36.46-31.95-41.12a40.63,40.63,0,0,0-27.16,2.63c-1.29.6-3,1.54-4.06,1.12a7.84,7.84,0,0,1-4.13-3.6,4,4,0,0,1,2.6-5.33c5.16-1.86,10.33-4.16,15.69-4.94a50.7,50.7,0,0,1,56.75,37.66,51.88,51.88,0,0,1,1.64,12.65c.17,21.91.06,43.82.12,65.72a24.53,24.53,0,0,0,1,4.79c.64,3,1.61,6.05,1.83,9.12.32,4.36.15,8.76.07,13.14-.15,7.63-4.57,11.93-12.2,11.93H142c-6.93,0-11.58-3.84-11.93-10.51a129.39,129.39,0,0,1,.2-17.5c.67-8,5.13-13.48,12.43-16.6q10.49-4.49,21.08-8.66c1.86-.73,2.32-1.78,2.45-3.7.5-7.14.1-13.72-6.19-18.75-2.09-1.66-3.19-4.58-4.7-6.95-2.51-3.9-4-8.2-7.25-12s-4.15-9.6-5.37-14.7a42.05,42.05,0,0,1,.6-21.33c1-3.48,3.25-5.13,6-4.42s4.06,3.31,3.21,6.76C150.75,321.05,151.1,328.24,153,335.92Zm89.78-28c3.33-2,6.5-3.7,9.52-5.67,1.42-.92,3.11-2.05,3.72-3.48,1.37-3.21,3.56-4.06,6.71-3.65a19.46,19.46,0,0,0,5.26.3c7-1,11.77-4.85,14.48-11.37,1.95-4.7,5.63-5.39,8.86-1.65s6.83,5.12,11.66,4c3.52-.83,5,.38,6.5,3.72a20.4,20.4,0,0,0,3.86,5.91c2.32,2.32,5.12,4.16,8.09,6.5,1.37-3.69,3-7.3,4-11.07,1.31-4.68-1.13-8.55-5.74-9.88-5.17-1.49-6-3.08-4.24-8.1a8.4,8.4,0,0,0-3.19-10.16c-3.32-2.2-7.17-1.82-10.33,1-4.44,4-7.76,3-9.21-2.62-2.21-8.58-10.4-11.72-17.76-6.8-3.31,2.22-5.13,2.05-7.93-.72-5.25-5.18-12.71-3.19-14.43,4-.77,3.2-2.32,4.64-5.65,5.08-11,1.45-16.4,12.92-10.21,21.68a12.12,12.12,0,0,1,2.41,8.38,22.13,22.13,0,0,0,0,4.07C239.75,301.27,240,305.28,242.82,307.89Zm113.1,37.6c1.44,10.61,7,21.4,14.13,27.7,7.28,6.46,12.76,6.56,19.57-.35,10.3-10.44,15.94-22.77,13.68-37.81-1-6.81-3.56-12.92-9.35-17.66C386.72,334.28,373.67,343,355.92,345.49ZM152,404c7,9.4,13.79,18.5,20.67,27.51a4.13,4.13,0,0,0,2.9,1.2c5.52.11,11,.18,16.55,0a6.45,6.45,0,0,0,4.15-1.9c5.44-6,10.78-12.15,15.92-18.44,1.85-2.26,3-5.07,4.72-7.94-6.44-2.68-12-5-17.56-7.21a3.6,3.6,0,0,0-2.78.5c-8.43,5.32-16.79,5.29-25.22,0a3.6,3.6,0,0,0-2.77-.47C163.14,399.27,157.8,401.54,152,404Zm35.43-77.73c-4,1.87-8.48,3.59-12.57,6-4.9,2.88-9.5,6.27-14.1,9.63a3.6,3.6,0,0,0-1,3.11c2.66,9.74,7.82,17.9,16.13,23.8,5.77,4.09,10.6,4,16.4-.16,7.44-5.35,12.14-12.69,15.28-21.22,1-2.74.75-4.51-1.62-6.34C199.63,336.17,193.46,331.1,187.4,326.23ZM289.91,432.59a94.06,94.06,0,0,1,17.6-44.72,69.91,69.91,0,0,0-6.55-2.66,3.88,3.88,0,0,0-3,.47c-10.33,7.19-21.66,7.21-32,0a3.29,3.29,0,0,0-2.38-.68c-2.4.81-4.71,1.89-7.27,2.95a94.39,94.39,0,0,1,17.45,44.64Zm49.14,0c0-7.82.14-15.42,0-23-.14-6.05-3.5-10.09-8.92-12.45-3.62-1.57-7.36-2.89-10.94-4.55-1.9-.88-3.12-.61-4.1,1.17-3.4,6.18-7.36,12.13-10.06,18.61-2.64,6.33-4,13.2-6,20.22Zm-75.27,0c-.22-11.13-8.34-31.7-15.69-39.54a2.92,2.92,0,0,0-2.57-.63c-4.37,1.67-8.72,3.4-13,5.37s-7.27,5.72-7.53,10.4c-.45,8.06-.12,16.17-.12,24.4ZM397.46,398c-.44,12.25-1.42,23.91-7.87,34.72,11.14,0,21.73,0,32.32,0,1.86,0,2.17-1.15,2.16-2.7,0-4.78,0-9.57-.06-14.36-.07-3.72-1.77-6.9-5-8.44C412.08,404,405,401.17,397.46,398Zm-9.64-12.4c-5.72,2.78-10.95,2.37-16.45,0,.65,15.52-1.21,30.88,8.35,44.57C389.3,416.43,387.5,401.12,387.82,385.6Zm-25.89,12.51c-4.39,1.81-8.43,3.39-12.38,5.19a3,3,0,0,0-1.29,2.3c.09,7.79.32,15.58.5,23.37,0,1.2,0,2.4,0,3.56h21C363.41,421.85,362.42,410.29,361.93,398.11Zm-146.76-62c2.73-7.48,4.35-14.9,1.1-22.53-2.63-6.16-7.59-9.38-13.6-9.13-1.93.08-2.84.79-3.4,2.77a52.9,52.9,0,0,1-3.66,9.21c-.79,1.57-.87,2.65.27,3.88a34.14,34.14,0,0,0,3.63,3.86C204.58,328.12,209.75,332,215.17,336.08Zm55.34,27.5c0,4.43-.09,8.27.07,12.11a4,4,0,0,0,1.45,2.5c5.44,4.41,14.58,4.36,20.05-.06.55-.43,1.32-1.06,1.34-1.62.11-4.19.06-8.39.06-13.06C285.61,366.3,278.25,366.08,270.51,363.58ZM143.26,408.25a10,10,0,0,0-3.63,7.84c0,4.58.06,9.17,0,13.75-.05,2.17.79,3,2.94,2.92,5.51-.1,11,0,16.55-.05a14.47,14.47,0,0,0,2.19-.36c-5.89-7.89-11.55-15.48-17.2-23.07Zm32.62-28.62v5c0,5.09,1.2,6.9,6.18,7.24,2.74.18,5.63-.88,8.34-1.73a3.48,3.48,0,0,0,1.7-2.59c.24-2.45.08-4.95.08-7.81C186.71,381.66,181.51,382,175.88,379.63Zm31.56,52.86H215V423.7Z"/><path class="cls-4" d="M316.91,165.82c0,6.56-2.74,12.09-6.67,17.1-6.69,8.53-15.37,14.61-24.91,19.45a7.62,7.62,0,0,1-5.93.28c-11.24-5.51-21.58-12.28-28.3-23.29-8.25-13.52-2.4-29.86,12.1-34.14a20,20,0,0,1,16,1.77c2.12,1.19,3.55,1.33,5.79.09C299.25,139.17,316.93,149.63,316.91,165.82ZM269.3,153.33c-5.52.68-10.18,4.11-11.85,9.15-1.73,5.19.1,9.66,3,13.78,5.25,7.42,12.63,12.3,20.48,16.54a3.31,3.31,0,0,0,2.78-.35c4.17-2.74,8.66-5.2,12.24-8.6A55.14,55.14,0,0,0,306,171.31c3.08-5.46,1.31-11.14-3.33-14.79-4.47-3.52-10.37-3.41-15.29.28-4.18,3.14-6.36,3-10.68,0C274.49,155.3,271.79,154.47,269.3,153.33Z"/><path class="cls-5" d="M176.64,197.36c4.34,2.43,9.91.69,15.65.22,10.93-.91,18.71,10.12,15.22,20.54-2.11,6.31-6.51,10.91-11.76,14.59-12.05,8.44-11.17,8.45-23.42.22a30,30,0,0,1-11-12.49C156.38,209.52,163.78,197.41,176.64,197.36Zm23,15.61c-1.45-1.92-2.45-3.86-4-5.12-2.07-1.68-4.62-1.37-6.64.26-3.37,2.7-6.43,2.65-9.86,0a5.87,5.87,0,0,0-8.52,1.29c-1.92,2.57-1.74,5.25-.23,7.89,3,5.16,7.73,8.33,12.71,11.19a2.91,2.91,0,0,0,2.51-.44,98.24,98.24,0,0,0,9.85-8.06C197.18,218.28,198.06,215.7,199.62,213Z"/><path class="cls-6" d="M355.13,214.55c-.07-12.65,11.77-20.38,22.43-15.86a5.57,5.57,0,0,0,3.88,0c6.33-2.58,12.85-1.49,17.62,3.19s6.43,11.35,3.33,17.45a42.3,42.3,0,0,1-8.2,10.82c-3.09,3-7,5.13-10.65,7.56a7.07,7.07,0,0,1-7.94.17c-5.86-3.25-11.37-6.93-15.64-12.21C357.08,222.1,355.27,218.1,355.13,214.55Zm9.5-1.05a3.2,3.2,0,0,0,.29,1.29c2.12,3,3.78,6.62,6.56,8.79,9,7,6.86,6.9,15.94-.17a26.4,26.4,0,0,0,6.18-7.67,5.55,5.55,0,0,0-1.55-7.31c-2.32-1.93-5-2.33-7.44-.41-3.61,2.87-6.74,2.54-10.41-.07C370.2,205.12,364.73,208.35,364.63,213.5Z"/></svg>