<svg id="Capa_1" data-name="Capa 1" xmlns="http://www.w3.org/2000/svg" viewBox="0 0 553.43 553.43"><defs><style>.cls-1{fill:aqua;}.cls-2{fill:none;stroke:aqua;stroke-miterlimit:10;stroke-width:22px;}</style></defs><path class="cls-1" d="M444.18,406.91c-4.92,14.65-16.34,19.7-30.47,19.81-31.35.24-62.7.07-94,.07H146.38c-8,0-15.53-1.52-22.09-6.34-6.2-4.55-9.68-10.58-9.5-18.47.07-3.1,0-6.2,0-9.3,0-7.7,5.53-13.25,13.22-13.27,14.93,0,29.86,0,44.79,0H176c-4.2-4.43-8.75-8.36-12.2-13.09-3.61-4.95-6.34-10.58-9.09-16.09-1.08-2.14-1.82-2.71-4.3-2.12-8.4,2-16.93,3.2-25.54,1.23-14.51-3.32-23.32-13-28.66-26.27-5.48-13.68-5.45-28-4.51-42.39a73.23,73.23,0,0,1,5.66-25c6.7-15.25,18.42-23,35-23,5.7,0,11.4.78,17.59,1.24,0-1.87,0-4.2,0-6.54.13-7.47,5.08-12.56,12.59-12.56q69.93-.08,139.87,0c7.75,0,12.36,5.1,12.38,13.39,0,20.67.08,41.34-.06,62,0,3.26.9,5,4.58,5.12,1-2,1.73-4.38,3.21-6.16,2-2.37,4.19-5.06,6.89-6.22,9.47-4.05,19.2-7.46,28.8-11.21a11.94,11.94,0,0,1,9.66.25l6.32,2.86c1.44-3,3.06-5.76,4.15-8.73A18.8,18.8,0,0,1,389,254.61c1-.42,1.84-2.16,1.93-3.35.44-5.94.28-11.94.94-17.85a20,20,0,0,1,11.42-16.52c7.32-3.66,14.2-2.13,19.2,4.4,5.28,6.89,7.59,15.08,9.84,23.26a30,30,0,0,1,.76,3.35,5.86,5.86,0,0,0,3.3,4.73c4.19,2.25,6.46,6,7.06,10.78a29.46,29.46,0,0,0,.69,2.92v22.05c-.18.28-.49.56-.51.85-1.23,16.55-7.53,31.23-16.4,45a4.17,4.17,0,0,0,0,3.37,12.35,12.35,0,0,1-1.31,13,82.8,82.8,0,0,1-30.1,26.64l-3.07,1.63c11.95.59,23.65.86,35.34.5,7.69-.24,13,2.52,16,9.67ZM162.23,227c-.07,1.2-.15,2-.15,2.79q0,48.22,0,96.45a62,62,0,0,0,.89,10.26c3.94,23.19,25.3,42.27,48.2,42.77,14.12.31,28.26.44,42.36-.05,12.84-.44,23.88-5.74,33.2-14.66a6.34,6.34,0,0,0-.77-.92c-10.86-8.2-19.48-18.4-26.58-29.94-2.48-4-3.64-8.43-1.68-12.77,1.38-3.05.54-5.28-.41-8.05-2.6-7.66-5.43-15.33-7-23.23-2.05-10.2,3.44-17.29,13.66-19.4,6.56-1.36,12.15.8,16.68,5.22,4.25,4.16,7.85,9,11.85,13.38a4.18,4.18,0,0,0,3,1.39,65.66,65.66,0,0,0,7.26-1.61V227Zm270.2,164.45H135.93c-9.33,0-9.18,0-9.33,9.38-.09,5.41,2.23,9.39,7,11.16a39.15,39.15,0,0,0,13.3,2.55q132.63.21,265.26.1c1.95,0,3.91,0,5.85-.18,9.59-.9,14.45-6.18,14.45-15.63Zm-109-51.1-.89.12q2.24,17,4.47,34c.27,2.05,1.12,3.35,3.38,3.59,3.4.35,6.78,1.13,10.19,1.29,14.49.65,28.13-3,41.25-8.78s24.84-13.3,33.37-25.14a4.17,4.17,0,0,0,.5-4.95A170.71,170.71,0,0,0,396,309.12C387.58,298.68,378,289.56,365.56,284a8,8,0,0,0-5.43-.17c-8,2.83-15.81,6-23.75,8.95a7.42,7.42,0,0,0-4.58,4.17C325.39,310.72,323.33,325.34,323.45,340.39Zm-10.3,23.66A143.07,143.07,0,0,1,315,309.19c.37-1.66.17-2.39-1.55-3.05a74.32,74.32,0,0,1-9-4.22,5.16,5.16,0,0,0-6.07.22l-27.26,19.75c-2.52,1.83-2.67,3.94-1,6.53A96,96,0,0,0,291,352.48,66.45,66.45,0,0,0,313.15,364.05Zm106.69-41c.62-.82,1-1.24,1.27-1.71,10.35-17.4,12.67-36.33,10.65-56.08-.23-2.25-1.68-3.23-3.81-3-11.29,1.09-22.58,2.16-33.84,3.51-1.38.16-3,1.69-3.74,3-2.15,4-3.89,8.25-5.87,12.58A136.22,136.22,0,0,1,419.84,323Zm-270,1.41c-4.88.77-9.58,1.68-14.33,2.21-5.95.65-10.94-1.51-14.24-6.5a30.78,30.78,0,0,1-4.29-9.27c-3.44-13.82-3-27.75.21-41.52,1.57-6.76,5.51-12,12.94-13.06a32.83,32.83,0,0,1,9.23.14c3.53.5,7,1.58,10.68,2.46,0-3.45.17-6.67-.11-9.85a3.61,3.61,0,0,0-2.2-2.62c-5.06-.88-10.18-2-15.27-2-12,.17-20.35,6.1-24.62,17.43-4.62,12.27-5.33,25.1-4.24,37.94A85.34,85.34,0,0,0,108,320.17c2.89,8.38,8.77,14.6,17.61,17,8.4,2.27,16.75.94,25.11-1.42Zm.2-31.91V280.85c0-8.64-2.22-11.17-11-12.49-1-.15-2-.32-3.06-.42-4.71-.48-6.79.44-7.35,5.06a227.72,227.72,0,0,0-1.6,24.9c0,4,1.21,8.09,2.16,12.07.8,3.42,2.95,5.41,6.75,4.65s7.78-1.67,11.68-2.49c1.9-.4,2.47-1.54,2.42-3.45C149.92,303.3,150,297.91,150,292.53Zm252.67-40.47,19.7-1.75c-2.94-7.25-5.24-13.84-8.26-20.07-2.11-4.33-5.2-4.36-8.21-.49a11,11,0,0,0-2.23,5.28C403.13,240.49,403,246,402.67,252.06ZM267.56,309.15c6.09-4.5,11.1-8.19,16.18-11.92-2-2.57-3.79-5-5.76-7.21-2.12-2.38-4.12-5.15-6.79-6.66-2-1.12-5.09-1.06-7.36-.39-1,.29-1.91,3.57-1.56,5.23C263.69,295,265.6,301.61,267.56,309.15Zm20.82,70h28.14c-1.19-1.05-1.64-1.7-2.25-1.94-5.08-2-10.17-4-15.3-5.87a2.85,2.85,0,0,0-2.4.39C293.82,374,291.21,376.53,288.38,379.12Z"/><path class="cls-1" d="M209.13,162.12c-.32,6.58-2.26,12.6-6.73,17.59-3,3.35-5,7-5.11,11.65a6,6,0,0,1-6.23,6c-3.41-.16-5.91-3-5.71-6.87A27,27,0,0,1,192,173.57c6.86-7.88,6.91-15.16.09-23A27.6,27.6,0,0,1,185.36,134c-.3-4,2-7.08,5.55-7.39s6.27,2.43,6.43,6.57a16,16,0,0,0,4.54,10.46A27.93,27.93,0,0,1,209.13,162.12Z"/><path class="cls-1" d="M244.35,162.12a26.57,26.57,0,0,1-6.68,17.6c-3.09,3.46-5,7.22-5.17,12a5.87,5.87,0,0,1-6.17,5.65c-3.25-.17-5.54-2.64-5.59-6.22a25.69,25.69,0,0,1,6.37-17.34c7.15-8.48,7.1-15.17-.14-23.8a25.54,25.54,0,0,1-6.23-16.7c0-3.9,2.41-6.68,5.83-6.71,3.23,0,5.86,2.57,6,6.27a17,17,0,0,0,4.83,11.06A26.88,26.88,0,0,1,244.35,162.12Z"/><path class="cls-1" d="M279.51,159.74c.07,9.22-2.26,15.21-6.79,20.25a18.43,18.43,0,0,0-5,11.73,5.84,5.84,0,0,1-11.67-.26c-.25-7,2.31-13,6.8-18.21,6.6-7.71,6.52-14.95-.16-22.72A25.56,25.56,0,0,1,256,132.62a6,6,0,0,1,5.8-6,5.9,5.9,0,0,1,5.87,5.6,19,19,0,0,0,5.16,12C277.57,149.52,279.51,155.14,279.51,159.74Z"/><circle class="cls-2" cx="276.71" cy="276.71" r="250"/></svg>