<svg id="Capa_1" data-name="Capa 1" xmlns="http://www.w3.org/2000/svg" xmlns:xlink="http://www.w3.org/1999/xlink" viewBox="0 0 568.86 568.86"><defs><style>.cls-1{fill:#fff;}.cls-2{fill:url(#Degradado_sin_nombre_4);}.cls-3{fill:url(#Degradado_sin_nombre_4-2);}.cls-4{fill:url(#Degradado_sin_nombre_4-3);}.cls-5{fill:url(#Degradado_sin_nombre_4-4);}.cls-6{fill:url(#Degradado_sin_nombre_4-5);}.cls-7{fill:url(#Degradado_sin_nombre_4-6);}.cls-8{fill:url(#Degradado_sin_nombre_4-7);}.cls-9{fill:url(#Degradado_sin_nombre_4-8);}</style><linearGradient id="Degradado_sin_nombre_4" x1="119.43" y1="300.9" x2="449.43" y2="300.9" gradientUnits="userSpaceOnUse"><stop offset="0" stop-color="#004b87"/><stop offset="1" stop-color="#003462"/></linearGradient><linearGradient id="Degradado_sin_nombre_4-2" x1="119.43" y1="212.79" x2="449.43" y2="212.79" xlink:href="#Degradado_sin_nombre_4"/><linearGradient id="Degradado_sin_nombre_4-3" x1="388.96" y1="234.84" x2="416.4" y2="234.84" xlink:href="#Degradado_sin_nombre_4"/><linearGradient id="Degradado_sin_nombre_4-4" x1="389.35" y1="207.48" x2="411" y2="207.48" xlink:href="#Degradado_sin_nombre_4"/><linearGradient id="Degradado_sin_nombre_4-5" x1="388.86" y1="262.08" x2="411.23" y2="262.08" xlink:href="#Degradado_sin_nombre_4"/><linearGradient id="Degradado_sin_nombre_4-6" x1="207.48" y1="243.66" x2="240.38" y2="243.66" xlink:href="#Degradado_sin_nombre_4"/><linearGradient id="Degradado_sin_nombre_4-7" x1="207.46" y1="223.83" x2="218.41" y2="223.83" xlink:href="#Degradado_sin_nombre_4"/><linearGradient id="Degradado_sin_nombre_4-8" x1="229.46" y1="223.83" x2="240.41" y2="223.83" xlink:href="#Degradado_sin_nombre_4"/></defs><circle class="cls-1" cx="284.43" cy="284.43" r="250"/><path class="cls-2" d="M159.13,427.68h154.6c.91,0,1.83,0,2.74,0,4,.09,6.48,2.25,6.43,5.59s-2.52,5.42-6.59,5.42H153.73c-5,0-7-2.28-6.74-7.31a27.68,27.68,0,0,1,25.93-25.69,22.11,22.11,0,0,1,4.81,0c13.72,2.53,22.46-7.31,32.59-13.37,7.77-4.66,13-11.91,16.15-20.41,1.2-3.18,1.86-6.56,2.9-10.34h-4.68q-38,0-76,0c-17.65,0-29.25-11.64-29.28-29.32,0-6.43,0-12.85,0-19.28,0-4,2.19-6.5,5.54-6.46s5.42,2.5,5.44,6.57c0,6.77,0,13.54,0,20.31.07,10.08,7,17.08,17.1,17.16,6.07,0,12.14,0,17.73,0-3.7-20.94-1.68-42-1.55-62.93.08-13.79,12.42-24.72,26.21-25.18,2-.07,4.08,0,6.57,0a8.52,8.52,0,0,0-.77-1.41,38.47,38.47,0,0,1-10.26-28.33,9.69,9.69,0,0,0-2.37-6.8c-9.63-12.42-11.59-26.13-5-40.38s18.19-21.76,33.72-22.15c18.21-.46,36.43-.13,54.65-.12,4.36,0,6.86,2,6.89,5.46s-2.5,5.54-6.81,5.54c-17.64,0-35.29,0-52.93,0-14.88.05-25.86,9.73-27.85,23.77,2.46-.55,5.14-1.62,7.85-1.66,14.74-.27,28.88-3.14,42.16-9.63,3.83-1.88,6.8-1.52,10.05,1.1A43.77,43.77,0,0,1,261,210.66c.24.88.44,1.78.69,2.66.05.19.23.34.75,1.06,0-7.34,0-14.13,0-20.92a17.9,17.9,0,0,1,.1-3.44c.56-3,2.42-4.73,5.46-4.69s5.26,1.86,5.29,4.83c.1,9.05.15,18.13-.45,27.15-.43,6.4-4,11.58-8.64,16a5.35,5.35,0,0,0-1.74,3.05A39.25,39.25,0,0,1,252,261.16a9.15,9.15,0,0,0-.71,1.35c11.24.36,18.07,7.8,25,14.94,4.38,4.52,8.53,9.26,12.73,13.84,4.33-4.22,7.81-7.5,11.13-10.94a4.47,4.47,0,0,0,.77-2.83c.06-6.31,0-12.63.07-18.94a2.92,2.92,0,0,0-2.18-3.25c-10.4-4.27-16-14.18-14-24.41,2.2-11.11,10.87-18.07,22.6-18.11,6.41,0,12.83,0,19.25,0,16.63.11,30.26-6.19,40.77-19.14,1.82-2.25,3.91-3.61,6.83-2.51s3.79,3.45,3.64,6.35c0,.8,0,1.61,0,2.41v59.57c0,4.25-.06,8.49,0,12.74.05,2.92-.82,5.25-3.71,6.31s-5-.33-6.82-2.58a49.3,49.3,0,0,0-29.19-18c-1.31-.27-2.65-.35-4.29-.56,0,4.9-.08,9.47.06,14a7.52,7.52,0,0,0,1.31,3.08c3.55,6.33,3,13.88-2,19.16-9.23,9.74-18.5,19.44-28.08,28.84-8.34,8.18-21.21,8-29.88.06-4.17-3.85-8.18-7.88-12.88-12.42v19.62c0,1.38.06,2.76,0,4.13-.2,3.3-2.36,5.56-5.33,5.64a5.43,5.43,0,0,1-5.6-5.69c-.11-7.69,0-15.38,0-23.07,0-4.36,0-8.72,0-13.09,0-2.67.93-5.14,3.56-5.56a8.71,8.71,0,0,1,6.12,1.51c2.48,1.95,4.31,4.73,6.7,7.49,2.75-3.64,4.86-6.45,7.22-9.6-5.35-5.07-10.49-10.29-16-15.05-3.55-3.06-8.12-3.37-12.92-2.9-.56,6.94-3.07,12.88-8.67,17.22A21.62,21.62,0,0,1,223,295.42c-11.37-.38-19.41-8.56-21.37-22.23-4.92.27-10,0-14.87.93a15.32,15.32,0,0,0-12.2,14.07c-.36,5.93-.08,11.89-.08,18.06h10.93c0-3.39,0-6.68,0-10,.06-3.84,2.13-6.22,5.36-6.3s5.6,2.38,5.61,6.39c0,10.55,0,21.1,0,32.16,5.6,0,11.05-.09,16.49,0A16.58,16.58,0,0,1,229.05,342c.49,2.63.08,5.43.08,8.38h82.8c0-4.84,0-9.73,0-14.61,0-5.4,1.82-7.19,7.23-7.21h14.76c0-3.21,0-6.16,0-9.1,0-4.89.74-5.94,5.5-7.74,0-4.93,0-10,0-15,0-4.75,2-6.7,6.67-6.73,6.64,0,13.29-.05,19.93,0,4.29,0,6.3,2.05,6.37,6.33.06,3.21,0,6.42,0,10.18h6.46c4.59,0,9.17,0,13.75,0,5.43,0,7.27,1.82,7.28,7.17q0,16.35,0,32.71v3.79c8.62,0,17.12.73,25.43-.21s13.05-8.09,13.06-16.88q0-58.71,0-117.41c0-5.68,1.68-8.26,5.42-8.32s5.57,2.6,5.57,8.17q0,58.2,0,116.39c0,18.14-11.51,29.68-29.61,29.68h-80c1.72,12.2,7,22,16.52,29.1,7.07,5.24,14.76,9.64,22.25,14.29a7.75,7.75,0,0,0,3.6.67c5.83.24,11.75-.2,17.47.71,12.17,1.94,21.28,12.45,22.2,24.7.41,5.41-1.63,7.66-7.06,7.66H341.24c-4.69,0-7.22-1.91-7.28-5.42s2.54-5.59,7.45-5.59h68c-1.27-5.8-7.09-10.38-13.64-10.94-1-.09-2.06-.08-3.09-.08H176.16C167.66,416.66,162,420.22,159.13,427.68Zm51.3-22.24H358.48c-17.54-10.1-27.38-24.48-29.86-43.75H240.24C237.76,381,227.92,395.32,210.43,405.44Zm-14-198.12c0,9.73-.16,19.12,0,28.5a27.5,27.5,0,0,0,25.06,26.49c13.91,1.21,27.2-8.31,29.07-22.14,1.13-8.3.66-16.93-.12-25.32-.57-6.25-4.14-11.62-8.85-15.89a4.39,4.39,0,0,0-3.79-.82A116.78,116.78,0,0,1,196.46,207.32ZM334,246.07a63.23,63.23,0,0,1,32.68,13.45V210.07A62.75,62.75,0,0,1,334,223.66Zm-159.6,71.59c0,7.12,0,14.07,0,21,0,7.25,4.55,11.81,11.75,11.85,8.46.05,16.92,0,25.38,0,4.3,0,6.86-2.13,6.82-5.52s-2.76-5.46-7-5.48c-6.28,0-12.57,0-18.86,0-5.33,0-7.13-1.86-7.15-7.27,0-4.87,0-9.74,0-14.59Zm101.92-9.57c2.18,2.19,4,4.22,6.05,6.08,5,4.54,11.12,4.42,15.95-.33,2.78-2.73,5.45-5.58,8.17-8.37,6.06-6.25,12.17-12.47,18.17-18.78,2.24-2.35,2.36-5.35.54-7.47s-4.37-2.39-6.85-1.21a11.1,11.1,0,0,0-2.86,2.42c-6.88,7.06-13.72,14.16-20.62,21.2-3.28,3.35-6.05,3.31-9.49.09-.8-.75-1.64-1.46-2.59-2.3Zm90.4,42.32V323.19H345.15v27.22Zm-44-126.54c-6,0-11.68-.21-17.37.06a10.78,10.78,0,0,0-9.95,10.47c-.21,5.58,3.87,10.87,9.43,11.27,5.89.42,11.83.1,17.89.1Zm-109.6,48.86A10.11,10.11,0,0,0,218.72,283a11,11,0,0,0,16.17-10.31Zm148,39.18V301.19H350.69v10.72Zm27.56,16.43V317.75H378.1v10.59Zm-55,22.14v-10.7h-10.5v10.7Zm44.45-10.79v10.59h10.6V339.69ZM312,268.25l10.68-2.45v-8.67H312Z"/><path class="cls-3" d="M284.45,130.17H419.5c18.56,0,29.92,11.4,29.92,30q0,14.46,0,28.92c0,4.59-2.06,7.18-5.57,7.13s-5.42-2.6-5.42-7.28c0-10.1,0-20.2,0-30.3,0-10.54-6.94-17.48-17.45-17.48H147.79c-10.43,0-17.34,7-17.34,17.59q0,63.16,0,126.34c0,1,0,2.06,0,3.09,0,4.64-2,7.21-5.5,7.21s-5.49-2.56-5.49-7.21q0-64.89,0-129.77c0-16.31,11.94-28.24,28.23-28.26Q216.08,130.12,284.45,130.17Z"/><path class="cls-4" d="M402.64,240.35c-2.64,0-5.28.08-7.91,0-3.5-.13-5.8-2.4-5.77-5.52s2.31-5.38,5.85-5.44c5.26-.09,10.54-.1,15.8,0,3.5.07,5.81,2.38,5.79,5.51s-2.35,5.33-5.86,5.45C407.91,240.42,405.27,240.35,402.64,240.35Z"/><path class="cls-5" d="M393.76,218.75c-1.3-1.06-3.37-2-4-3.44-.65-1.63-.66-4.45.35-5.63a135,135,0,0,1,12-12.15c2.23-2,4.95-1.61,7.07.54s2.46,4.71.56,6.82c-3.89,4.31-8.1,8.34-12.29,12.36C396.75,218,395.45,218.1,393.76,218.75Z"/><path class="cls-6" d="M411.23,268.48c-1,1.23-1.83,3.34-3.32,3.95s-4.44.71-5.62-.29a135.57,135.57,0,0,1-12.16-12.05c-1.93-2.11-1.55-4.75.41-6.85s4.48-2.78,6.48-1c4.59,4.08,8.81,8.59,13.09,13C410.68,265.83,410.71,266.93,411.23,268.48Z"/><path class="cls-7" d="M224.12,251.4a20.74,20.74,0,0,1-14.61-5.84c-2.47-2.39-2.67-5.3-.69-7.67s4.89-2.61,7.69-.72c6.23,4.19,8.65,4.19,14.86,0,2.76-1.87,5.78-1.58,7.7.73s1.74,5.32-.71,7.69A20.86,20.86,0,0,1,224.12,251.4Z"/><path class="cls-8" d="M212.81,229.31a5.49,5.49,0,1,1,5.6-5.37A5.53,5.53,0,0,1,212.81,229.31Z"/><path class="cls-9" d="M240.41,223.66a5.48,5.48,0,1,1-5.64-5.32A5.56,5.56,0,0,1,240.41,223.66Z"/></svg>