<svg id="Capa_1" data-name="Capa 1" xmlns="http://www.w3.org/2000/svg" viewBox="0 0 574 574"><defs><style>.cls-1{fill:aqua;}.cls-2{fill:none;stroke:aqua;stroke-miterlimit:10;stroke-width:22px;}</style></defs><path class="cls-1" d="M317.29,309.61c3.95,0,7.68-.06,11.41,0s6.21,2.46,6.2,6-2.41,5.89-6.24,5.94c-5.87.08-11.73,0-17.59,0-3.34,0-5.91-1.77-5.93-5,0-7.57-.6-15.43,1.14-22.67,4.15-17.31,15.66-27.81,33.18-31.51a12.75,12.75,0,0,0,1.44-.52c0-4.85.11-9.81-.1-14.76,0-.9-1.26-1.91-2.15-2.57-1.5-1.1-3.18-2-4.72-2.89-12.53,8.94-25,17.91-37.52,26.69-2.47,1.74-3.55,3.49-3.51,6.65.2,15.46.12,30.93.08,46.4a41.71,41.71,0,0,1-41.92,42.09q-29.94.07-59.88,0a41.7,41.7,0,0,1-41.89-41.74q-.07-42.11,0-84.21a41.68,41.68,0,0,1,41.55-41.69c11.6-.05,23.2,0,34.8,0,4.86,0,7.39,2,7.45,5.88s-2.53,6.08-7.62,6.08c-10.85,0-21.7,0-32.56,0-18.81.06-31.64,12.91-31.66,31.78q-.06,40,0,80.1c0,19,12.88,31.81,32,31.84q27.88,0,55.76,0c19.27,0,32-12.83,32-32.21,0-16.59.09-33.19-.06-49.78a8.77,8.77,0,0,1,4.24-8.06c8.05-5.55,15.93-11.35,23.67-17.74-6.8,0-13.6,0-20.4,0-5.36,0-7.11-1.66-7.5-7-1.19-16.23-12.7-27.73-28.88-28.88-4.84-.34-7.18-2.48-7-6.38.19-3.69,2.73-5.64,7.32-5.62,18.57.06,35.56,14.21,39.79,33,.24,1.06,1.31,2.75,2,2.76,9.81.18,19.62.12,30,.12-4.5-7.45-7.33-14.9-7.28-23.23.06-8.08,0-16.16,0-24.67H157.72c-13.14,0-20.42,7.24-20.42,20.32q0,75.22,0,150.45a31.06,31.06,0,0,1,0,3.74,6,6,0,0,1-11.85,0,27,27,0,0,1-.06-3.37q0-76,0-151.95c0-18.5,12.73-31.2,31.24-31.2H304.76c-6.26-5.5-10.42-11.41-11.24-18.83a110.47,110.47,0,0,1-.33-18.28c.2-3.41,3-4.85,6.48-4.82,9.23.06,18.46-.06,27.69.07a5.5,5.5,0,0,0,5.21-2.6,50.82,50.82,0,0,1,92,34.48c-.33,3.31-1.19,6.56-1.85,10.1,1.64.44,3.3.84,4.92,1.34a29.6,29.6,0,0,1,21,28.26q.06,11.6,0,23.2c0,4.44-2.24,7-6,7s-5.94-2.53-5.95-7c0-7.49.08-15,0-22.46-.17-10.6-7.73-18.15-18.38-18.28,0,3.52.55,7.15-.1,10.56-1.64,8.59-6.94,14.37-15,17.75-1,.42-2.32,1.72-2.32,2.62-.15,15.7-.11,31.41-.11,47.1,12.69,3.56,20.75,11.31,23.5,24.17a17.62,17.62,0,0,1,.42,3.69q.06,12.54,0,25.08c0,4.13-2.13,6.55-6,6.56q-32.94.09-65.87,0a5.73,5.73,0,0,1-6-6.21c.13-3.47,2.55-5.7,6.47-5.71q27.51,0,55,0h3.92c0-7.3.69-14.32-.17-21.15-1.12-8.77-8.31-14.62-17.17-14.72-16.21-.19-32.44-.36-48.65,0C327.69,274.24,315,290,317.29,309.61ZM329,178c0,10.77-.46,21.24.11,31.67.84,15.11,12.34,26.56,27.21,28,13.68,1.36,27.19-7.9,31-21.33a14.38,14.38,0,0,0,0-3.77,17.78,17.78,0,0,0-3.68,1.08c-9.06,4.92-18.1,5-27-.2-1.56-.92-3.34-2.81-3.51-4.41-.2-1.91.66-4.89,2.08-5.78a8.32,8.32,0,0,1,6.8-.44c4.36,2,8.47,2.92,13.33,1.17-5.65-8.53-5.95-17.07-1.59-26Zm59.81-12.11c0-3.6,0-6.7,0-9.8,0-9.46-4.75-14.16-14.29-14.16H305.2c-1.26,16.12,5.95,24,21.5,24h62.11ZM346.54,130h3.9c9,0,17.95-.05,26.93,0a23.7,23.7,0,0,1,23.4,23.33c.05,4.36,0,8.72,0,12.95l8.8,4.39c7-13.51,2-35.32-14.35-46.12C378.21,113.28,356.55,118.12,346.54,130ZM353.1,249.5v12h35.44v-24C378.35,247.09,366.66,250.82,353.1,249.5Zm42-71.6c-6.27-.22-12,5.25-12.22,11.66s5.23,12,11.67,12.22c6.24.24,12.05-5.31,12.23-11.67A12.27,12.27,0,0,0,395.07,177.9Z"/><path class="cls-1" d="M454.68,387.52H328.92c0,1.86,0,3.67,0,5.48-.1,4.07-2.2,6.39-6.16,6.39q-35.73.08-71.48,0c-4,0-6.06-2.31-6.17-6.39,0-1.71,0-3.44,0-5.36H118.9c.49,7.83.18,15.86,1.72,23.51s9.18,12.2,18.06,12.21q42.48,0,85,0c8.85,0,17.71,0,26.57,0,4.43,0,6.91,2.29,6.84,6.1-.06,3.61-2.54,5.85-6.72,5.85-38.17,0-76.35.09-114.52,0-14.89-.06-28.19-13.5-28.41-28.35-.13-8.24-.06-16.47,0-24.7,0-4.68,2.14-6.76,6.92-6.76q67.92,0,135.85,0c4.76,0,6.83,2.1,6.91,6.79,0,1.59,0,3.18,0,5H317c0-1.49,0-3.05,0-4.6,0-5.19,2-7.17,7.27-7.17H436.72V252.41a19.31,19.31,0,0,1,.09-3.73,5.6,5.6,0,0,1,5.68-4.93,5.76,5.76,0,0,1,6.11,4.88,24.5,24.5,0,0,1,.09,3.74V375.48c3.73,0,7.19,0,10.64,0,5.26,0,7.3,2,7.32,7.13,0,7.86.05,15.72,0,23.58-.14,15.76-13.41,29.12-29.18,29.13q-80.65.1-161.31,0c-4.52,0-7-2.1-7.1-5.84-.07-3.95,2.43-6.11,7.21-6.11H433.82c13.85,0,20.86-7.07,20.86-21C454.69,397.53,454.68,392.69,454.68,387.52Z"/><path class="cls-1" d="M275.14,266.46c-1.1,1.54-2.05,3.43-3.5,4.77s-3.38,2.07-5.1,3.07c-5.21,3.05-5.16,7.69.12,10.78,9.87,5.79,10,6.38,4.18,16.44-2.81,4.84-5.57,9.72-8.43,14.53-2.55,4.28-5.36,5-9.66,2.69a30.55,30.55,0,0,1-4.19-2.44c-2.38-1.85-4.35-1.66-7-.16s-2.42,3.37-2.42,5.57c0,11.57-.28,11.84-12,11.84-5.61,0-11.22,0-16.83,0-5,0-7.06-2-7.12-6.94,0-1.62,0-3.25,0-4.87,0-5.94-4.25-8.38-9.41-5.42-10,5.74-10.56,5.6-16.35-4.41-2.8-4.85-5.65-9.68-8.4-14.56-2.52-4.46-1.72-7.34,2.67-10a42.88,42.88,0,0,1,3.9-2.21c2.38-1.12,3.8-2.38,3.81-5.54s-1.75-4.22-3.94-5.46c-9.53-5.39-9.79-6.39-4.33-15.84,2.86-5,5.71-9.93,8.62-14.86,2.65-4.48,5.45-5.23,9.93-2.77,1.41.78,2.8,1.61,4.21,2.41,5,2.85,9.28.41,9.29-5.26,0-11.89.16-12,12.13-12,5.48,0,11,0,16.45,0s7.31,2,7.34,7.49c0,1.37,0,2.75,0,4.12.07,2.12-.55,4.21,2.22,5.67s4.67,1.58,7.38-.05c9.61-5.83,10.39-5.52,16,4.25,2.81,4.85,5.65,9.68,8.4,14.56A50.13,50.13,0,0,1,275.14,266.46Zm-48,55c0-2.32.13-4.31,0-6.27-.34-4.08,1.44-6.48,5.24-8a27.7,27.7,0,0,0,7.07-4.08c3.15-2.5,6.13-2.93,9.53-.65,1.7,1.14,3.59,2,5.55,3.07l5.76-10.08c-2.27-1.33-4.17-2.49-6.12-3.57-3.15-1.74-4-4.36-3.66-7.85a43,43,0,0,0,0-8.86c-.37-3.51.59-6.09,3.74-7.82,2-1.11,4-2.37,6.08-3.63l-5.91-10c-2.08,1.18-3.85,2.07-5.5,3.16-3.24,2.13-6.14,1.87-9.25-.49A37.38,37.38,0,0,0,231.9,252c-3.43-1.49-5.08-3.74-4.8-7.51.16-2.17,0-4.37,0-6.53h-12c0,2.26-.13,4.36,0,6.43.31,3.94-1.46,6.22-5.06,7.7a32.93,32.93,0,0,0-7.37,4.29c-3.22,2.47-6.23,2.67-9.56.39-1.61-1.1-3.42-1.92-5.36-3-2,3.45-3.83,6.65-5.82,10.08,2.15,1.26,4,2.43,6,3.49,3.3,1.8,4.24,4.5,3.79,8.15a35.46,35.46,0,0,0,0,8.49c.45,3.68-.62,6.32-3.88,8.11-1.95,1.06-3.83,2.22-5.91,3.44,2,3.48,3.87,6.67,5.86,10.12,2-1.12,3.78-2,5.4-3.08,3.35-2.3,6.35-2,9.55.49a32.5,32.5,0,0,0,7.38,4.26c3.63,1.49,5.29,3.85,5,7.76-.16,2.07,0,4.16,0,6.38Z"/><path class="cls-1" d="M364.82,339.55c17.7,0,35.4,0,53.1,0,2.91,0,5.51.82,6.2,3.66a8.43,8.43,0,0,1-1,6.14c-.89,1.3-3.38,2.1-5.17,2.11q-53.1.17-106.2.07c-4.39,0-6.88-2.32-6.8-6.13.09-3.61,2.55-5.8,6.74-5.81Q338.27,339.52,364.82,339.55Z"/><path class="cls-1" d="M143.27,411.39a6,6,0,1,1,6-5.78A5.83,5.83,0,0,1,143.27,411.39Z"/><path class="cls-1" d="M167.23,411.39a6,6,0,1,1,6-5.78A5.84,5.84,0,0,1,167.23,411.39Z"/><path class="cls-1" d="M406.62,411.39a6,6,0,1,1,6.13-5.64A5.86,5.86,0,0,1,406.62,411.39Z"/><path class="cls-1" d="M436.7,405.3a6,6,0,1,1-5.9-5.86A5.83,5.83,0,0,1,436.7,405.3Z"/><path class="cls-1" d="M221.29,297.61a18,18,0,1,1,17.8-18.12A17.81,17.81,0,0,1,221.29,297.61Zm-.19-23.9a6,6,0,1,0,6,6A6.27,6.27,0,0,0,221.1,273.71Z"/><circle class="cls-2" cx="287" cy="287" r="250"/></svg>