<svg id="Capa_1" data-name="Capa 1" xmlns="http://www.w3.org/2000/svg" xmlns:xlink="http://www.w3.org/1999/xlink" viewBox="0 0 558.57 558.57"><defs><style>.cls-1{fill:#fff;}.cls-2{fill:url(#Degradado_sin_nombre_4);}.cls-3{fill:url(#Degradado_sin_nombre_4-2);}.cls-4{fill:url(#Degradado_sin_nombre_4-3);}.cls-5{fill:url(#Degradado_sin_nombre_4-4);}.cls-6{fill:url(#Degradado_sin_nombre_4-5);}.cls-7{fill:url(#Degradado_sin_nombre_4-6);}</style><linearGradient id="Degradado_sin_nombre_4" x1="102.86" y1="290.78" x2="455.71" y2="290.78" gradientUnits="userSpaceOnUse"><stop offset="0" stop-color="#004b87"/><stop offset="1" stop-color="#003462"/></linearGradient><linearGradient id="Degradado_sin_nombre_4-2" x1="234.86" y1="94.88" x2="323.81" y2="94.88" xlink:href="#Degradado_sin_nombre_4"/><linearGradient id="Degradado_sin_nombre_4-3" x1="251.17" y1="114.52" x2="307.47" y2="114.52" xlink:href="#Degradado_sin_nombre_4"/><linearGradient id="Degradado_sin_nombre_4-4" x1="266.75" y1="133.94" x2="291.65" y2="133.94" xlink:href="#Degradado_sin_nombre_4"/><linearGradient id="Degradado_sin_nombre_4-5" x1="227.53" y1="248.32" x2="330.95" y2="248.32" xlink:href="#Degradado_sin_nombre_4"/><linearGradient id="Degradado_sin_nombre_4-6" x1="256.24" y1="248.31" x2="308.85" y2="248.31" xlink:href="#Degradado_sin_nombre_4"/></defs><circle class="cls-1" cx="279.29" cy="279.29" r="250"/><path class="cls-2" d="M182.7,388.68c-5.59-4.73-6.95-10.31-7-16.77-.06-8.7-.12-17.53-1.64-26.05-2-11.43-8.93-20.48-17.55-28.08a10,10,0,0,1-3.76-9,132.28,132.28,0,0,0,0-14.36c-.22-5.78,1.93-10.41,6-14.39,5.91-5.77,11.71-11.65,17.53-17.51,5-5,5.37-11.55,1-15.89-4.22-4.19-10.78-3.77-15.63,1.07-9.57,9.54-19.09,19.16-28.72,28.65A9.87,9.87,0,0,0,129.8,284c.09,15.56,0,31.12,0,46.68a28.09,28.09,0,0,1-8.06,20.09c-3.45,3.64-7,7.16-10.69,10.88l-8.24-8.84c2.87-2.74,6-5.8,9.24-8.77a19.29,19.29,0,0,0,6.28-15c-.07-15.2.1-30.4-.09-45.6-.07-6.05,1.64-11.22,6.3-14.94,4.37-3.48,5.43-7.6,5.38-13-.26-28.84-.13-57.69-.12-86.54,0-11.05,7.12-18.22,18.1-18.23H410.44c11,0,18.18,7.13,18.19,18.14q0,45.42-.06,90.85c0,2.48.56,4.34,2.48,5.91a48.89,48.89,0,0,1,3.84,3.78,17.46,17.46,0,0,1,5.26,12.89c-.08,15.56,0,31.12,0,46.68,0,5.95,1.81,11,6.21,15.08,3.22,3,6.34,6.12,9.4,9.1l-8.34,8.61c-4.45-4.68-9-9.07-13.08-13.91s-5.69-10.65-5.67-17c.06-15.44,0-30.88.07-46.32a10.61,10.61,0,0,0-3.35-8.28Q410.87,262,396.63,247.51c-3.47-3.5-7.47-4.76-12.07-3-7,2.65-8.72,11.47-3.25,17.15q8.83,9.18,18,18c4.4,4.24,6.63,9.15,6.37,15.34-.24,5.49.07,11-.14,16.51a7.51,7.51,0,0,1-1.8,4.3c-2.51,2.88-5.45,5.38-8,8.24-8.52,9.6-12.71,20.93-13.08,33.69-.12,4.31,0,8.62,0,12.93,0,9.68-.38,10.75-6.35,18,3.6,3.63,6.82,7.81,10.93,10.72,3.14,2.21,7.33,3.18,11.21,4,3,.62,6.19.17,9.31.12a24.64,24.64,0,0,1,16.39,5.28c5.07,4.13,9.62,8.89,14.33,13.31L430,430.74c-3.23-3.36-6.39-6.61-9.49-9.91a18.45,18.45,0,0,0-14.12-5.89,113.94,113.94,0,0,1-11.84-.14,27.48,27.48,0,0,1-16.82-8c-4.36-4.28-8.57-8.7-13-12.88a7,7,0,0,0-4.28-1.84q-81.15-.14-162.3,0a7.45,7.45,0,0,0-4.56,2c-4.3,4-8.33,8.26-12.52,12.37-5.81,5.71-12.8,9.22-21,8.41-11.64-1.16-20.89,2.4-27.91,11.74-1.08,1.43-2.25,2.79-3.51,4.35L120.44,422c7.28-7.06,13.53-16.34,25.18-18.05a82.47,82.47,0,0,1,12.88-.44,19.7,19.7,0,0,0,15.41-6.32C176.6,394.31,179.57,391.69,182.7,388.68ZM164.51,185.26v47.19a10.44,10.44,0,0,0,1.26,0c10.44-1.59,19.51,2.82,24,11.67s2.78,18.55-4.53,26c-3.61,3.67-6.93,7.73-11,10.83-8.18,6.26-11.34,14.05-10.05,24.25.7,5.5.88,6.32,6.56,6.32H387.59c.72,0,1.44,0,2.16,0,2.88,0,4.38-1.52,4.4-4.4,0-3.95.38-7.94-.12-11.83a13.63,13.63,0,0,0-3-7.21c-5.92-6.42-12.38-12.33-18.39-18.67-5.87-6.18-7.9-13.58-5.26-21.84s8.36-13.57,17-15.06c3.07-.53,6.32-.09,9.56-.09V185.26Zm251.78,65.86.86-.46V170.4c0-6.43-1.88-8.27-8.37-8.27H149.53c-6.27,0-8.19,1.89-8.2,8.08q0,38.78,0,77.56c0,1,.14,2,.28,3.95,3.31-3.48,5.92-6.43,8.78-9.12a7.35,7.35,0,0,0,2.49-5.92c-.11-19.63-.06-39.26-.06-58.89v-3.94H405.65V178q0,29.63,0,59.24c0,1.24.12,2.81.85,3.64C409.65,244.38,413,247.71,416.29,251.12Zm-228.8,118c-.7,9.77.77,11.37,10.09,11.37h137.5c9.57,0,19.15,0,28.72,0,5.23,0,7.32-2.18,7.38-7.47,0-1.26,0-2.53,0-3.89Zm34.45-11.86h51.27V323.2H221.94Zm63.2,0h51.27V323H285.14Zm-97.75,0h22.72v-34H176.85A64.68,64.68,0,0,1,187.39,357.23Zm161.05-34.12v34.11h22.68c.2-12.43,4-23.54,10.49-34.11Z"/><path class="cls-3" d="M315.35,107.71c-21.47-20.18-52.7-18.66-72.48.39l-8-8c22.62-24,64.44-25.25,88.95.08Z"/><path class="cls-4" d="M299.37,124.26c-11.37-9.86-26.6-11.55-40.54.13l-7.66-7.87c13.3-15.32,41.45-16.33,56.3,0Z"/><path class="cls-5" d="M266.75,133.14c7.59-7.28,17.39-7.27,24.9-.1-1.89,1.75-4.18,3.24-5.58,5.32-2.18,3.23-4.5,1-6.84.85-2.16-.18-4.37,2.72-6.57-.6C271.26,136.5,268.87,135.05,266.75,133.14Z"/><path class="cls-6" d="M279,300c-28.22,0-51.44-23.11-51.46-51.24,0-29.08,22.82-52.18,51.6-52.18A51.71,51.71,0,1,1,279,300Zm.42-91.92A40.58,40.58,0,0,0,239,248.52c0,21.73,18.29,40,40,40a40.49,40.49,0,0,0,40.36-40.4C319.34,226.29,301.13,208.08,279.41,208.11Z"/><path class="cls-7" d="M256.26,248.21c0-6.1-.06-12.19,0-18.28.11-8.94,9.3-14.54,17-10q15.43,9,30.34,19c7,4.67,6.91,14.35-.17,19-9.85,6.5-19.86,12.8-30,18.77-7.9,4.62-17.08-1-17.16-10.17C256.22,260.39,256.26,254.3,256.26,248.21Zm11.71-18v36.27l29-18.16Z"/></svg>