<svg id="Capa_1" data-name="Capa 1" xmlns="http://www.w3.org/2000/svg" viewBox="0 0 558.57 558.57"><defs><style>.cls-1{fill:aqua;}.cls-2{fill:none;stroke:aqua;stroke-miterlimit:10;stroke-width:22px;}</style></defs><path class="cls-1" d="M446.05,136v250.8c-3.6,10.27-11,13.84-21.63,13.72-29.09-.33-58.19-.11-87.28-.11h-4.2c3.49,7,6.74,13.33,9.79,19.76.9,1.88,2,2.39,4,2.36,5.75-.1,11.51-.18,17.26.08,8.61.39,15.56,8,15.49,16.64-.07,8.93-7.44,16.57-16.3,16.57q-83.87.07-167.73,0c-8.88,0-16.24-7.54-16.38-16.49A16.71,16.71,0,0,1,194.8,422.6c4.12-.19,8.31-.53,12.36,0,5.73.77,8.86-1.28,10.89-6.66,2-5.2,4.84-10.05,7.55-15.52h-4.07q-45.43,0-90.86,0c-10.82,0-18.15-7.41-18.15-18.21q0-121,0-242a21.09,21.09,0,0,1,.49-4.82c1.66-7.06,6.68-10.82,13.17-13.06H432.37A19.65,19.65,0,0,1,446.05,136ZM123.63,355.37h311.3V142.44c0-7.19-1.83-9-9.1-9H133c-7.72,0-9.41,1.67-9.41,9.33V355.37Zm0,11.83v12.63c0,7.59,1.59,9.19,9.11,9.19H425.8c1.09,0,2.18,0,3.26,0,3-.17,5.28-1.75,5.47-4.61.36-5.67.11-11.37.11-17.16Zm103.75,55H331.19c-3.32-6.66-6.52-12.89-9.53-19.22a3.9,3.9,0,0,0-4.17-2.64c-8.45.15-16.91.06-25.37.06-17,0-34.05,0-51.07.05-1.13,0-2.88.4-3.29,1.18C234.23,408.32,230.93,415.11,227.38,422.23Zm52.28,11.47H198.3a23.68,23.68,0,0,0-2.92.05,5.31,5.31,0,0,0-4.81,5.87c.22,3.5,2.62,5.14,7.62,5.14H360.26a14.44,14.44,0,0,0,3.55-.28,5.09,5.09,0,0,0,4.18-5.72,5.24,5.24,0,0,0-5-5c-1-.09-2,0-2.93,0Z"/><path class="cls-1" d="M350.86,212.07c-3.77-25.37-25.58-38.83-49.37-38.94,0,1.79.07,3.6,0,5.39-.25,5.33-3.8,9.93-9.1,10.22a242.28,242.28,0,0,1-26,0c-5.45-.28-9.07-4.94-9.28-10.4-.06-1.7,0-3.42,0-5.12-20-.41-44.73,10.56-49.45,38.64.67.32,1.4.72,2.15,1,10.79,4.6,16.31,16,13.07,27A22.35,22.35,0,0,1,179.08,232c.69-9,5.43-15.45,13.75-18.94,2.44-1,3.58-2.08,4.11-4.83a56.08,56.08,0,0,1,21.18-34.37c.33-.26.63-.56,1.29-1.16h-40c0,1.28,0,2.63,0,4-.15,7.86-4.54,12.37-12.32,12.47q-10.1.14-20.19,0c-7.77-.12-12.16-4.7-12.17-12.53,0-6.84,0-13.68,0-20.52s4.74-11.57,11.71-11.61,13.67,0,20.51,0c7.78,0,12.26,4.44,12.45,12.27,0,1.28,0,2.57,0,4.14h77.71c0-1.94-.06-3.85,0-5.75a10.81,10.81,0,0,1,10.61-10.62q11.57-.21,23.12,0a10.82,10.82,0,0,1,10.64,10.6c.08,1.83,0,3.67,0,5.78H379.2c0-1.62-.06-3.2,0-4.78.34-7.24,4.87-11.61,12.08-11.64,6.95,0,13.9,0,20.85,0s11.68,4.69,11.73,11.6,0,14.11,0,21.17c0,6.75-4.14,11.5-10.85,11.78-7.59.32-15.21.31-22.79,0-6.6-.26-10.64-4.71-11-11.39-.09-1.61,0-3.23,0-5h-40c.76.7,1.22,1.19,1.75,1.61a57.53,57.53,0,0,1,21.11,35.53,4.09,4.09,0,0,0,2.23,2.54c9.93,3.94,16.3,13.52,15.11,23-1.38,11.11-8.94,18.76-20,20.3C349.43,257,339,250,336,239.88a22.19,22.19,0,0,1,11.46-26.31C348.48,213.05,349.59,212.62,350.86,212.07ZM290.27,156H268.41v21.58h21.86Zm-122.52,21.7V155.91H146.18v21.75Zm223-.11h21.66V155.89H390.79ZM190.54,233.49a10.93,10.93,0,1,0,21.85.2,10.93,10.93,0,1,0-21.85-.2Zm166.6-10.92a10.72,10.72,0,0,0-11,10.82,10.93,10.93,0,1,0,21.86.08A10.71,10.71,0,0,0,357.14,222.57Z"/><path class="cls-1" d="M279.1,344.59c-6.08,0-12.18.33-18.23-.08-8.39-.57-15.15-7.31-14.7-15.7.42-7.72-2.14-13.53-7.27-18.83-2.4-2.48-4.32-5.43-6.49-8.14-10.24-12.78-11.85-30-3.55-44.14,9.64-16.45,19.68-32.68,29.6-49,2.93-4.81,7.25-7.95,12.89-8.34a114,114,0,0,1,16.53.14A14.81,14.81,0,0,1,299.54,208c10.36,16.92,21.19,33.59,30.69,51,7.95,14.57,6.32,29.28-3.91,42.68-3.88,5.09-8,10-11.81,15.13a10.86,10.86,0,0,0-1.78,4.95c-.32,2.46,0,5-.18,7.48A16,16,0,0,1,298,344.47c-6.26.42-12.58.08-18.87.08ZM286,211l-1,.83c0,12.58,0,25.15.09,37.72,0,.9,1.27,2,2.22,2.61,5.83,3.49,8.85,8.65,8.7,15.33-.18,8.43-6.42,14.87-15.08,16.12-7.21,1.05-14.93-3.93-17.47-11.27a16.35,16.35,0,0,1,7.74-20c2-1.09,2.38-2.31,2.37-4.31-.07-10.74,0-21.48,0-32.23v-4.11l-.9-.66c-1.52,1.17-3.54,2-4.48,3.55-10.16,16.52-20.54,32.93-30,49.83-5.65,10.08-4.47,20.5,2.69,29.86Q246.77,302,253,309.58a4.74,4.74,0,0,0,3.15,1.62q23.1.15,46.22,0a4.67,4.67,0,0,0,3.18-1.54q6.23-7.53,12.15-15.28c7.39-9.72,8.28-20.35,2.36-30.75-9.37-16.47-19.46-32.54-29.4-48.68C289.63,213.31,287.59,212.32,286,211ZM257.12,322.62c0,2-.06,3.61,0,5.23.16,3.37,2.2,5.54,5.53,5.56q16.6.12,33.22,0a5.24,5.24,0,0,0,5.49-4.92c.19-1.9,0-3.83,0-5.88Zm22.05-50.39a5.37,5.37,0,0,0,.38-10.73,5.21,5.21,0,0,0-5.61,5.35A5.14,5.14,0,0,0,279.17,272.23Z"/><circle class="cls-2" cx="279.29" cy="279.29" r="250"/></svg>