<svg id="Capa_1" data-name="Capa 1" xmlns="http://www.w3.org/2000/svg" xmlns:xlink="http://www.w3.org/1999/xlink" viewBox="0 0 558.57 558.57"><defs><style>.cls-1{fill:#fff;}.cls-2{fill:url(#Degradado_sin_nombre_4);}.cls-3{fill:url(#Degradado_sin_nombre_4-2);}.cls-4{fill:url(#Degradado_sin_nombre_4-3);}.cls-5{fill:url(#Degradado_sin_nombre_4-4);}.cls-6{fill:url(#Degradado_sin_nombre_4-5);}.cls-7{fill:url(#Degradado_sin_nombre_4-6);}.cls-8{fill:url(#Degradado_sin_nombre_4-7);}.cls-9{fill:url(#Degradado_sin_nombre_4-8);}.cls-10{fill:url(#Degradado_sin_nombre_4-9);}.cls-11{fill:url(#Degradado_sin_nombre_4-10);}.cls-12{fill:url(#Degradado_sin_nombre_4-11);}.cls-13{fill:url(#Degradado_sin_nombre_4-12);}.cls-14{fill:url(#Degradado_sin_nombre_4-13);}.cls-15{fill:url(#Degradado_sin_nombre_4-14);}.cls-16{fill:url(#Degradado_sin_nombre_4-15);}</style><linearGradient id="Degradado_sin_nombre_4" x1="100.32" y1="279.48" x2="453.95" y2="279.48" gradientUnits="userSpaceOnUse"><stop offset="0" stop-color="#004b87"/><stop offset="1" stop-color="#003462"/></linearGradient><linearGradient id="Degradado_sin_nombre_4-2" x1="351.9" y1="349.35" x2="424.3" y2="349.35" xlink:href="#Degradado_sin_nombre_4"/><linearGradient id="Degradado_sin_nombre_4-3" x1="364.32" y1="371.71" x2="412.09" y2="371.71" xlink:href="#Degradado_sin_nombre_4"/><linearGradient id="Degradado_sin_nombre_4-4" x1="426.42" y1="206.86" x2="455.45" y2="206.86" xlink:href="#Degradado_sin_nombre_4"/><linearGradient id="Degradado_sin_nombre_4-5" x1="418.81" y1="182.57" x2="440.08" y2="182.57" xlink:href="#Degradado_sin_nombre_4"/><linearGradient id="Degradado_sin_nombre_4-6" x1="434.54" y1="233.19" x2="459.97" y2="233.19" xlink:href="#Degradado_sin_nombre_4"/><linearGradient id="Degradado_sin_nombre_4-7" x1="376" y1="393.76" x2="400.12" y2="393.76" xlink:href="#Degradado_sin_nombre_4"/><linearGradient id="Degradado_sin_nombre_4-8" x1="172.5" y1="129.74" x2="184.45" y2="129.74" xlink:href="#Degradado_sin_nombre_4"/><linearGradient id="Degradado_sin_nombre_4-9" x1="196.45" y1="129.73" x2="208.4" y2="129.73" xlink:href="#Degradado_sin_nombre_4"/><linearGradient id="Degradado_sin_nombre_4-10" x1="232.38" y1="177.69" x2="250.36" y2="177.69" xlink:href="#Degradado_sin_nombre_4"/><linearGradient id="Degradado_sin_nombre_4-11" x1="286.22" y1="177.67" x2="304.25" y2="177.67" xlink:href="#Degradado_sin_nombre_4"/><linearGradient id="Degradado_sin_nombre_4-12" x1="262.25" y1="171.65" x2="274.31" y2="171.65" xlink:href="#Degradado_sin_nombre_4"/><linearGradient id="Degradado_sin_nombre_4-13" x1="208.97" y1="192.29" x2="226.39" y2="192.29" xlink:href="#Degradado_sin_nombre_4"/><linearGradient id="Degradado_sin_nombre_4-14" x1="310.16" y1="192.92" x2="328.83" y2="192.92" xlink:href="#Degradado_sin_nombre_4"/><linearGradient id="Degradado_sin_nombre_4-15" x1="130.55" y1="213.58" x2="172.21" y2="213.58" xlink:href="#Degradado_sin_nombre_4"/></defs><circle class="cls-1" cx="279.29" cy="279.29" r="250"/><path class="cls-2" d="M381.47,435.69c-3.45,14.41-16.35,23.64-31.88,23.55q-87.57-.57-175.15,0c-17.71.14-33.15-13.91-31.94-32.24.33-5.08.05-10.2.05-15.84h-4.14c-10.22,0-20.45,0-30.68,0-5,0-7.09-2.05-7.09-7q0-29,0-58c0-4.74,2.09-6.83,6.83-6.84,10.36,0,20.71,0,31.07,0h4V335q0-27.51,0-55c0-4.09,2.4-6.54,6.07-6.49,3.5.06,5.75,2.47,5.88,6.32,0,.88,0,1.75,0,2.62v56.69h11.79V259.2c-6.37.77-12.73,2.19-19.09,2.2-23.57,0-44.38-19.21-46.64-41.83-2.69-26.95,15.27-48.55,38.58-53,3-.58,3.46-1.75,3.43-4.35-.1-10.85-.07-21.7,0-32.56a29.68,29.68,0,0,1,29.91-29.89q47.34-.06,94.69,0c4.53,0,7,2.1,7.11,5.83.09,3.94-2.43,6.09-7.19,6.13H175c-13.3,0-20.48,7.24-20.49,20.62,0,10.23,0,20.46,0,30.69,0,2.08.41,3.12,2.75,3.44a82.84,82.84,0,0,1,9,2.18c.09-1.1.24-2.13.26-3.17a17.73,17.73,0,0,1,18.16-17.82c9.24,0,18.47,0,27.7,0,5.67,0,7.69-1.91,8.06-7.43.6-9,8.22-16.48,17.21-16.49q51.64-.11,103.29,0c9.45,0,17.17,8,17.19,17.62,0,21.46,0,42.92,0,64.38v5c4-2.32,7.56-4.24,10.95-6.43.68-.45,1-1.92,1-2.93.05-23.82.14-47.65,0-71.48-.07-10.6-8-18.09-18.79-18.13-18.71-.08-37.43,0-56.14,0-1,0-2,0-3,0a5.82,5.82,0,0,1-5.85-6,5.66,5.66,0,0,1,5.84-6c21,0,41.93-.33,62.88.12,14.35.32,26.94,14,27,28.49.13,20.08,0,40.17,0,60.25a9.79,9.79,0,0,0,.83,4.54c2.92-3.58,6-7.07,8.73-10.76,1.86-2.48,3.6-4.85,7.18-4.33s4.67,3.25,5.71,6.17q11.31,31.8,22.73,63.56c1,2.88,1.61,5.54-.69,8s-5.05,2-8,1.21c-12.95-3.53-27.95-4.18-37.34-1.62,2.13,4.11,4.27,8.12,6.29,12.18,5.95,11.9-1,24.78-14.12,26.4-4.31.53-8.13-.86-15.11-5.58v21.88c1.23-.54,2.26-1,3.31-1.45,21-8.64,41.31-7.34,60.89,4.23,4.33,2.56,5.47,5.87,3.42,9.2s-5.46,3.67-9.81,1.09c-32.6-19.29-72.82-1.74-80.86,35.29-6.48,29.86,15.06,60.21,45.33,63.85,29.51,3.55,54.83-14.69,60.4-43.82,2.52-13.25-.06-25.75-6.95-37.35a14.08,14.08,0,0,1-1.78-3.66,5.65,5.65,0,0,1,3.15-6.87c2.73-1.42,5.94-.49,7.82,2.36A62.87,62.87,0,0,1,453,358c5.76,35.73-16.4,68.18-51.86,75.71C394.9,435.06,388.35,435,381.47,435.69Zm-35.91-14.78,0-1.63a12.72,12.72,0,0,1-1.54-1.06c-29.41-27.77-29.25-70.46.27-98.33a6.8,6.8,0,0,0,1.82-4.46c.13-15.22.08-30.44.07-45.66,0-1-.1-1.95-.18-3.32-8.4,3.15-16.18,1.86-23.66-2.91-1.33,19.34-9.42,34.57-24.27,46.28a10.63,10.63,0,0,0,1.22,1c8.55,4.5,12.6,12.3,10.62,20.49-2.14,8.86-9.13,14-19,14H235.08a17,17,0,0,0-3.35.12c-3.18.65-5.24,2.61-5.23,5.89s2.11,5.22,5.27,5.86a17.9,17.9,0,0,0,3.36.11h50.52c12.53,0,12.69.16,12.58,12.73-.16,18.72-15.91,34.86-34.31,35.16-20.45.33-36.8-14.53-37.46-34.19a4,4,0,0,0-2.54-3.92c-6.49-3.54-10-9.12-9.36-16.51.36-3.91,2.21-7.69,3.58-12.17A17.4,17.4,0,0,1,215,322.73c1.59-6.22,5.94-10,11.78-12.77l-3.85-3.28c-21.78-18.51-27-52-11.94-76.07,2.44-3.89,5.85-5,9.07-3,3,1.91,3.53,5.32,1.36,9.2-.43.76-.87,1.52-1.28,2.29a47.55,47.55,0,0,0,12.07,59.38c3.57,2.85,7.48,5.2,6.12,10.59h6c-.45-18-5.53-34.07-15.75-48.53-3-4.27-2.93-6.63.27-10.75A17.53,17.53,0,0,1,251,245c3.15,1.71,5.35,1.87,8.31-.55,5.24-4.26,12.6-4.54,17.64-.18,3.87,3.35,7,3.29,10.87.77,3-1.9,6.13-2.46,8.83.43s1.58,5.82-.09,8.89c-3.76,6.87-7.8,13.65-10.78,20.86-4.46,10.79-5.81,22.25-5.43,34h6c-.36-3.65.53-6.37,3.48-8.65C304.57,289.07,311,274,308.83,255.34c-2.58-22.14-22.74-40.53-44.95-41.1a49.72,49.72,0,0,0-26.48,6.49c-4.48,2.56-8.75,1-9.75-3.48-.8-3.54,1.24-5.56,4-7.23,21-12.85,49.22-11.11,68.13,4.87,6,5,10.75,11.48,16.13,17.33,3.48-6.92,10.44-10.27,18.13-12.65,3.2-1,6.29-2.35,9.5-3.32,2-.61,2.69-1.56,2.68-3.71-.08-23.2,0-46.4-.07-69.61,0-4.93-2.4-7.2-7.49-7.2q-49.39,0-98.8,0c-5.06,0-7.15,2.1-7.49,7.23a17.78,17.78,0,0,1-17.77,16.7c-8,.05-16,0-24,0-11.55,0-12.08.63-12.22,12.29a8.22,8.22,0,0,0,2.89,6.74c20.5,19.38,20.32,50.7-.37,70.09a7.1,7.1,0,0,0-2.51,5.77c.08,26.95.05,53.89.06,80.84,0,1.21.1,2.42.16,3.93,3.82,0,7.42,0,11,0,4.68.05,6.77,2.15,6.77,6.91q0,29,0,58c0,4.89-2.12,6.89-7.15,6.92-3.56,0-7.13,0-10.8,0,0,1.93,0,3.3,0,4.67.11,5,2.38,7.3,7.41,7.3q76.53,0,153.06-.08C341.15,423.06,343.35,421.66,345.56,420.91Zm-191-9.59c0,5.13,0,9.86,0,14.59,0,14.19,6.95,21.21,21,21.21H349.09c1.25,0,2.5,0,3.74-.05,8.72-.64,16-7.17,16.27-14.4l-13.69-5.82c-3.73,5-8.45,8.26-14.82,8.26q-78.36,0-156.72,0a17.64,17.64,0,0,1-17.36-17.46c0-2.07,0-4.15,0-6.33Zm-41.9-198.06a36.28,36.28,0,0,0,36.08,36.23c19.38,0,35.68-16.34,35.74-35.81a36.23,36.23,0,0,0-35.89-36C129.13,177.58,112.72,193.85,112.62,213.26Zm71.67,145.36c-10.53,9-20.47,17.53-30.43,26-4.31,3.68-6.35,3.67-10.75-.08q-12.81-10.92-25.57-21.9c-1.45-1.24-2.94-2.45-4.76-4V399h71.51ZM396,196.76a99.1,99.1,0,0,1-40.61,28.13l8.05,22.38c16.05-5.77,32.17-6.52,49.11-4.25C406.92,227.32,401.54,212.29,396,196.76ZM240.84,255.05l-.53,1a98.28,98.28,0,0,1,16.12,53.1h11.91A96.11,96.11,0,0,1,279.05,260c-2.85-1.87-5.62-3.49-8.17-5.41-1.95-1.46-3.51-1.36-5.32.15-5.95,5-12.28,5.22-19.05,1.58C244.87,255.47,242.74,255.46,240.84,255.05ZM286.1,369.5H238.52c.5,13.42,10.91,23.7,23.78,23.7S285.56,383,286.1,369.5Zm-23.8-48.14c-9.72,0-19.45-.06-29.17,0-4,0-6.77,2.67-6.7,6.05s2.73,5.84,6.52,5.86c19.58.07,39.15.12,58.72-.1a8,8,0,0,0,5.53-3c2.86-4-.5-8.75-6.1-8.8C281.5,321.3,271.9,321.36,262.3,321.36ZM123,351.38l25.52,21.85L174,351.38ZM343.89,229l-10.06,3.55c-.58.21-1.17.41-1.74.66A11.68,11.68,0,0,0,325,245.52a11.29,11.29,0,0,0,9.37,10.18c6.44,1.28,11.45-2.89,17.57-4.26Zm14,33.24c3.07,5.82,5.9,11.32,8.88,16.74,1.64,3,4.48,3.64,7.37,2.42s4.4-3.83,3.12-6.7c-2.49-5.59-5.54-10.94-8.41-16.47l-8.12,2.88C360,261.39,359.18,261.73,357.92,262.23Z"/><path class="cls-3" d="M388.34,339.28a63.22,63.22,0,0,1,31.43,8.15c4,2.23,5.5,5.56,3.88,8.82-1.71,3.44-5.3,4.14-9.66,1.85q-25.9-13.61-51.81,0c-4.27,2.23-7.55,1.66-9.41-1.62s-.61-6.65,3.76-9.07A63,63,0,0,1,388.34,339.28Z"/><path class="cls-4" d="M412.09,372.73c0,6-4.23,8.63-8.65,6.86a76.75,76.75,0,0,0-9.35-3.56c-7.35-1.89-14.3-.3-20.85,3.28-2.44,1.32-5.09,1.55-6.88-.5a9.08,9.08,0,0,1-2-5.9c.09-1.48,1.71-3.4,3.16-4.19,13.58-7.46,27.33-7.51,40.93-.12C410.23,369.58,411.35,371.86,412.09,372.73Z"/><path class="cls-5" d="M448,197.78c4.38.19,6.37,1.78,7.15,4.55s-.12,5.54-2.81,6.64q-9.12,3.75-18.56,6.71c-2.9.9-5.42-.54-6.73-3.4s-.76-5.77,1.76-6.92C435.47,202.33,442.4,200,448,197.78Z"/><path class="cls-6" d="M423.72,193.84c-1.42-1.15-3.63-2.12-4.36-3.75s-.81-4.59.21-5.87a92.49,92.49,0,0,1,11-11.63c2.22-2,5.2-1.6,7.48.61s2.72,5.15.82,7.45a147.7,147.7,0,0,1-11.07,11.6C427,193,425.59,193.15,423.72,193.84Z"/><path class="cls-7" d="M452.13,240c-4.17-.56-8.37-1-12.52-1.72a5.91,5.91,0,0,1-5.05-6.33,6,6,0,0,1,6.36-5.53c4.69.32,9.38.87,14,1.65a6,6,0,0,1,4.93,7.16C459.24,238.52,456.51,240.16,452.13,240Z"/><path class="cls-8" d="M388.05,386.59a75.65,75.65,0,0,1,8.75,3,5.93,5.93,0,0,1-4.53,10.92,10.85,10.85,0,0,0-8.53,0,5.92,5.92,0,0,1-4.3-11A78.68,78.68,0,0,1,388.05,386.59Z"/><path class="cls-9" d="M184.45,129.63a6,6,0,1,1-5.89-5.87A5.85,5.85,0,0,1,184.45,129.63Z"/><path class="cls-10" d="M208.4,129.56a6,6,0,1,1-6-5.8A5.85,5.85,0,0,1,208.4,129.56Z"/><path class="cls-11" d="M239.86,165.7c.79.67,2.85,1.74,3.88,3.44a113.7,113.7,0,0,1,5.89,11.6c1.6,3.48.5,6.68-2.58,8.25s-6.37.51-8.16-2.82c-2.11-3.92-4.16-7.9-5.94-12C231.06,169.85,234,165.58,239.86,165.7Z"/><path class="cls-12" d="M304.25,172.16a10.08,10.08,0,0,1-.57,2.05c-2,4.12-3.95,8.28-6.16,12.29a6,6,0,0,1-10.69-5.37c1.89-4.17,4-8.26,6.13-12.31a5.6,5.6,0,0,1,6.94-2.92C302.67,166.67,304.18,168.72,304.25,172.16Z"/><path class="cls-13" d="M274.26,171.84c0,2.11.13,4.23,0,6.34a5.77,5.77,0,0,1-5.95,5.44,5.67,5.67,0,0,1-5.92-5.45c-.16-4.35-.17-8.71,0-13a5.64,5.64,0,0,1,5.93-5.43,5.73,5.73,0,0,1,5.94,5.44C274.39,167.35,274.26,169.6,274.26,171.84Z"/><path class="cls-14" d="M214.11,183c2,1,3.44,1.46,4.51,2.38a66.87,66.87,0,0,1,6.08,6.06,6,6,0,0,1-8.54,8.47c-2.22-2-4.68-3.95-6.18-6.44a8.35,8.35,0,0,1-.62-6.45C210,185.3,212.44,184.3,214.11,183Z"/><path class="cls-15" d="M328.83,189.37c-1,1.94-1.46,3.41-2.39,4.48a72,72,0,0,1-6,6.07,6,6,0,1,1-8.42-8.64c2-2.19,3.95-4.66,6.44-6.14a8.28,8.28,0,0,1,6.43-.55C326.54,185.25,327.52,187.69,328.83,189.37Z"/><path class="cls-16" d="M130.57,213.44c0-4.74,0-9.48,0-14.21.07-5.48,4.22-8.18,9.16-5.78,9.74,4.72,19.45,9.49,29,14.6a7.54,7.54,0,0,1,3.48,5.47,7.42,7.42,0,0,1-3.38,5.5c-9.64,5.17-19.46,10-29.33,14.75-4.74,2.29-8.83-.47-8.91-5.75C130.51,223.16,130.57,218.3,130.57,213.44Zm12.25-4.9v10.05l10-5Z"/></svg>