<svg id="Capa_1" data-name="Capa 1" xmlns="http://www.w3.org/2000/svg" xmlns:xlink="http://www.w3.org/1999/xlink" viewBox="0 0 552.29 552.29"><defs><style>.cls-1{fill:#fff;}.cls-2{fill:url(#Degradado_sin_nombre_4);}.cls-3{fill:url(#Degradado_sin_nombre_4-2);}.cls-4{fill:url(#Degradado_sin_nombre_4-3);}.cls-5{fill:url(#Degradado_sin_nombre_4-4);}.cls-6{fill:url(#Degradado_sin_nombre_4-5);}.cls-7{fill:url(#Degradado_sin_nombre_4-6);}.cls-8{fill:url(#Degradado_sin_nombre_4-7);}.cls-9{fill:url(#Degradado_sin_nombre_4-8);}.cls-10{fill:url(#Degradado_sin_nombre_4-9);}.cls-11{fill:url(#Degradado_sin_nombre_4-10);}.cls-12{fill:url(#Degradado_sin_nombre_4-11);}.cls-13{fill:url(#Degradado_sin_nombre_4-12);}</style><linearGradient id="Degradado_sin_nombre_4" x1="154.7" y1="298" x2="397.52" y2="298" gradientUnits="userSpaceOnUse"><stop offset="0" stop-color="#004b87"/><stop offset="1" stop-color="#003462"/></linearGradient><linearGradient id="Degradado_sin_nombre_4-2" x1="116.13" y1="333.48" x2="139.58" y2="333.48" xlink:href="#Degradado_sin_nombre_4"/><linearGradient id="Degradado_sin_nombre_4-3" x1="88.01" y1="268.98" x2="113.44" y2="268.98" xlink:href="#Degradado_sin_nombre_4"/><linearGradient id="Degradado_sin_nombre_4-4" x1="438.89" y1="268.99" x2="464.28" y2="268.99" xlink:href="#Degradado_sin_nombre_4"/><linearGradient id="Degradado_sin_nombre_4-5" x1="115.66" y1="134.77" x2="139.37" y2="134.77" xlink:href="#Degradado_sin_nombre_4"/><linearGradient id="Degradado_sin_nombre_4-6" x1="88.05" y1="199.16" x2="113.46" y2="199.16" xlink:href="#Degradado_sin_nombre_4"/><linearGradient id="Degradado_sin_nombre_4-7" x1="438.81" y1="199.13" x2="464.2" y2="199.13" xlink:href="#Degradado_sin_nombre_4"/><linearGradient id="Degradado_sin_nombre_4-8" x1="413.04" y1="333.39" x2="436.55" y2="333.39" xlink:href="#Degradado_sin_nombre_4"/><linearGradient id="Degradado_sin_nombre_4-9" x1="412.93" y1="134.97" x2="436.79" y2="134.97" xlink:href="#Degradado_sin_nombre_4"/><linearGradient id="Degradado_sin_nombre_4-10" x1="282.39" y1="179.74" x2="353.03" y2="179.74" xlink:href="#Degradado_sin_nombre_4"/><linearGradient id="Degradado_sin_nombre_4-11" x1="199.37" y1="179.81" x2="269.82" y2="179.81" xlink:href="#Degradado_sin_nombre_4"/><linearGradient id="Degradado_sin_nombre_4-12" x1="180.58" y1="282.58" x2="218.82" y2="282.58" xlink:href="#Degradado_sin_nombre_4"/></defs><circle class="cls-1" cx="276.14" cy="276.14" r="250"/><path class="cls-2" d="M218.5,425.87c-4.06,0-7.77.05-11.48,0-4.64-.07-7.57-2.58-7.63-6.45s2.85-6.44,7.48-6.63c1.87-.07,3.74,0,5.61,0h5.76c1-16-.22-31.34-6.09-46.1a97.72,97.72,0,0,0-21-32.88c-17.77-18.07-29.6-39.26-34.42-64.23a120.08,120.08,0,0,1-1.36-35.35,21.71,21.71,0,0,0,0-5.58c-2.63-16.67,2.89-29.9,16.76-39.49a4.11,4.11,0,0,0,2.07-4.58c-3-20.94,11.86-41.78,33.12-45.39,5-.85,7.6-2.79,10.09-7.26,11.05-19.89,37.14-25.3,55.61-12,1,.72,2,1.45,3.09,2.26,6.21-5,13-8.34,20.93-9.24a38.31,38.31,0,0,1,39.37,21.93c1.14,2.46,2.36,3.53,5.16,3.71,17.65,1.18,34.26,17.26,36.29,34.89.23,2,1,4.11.5,5.93-1.54,6,1.18,9.28,5.75,13.07,11.1,9.22,15,21.53,12.75,35.89-.52,3.36.25,6.92.43,10.4q2.81,54.7-35.36,94c-19.08,19.67-28.42,43.21-28.25,70.57,0,3,0,5.94,0,9.46,3.83,0,7.4,0,11,0,5.16.07,8.26,2.66,8.14,6.72s-3.11,6.32-8.1,6.37c-3.24,0-6.48,0-9.73.05a10,10,0,0,0-1.28.27c0,3.43,0,7,0,10.56,0,11.66-5.87,18.67-17.21,20.84a3.78,3.78,0,0,0-2.52,2.05c-4.65,14.89-16.32,20.71-30.29,23.05a46.31,46.31,0,0,1-30.76-5.15c-7-3.89-12.19-9.34-14.53-17.27a4.77,4.77,0,0,0-3.17-2.71c-10-1.69-16.63-9.27-16.73-19.41C218.47,434.19,218.5,430.22,218.5,425.87Zm12.83-32.35h89.48c.48-3.58.81-6.93,1.38-10.24,4.13-23.81,14.94-44.13,32-61.23A100.72,100.72,0,0,0,374,293.66c8.84-18.77,12.41-38.43,9.79-59.44H249.23c-3.5,0-7,.06-10.48,0-4.51-.09-7.54-2.84-7.47-6.65s2.86-6.33,7.32-6.4c8.85-.12,17.72,0,26.57-.06,1.33,0,2.67-.11,4.36-.19,0-6-.23-11.71.11-17.4.13-2.17,1-4.94,2.55-6.19s4.44-1.44,6.47-.94c3,.73,4,3.57,4,6.5.06,6,0,11.9,0,18H384.37c.41-9.55-5.83-18.89-15.2-23-5.33-2.35-6.41-4.48-5-9.88,5.18-19.67-8.3-37-28.62-36.83-6.45.06-7.39-.78-9.39-7.11-3.07-9.72-9.63-16-19.64-18-9.36-1.83-17.51,1-24,8.13-4.75,5.23-8.16,5.24-12.9,0-6.46-7.15-14.61-10-24-8.13-9.86,1.92-16.41,8.06-19.55,17.59-2.32,7-2.77,7.5-10.24,7.47a28.55,28.55,0,0,0-28.18,35.75c1.74,7,1.07,8.36-5.34,11.31-8.95,4.13-14.91,13.34-14.51,22.89h4c8.86,0,17.72-.07,26.58,0,4.77.06,7.41,2.61,7.35,6.64s-2.86,6.39-7.57,6.42c-8.61,0-17.22,0-25.83,0h-3.9c0,9.37-.92,18.31.17,27,3.06,24.25,13.83,44.9,30.87,62.48C218.3,343.08,229.07,366.27,231.33,393.52Zm.12,13.14c0,10.34-.06,20.29,0,30.23,0,5.79,2.19,7.83,8,7.83q36.65,0,73.29,0c5.81,0,8-2,8-7.8.07-9.22,0-18.45,0-27.67a18.06,18.06,0,0,0-.36-2.59Zm20,51.29c4.21,8.77,15.94,13.57,29.17,12.14C290.58,469,300,463.14,300.27,458Z"/><path class="cls-3" d="M121.05,343.82c-1.35-1.15-4.07-2.39-4.65-4.29-.64-2.07-.12-5.66,1.35-7A67.85,67.85,0,0,1,130.3,324c2.85-1.6,5.92-.79,7.9,2.05,1.82,2.63,2,5.87-.45,7.82-4.34,3.46-9.2,6.27-13.87,9.3A12.34,12.34,0,0,1,121.05,343.82Z"/><path class="cls-4" d="M105.68,261.29c4.35,0,7,2.16,7.66,5.39a6.31,6.31,0,0,1-4.25,7.07c-4.68,1.2-9.45,2.14-14.23,2.87a6.25,6.25,0,0,1-6.66-4.83c-.73-3.36.66-6.56,3.94-7.49C96.9,263,101.81,262.13,105.68,261.29Z"/><path class="cls-5" d="M446.73,261.31c3.85.83,8.64,1.64,13.28,2.94,3.35.94,4.79,4,4.09,7.37a6.2,6.2,0,0,1-6.86,5c-4.54-.71-9.06-1.62-13.51-2.72a6.26,6.26,0,0,1-4.76-7.05C439.53,263.42,442.27,261.19,446.73,261.31Z"/><path class="cls-6" d="M139.37,137.2c.14,6-5,9.3-9.45,6.8a120.58,120.58,0,0,1-11.82-7.86,6.33,6.33,0,0,1-1.45-8.4,6.15,6.15,0,0,1,8.5-2.14,122.84,122.84,0,0,1,11.8,7.87C138.29,134.48,138.91,136.45,139.37,137.2Z"/><path class="cls-7" d="M105.35,206.7C101.68,206,97,205.18,92.46,204c-3.26-.84-4.85-3.92-4.3-7.31a5.7,5.7,0,0,1,6.32-5,118.85,118.85,0,0,1,14.6,2.76,6.12,6.12,0,0,1,4.28,7C112.7,204.79,110,206.85,105.35,206.7Z"/><path class="cls-8" d="M456.38,191.56c4.64,0,7.13,1.93,7.68,5,.63,3.44-.8,6.5-4.14,7.36a111.43,111.43,0,0,1-14.6,2.75c-3.44.41-5.52-1.86-6.34-5.11a5.92,5.92,0,0,1,4.07-7.07C447.81,193.17,452.71,192.34,456.38,191.56Z"/><path class="cls-9" d="M420.22,323.39a14.93,14.93,0,0,1,2.94,1.19c3.46,2.2,6.9,4.44,10.23,6.82s4.06,6.18,2.09,9.12-5.7,3.78-9.15,1.62-7.11-4.57-10.54-7a6,6,0,0,1-2.35-7.27C414.4,325,416.58,323.45,420.22,323.39Z"/><path class="cls-10" d="M418.65,145.35c-1.7-1.57-3.85-2.87-5-4.78a5.27,5.27,0,0,1,1.57-7,111.73,111.73,0,0,1,12.07-8.07,5.82,5.82,0,0,1,8,1.81c1.93,2.6,2.15,5.86-.24,7.83-4.18,3.46-8.93,6.23-13.49,9.21a5.87,5.87,0,0,1-2.19.32Z"/><path class="cls-11" d="M308.5,189c4.08.78,6.89.59,9.24-3.73,4.11-7.57,13.61-10.53,21.8-7.9s13.77,10.5,13.48,18.71a19.56,19.56,0,0,1-14.94,18.35,19.25,19.25,0,0,1-21.1-9.24c-.55-1-1-2-1.63-3.12-4.2,0-8.43,0-12.67,0-5,0-7.33-2.22-7.53-7.22-.14-3.37.19-6.76-.15-10.1a5.85,5.85,0,0,0-2.31-3.94c-8.31-5-12.11-13.81-9.47-22.64a19.31,19.31,0,0,1,20-13.69,19.1,19.1,0,0,1,17.48,16.28c1.25,7.84-1.76,14.19-8.21,18.79C307.9,182.83,307.84,182.75,308.5,189Zm25.2,13a6.34,6.34,0,1,0-6.3-6.08A6.35,6.35,0,0,0,333.7,202.07ZM307.83,163.8a6.17,6.17,0,1,0-6.1,6.18A6.06,6.06,0,0,0,307.83,163.8Z"/><path class="cls-12" d="M243.82,189c.34-3.8.79-6.93-3.82-9.44-7.61-4.15-10.42-13.52-7.75-21.8a19.29,19.29,0,0,1,36.92.94,19,19,0,0,1-8.86,21.5c-2.64,1.45-3.43,3.06-3.25,5.84a72.77,72.77,0,0,1,0,9.34c-.28,4.54-2.69,6.69-7.22,6.77-1.12,0-2.25.06-3.36,0-5.45-.33-9.65,0-13.52,5.72-6.4,9.55-20.14,9.5-28.13,1.31a19.17,19.17,0,0,1,1.53-28.19c8.52-7.13,21.91-5.56,27.82,4C236.65,188.89,239.13,190.21,243.82,189Zm-25.36.44a6.29,6.29,0,0,0-6,6.65,6.2,6.2,0,1,0,6-6.65Zm32.46-31.82a6.21,6.21,0,1,0,5.8,6.48A6,6,0,0,0,250.92,157.58Z"/><path class="cls-13" d="M186.89,249.22c3.57-.08,6.3,2.23,6.71,6.14,2,19.13,9.91,35.47,23.11,49.37,2.82,3,2.75,6.82.15,9.36s-6.57,2.48-9.58-.64c-15.43-15.93-24.19-35-26.66-57A6.35,6.35,0,0,1,186.89,249.22Z"/></svg>