<svg id="Capa_1" data-name="Capa 1" xmlns="http://www.w3.org/2000/svg" viewBox="0 0 548.29 548.29"><defs><style>.cls-1{fill:aqua;}.cls-2{fill:none;stroke:aqua;stroke-miterlimit:10;stroke-width:22px;}</style></defs><path class="cls-1" d="M148.2,429.41h4.44q65.57,0,131.12,0c2.56,0,4.85.29,6.3,2.7a5.54,5.54,0,0,1-4.07,8.37,23.25,23.25,0,0,1-2.77,0H143.45c-6.24,0-8-1.88-7.59-8.17.8-12.94,12.8-24.64,25.72-25.07.69,0,1.39,0,2.08,0,5.25-.21,11.5,1.32,15.57-1,10.91-6.2,22.67-11.63,30.58-22.14,4.76-6.32,8.23-15,8.26-21.23H214q-38.75,0-77.49,0c-16.4,0-28.34-12-28.35-28.39,0-25.3,0-50.61,0-75.91,0-3.14,1-5.48,4-6.43,3.7-1.13,7,1.59,7,5.8,0,8.66,0,17.33,0,26q0,25,0,49.91c0,10.93,7,17.94,18,17.94q92.55,0,185.09,0h3.45c-5.09-6-10-11.38-14.28-17.13-2.85-3.79-5.34-5.07-10.4-3.62-12.37,3.56-25.93-3.82-31.08-15.95a27.62,27.62,0,0,1,10.21-34.15c6.37-4.15,13.15-7.69,19.3-12.12a85.7,85.7,0,0,0,29-36.76,6.15,6.15,0,0,0,.53-3.55,16.7,16.7,0,0,1,23-19.59,6.81,6.81,0,0,0,1.38.24c2.41-6.38,4.84-12.8,7.25-19.21.77-2.05,1.46-4.13,2.28-6.15.92-2.32,2.6-4.31,5.13-3.76,2,.42,4.4,1.73,5.38,3.38,3,5.14,5.46,10.63,8.25,16.24,7.06-4.24,13.88-8.28,20.64-12.42,2.6-1.6,5.17-2.81,8-.76s2.44,4.86,1.79,7.85c-1.32,6.06-2.41,12.18-3.66,18.56h20.6c.05-1,.15-2.1.15-3.21q0-19.57,0-39.16c0-11.42-6.92-18.34-18.29-18.37-6.57,0-13.15,0-19.72,0-4,0-6.36-2.19-6.26-5.71.09-3.35,2.36-5.34,6.27-5.35,7.49,0,15-.08,22.48,0,14.14.16,26.53,12.47,26.55,26.68q.11,84.21,0,168.44c0,14.33-12.5,26.6-26.93,26.64-26.3.08-52.59,0-78.88,0H330c1.57,11.35,6.12,20.91,14.79,27.67,7.69,6,16.26,10.87,24.53,16.11.95.61,2.41.51,3.64.57,6.2.29,12.55-.23,18.58.92,12.08,2.3,21.22,14.27,21,26.28-.07,3.94-2,6.06-5.91,6.06q-49.47,0-98.95,0c-3.56,0-5.79-2.19-5.84-5.43-.05-3.53,2.25-5.62,6.35-5.62q43.76,0,87.53,0h4.14c-1.15-5.81-6.88-10.26-14-11a33,33,0,0,0-3.45-.1q-108.28,0-216.57,0c-7.67,0-13.72,2.54-17.34,9.64A8.54,8.54,0,0,0,148.2,429.41ZM318.58,363H229.81c-2.52,19.42-12.44,33.86-30,44H348.72C330.93,396.93,321.17,382.38,318.58,363ZM369,299.33a22.9,22.9,0,0,0-1-2.15c-3.09-5.4-6.25-10.77-9.3-16.19-1.38-2.44-1.35-4.95.67-7,1.75-1.79,4.05-2.54,6.28-1.12a11.32,11.32,0,0,1,3.39,3.75c5.05,8.53,9.89,17.19,15,25.68.93,1.54,2.65,3.32,4.21,3.55a7.16,7.16,0,0,0,5.37-2c2-2.05,1.15-4.64-.22-7Q372,259.71,350.57,222.56c-.46-.8-.86-2-1.56-2.21-1.93-.69-4.35-1.84-5.91-1.19s-2.59,3.15-3.17,5.05c-.32,1,.62,2.61,1.28,3.78,5.18,9.12,10.47,18.18,15.63,27.31,2.12,3.76.8,7.48-3,8.66-3.21,1-5.32-.6-6.85-3.22-3.52-6.05-7-12.12-10.74-18.61a103.86,103.86,0,0,1-34.76,39.14L318.13,310C341.5,301.59,341.5,301.59,369,299.33Zm-8,52.41c17.72,0,35,.23,52.29-.1,9.16-.17,15.72-7.5,15.89-16.81.13-6.7,0-13.4,0-20.1V302l-22.91-2.86c-.14,7.84-3,13.75-9.92,16.91s-13.42,1.64-19.05-3.62c-.74-.68-2.11-.68-3.12-1a6.71,6.71,0,0,0-.32.85c0,3.58,0,7.16-.05,10.74,0,4.6-1.92,6.5-6.49,6.54-3.73,0-7.46,0-12,0C362.25,336.12,363.77,343.26,361,351.74Zm22.49-95.51c1.34,5.38,4.24,7.7,9.54,6.89a47.89,47.89,0,0,1,8.3-.06c3.52.09,5.74,2.28,5.73,5.54s-2.23,5.42-5.77,5.51c-2.46.07-4.93,0-7.94,0,2.52,4.38,4.64,8.19,6.89,11.91a2.94,2.94,0,0,0,1.9,1.2c3.55.51,7.12.87,10.69,1.28l.68-.91a27.2,27.2,0,0,1-3.33-2.45c-4.56-4.5-4.34-7.4.75-11.24L424,264c-4.79-2.4-9.14-4.5-13.4-6.75-3.84-2-4.6-5.2-2.31-8.94.54-.89,1.13-1.74,1.7-2.61l14.26-21.47H403c-5.8,0-7.85-2.65-6.65-8.41.87-4.23,1.68-8.48,2.54-12.87a4.62,4.62,0,0,0-1.05.22c-4.46,2.64-8.92,5.27-13.36,7.94-5.71,3.44-8.27,2.73-11.21-3.13-1.3-2.58-2.62-5.14-4.25-8.34-2.48,6.59-4.71,12.37-6.81,18.2a3.55,3.55,0,0,0,.19,2.62c2.08,3.82,4.31,7.57,6.76,11.81,2.19-2.27,4-4.31,6-6.18,2.59-2.43,5.76-2.44,8-.21s2.31,5.45-.06,8.06c-1.7,1.88-3.57,3.61-5.36,5.41-3.33,3.33-3.32,3.57.15,7.06,3.16-1.58,6.32-3.24,9.54-4.76,3.43-1.62,6.45-.67,7.94,2.34s.36,6-3,7.75C389.47,253.3,386.46,254.73,383.48,256.23Zm-91.54,30.91c-7.79,3.63-13.33,8.55-12.93,17.66.3,6.88,3.76,11.75,10,14.46s13.76,1.18,19.07-4C302.79,306,297.45,296.69,291.94,287.14Zm25,36.8c7.26,8.56,14.17,17,21.52,25.09a8.88,8.88,0,0,0,7,2.26c5.89-1.05,7.53-7.78,3.19-12.34s-9.11-9.12-13.68-13.66C327,317.34,327,317.34,317,323.94Zm45.54-5.45v-8.25l-22.39,3.2-.24,1.23c1.79,1.28,3.5,3.49,5.39,3.65C350.93,318.8,356.67,318.49,362.51,318.49ZM429,253.87V237.49l-8.17,12.28Zm-7.05,25.85,7,7.38V274.42Z"/><path class="cls-1" d="M218.72,152.14V119.06H141.63V318.5h3.88q55.69,0,111.39,0c5.36,0,8.61,4.32,5.9,8.16a7.85,7.85,0,0,1-5.39,2.78c-6.44.34-12.91.13-19.37.13h-100c-6.27,0-7.78-1.48-7.78-7.67V153.81c-6.34,1.28-11,7.78-11,15.68-.1,10,0,20.1,0,30.15q0,17.16,0,34.31c0,4.49-1.87,6.84-5.43,6.9s-5.62-2.34-5.63-7c0-20.91.38-41.83-.13-62.73-.34-14,8.07-26.14,22.27-29.67,0-8.81,0-17.69,0-26.57,0-5.32,1.72-7,7-7H366.65c5.51,0,7.19,1.69,7.19,7.23q0,20.61,0,41.24c0,5.23-1.77,7-7.09,7q-103.61,0-207.22.09c-4.93,0-8-3.08-6.95-7,.79-3.12,3.16-4.19,6.32-4.18,18.57.07,37.13,0,55.7,0Zm143.91-33H230.08V152H362.63Z"/><path class="cls-1" d="M204.65,307.4H159.71c-5.57,0-7.27-1.67-7.28-7.12,0-6.58,0-13.16,0-19.74,0-4.41,1.94-6.39,6.26-6.39q46.34,0,92.65,0c4.31,0,6.23,2,6.25,6.41,0,6.58,0,13.16,0,19.74,0,5.32-1.74,7.09-7,7.1Q227.64,307.42,204.65,307.4Zm41.72-21.95H163.76v10.69h82.61Z"/><path class="cls-1" d="M268.68,218.71c0-5.65,0-11.31,0-17a22.13,22.13,0,0,1,44.26.11q.07,16.95,0,33.91a22.13,22.13,0,0,1-44.25-.11C268.64,230,268.68,224.36,268.68,218.71Zm11.06,0c0,5.2,0,10.39,0,15.59.07,7,4.85,12.11,11.13,12.06s10.94-5.07,11-11.86q.11-15.93,0-31.86c-.06-6.73-5-11.77-11.13-11.7s-10.89,5-11,11.84C279.68,208.12,279.74,213.43,279.74,218.74Z"/><path class="cls-1" d="M185.52,257.49c-11.92,0-22-9.72-22-21.25,0-3.92,1.86-6.27,5.16-6.46s5.47,1.83,5.92,5.74c.71,6.26,4.87,10.53,10.6,10.86,5.27.3,10.14-3.69,11.3-9.27,1.34-6.45-3.92-12.54-11.14-12.89-11-.53-19.17-7.06-21.39-17.67-1.8-8.62.81-16.11,7.62-21.67,7.16-5.83,15.31-6.81,23.65-2.84,7.8,3.72,12,10.19,12.52,18.88.23,4-1.71,6.36-5,6.64-3.47.31-5.59-1.74-6.1-5.89-.78-6.27-5-10.46-10.76-10.68a11.19,11.19,0,0,0-11.16,9.42c-1.24,6.46,4,12.37,11.34,12.72,10.53.51,18.53,6.91,21,16.83A22.06,22.06,0,0,1,185.52,257.49Z"/><path class="cls-1" d="M230.08,224.22v22.19c9,0,17.84-.11,26.68.09a7.32,7.32,0,0,1,5.06,2.11,6.13,6.13,0,0,1,.75,5.34c-.73,1.55-3,3.33-4.58,3.38-11.29.29-22.59.21-33.88.11-3.43,0-5.24-2.39-5.25-6.33q0-25.11,0-50.23c0-5,0-9.93,0-14.89,0-4.14,2-6.1,6.18-6.11q15.9-.06,31.81,0c3.89,0,6.17,2,6.26,5.36.1,3.52-2.23,5.69-6.27,5.71-8.84,0-17.69,0-26.74,0v22.19c5.26,0,10.64-.26,16,.14a7.77,7.77,0,0,1,5.25,2.95c2.33,3.47-.44,7.85-4.81,8C241.13,224.31,235.73,224.22,230.08,224.22Z"/><path class="cls-1" d="M163.48,135.35A5.53,5.53,0,1,1,158,130,5.41,5.41,0,0,1,163.48,135.35Z"/><path class="cls-1" d="M185.62,135.53a5.53,5.53,0,1,1-5.31-5.57A5.41,5.41,0,0,1,185.62,135.53Z"/><path class="cls-1" d="M202.36,141a5.54,5.54,0,1,1,5.41-5.49A5.39,5.39,0,0,1,202.36,141Z"/><path class="cls-1" d="M299.47,130c13.59,0,27.19,0,40.78,0,2.76,0,4.73,1.17,5.62,3.7a5,5,0,0,1-1.82,6.16,7.94,7.94,0,0,1-4.17,1.19q-40.77.09-81.56,0c-3.88,0-6.16-2-6.25-5.38-.08-3.52,2.23-5.68,6.27-5.69Q278.91,129.93,299.47,130Z"/><circle class="cls-2" cx="274.14" cy="274.14" r="250"/></svg>