<svg id="Capa_1" data-name="Capa 1" xmlns="http://www.w3.org/2000/svg" xmlns:xlink="http://www.w3.org/1999/xlink" viewBox="0 0 543.14 543.14"><defs><style>.cls-1{fill:#fff;}.cls-2{fill:url(#Degradado_sin_nombre_4);}.cls-3{fill:url(#Degradado_sin_nombre_4-2);}.cls-4{fill:url(#Degradado_sin_nombre_4-3);}.cls-5{fill:url(#Degradado_sin_nombre_4-4);}.cls-6{fill:url(#Degradado_sin_nombre_4-5);}.cls-7{fill:url(#Degradado_sin_nombre_4-6);}.cls-8{fill:url(#Degradado_sin_nombre_4-7);}.cls-9{fill:url(#Degradado_sin_nombre_4-8);}.cls-10{fill:url(#Degradado_sin_nombre_4-9);}</style><linearGradient id="Degradado_sin_nombre_4" x1="84.1" y1="258.16" x2="437.29" y2="258.16" gradientUnits="userSpaceOnUse"><stop offset="0" stop-color="#004b87"/><stop offset="1" stop-color="#003462"/></linearGradient><linearGradient id="Degradado_sin_nombre_4-2" x1="273.28" y1="333.86" x2="324.66" y2="333.86" xlink:href="#Degradado_sin_nombre_4"/><linearGradient id="Degradado_sin_nombre_4-3" x1="362.14" y1="333.85" x2="413.56" y2="333.85" xlink:href="#Degradado_sin_nombre_4"/><linearGradient id="Degradado_sin_nombre_4-4" x1="344.97" y1="385.92" x2="396.7" y2="385.92" xlink:href="#Degradado_sin_nombre_4"/><linearGradient id="Degradado_sin_nombre_4-5" x1="290.12" y1="385.93" x2="341.84" y2="385.93" xlink:href="#Degradado_sin_nombre_4"/><linearGradient id="Degradado_sin_nombre_4-6" x1="317.7" y1="301.74" x2="369.13" y2="301.74" xlink:href="#Degradado_sin_nombre_4"/><linearGradient id="Degradado_sin_nombre_4-7" x1="324.92" y1="347.25" x2="362.37" y2="347.25" xlink:href="#Degradado_sin_nombre_4"/><linearGradient id="Degradado_sin_nombre_4-8" x1="142.66" y1="298.5" x2="185.56" y2="298.5" xlink:href="#Degradado_sin_nombre_4"/><linearGradient id="Degradado_sin_nombre_4-9" x1="142.66" y1="320.03" x2="185.57" y2="320.03" xlink:href="#Degradado_sin_nombre_4"/></defs><circle class="cls-1" cx="271.57" cy="271.57" r="250"/><path class="cls-2" d="M334.39,436c-5.91-1.39-12-2.33-17.7-4.25-29.51-9.89-48.82-29.91-57.89-59.65-.93-3-2.11-3.85-5.16-3.83-24.9.13-49.79.08-74.69.05a17.08,17.08,0,0,1-4.8-.5,5.33,5.33,0,0,1,.51-10.31,24,24,0,0,1,4.49-.28q36.14,0,72.26,0h4.41c-.25-3.69-.48-7-.74-10.72h-4.19q-59.92,0-119.85,0c-4.17,0-7.95-.6-10-4.66a11.29,11.29,0,0,1-1.3-4.9q-.11-44.12,0-88.24c0-5.59,3.71-9.38,9.31-9.44,10-.12,19.91-.05,29.87-.05H296.08c1.27,0,2.54,0,3.82.05,3.05.17,5,1.69,5.34,4.81s-1.21,5.51-4.52,5.86c-3.88.4-7.83.09-12.05.09v20.1c6.33-.38,12.64,1.17,18.89-2,8.93-4.49,18.66-6.54,28.79-7.52V250.33c-4.39,0-8.85.06-13.31,0a14.91,14.91,0,0,1-4.77-.65,4.91,4.91,0,0,1-3.3-5.8c.39-2.58,2-4.38,4.56-4.44,6.94-.16,13.9-.26,20.83.07,3.88.18,7.12,4.35,7.24,8.52s0,8.07,0,12.39L358,261.6V230.5H109.35V357.23h4.12c13.2,0,26.41,0,39.61,0,4.53,0,6.78,1.7,7,5,.17,2.91-1.07,5-4,5.63a18.3,18.3,0,0,1-4.12.42c-14.12,0-28.25-.13-42.38.09-6.72.1-11.7-3.53-11.66-11.67.22-41.23.09-82.45.13-123.68,0-2.17-.25-3.88-2.17-5.43-1.3-1-1.91-3-2.57-4.72a8,8,0,0,1-.42-3.41c1.61-19.9-1.87-39.07-7.89-57.95-2.41-7.53.22-11.72,7.78-13.74q87.45-23.37,174.9-46.7Q305.77,91,343.9,80.8c6.2-1.64,10.92,1,12.57,7q3.75,13.69,7.29,27.43c1.42,5.47-1.05,10-6.53,11.55-14.56,4-29.18,7.87-43.77,11.79-2.49.67-4.83.66-6.7-1.46-2.08-2.36-1.72-4.84-.14-7.27-6.94-7-13.74-13.94-20.65-20.77a3.29,3.29,0,0,0-2.7-.57c-5.71,1.41-11.38,3-17.77,4.68,3.08,3,5.85,5.74,8.6,8.46s5.74,5.72,8.61,8.58c2.09,2.08,3.81,4.34,7.56,3.7,2.63-.44,4.48,1.81,4.88,4.47.47,3.07-1.18,5.23-4,6.06-6.42,1.88-12.91,3.52-19.37,5.25L154.05,181.11a4.41,4.41,0,0,0-2.22,1.29h3.82c69,0,138,.08,207.05-.11,7.42,0,12.13,4.38,11.85,11.91-.31,8.21-.08,16.44-.07,24.66,0,3.84-.69,7.34-4,9.86a3.29,3.29,0,0,0-1.1,2.33c-.07,11-.05,22-.05,32.13,8.14,4.29,16.33,7.53,23.3,12.49,29.32,20.85,42.15,49.38,37.74,85.27-.64,5.22-2.21,10.36-3.61,15.46-1.08,3.9-4.1,5.58-7.3,4.51-3-1-4.34-4-3.14-7.7,5-15.51,5.85-31.2.79-46.72-9.73-29.86-30.05-48.72-61.15-53.66-34.1-5.42-60.76,7.72-79,36.89-17.08,27.33-13,65.58,8.84,89.29,18.49,20.08,41.39,28.65,68.39,25.11,20.75-2.72,37.58-12.84,50.42-29.47,1.34-1.73,2.53-3.6,3.94-5.28,2.25-2.66,5.2-3.11,7.67-1.31a5.1,5.1,0,0,1,1.14,7.65,227.53,227.53,0,0,1-16.14,18.51c-4,3.95-8.95,6.89-14.07,10.73h3.93c13.08,0,26.17,0,39.25,0,4.93,0,7.74,2.56,6.78,6.51-.41,1.68-2.19,3-3.34,4.53Zm-48.7-154.45H130.93v53.57H256.36l1.79-9.55H202.07a23.45,23.45,0,0,1-3.46-.11,4.94,4.94,0,0,1-4.56-4.48c-.38-2.72.64-4.87,3.27-5.8a14.61,14.61,0,0,1,4.76-.65c19,0,38,0,57-.07,1.15,0,2.9-.23,3.33-1,1.73-2.92,3.05-6.09,4.66-9.47H202.36a33.43,33.43,0,0,1-3.47-.08,5,5,0,0,1-4.84-4.57c-.39-2.89.8-5,3.65-5.87a15.79,15.79,0,0,1,4.44-.53c23.27,0,46.54,0,69.81-.07a6.31,6.31,0,0,0,4-1.2C279.23,288.63,282.21,285.25,285.69,281.56ZM206.5,270h70.58V250.57H206.5Zm-75.64,0h64.07V250.57H130.86Zm115.79-125C239.79,138,233.4,131.5,227,125.06c-.52-.52-1.47-1.13-2-1-6.05,1.52-12.06,3.18-18.51,4.92,6.89,6.88,13.3,13.35,19.81,19.73a3.5,3.5,0,0,0,2.71.91C234.72,148.21,240.46,146.6,246.65,144.93Zm-94.39,74.34c6.66,0,12.66.09,18.66-.1.92,0,2.09-1.22,2.65-2.17,4.19-7.05,8.27-14.18,12.36-21.29a18.63,18.63,0,0,0,.89-2.24c-6.14,0-11.92-.06-17.71.07a3.73,3.73,0,0,0-2.72,1.43C161.73,202.8,157.2,210.71,152.26,219.27Zm61.33,0c6.27,0,11.9.14,17.52-.1a5.26,5.26,0,0,0,3.71-2.14c3.82-6.19,7.37-12.54,11-18.84.84-1.44,1.63-2.91,2.65-4.72-4.2,0-7.85.43-11.35-.09-6.51-1-10.31,1.42-13,7.41C221.24,207,217.34,212.78,213.59,219.27Zm61.32,0c6.22,0,11.74-.1,17.25.06a4.2,4.2,0,0,0,4.3-2.57c3.81-6.85,7.81-13.59,11.73-20.38.47-.83.83-1.72,1.4-2.91-6.3,0-12.07-.06-17.84.07A3.75,3.75,0,0,0,289,195C284.38,202.82,279.87,210.71,274.91,219.27ZM147.09,144.83c7,7,13.49,13.48,20,19.87a3,3,0,0,0,2.39.86c5.88-1.48,11.72-3.13,17.88-4.82-6.82-6.89-13.29-13.48-19.84-20a3,3,0,0,0-2.45-.71C159.3,141.5,153.54,143.1,147.09,144.83Zm216.09,48.64c-3.15,0-6.14.14-9.1,0a4.07,4.07,0,0,0-4.39,2.44c-2.65,4.88-5.51,9.63-8.28,14.44-1.64,2.86-3.25,5.73-4.94,8.69h26.71ZM95.61,158.74c2.06,7.8,4,15.47,6.18,23.1a2.37,2.37,0,0,0,2,1.2c8.07-2,16.1-4.22,24.65-6.5l-13.7-13.65C106.88,155.09,106.89,155.09,95.61,158.74ZM297.3,104.67c6.95,6.92,13.38,13.39,19.91,19.77a3.51,3.51,0,0,0,2.73.88c4.44-1,8.82-2.33,13.52-3.61-6.85-6.91-13.4-13.57-20-20.14a3.09,3.09,0,0,0-2.49-.49C306.56,102.14,302.24,103.35,297.3,104.67ZM215,153.38c-7-7-13.45-13.58-20-20.08a2.68,2.68,0,0,0-2.09-.76c-4.51,1.14-9,2.42-13.91,3.78,6.94,7,13.49,13.62,20.11,20.17a2.62,2.62,0,0,0,2.1.58C205.68,156,210.08,154.72,215,153.38Zm-95.27-1.23c6.93,7,13.43,13.52,20,20a2.59,2.59,0,0,0,2,.71c4.56-1.11,9.09-2.36,14-3.65-6.92-7-13.46-13.65-20.11-20.2a3.56,3.56,0,0,0-2.82-.4C128.6,149.67,124.42,150.88,119.76,152.15Zm154.31-14.82c-6.72-6.77-13.21-13.33-19.76-19.83a2.59,2.59,0,0,0-2.05-.73c-4.55,1.11-9.07,2.37-14.26,3.76,4.14,4.08,7.79,7.73,11.5,11.33,3.3,3.2,6.23,8.08,10.11,9,4,1,9-1.84,13.57-3A4.79,4.79,0,0,0,274.07,137.33ZM154.39,193.48c-5.21,0-9.8,0-14.38.05a2.64,2.64,0,0,0-1.91,1.05c-4.72,8-9.36,16.1-14.33,24.69,3.93,0,7.27-.27,10.54.07,3.83.4,6-.92,7.78-4.4C145.79,207.81,150.05,201,154.39,193.48Zm30.72,25.79c5.23,0,9.82,0,14.41-.05a2.68,2.68,0,0,0,1.91-1.1c4.71-8,9.35-16.11,14.27-24.65a35.13,35.13,0,0,1-5.68,0c-7.5-1.39-12.1,1.48-15.13,8.57C192.38,207.86,188.61,213.19,185.11,219.27Zm122.63,0c5.14,0,9.63.12,14.11-.09a4.34,4.34,0,0,0,2.76-2c2.66-4.32,5.15-8.76,7.68-13.16,1.93-3.35,3.83-6.71,6-10.55-5.15,0-9.63-.08-14.11.06a3.46,3.46,0,0,0-2.36,1.48C317.21,202.85,312.68,210.75,307.74,219.27ZM277,193.47c-3.22,0-5.89.34-8.44-.07-5.45-.88-8.56,1.24-10.95,6.2-3.18,6.59-7.22,12.77-11.2,19.66,5.22,0,9.8.05,14.37,0a2.63,2.63,0,0,0,1.93-1.1C267.45,210.09,272.09,202,277,193.47ZM104,218.81c4.84,1.41,8.06.41,9.75-4.2a35.12,35.12,0,0,1,2.91-5.11c3-5.17,6-10.34,9.18-15.95-6.43,0-12.29-.14-18.14.1-1.38.06-3.73-.1-3.71,2.61C104,203.76,104,211.26,104,218.81ZM346,91.64,324.94,97.3c6,6,11.56,11.63,17.16,17.23,4.41,4.41,4.42,4.41,10.52,1.69C350.47,108.21,348.3,100.16,346,91.64Z"/><path class="cls-3" d="M299.17,308.16a25.7,25.7,0,1,1-25.89,25.6A25.5,25.5,0,0,1,299.17,308.16ZM313.64,334A14.66,14.66,0,1,0,298.8,348.5,14.49,14.49,0,0,0,313.64,334Z"/><path class="cls-4" d="M362.14,333.84a25.5,25.5,0,0,1,25-25.69c14.55-.14,26.21,11,26.38,25.14a25.85,25.85,0,0,1-25.34,26.26C373.63,359.7,362.3,348.54,362.14,333.84Zm11,0a14.45,14.45,0,0,0,14.67,14.7,14.65,14.65,0,0,0,.09-29.29A14.4,14.4,0,0,0,373.17,333.79Z"/><path class="cls-5" d="M370.94,360.19c14,0,25.67,11.41,25.76,25.16a26.08,26.08,0,0,1-26.15,26.29c-13.73,0-25.61-11.86-25.58-25.43A25.84,25.84,0,0,1,370.94,360.19Zm0,11.08A14.74,14.74,0,0,0,356,385.86c0,7.92,6.78,14.63,14.92,14.72,7.8.09,14.4-6.47,14.64-14.55S379.16,371.36,370.92,371.27Z"/><path class="cls-6" d="M316.27,360.22a25.83,25.83,0,0,1,25.57,26c.05,13.72-12,25.48-26,25.38a26.1,26.1,0,0,1-25.76-26.34C290.31,371.34,302.05,360.08,316.27,360.22Zm-.11,11.06a14.77,14.77,0,0,0-15,14.52,14.94,14.94,0,0,0,14.44,14.78c8.32.05,15.28-6.74,15.15-14.79A14.67,14.67,0,0,0,316.16,371.28Z"/><path class="cls-7" d="M343.43,276a25.66,25.66,0,0,1,25.7,25.8,26,26,0,0,1-25.58,25.7c-14,.2-25.82-11.6-25.85-25.75A25.61,25.61,0,0,1,343.43,276Zm-14.69,25.53a14.67,14.67,0,1,0,29.34.13,14.67,14.67,0,0,0-29.34-.13Z"/><path class="cls-8" d="M343.3,365.94c-10.58-.4-18.68-8.84-18.37-19.14.3-9.95,9-18.49,18.66-18.24,11.07.28,19.22,8.88,18.77,19.8A18.44,18.44,0,0,1,343.3,365.94Zm.34-11.07a7.24,7.24,0,0,0,7.6-7.29,7.65,7.65,0,0,0-7.46-7.93,7.77,7.77,0,0,0-7.7,7.41A7.56,7.56,0,0,0,343.64,354.87Z"/><path class="cls-9" d="M164,304c-5.09,0-10.17.06-15.25,0-3.64-.05-6-2.18-6.06-5.29a5.44,5.44,0,0,1,5.44-5.61q15.93-.3,31.88,0a5.61,5.61,0,0,1,5.57,5.89c-.26,3-2.53,5-6,5C174.36,304.09,169.16,304,164,304Z"/><path class="cls-10" d="M164.14,325.58c-5.09,0-10.17,0-15.25,0-3.74-.05-6-2-6.22-5.12s2.26-5.8,6-5.86q15.42-.22,30.84,0c3.64.05,6.25,2.77,6.11,5.77-.15,3.18-2.59,5.19-6.53,5.23C174.07,325.62,169.1,325.58,164.14,325.58Z"/></svg>