<svg width="85" height="85" viewBox="0 0 85 85" fill="none" xmlns="http://www.w3.org/2000/svg">
<circle cx="42.5" cy="42.5" r="42.5" fill="#004B87"/>
<g clip-path="url(#clip0_48_5)">
<path d="M53.8021 17.9085C53.1584 17.7822 52.4935 17.8159 51.8659 18.0068C51.2383 18.1976 50.6672 18.5397 50.2028 19.0029L34.7405 33.5713C34.3767 33.9219 33.9484 34.1987 33.4793 34.3862L21.7297 39.0854C20.7435 39.4798 19.9545 40.2497 19.536 41.2259C19.1176 42.2021 19.1041 43.3045 19.4985 44.2907L19.6175 44.5881L15.8992 46.0752L19.4682 54.9989L23.1864 53.5119L23.3411 53.8986C23.7525 54.8598 24.5237 55.622 25.4897 56.0223C26.4557 56.4225 27.5399 56.4291 28.5107 56.0405L36.7556 63.7152C37.3125 64.2313 38.0037 64.58 38.7498 64.721C39.4958 64.8621 40.2666 64.7898 40.9735 64.5126L42.8474 63.7631C43.8253 63.3629 44.6053 62.5925 45.0177 61.6198C45.43 60.647 45.4412 59.5507 45.0489 58.5697L42.039 51.044L63.0154 51.0392C63.531 51.0383 64.0418 50.9394 64.5205 50.7478C65.2585 50.4387 65.8909 49.9221 66.341 49.2606C66.6981 48.7346 66.9249 48.1311 67.0025 47.5001C67.0801 46.869 67.0064 46.2286 66.7873 45.6317L56.6634 20.318C56.4186 19.7138 56.03 19.1785 55.5314 18.7586C55.0327 18.3387 54.4391 18.0469 53.8021 17.9085ZM32.8841 38.9372L36.7267 48.5451L27.0593 52.4115L23.2167 42.8036L32.8841 38.9372ZM41.3306 60.0568L39.4566 60.8063L32.6453 54.3869L38.1781 52.1741L41.3306 60.0568ZM41.724 47.0641C41.2986 47.0249 40.8706 47.0228 40.4449 47.0581L36.5191 37.2419C36.8636 37.0143 37.188 36.7576 37.4888 36.4746L52.9452 21.8051L63.0334 47.0295L41.724 47.0641ZM60.3097 29.1763L63.2838 36.6128C64.27 36.2184 65.059 35.4484 65.4775 34.4722C65.8959 33.496 65.9094 32.3936 65.515 31.4075C65.1206 30.4214 64.3506 29.6323 63.3744 29.2139C62.3983 28.7954 61.2958 28.7819 60.3097 29.1763Z" fill="#00FFFF"/>
</g>
<defs>
<clipPath id="clip0_48_5">
<rect width="51.2585" height="51.2585" fill="white" transform="translate(8.91599 28.6144) rotate(-21.7984)"/>
</clipPath>
</defs>
</svg>
