<svg width="86" height="60" viewBox="0 0 86 60" fill="none" xmlns="http://www.w3.org/2000/svg">
<circle cx="4" cy="56" r="4" transform="rotate(-90 4 56)" fill="#00FFFF"/>
<circle cx="4" cy="30" r="4" transform="rotate(-90 4 30)" fill="#00FFFF"/>
<circle cx="4" cy="4" r="4" transform="rotate(-90 4 4)" fill="#00FFFF"/>
<circle cx="30" cy="56" r="4" transform="rotate(-90 30 56)" fill="#00FFFF"/>
<circle cx="30" cy="30" r="4" transform="rotate(-90 30 30)" fill="#00FFFF"/>
<circle cx="30" cy="4" r="4" transform="rotate(-90 30 4)" fill="#00FFFF"/>
<circle cx="56" cy="56" r="4" transform="rotate(-90 56 56)" fill="#00FFFF"/>
<circle cx="56" cy="30" r="4" transform="rotate(-90 56 30)" fill="#00FFFF"/>
<circle cx="56" cy="4" r="4" transform="rotate(-90 56 4)" fill="#00FFFF"/>
<circle cx="82" cy="56" r="4" transform="rotate(-90 82 56)" fill="#00FFFF"/>
<circle cx="82" cy="30" r="4" transform="rotate(-90 82 30)" fill="#00FFFF"/>
<circle cx="82" cy="4" r="4" transform="rotate(-90 82 4)" fill="#00FFFF"/>
</svg>
