<svg width="119" height="50" viewBox="0 0 119 50" fill="none" xmlns="http://www.w3.org/2000/svg">
<path d="M13.88 28.8L13.88 35.76H21V42.24H13.88V49.2H7.75998V42.24H0.599976L0.599976 35.76H7.75998V28.8H13.88Z" fill="#009CE1"/>
<path d="M13.88 0.400049L13.88 7.36005L21 7.36005V13.84H13.88V20.8H7.75998V13.84H0.599976L0.599976 7.36005H7.75998V0.400049H13.88Z" fill="#009CE1"/>
<path d="M46.28 28.8V35.76H53.4V42.24H46.28V49.2H40.16V42.24H33V35.76H40.16V28.8H46.28Z" fill="#009CE1"/>
<path d="M46.28 0.400049V7.36005L53.4 7.36005V13.84H46.28V20.8H40.16V13.84H33V7.36005H40.16V0.400049H46.28Z" fill="#009CE1"/>
<path d="M78.68 28.8V35.76H85.8V42.24H78.68V49.2H72.56V42.24H65.4V35.76H72.56V28.8H78.68Z" fill="#009CE1"/>
<path d="M78.68 0.400049V7.36005L85.8 7.36005V13.84H78.68V20.8H72.56V13.84H65.4V7.36005H72.56V0.400049H78.68Z" fill="#009CE1"/>
<path d="M111.08 28.8V35.76H118.2V42.24H111.08V49.2H104.96V42.24H97.7999V35.76H104.96V28.8H111.08Z" fill="#009CE1"/>
<path d="M111.08 0.400049V7.36005L118.2 7.36005V13.84H111.08V20.8H104.96V13.84H97.7999V7.36005H104.96V0.400049H111.08Z" fill="#009CE1"/>
</svg>
