<svg width="147" height="86" viewBox="0 0 147 86" fill="none" xmlns="http://www.w3.org/2000/svg">
<circle cx="4" cy="4" r="4" fill="#00FFFF"/>
<circle cx="30" cy="4" r="4" fill="#00FFFF"/>
<circle cx="56" cy="4" r="4" fill="#00FFFF"/>
<circle cx="4" cy="30" r="4" fill="#00FFFF"/>
<circle cx="30" cy="30" r="4" fill="#00FFFF"/>
<circle cx="56" cy="30" r="4" fill="#00FFFF"/>
<circle cx="4" cy="56" r="4" fill="#00FFFF"/>
<circle cx="30" cy="56" r="4" fill="#00FFFF"/>
<circle cx="56" cy="56" r="4" fill="#00FFFF"/>
<circle cx="4" cy="82" r="4" fill="#00FFFF"/>
<circle cx="30" cy="82" r="4" fill="#00FFFF"/>
<circle cx="56" cy="82" r="4" fill="#00FFFF"/>
<circle cx="91" cy="4" r="4" fill="#009CE1"/>
<circle cx="117" cy="4" r="4" fill="#009CE1"/>
<circle cx="143" cy="4" r="4" fill="#009CE1"/>
<circle cx="91" cy="30" r="4" fill="#009CE1"/>
<circle cx="117" cy="30" r="4" fill="#009CE1"/>
<circle cx="143" cy="30" r="4" fill="#009CE1"/>
<circle cx="91" cy="56" r="4" fill="#009CE1"/>
<circle cx="117" cy="56" r="4" fill="#009CE1"/>
<circle cx="143" cy="56" r="4" fill="#009CE1"/>
<circle cx="91" cy="82" r="4" fill="#009CE1"/>
<circle cx="117" cy="82" r="4" fill="#009CE1"/>
<circle cx="143" cy="82" r="4" fill="#009CE1"/>
</svg>
