<svg width="49" height="118" viewBox="0 0 49 118" fill="none" xmlns="http://www.w3.org/2000/svg">
<path d="M20.4 13.28H13.44V20.4H6.96V13.28H0V7.16H6.96V0H13.44V7.16H20.4V13.28Z" fill="#00FFFF"/>
<path d="M48.8 13.28H41.84V20.4H35.36V13.28H28.4V7.16H35.36V0H41.84V7.16H48.8V13.28Z" fill="#00FFFF"/>
<path d="M20.4 45.68H13.44V52.8H6.96V45.68H0V39.56H6.96V32.4H13.44V39.56H20.4V45.68Z" fill="#00FFFF"/>
<path d="M48.8 45.68H41.84V52.8H35.36V45.68H28.4V39.56H35.36V32.4H41.84V39.56H48.8V45.68Z" fill="#00FFFF"/>
<path d="M20.4 78.0801H13.44V85.2001H6.96V78.0801H0V71.96H6.96V64.8H13.44V71.96H20.4V78.0801Z" fill="#00FFFF"/>
<path d="M48.8 78.0801H41.84V85.2001H35.36V78.0801H28.4V71.96H35.36V64.8H41.84V71.96H48.8V78.0801Z" fill="#00FFFF"/>
<path d="M20.4 110.48H13.44V117.6H6.96V110.48H0V104.36H6.96V97.2H13.44V104.36H20.4V110.48Z" fill="#00FFFF"/>
<path d="M48.8 110.48H41.84V117.6H35.36V110.48H28.4V104.36H35.36V97.2H41.84V104.36H48.8V110.48Z" fill="#00FFFF"/>
</svg>
