<svg xmlns="http://www.w3.org/2000/svg" viewBox="0 0 52.04 204.08"><defs><style>.cls-1{fill:none;stroke:aqua;stroke-miterlimit:10;}</style></defs><g id="Capa_2" data-name="Capa 2"><g id="Capa_1-2" data-name="Capa 1"><path class="cls-1" d="M14,181.51v8.07h7.88v6H14v8H8.38v-8H.5v-6H8.38v-8.07Z"/><path class="cls-1" d="M14,145.31v8.07h7.88v6H14v8H8.38v-8H.5v-6H8.38v-8.07Z"/><path class="cls-1" d="M14,109.11v8.06h7.88v6H14v8H8.38v-8H.5v-6H8.38v-8.06Z"/><path class="cls-1" d="M14,72.91V81h7.88v6H14v8H8.38V87H.5V81H8.38V72.91Z"/><path class="cls-1" d="M14,36.7v8.07h7.88v6H14v8H8.38v-8H.5v-6H8.38V36.7Z"/><path class="cls-1" d="M14,.5V8.57h7.88v6H14v8H8.38v-8H.5v-6H8.38V.5Z"/><path class="cls-1" d="M43.66,181.51v8.07h7.88v6H43.66v8H38v-8H30.12v-6H38v-8.07Z"/><path class="cls-1" d="M43.66,145.31v8.07h7.88v6H43.66v8H38v-8H30.12v-6H38v-8.07Z"/><path class="cls-1" d="M43.66,109.11v8.06h7.88v6H43.66v8H38v-8H30.12v-6H38v-8.06Z"/><path class="cls-1" d="M43.66,72.91V81h7.88v6H43.66v8H38V87H30.12V81H38V72.91Z"/><path class="cls-1" d="M43.66,36.7v8.07h7.88v6H43.66v8H38v-8H30.12v-6H38V36.7Z"/><path class="cls-1" d="M43.66.5V8.57h7.88v6H43.66v8H38v-8H30.12v-6H38V.5Z"/></g></g></svg>